M48
; DRILL file {KiCad 6.0.11+dfsg-1~bpo11+1} date Thu 18 Apr 2024 10:27:07 PM JST
; FORMAT={-:-/ absolute / inch / decimal}
; #@! TF.CreationDate,2024-04-18T22:27:07+09:00
; #@! TF.GenerationSoftware,Kicad,Pcbnew,6.0.11+dfsg-1~bpo11+1
; #@! TF.FileFunction,Plated,1,2,PTH
FMAT,2
INCH
; #@! TA.AperFunction,Plated,PTH,ViaDrill
T1C0.0118
; #@! TA.AperFunction,Plated,PTH,ComponentDrill
T2C0.0236
; #@! TA.AperFunction,Plated,PTH,ComponentDrill
T3C0.0394
%
G90
G05
T1
X2.8315Y-4.2705
X2.832Y-4.478
X2.86Y-3.69
X2.886Y-4.367
X2.8984Y-4.13
X2.905Y-3.902
X2.9236Y-4.466
X2.9445Y-4.2705
X2.9484Y-4.1345
X2.95Y-3.71
X2.9676Y-4.4254
X3.005Y-4.123
X3.015Y-3.735
X3.066Y-4.155
X3.075Y-3.897
X3.0897Y-4.4903
X3.135Y-3.71
T3
X2.8Y-3.845
X2.81Y-3.545
X2.81Y-3.645
X2.9Y-3.845
X2.91Y-3.545
X2.91Y-3.645
X3.0Y-3.845
X3.01Y-3.545
X3.01Y-3.645
X3.11Y-3.545
X3.11Y-3.645
T2
G00X2.7869Y-4.5442
M15
G01X2.7869Y-4.5876
M16
G05
G00X2.7869Y-4.7187
M15
G01X2.7869Y-4.7423
M16
G05
G00X3.1271Y-4.5442
M15
G01X3.1271Y-4.5876
M16
G05
G00X3.1271Y-4.7187
M15
G01X3.1271Y-4.7423
M16
G05
T0
M30
