%TF.GenerationSoftware,KiCad,Pcbnew,6.0.11+dfsg-1~bpo11+1*%
%TF.CreationDate,2024-04-18T22:27:08+09:00*%
%TF.ProjectId,pcb-interface,7063622d-696e-4746-9572-666163652e6b,rev?*%
%TF.SameCoordinates,Original*%
%TF.FileFunction,Legend,Top*%
%TF.FilePolarity,Positive*%
%FSLAX46Y46*%
G04 Gerber Fmt 4.6, Leading zero omitted, Abs format (unit mm)*
G04 Created by KiCad (PCBNEW 6.0.11+dfsg-1~bpo11+1) date 2024-04-18 22:27:08*
%MOMM*%
%LPD*%
G01*
G04 APERTURE LIST*
%ADD10C,0.150000*%
%ADD11C,0.120000*%
G04 APERTURE END LIST*
D10*
X72676047Y-117689380D02*
X72676047Y-118498904D01*
X72723666Y-118594142D01*
X72771285Y-118641761D01*
X72866523Y-118689380D01*
X73057000Y-118689380D01*
X73152238Y-118641761D01*
X73199857Y-118594142D01*
X73247476Y-118498904D01*
X73247476Y-117689380D01*
X73676047Y-118641761D02*
X73818904Y-118689380D01*
X74057000Y-118689380D01*
X74152238Y-118641761D01*
X74199857Y-118594142D01*
X74247476Y-118498904D01*
X74247476Y-118403666D01*
X74199857Y-118308428D01*
X74152238Y-118260809D01*
X74057000Y-118213190D01*
X73866523Y-118165571D01*
X73771285Y-118117952D01*
X73723666Y-118070333D01*
X73676047Y-117975095D01*
X73676047Y-117879857D01*
X73723666Y-117784619D01*
X73771285Y-117737000D01*
X73866523Y-117689380D01*
X74104619Y-117689380D01*
X74247476Y-117737000D01*
X75009380Y-118165571D02*
X75152238Y-118213190D01*
X75199857Y-118260809D01*
X75247476Y-118356047D01*
X75247476Y-118498904D01*
X75199857Y-118594142D01*
X75152238Y-118641761D01*
X75057000Y-118689380D01*
X74676047Y-118689380D01*
X74676047Y-117689380D01*
X75009380Y-117689380D01*
X75104619Y-117737000D01*
X75152238Y-117784619D01*
X75199857Y-117879857D01*
X75199857Y-117975095D01*
X75152238Y-118070333D01*
X75104619Y-118117952D01*
X75009380Y-118165571D01*
X74676047Y-118165571D01*
X75676047Y-118308428D02*
X76437952Y-118308428D01*
X77485571Y-118594142D02*
X77437952Y-118641761D01*
X77295095Y-118689380D01*
X77199857Y-118689380D01*
X77057000Y-118641761D01*
X76961761Y-118546523D01*
X76914142Y-118451285D01*
X76866523Y-118260809D01*
X76866523Y-118117952D01*
X76914142Y-117927476D01*
X76961761Y-117832238D01*
X77057000Y-117737000D01*
X77199857Y-117689380D01*
X77295095Y-117689380D01*
X77437952Y-117737000D01*
X77485571Y-117784619D01*
X71247000Y-94043500D02*
X70993000Y-94043500D01*
X71120000Y-93916500D02*
X71247000Y-94043500D01*
X71120000Y-94297500D02*
X71120000Y-93916500D01*
X70993000Y-94043500D02*
X71120000Y-93916500D01*
X71247000Y-96139000D02*
X71120000Y-96266000D01*
X70993000Y-96139000D02*
X71247000Y-96139000D01*
X71120000Y-96266000D02*
X70993000Y-96139000D01*
X71120000Y-95885000D02*
X71120000Y-96266000D01*
X70929523Y-94575380D02*
X70453333Y-94575380D01*
X70405714Y-95051571D01*
X70453333Y-95003952D01*
X70548571Y-94956333D01*
X70786666Y-94956333D01*
X70881904Y-95003952D01*
X70929523Y-95051571D01*
X70977142Y-95146809D01*
X70977142Y-95384904D01*
X70929523Y-95480142D01*
X70881904Y-95527761D01*
X70786666Y-95575380D01*
X70548571Y-95575380D01*
X70453333Y-95527761D01*
X70405714Y-95480142D01*
X71262857Y-94575380D02*
X71596190Y-95575380D01*
X71929523Y-94575380D01*
X78613000Y-97409000D02*
X78613000Y-97663000D01*
X78359000Y-97282000D02*
X78359000Y-97790000D01*
X78105000Y-97155000D02*
X78105000Y-97917000D01*
X78105000Y-97536000D02*
X78105000Y-97155000D01*
X77851000Y-97536000D02*
X78105000Y-97536000D01*
X74175904Y-99242619D02*
X74175904Y-100242619D01*
X73937809Y-100242619D01*
X73794952Y-100195000D01*
X73699714Y-100099761D01*
X73652095Y-100004523D01*
X73604476Y-99814047D01*
X73604476Y-99671190D01*
X73652095Y-99480714D01*
X73699714Y-99385476D01*
X73794952Y-99290238D01*
X73937809Y-99242619D01*
X74175904Y-99242619D01*
X70977095Y-99579133D02*
X70500904Y-99579133D01*
X71072333Y-99293419D02*
X70739000Y-100293419D01*
X70405666Y-99293419D01*
X72713666Y-106064095D02*
X72713666Y-106864095D01*
X72408904Y-106864095D01*
X72332714Y-106826000D01*
X72294619Y-106787904D01*
X72256523Y-106711714D01*
X72256523Y-106597428D01*
X72294619Y-106521238D01*
X72332714Y-106483142D01*
X72408904Y-106445047D01*
X72713666Y-106445047D01*
X71913666Y-106064095D02*
X71913666Y-106864095D01*
X71608904Y-106864095D01*
X71532714Y-106826000D01*
X71494619Y-106787904D01*
X71456523Y-106711714D01*
X71456523Y-106597428D01*
X71494619Y-106521238D01*
X71532714Y-106483142D01*
X71608904Y-106445047D01*
X71913666Y-106445047D01*
X71189857Y-106864095D02*
X70999380Y-106064095D01*
X70847000Y-106635523D01*
X70694619Y-106064095D01*
X70504142Y-106864095D01*
X69742238Y-106064095D02*
X70008904Y-106445047D01*
X70199380Y-106064095D02*
X70199380Y-106864095D01*
X69894619Y-106864095D01*
X69818428Y-106826000D01*
X69780333Y-106787904D01*
X69742238Y-106711714D01*
X69742238Y-106597428D01*
X69780333Y-106521238D01*
X69818428Y-106483142D01*
X69894619Y-106445047D01*
X70199380Y-106445047D01*
X79613095Y-99528333D02*
X79136904Y-99528333D01*
X79708333Y-99242619D02*
X79375000Y-100242619D01*
X79041666Y-99242619D01*
X76842904Y-99242619D02*
X76842904Y-100242619D01*
X76604809Y-100242619D01*
X76461952Y-100195000D01*
X76366714Y-100099761D01*
X76319095Y-100004523D01*
X76271476Y-99814047D01*
X76271476Y-99671190D01*
X76319095Y-99480714D01*
X76366714Y-99385476D01*
X76461952Y-99290238D01*
X76604809Y-99242619D01*
X76842904Y-99242619D01*
%TO.C,U1*%
X73788400Y-110310900D02*
X74013400Y-110310900D01*
X73788400Y-106960900D02*
X74088400Y-106960900D01*
X74013400Y-110310900D02*
X74013400Y-111535900D01*
X77138400Y-110310900D02*
X77138400Y-106960900D01*
X73788400Y-110310900D02*
X73788400Y-106960900D01*
X77138400Y-110310900D02*
X76838400Y-110310900D01*
X77138400Y-106960900D02*
X76838400Y-106960900D01*
D11*
%TO.C,R3*%
X79805800Y-112572141D02*
X79805800Y-112264859D01*
X79045800Y-112572141D02*
X79045800Y-112264859D01*
%TO.C,JP5*%
X70247000Y-103269000D02*
X70247000Y-100469000D01*
X70247000Y-100469000D02*
X72247000Y-100469000D01*
X72247000Y-100469000D02*
X72247000Y-103269000D01*
X72247000Y-103269000D02*
X70247000Y-103269000D01*
%TO.C,R7*%
X79784641Y-108078100D02*
X79477359Y-108078100D01*
X79784641Y-108838100D02*
X79477359Y-108838100D01*
%TO.C,R1*%
X73709800Y-112749459D02*
X73709800Y-113056741D01*
X72949800Y-112749459D02*
X72949800Y-113056741D01*
%TO.C,JP1*%
X69796200Y-103902000D02*
X72596200Y-103902000D01*
X72596200Y-103902000D02*
X72596200Y-105902000D01*
X69796200Y-105902000D02*
X69796200Y-103902000D01*
X72596200Y-105902000D02*
X69796200Y-105902000D01*
%TO.C,JP3*%
X72914000Y-100469000D02*
X74914000Y-100469000D01*
X74914000Y-103269000D02*
X72914000Y-103269000D01*
X72914000Y-103269000D02*
X72914000Y-100469000D01*
X74914000Y-100469000D02*
X74914000Y-103269000D01*
%TO.C,D1*%
X80364000Y-106083000D02*
X80364000Y-103798000D01*
X78894000Y-103798000D02*
X78894000Y-106083000D01*
X80364000Y-103798000D02*
X78894000Y-103798000D01*
%TO.C,C2*%
X73230200Y-108317520D02*
X73230200Y-108598680D01*
X72210200Y-108317520D02*
X72210200Y-108598680D01*
%TO.C,R6*%
X79477359Y-107011300D02*
X79784641Y-107011300D01*
X79477359Y-107771300D02*
X79784641Y-107771300D01*
%TO.C,R2*%
X76480400Y-112747459D02*
X76480400Y-113054741D01*
X77240400Y-112747459D02*
X77240400Y-113054741D01*
%TO.C,R5*%
X78383400Y-113054741D02*
X78383400Y-112747459D01*
X77623400Y-113054741D02*
X77623400Y-112747459D01*
%TO.C,C4*%
X71299800Y-108825520D02*
X71299800Y-109106680D01*
X70279800Y-108825520D02*
X70279800Y-109106680D01*
%TO.C,JP2*%
X77581000Y-103269000D02*
X75581000Y-103269000D01*
X75581000Y-103269000D02*
X75581000Y-100469000D01*
X75581000Y-100469000D02*
X77581000Y-100469000D01*
X77581000Y-100469000D02*
X77581000Y-103269000D01*
%TO.C,JP4*%
X80248000Y-100469000D02*
X80248000Y-103269000D01*
X80248000Y-103269000D02*
X78248000Y-103269000D01*
X78248000Y-100469000D02*
X80248000Y-100469000D01*
X78248000Y-103269000D02*
X78248000Y-100469000D01*
%TO.C,J1*%
X77530000Y-98993000D02*
X77530000Y-96333000D01*
X72390000Y-98993000D02*
X72390000Y-96333000D01*
X69790000Y-98993000D02*
X69790000Y-97663000D01*
X71120000Y-98993000D02*
X69790000Y-98993000D01*
X72390000Y-96333000D02*
X77530000Y-96333000D01*
X72390000Y-98993000D02*
X77530000Y-98993000D01*
%TO.C,C1*%
X70279800Y-112012920D02*
X70279800Y-112294080D01*
X71299800Y-112012920D02*
X71299800Y-112294080D01*
%TO.C,R8*%
X73506359Y-94743000D02*
X73813641Y-94743000D01*
X73506359Y-95503000D02*
X73813641Y-95503000D01*
%TO.C,R4*%
X78383400Y-110971941D02*
X78383400Y-110664659D01*
X77623400Y-110971941D02*
X77623400Y-110664659D01*
%TO.C,TP1*%
X80303600Y-109459800D02*
X80303600Y-110859800D01*
X80303600Y-110859800D02*
X78903600Y-110859800D01*
X78903600Y-109459800D02*
X80303600Y-109459800D01*
X78903600Y-110859800D02*
X78903600Y-109459800D01*
%TD*%
M02*
