%TF.GenerationSoftware,KiCad,Pcbnew,6.0.11+dfsg-1~bpo11+1*%
%TF.CreationDate,2024-04-18T22:27:08+09:00*%
%TF.ProjectId,pcb-interface,7063622d-696e-4746-9572-666163652e6b,rev?*%
%TF.SameCoordinates,Original*%
%TF.FileFunction,Legend,Bot*%
%TF.FilePolarity,Positive*%
%FSLAX46Y46*%
G04 Gerber Fmt 4.6, Leading zero omitted, Abs format (unit mm)*
G04 Created by KiCad (PCBNEW 6.0.11+dfsg-1~bpo11+1) date 2024-04-18 22:27:08*
%MOMM*%
%LPD*%
G01*
G04 APERTURE LIST*
%ADD10C,0.150000*%
%ADD11C,0.120000*%
G04 APERTURE END LIST*
D10*
X77501428Y-121483380D02*
X77501428Y-120483380D01*
X77501428Y-120864333D02*
X77406190Y-120816714D01*
X77215714Y-120816714D01*
X77120476Y-120864333D01*
X77072857Y-120911952D01*
X77025238Y-121007190D01*
X77025238Y-121292904D01*
X77072857Y-121388142D01*
X77120476Y-121435761D01*
X77215714Y-121483380D01*
X77406190Y-121483380D01*
X77501428Y-121435761D01*
X76691904Y-120816714D02*
X76453809Y-121483380D01*
X76215714Y-120816714D02*
X76453809Y-121483380D01*
X76549047Y-121721476D01*
X76596666Y-121769095D01*
X76691904Y-121816714D01*
X75215714Y-120483380D02*
X74644285Y-120483380D01*
X74930000Y-121483380D02*
X74930000Y-120483380D01*
X73882380Y-121483380D02*
X73882380Y-120959571D01*
X73930000Y-120864333D01*
X74025238Y-120816714D01*
X74215714Y-120816714D01*
X74310952Y-120864333D01*
X73882380Y-121435761D02*
X73977619Y-121483380D01*
X74215714Y-121483380D01*
X74310952Y-121435761D01*
X74358571Y-121340523D01*
X74358571Y-121245285D01*
X74310952Y-121150047D01*
X74215714Y-121102428D01*
X73977619Y-121102428D01*
X73882380Y-121054809D01*
X73406190Y-121483380D02*
X73406190Y-120816714D01*
X73406190Y-121007190D02*
X73358571Y-120911952D01*
X73310952Y-120864333D01*
X73215714Y-120816714D01*
X73120476Y-120816714D01*
X72787142Y-120816714D02*
X72787142Y-121483380D01*
X72787142Y-120911952D02*
X72739523Y-120864333D01*
X72644285Y-120816714D01*
X72501428Y-120816714D01*
X72406190Y-120864333D01*
X72358571Y-120959571D01*
X72358571Y-121483380D01*
%TO.C,J5*%
X68056380Y-90979666D02*
X68770666Y-90979666D01*
X68913523Y-90932047D01*
X69008761Y-90836809D01*
X69056380Y-90693952D01*
X69056380Y-90598714D01*
X68056380Y-91932047D02*
X68056380Y-91455857D01*
X68532571Y-91408238D01*
X68484952Y-91455857D01*
X68437333Y-91551095D01*
X68437333Y-91789190D01*
X68484952Y-91884428D01*
X68532571Y-91932047D01*
X68627809Y-91979666D01*
X68865904Y-91979666D01*
X68961142Y-91932047D01*
X69008761Y-91884428D01*
X69056380Y-91789190D01*
X69056380Y-91551095D01*
X69008761Y-91455857D01*
X68961142Y-91408238D01*
D11*
X70044000Y-91313000D02*
X72644000Y-91313000D01*
X70044000Y-88713000D02*
X70044000Y-91313000D01*
X72644000Y-93913000D02*
X80324000Y-93913000D01*
X70044000Y-93913000D02*
X71374000Y-93913000D01*
X70044000Y-92583000D02*
X70044000Y-93913000D01*
X72644000Y-91313000D02*
X72644000Y-93913000D01*
X80324000Y-88713000D02*
X80324000Y-93913000D01*
X70044000Y-88713000D02*
X80324000Y-88713000D01*
%TD*%
M02*
