M48
; DRILL file {KiCad 6.0.11+dfsg-1~bpo11+1} date Sat Oct 28 20:26:36 2023
; FORMAT={-:-/ absolute / inch / decimal}
; #@! TF.CreationDate,2023-10-28T20:26:36+09:00
; #@! TF.GenerationSoftware,Kicad,Pcbnew,6.0.11+dfsg-1~bpo11+1
; #@! TF.FileFunction,Plated,1,2,PTH
FMAT,2
INCH
; #@! TA.AperFunction,Plated,PTH,ViaDrill
T1C0.0118
; #@! TA.AperFunction,Plated,PTH,ComponentDrill
T2C0.0236
; #@! TA.AperFunction,Plated,PTH,ComponentDrill
T3C0.0394
%
G90
G05
T1
X5.555Y-4.24
X5.58Y-4.56
X5.6153Y-3.6747
X5.634Y-4.244
X5.635Y-4.37
X5.639Y-4.01
X5.665Y-4.335
X5.6656Y-4.4294
X5.6667Y-4.3833
X5.682Y-4.652
X5.7Y-4.042
X5.7166Y-4.228
X5.7166Y-4.29
X5.735Y-4.337
X5.7374Y-3.7396
X5.7566Y-4.0305
X5.7605Y-3.8945
X5.7608Y-4.7283
X5.7814Y-3.699
X5.7874Y-4.606
X5.8066Y-4.035
X5.819Y-3.798
X5.835Y-4.265
X5.842Y-4.718
X5.8495Y-4.4345
X5.873Y-3.687
X5.8735Y-3.8945
T3
X5.6Y-4.7
X5.6Y-4.8
X5.6Y-4.9
X5.6Y-5.0
X5.9Y-4.3
X5.9Y-4.4
X5.9Y-4.5
X5.9Y-4.7
X5.9Y-4.8
X5.9Y-4.9
X5.9Y-5.0
T2
G00X5.5779Y-3.4463
M15
G01X5.5779Y-3.4227
M16
G05
G00X5.5779Y-3.6208
M15
G01X5.5779Y-3.5774
M16
G05
G00X5.9181Y-3.4463
M15
G01X5.9181Y-3.4227
M16
G05
G00X5.9181Y-3.6208
M15
G01X5.9181Y-3.5774
M16
G05
T0
M30
