%TF.GenerationSoftware,KiCad,Pcbnew,6.0.11+dfsg-1~bpo11+1*%
%TF.CreationDate,2023-10-28T20:26:38+09:00*%
%TF.ProjectId,pcb-devboard,7063622d-6465-4766-926f-6172642e6b69,rev?*%
%TF.SameCoordinates,Original*%
%TF.FileFunction,Copper,L2,Bot*%
%TF.FilePolarity,Positive*%
%FSLAX46Y46*%
G04 Gerber Fmt 4.6, Leading zero omitted, Abs format (unit mm)*
G04 Created by KiCad (PCBNEW 6.0.11+dfsg-1~bpo11+1) date 2023-10-28 20:26:38*
%MOMM*%
%LPD*%
G01*
G04 APERTURE LIST*
%TA.AperFunction,ComponentPad*%
%ADD10O,1.000000X1.600000*%
%TD*%
%TA.AperFunction,ComponentPad*%
%ADD11O,1.000000X2.100000*%
%TD*%
%TA.AperFunction,ComponentPad*%
%ADD12R,1.700000X1.700000*%
%TD*%
%TA.AperFunction,ComponentPad*%
%ADD13O,1.700000X1.700000*%
%TD*%
%TA.AperFunction,ViaPad*%
%ADD14C,0.600000*%
%TD*%
%TA.AperFunction,Conductor*%
%ADD15C,1.000000*%
%TD*%
%TA.AperFunction,Conductor*%
%ADD16C,0.450000*%
%TD*%
%TA.AperFunction,Conductor*%
%ADD17C,0.150000*%
%TD*%
%TA.AperFunction,Conductor*%
%ADD18C,0.200000*%
%TD*%
G04 APERTURE END LIST*
D10*
%TO.P,USB1,13,SHIELD*%
%TO.N,Net-(C1-Pad2)*%
X141679200Y-87237100D03*
D11*
X150319200Y-91417100D03*
D10*
X150319200Y-87237100D03*
D11*
X141679200Y-91417100D03*
%TD*%
D12*
%TO.P,J2,1,Pin_1*%
%TO.N,VSYS*%
X142240000Y-119380000D03*
D13*
%TO.P,J2,2,Pin_2*%
%TO.N,/PIN_PA0*%
X142240000Y-121920000D03*
%TO.P,J2,3,Pin_3*%
%TO.N,/PIN_PA1*%
X142240000Y-124460000D03*
%TO.P,J2,4,Pin_4*%
%TO.N,/PIN_PA2*%
X142240000Y-127000000D03*
%TD*%
D12*
%TO.P,J3,1,Pin_1*%
%TO.N,GND*%
X149860000Y-119380000D03*
D13*
%TO.P,J3,2,Pin_2*%
%TO.N,/PIN_PA7*%
X149860000Y-121920000D03*
%TO.P,J3,3,Pin_3*%
%TO.N,/PIN_PA6*%
X149860000Y-124460000D03*
%TO.P,J3,4,Pin_4*%
%TO.N,/PIN_PA3*%
X149860000Y-127000000D03*
%TD*%
D12*
%TO.P,J1,1,Pin_1*%
%TO.N,Net-(J1-Pad1)*%
X149860000Y-109220000D03*
D13*
%TO.P,J1,2,Pin_2*%
%TO.N,Net-(J1-Pad2)*%
X149860000Y-111760000D03*
%TO.P,J1,3,Pin_3*%
%TO.N,GND*%
X149860000Y-114300000D03*
%TD*%
D14*
%TO.N,GND*%
X149174200Y-93649800D03*
X143230600Y-101854000D03*
X145669000Y-110159800D03*
X142628700Y-93337358D03*
X143891000Y-110109000D03*
X147802600Y-96469200D03*
%TO.N,VSYS*%
X143129000Y-110998000D03*
X143103600Y-107797600D03*
X149186950Y-98920250D03*
X147486500Y-102489000D03*
X146316650Y-98920250D03*
%TO.N,/PIN_PA1*%
X141732000Y-115824000D03*
X141097000Y-107696000D03*
%TO.N,/PIN_PA2*%
X148209000Y-108331000D03*
X148577300Y-112636300D03*
%TO.N,/PIN_PA7*%
X148386800Y-119837200D03*
X145200500Y-108966000D03*
X143906500Y-112506500D03*
X145200500Y-107391200D03*
%TO.N,/PIN_PA6*%
X143935000Y-111335000D03*
X147000000Y-116992400D03*
%TO.N,/PIN_PA3*%
X146324500Y-120100000D03*
X144322800Y-118160800D03*
%TO.N,/USB_UART_RX*%
X146218100Y-102374867D03*
X144780000Y-102666800D03*
%TO.N,/USB_D-*%
X145729444Y-94985856D03*
X146848700Y-93954500D03*
%TD*%
D15*
%TO.N,Net-(C1-Pad2)*%
X150319200Y-87237100D02*
X150319200Y-91417100D01*
X141679200Y-91417100D02*
X141679200Y-87237100D01*
D16*
%TO.N,VSYS*%
X143103600Y-107797600D02*
X143103600Y-106871900D01*
X143103600Y-106871900D02*
X147486500Y-102489000D01*
X149186950Y-98920250D02*
X146316650Y-98920250D01*
X143129000Y-110998000D02*
X143129000Y-118491000D01*
X143129000Y-118491000D02*
X142240000Y-119380000D01*
D17*
%TO.N,/PIN_PA1*%
X141732000Y-115824000D02*
X141732000Y-108331000D01*
X141732000Y-108331000D02*
X141097000Y-107696000D01*
%TO.N,/PIN_PA2*%
X148209000Y-112268000D02*
X148577300Y-112636300D01*
X148209000Y-108331000D02*
X148209000Y-112268000D01*
%TO.N,/PIN_PA7*%
X148386800Y-119837200D02*
X148177000Y-119837200D01*
X143900000Y-115560200D02*
X143900000Y-112513000D01*
X145200500Y-108966000D02*
X145200500Y-107391200D01*
X148177000Y-119837200D02*
X143900000Y-115560200D01*
X143900000Y-112513000D02*
X143906500Y-112506500D01*
%TO.N,/PIN_PA6*%
X145000000Y-112400000D02*
X143935000Y-111335000D01*
X145000000Y-114992400D02*
X145000000Y-112400000D01*
X147000000Y-116992400D02*
X145000000Y-114992400D01*
%TO.N,/PIN_PA3*%
X146262000Y-120100000D02*
X146324500Y-120100000D01*
X144322800Y-118160800D02*
X146262000Y-120100000D01*
%TO.N,/USB_UART_RX*%
X144780000Y-102666800D02*
X145071933Y-102374867D01*
X145071933Y-102374867D02*
X146218100Y-102374867D01*
D18*
%TO.N,/USB_D-*%
X146848700Y-93954500D02*
X146760800Y-93954500D01*
X146760800Y-93954500D02*
X145729444Y-94985856D01*
%TD*%
%TA.AperFunction,Conductor*%
%TO.N,GND*%
G36*
X151523691Y-84852207D02*
G01*
X151559655Y-84901707D01*
X151564500Y-84932300D01*
X151564500Y-128605500D01*
X151545593Y-128663691D01*
X151496093Y-128699655D01*
X151465500Y-128704500D01*
X140634500Y-128704500D01*
X140576309Y-128685593D01*
X140540345Y-128636093D01*
X140535500Y-128605500D01*
X140535500Y-126985262D01*
X141184520Y-126985262D01*
X141201759Y-127190553D01*
X141258544Y-127388586D01*
X141352712Y-127571818D01*
X141480677Y-127733270D01*
X141484357Y-127736402D01*
X141484359Y-127736404D01*
X141597017Y-127832283D01*
X141637564Y-127866791D01*
X141641787Y-127869151D01*
X141641791Y-127869154D01*
X141681342Y-127891258D01*
X141817398Y-127967297D01*
X141821996Y-127968791D01*
X142008724Y-128029463D01*
X142008726Y-128029464D01*
X142013329Y-128030959D01*
X142217894Y-128055351D01*
X142222716Y-128054980D01*
X142222719Y-128054980D01*
X142290541Y-128049761D01*
X142423300Y-128039546D01*
X142621725Y-127984145D01*
X142626038Y-127981966D01*
X142626044Y-127981964D01*
X142801289Y-127893441D01*
X142801291Y-127893440D01*
X142805610Y-127891258D01*
X142840943Y-127863653D01*
X142964135Y-127767406D01*
X142964139Y-127767402D01*
X142967951Y-127764424D01*
X143102564Y-127608472D01*
X143121231Y-127575613D01*
X143201934Y-127433550D01*
X143201935Y-127433547D01*
X143204323Y-127429344D01*
X143217882Y-127388586D01*
X143267824Y-127238454D01*
X143267824Y-127238452D01*
X143269351Y-127233863D01*
X143295171Y-127029474D01*
X143295583Y-127000000D01*
X143294138Y-126985262D01*
X148804520Y-126985262D01*
X148821759Y-127190553D01*
X148878544Y-127388586D01*
X148972712Y-127571818D01*
X149100677Y-127733270D01*
X149104357Y-127736402D01*
X149104359Y-127736404D01*
X149217017Y-127832283D01*
X149257564Y-127866791D01*
X149261787Y-127869151D01*
X149261791Y-127869154D01*
X149301342Y-127891258D01*
X149437398Y-127967297D01*
X149441996Y-127968791D01*
X149628724Y-128029463D01*
X149628726Y-128029464D01*
X149633329Y-128030959D01*
X149837894Y-128055351D01*
X149842716Y-128054980D01*
X149842719Y-128054980D01*
X149910541Y-128049761D01*
X150043300Y-128039546D01*
X150241725Y-127984145D01*
X150246038Y-127981966D01*
X150246044Y-127981964D01*
X150421289Y-127893441D01*
X150421291Y-127893440D01*
X150425610Y-127891258D01*
X150460943Y-127863653D01*
X150584135Y-127767406D01*
X150584139Y-127767402D01*
X150587951Y-127764424D01*
X150722564Y-127608472D01*
X150741231Y-127575613D01*
X150821934Y-127433550D01*
X150821935Y-127433547D01*
X150824323Y-127429344D01*
X150837882Y-127388586D01*
X150887824Y-127238454D01*
X150887824Y-127238452D01*
X150889351Y-127233863D01*
X150915171Y-127029474D01*
X150915583Y-127000000D01*
X150895480Y-126794970D01*
X150835935Y-126597749D01*
X150739218Y-126415849D01*
X150609011Y-126256200D01*
X150450275Y-126124882D01*
X150269055Y-126026897D01*
X150205855Y-126007333D01*
X150076875Y-125967407D01*
X150076871Y-125967406D01*
X150072254Y-125965977D01*
X150067446Y-125965472D01*
X150067443Y-125965471D01*
X149872185Y-125944949D01*
X149872183Y-125944949D01*
X149867369Y-125944443D01*
X149807354Y-125949905D01*
X149667022Y-125962675D01*
X149667017Y-125962676D01*
X149662203Y-125963114D01*
X149464572Y-126021280D01*
X149460288Y-126023519D01*
X149460287Y-126023520D01*
X149449428Y-126029197D01*
X149282002Y-126116726D01*
X149278231Y-126119758D01*
X149125220Y-126242781D01*
X149125217Y-126242783D01*
X149121447Y-126245815D01*
X149118333Y-126249526D01*
X149118332Y-126249527D01*
X149109585Y-126259952D01*
X148989024Y-126403630D01*
X148986689Y-126407878D01*
X148986688Y-126407879D01*
X148979955Y-126420126D01*
X148889776Y-126584162D01*
X148827484Y-126780532D01*
X148826944Y-126785344D01*
X148826944Y-126785345D01*
X148825865Y-126794970D01*
X148804520Y-126985262D01*
X143294138Y-126985262D01*
X143275480Y-126794970D01*
X143215935Y-126597749D01*
X143119218Y-126415849D01*
X142989011Y-126256200D01*
X142830275Y-126124882D01*
X142649055Y-126026897D01*
X142585855Y-126007333D01*
X142456875Y-125967407D01*
X142456871Y-125967406D01*
X142452254Y-125965977D01*
X142447446Y-125965472D01*
X142447443Y-125965471D01*
X142252185Y-125944949D01*
X142252183Y-125944949D01*
X142247369Y-125944443D01*
X142187354Y-125949905D01*
X142047022Y-125962675D01*
X142047017Y-125962676D01*
X142042203Y-125963114D01*
X141844572Y-126021280D01*
X141840288Y-126023519D01*
X141840287Y-126023520D01*
X141829428Y-126029197D01*
X141662002Y-126116726D01*
X141658231Y-126119758D01*
X141505220Y-126242781D01*
X141505217Y-126242783D01*
X141501447Y-126245815D01*
X141498333Y-126249526D01*
X141498332Y-126249527D01*
X141489585Y-126259952D01*
X141369024Y-126403630D01*
X141366689Y-126407878D01*
X141366688Y-126407879D01*
X141359955Y-126420126D01*
X141269776Y-126584162D01*
X141207484Y-126780532D01*
X141206944Y-126785344D01*
X141206944Y-126785345D01*
X141205865Y-126794970D01*
X141184520Y-126985262D01*
X140535500Y-126985262D01*
X140535500Y-124445262D01*
X141184520Y-124445262D01*
X141201759Y-124650553D01*
X141258544Y-124848586D01*
X141352712Y-125031818D01*
X141480677Y-125193270D01*
X141484357Y-125196402D01*
X141484359Y-125196404D01*
X141597017Y-125292283D01*
X141637564Y-125326791D01*
X141641787Y-125329151D01*
X141641791Y-125329154D01*
X141681342Y-125351258D01*
X141817398Y-125427297D01*
X141821996Y-125428791D01*
X142008724Y-125489463D01*
X142008726Y-125489464D01*
X142013329Y-125490959D01*
X142217894Y-125515351D01*
X142222716Y-125514980D01*
X142222719Y-125514980D01*
X142290541Y-125509761D01*
X142423300Y-125499546D01*
X142621725Y-125444145D01*
X142626038Y-125441966D01*
X142626044Y-125441964D01*
X142801289Y-125353441D01*
X142801291Y-125353440D01*
X142805610Y-125351258D01*
X142840943Y-125323653D01*
X142964135Y-125227406D01*
X142964139Y-125227402D01*
X142967951Y-125224424D01*
X143102564Y-125068472D01*
X143121231Y-125035613D01*
X143201934Y-124893550D01*
X143201935Y-124893547D01*
X143204323Y-124889344D01*
X143217882Y-124848586D01*
X143267824Y-124698454D01*
X143267824Y-124698452D01*
X143269351Y-124693863D01*
X143295171Y-124489474D01*
X143295583Y-124460000D01*
X143294138Y-124445262D01*
X148804520Y-124445262D01*
X148821759Y-124650553D01*
X148878544Y-124848586D01*
X148972712Y-125031818D01*
X149100677Y-125193270D01*
X149104357Y-125196402D01*
X149104359Y-125196404D01*
X149217017Y-125292283D01*
X149257564Y-125326791D01*
X149261787Y-125329151D01*
X149261791Y-125329154D01*
X149301342Y-125351258D01*
X149437398Y-125427297D01*
X149441996Y-125428791D01*
X149628724Y-125489463D01*
X149628726Y-125489464D01*
X149633329Y-125490959D01*
X149837894Y-125515351D01*
X149842716Y-125514980D01*
X149842719Y-125514980D01*
X149910541Y-125509761D01*
X150043300Y-125499546D01*
X150241725Y-125444145D01*
X150246038Y-125441966D01*
X150246044Y-125441964D01*
X150421289Y-125353441D01*
X150421291Y-125353440D01*
X150425610Y-125351258D01*
X150460943Y-125323653D01*
X150584135Y-125227406D01*
X150584139Y-125227402D01*
X150587951Y-125224424D01*
X150722564Y-125068472D01*
X150741231Y-125035613D01*
X150821934Y-124893550D01*
X150821935Y-124893547D01*
X150824323Y-124889344D01*
X150837882Y-124848586D01*
X150887824Y-124698454D01*
X150887824Y-124698452D01*
X150889351Y-124693863D01*
X150915171Y-124489474D01*
X150915583Y-124460000D01*
X150895480Y-124254970D01*
X150835935Y-124057749D01*
X150739218Y-123875849D01*
X150609011Y-123716200D01*
X150450275Y-123584882D01*
X150269055Y-123486897D01*
X150205855Y-123467333D01*
X150076875Y-123427407D01*
X150076871Y-123427406D01*
X150072254Y-123425977D01*
X150067446Y-123425472D01*
X150067443Y-123425471D01*
X149872185Y-123404949D01*
X149872183Y-123404949D01*
X149867369Y-123404443D01*
X149807354Y-123409905D01*
X149667022Y-123422675D01*
X149667017Y-123422676D01*
X149662203Y-123423114D01*
X149464572Y-123481280D01*
X149460288Y-123483519D01*
X149460287Y-123483520D01*
X149449428Y-123489197D01*
X149282002Y-123576726D01*
X149278231Y-123579758D01*
X149125220Y-123702781D01*
X149125217Y-123702783D01*
X149121447Y-123705815D01*
X149118333Y-123709526D01*
X149118332Y-123709527D01*
X149109585Y-123719952D01*
X148989024Y-123863630D01*
X148986689Y-123867878D01*
X148986688Y-123867879D01*
X148979955Y-123880126D01*
X148889776Y-124044162D01*
X148827484Y-124240532D01*
X148826944Y-124245344D01*
X148826944Y-124245345D01*
X148825865Y-124254970D01*
X148804520Y-124445262D01*
X143294138Y-124445262D01*
X143275480Y-124254970D01*
X143215935Y-124057749D01*
X143119218Y-123875849D01*
X142989011Y-123716200D01*
X142830275Y-123584882D01*
X142649055Y-123486897D01*
X142585855Y-123467333D01*
X142456875Y-123427407D01*
X142456871Y-123427406D01*
X142452254Y-123425977D01*
X142447446Y-123425472D01*
X142447443Y-123425471D01*
X142252185Y-123404949D01*
X142252183Y-123404949D01*
X142247369Y-123404443D01*
X142187354Y-123409905D01*
X142047022Y-123422675D01*
X142047017Y-123422676D01*
X142042203Y-123423114D01*
X141844572Y-123481280D01*
X141840288Y-123483519D01*
X141840287Y-123483520D01*
X141829428Y-123489197D01*
X141662002Y-123576726D01*
X141658231Y-123579758D01*
X141505220Y-123702781D01*
X141505217Y-123702783D01*
X141501447Y-123705815D01*
X141498333Y-123709526D01*
X141498332Y-123709527D01*
X141489585Y-123719952D01*
X141369024Y-123863630D01*
X141366689Y-123867878D01*
X141366688Y-123867879D01*
X141359955Y-123880126D01*
X141269776Y-124044162D01*
X141207484Y-124240532D01*
X141206944Y-124245344D01*
X141206944Y-124245345D01*
X141205865Y-124254970D01*
X141184520Y-124445262D01*
X140535500Y-124445262D01*
X140535500Y-121905262D01*
X141184520Y-121905262D01*
X141201759Y-122110553D01*
X141258544Y-122308586D01*
X141352712Y-122491818D01*
X141480677Y-122653270D01*
X141484357Y-122656402D01*
X141484359Y-122656404D01*
X141597017Y-122752283D01*
X141637564Y-122786791D01*
X141641787Y-122789151D01*
X141641791Y-122789154D01*
X141681342Y-122811258D01*
X141817398Y-122887297D01*
X141821996Y-122888791D01*
X142008724Y-122949463D01*
X142008726Y-122949464D01*
X142013329Y-122950959D01*
X142217894Y-122975351D01*
X142222716Y-122974980D01*
X142222719Y-122974980D01*
X142290541Y-122969761D01*
X142423300Y-122959546D01*
X142621725Y-122904145D01*
X142626038Y-122901966D01*
X142626044Y-122901964D01*
X142801289Y-122813441D01*
X142801291Y-122813440D01*
X142805610Y-122811258D01*
X142840943Y-122783653D01*
X142964135Y-122687406D01*
X142964139Y-122687402D01*
X142967951Y-122684424D01*
X143102564Y-122528472D01*
X143121231Y-122495613D01*
X143201934Y-122353550D01*
X143201935Y-122353547D01*
X143204323Y-122349344D01*
X143217882Y-122308586D01*
X143267824Y-122158454D01*
X143267824Y-122158452D01*
X143269351Y-122153863D01*
X143295171Y-121949474D01*
X143295583Y-121920000D01*
X143275480Y-121714970D01*
X143215935Y-121517749D01*
X143119218Y-121335849D01*
X142989011Y-121176200D01*
X142830275Y-121044882D01*
X142649055Y-120946897D01*
X142552774Y-120917093D01*
X142456875Y-120887407D01*
X142456871Y-120887406D01*
X142452254Y-120885977D01*
X142447446Y-120885472D01*
X142447443Y-120885471D01*
X142252185Y-120864949D01*
X142252183Y-120864949D01*
X142247369Y-120864443D01*
X142187354Y-120869905D01*
X142047022Y-120882675D01*
X142047017Y-120882676D01*
X142042203Y-120883114D01*
X141844572Y-120941280D01*
X141840288Y-120943519D01*
X141840287Y-120943520D01*
X141829428Y-120949197D01*
X141662002Y-121036726D01*
X141658231Y-121039758D01*
X141505220Y-121162781D01*
X141505217Y-121162783D01*
X141501447Y-121165815D01*
X141498333Y-121169526D01*
X141498332Y-121169527D01*
X141489585Y-121179952D01*
X141369024Y-121323630D01*
X141366689Y-121327878D01*
X141366688Y-121327879D01*
X141359955Y-121340126D01*
X141269776Y-121504162D01*
X141207484Y-121700532D01*
X141206944Y-121705344D01*
X141206944Y-121705345D01*
X141205865Y-121714970D01*
X141184520Y-121905262D01*
X140535500Y-121905262D01*
X140535500Y-120249748D01*
X141189500Y-120249748D01*
X141190448Y-120254512D01*
X141198639Y-120295692D01*
X141201133Y-120308231D01*
X141245448Y-120374552D01*
X141311769Y-120418867D01*
X141321332Y-120420769D01*
X141321334Y-120420770D01*
X141344005Y-120425279D01*
X141370252Y-120430500D01*
X143109748Y-120430500D01*
X143135995Y-120425279D01*
X143158666Y-120420770D01*
X143158668Y-120420769D01*
X143168231Y-120418867D01*
X143234552Y-120374552D01*
X143278867Y-120308231D01*
X143281362Y-120295692D01*
X143289552Y-120254512D01*
X143290500Y-120249748D01*
X143290500Y-118972256D01*
X143309407Y-118914065D01*
X143319496Y-118902252D01*
X143477528Y-118744220D01*
X143489388Y-118720944D01*
X143497494Y-118707715D01*
X143512849Y-118686581D01*
X143520919Y-118661744D01*
X143526860Y-118647402D01*
X143538719Y-118624126D01*
X143542804Y-118598335D01*
X143546430Y-118583233D01*
X143552093Y-118565804D01*
X143552094Y-118565798D01*
X143554500Y-118558393D01*
X143554500Y-118154623D01*
X143817191Y-118154623D01*
X143818106Y-118161620D01*
X143818106Y-118161621D01*
X143824620Y-118211436D01*
X143835780Y-118296779D01*
X143838621Y-118303235D01*
X143838621Y-118303236D01*
X143887350Y-118413980D01*
X143893520Y-118428003D01*
X143921538Y-118461334D01*
X143981231Y-118532349D01*
X143981234Y-118532351D01*
X143985770Y-118537748D01*
X144105113Y-118617190D01*
X144201799Y-118647396D01*
X144235225Y-118657839D01*
X144235226Y-118657839D01*
X144241957Y-118659942D01*
X144307101Y-118661136D01*
X144378241Y-118662441D01*
X144378244Y-118662441D01*
X144385299Y-118662570D01*
X144385290Y-118663071D01*
X144440616Y-118673724D01*
X144462776Y-118690392D01*
X145790951Y-120018567D01*
X145818728Y-120073084D01*
X145819807Y-120087941D01*
X145818891Y-120093823D01*
X145837480Y-120235979D01*
X145840321Y-120242435D01*
X145840321Y-120242436D01*
X145881698Y-120336471D01*
X145895220Y-120367203D01*
X145934093Y-120413448D01*
X145982931Y-120471549D01*
X145982934Y-120471551D01*
X145987470Y-120476948D01*
X145993341Y-120480856D01*
X145993342Y-120480857D01*
X146005643Y-120489045D01*
X146106813Y-120556390D01*
X146205611Y-120587256D01*
X146236925Y-120597039D01*
X146236926Y-120597039D01*
X146243657Y-120599142D01*
X146315328Y-120600456D01*
X146379945Y-120601641D01*
X146379947Y-120601641D01*
X146386999Y-120601770D01*
X146393802Y-120599915D01*
X146393804Y-120599915D01*
X146469003Y-120579413D01*
X146525317Y-120564060D01*
X146647491Y-120489045D01*
X146654903Y-120480857D01*
X146738968Y-120387982D01*
X146743700Y-120382754D01*
X146806210Y-120253733D01*
X146810375Y-120228982D01*
X146829362Y-120116124D01*
X146829362Y-120116120D01*
X146829996Y-120112354D01*
X146830147Y-120100000D01*
X146809823Y-119958082D01*
X146750484Y-119827572D01*
X146656900Y-119718963D01*
X146536595Y-119640985D01*
X146399239Y-119599907D01*
X146315997Y-119599398D01*
X146262927Y-119599074D01*
X146262926Y-119599074D01*
X146255876Y-119599031D01*
X146230054Y-119606411D01*
X146168907Y-119604224D01*
X146132843Y-119581227D01*
X144849480Y-118297864D01*
X144821703Y-118243347D01*
X144821856Y-118211436D01*
X144827661Y-118176927D01*
X144828296Y-118173154D01*
X144828447Y-118160800D01*
X144808123Y-118018882D01*
X144748784Y-117888372D01*
X144655200Y-117779763D01*
X144534895Y-117701785D01*
X144397539Y-117660707D01*
X144314297Y-117660198D01*
X144261227Y-117659874D01*
X144261226Y-117659874D01*
X144254176Y-117659831D01*
X144247399Y-117661768D01*
X144247398Y-117661768D01*
X144123109Y-117697290D01*
X144123107Y-117697291D01*
X144116329Y-117699228D01*
X143995080Y-117775730D01*
X143990413Y-117781014D01*
X143990411Y-117781016D01*
X143904844Y-117877903D01*
X143904842Y-117877905D01*
X143900177Y-117883188D01*
X143839247Y-118012963D01*
X143838162Y-118019932D01*
X143838161Y-118019935D01*
X143823480Y-118114230D01*
X143817191Y-118154623D01*
X143554500Y-118154623D01*
X143554500Y-115845901D01*
X143573407Y-115787710D01*
X143622907Y-115751746D01*
X143684093Y-115751746D01*
X143708498Y-115763584D01*
X143716263Y-115768772D01*
X143731269Y-115781085D01*
X147873721Y-119923537D01*
X147898930Y-119966679D01*
X147899780Y-119973179D01*
X147902618Y-119979630D01*
X147902619Y-119979632D01*
X147954679Y-120097947D01*
X147957520Y-120104403D01*
X147970592Y-120119954D01*
X148045231Y-120208749D01*
X148045234Y-120208751D01*
X148049770Y-120214148D01*
X148055641Y-120218056D01*
X148055642Y-120218057D01*
X148082566Y-120235979D01*
X148169113Y-120293590D01*
X148269720Y-120325021D01*
X148299225Y-120334239D01*
X148299226Y-120334239D01*
X148305957Y-120336342D01*
X148372479Y-120337562D01*
X148441424Y-120338826D01*
X148499258Y-120358797D01*
X148532309Y-120403056D01*
X148557352Y-120469857D01*
X148564059Y-120482108D01*
X148642863Y-120587256D01*
X148652744Y-120597137D01*
X148757892Y-120675941D01*
X148770145Y-120682649D01*
X148893978Y-120729072D01*
X148905967Y-120731923D01*
X148959252Y-120737711D01*
X148964586Y-120738000D01*
X149468247Y-120738000D01*
X149526438Y-120756907D01*
X149562402Y-120806407D01*
X149562402Y-120867593D01*
X149526438Y-120917093D01*
X149496198Y-120931972D01*
X149464572Y-120941280D01*
X149460288Y-120943519D01*
X149460287Y-120943520D01*
X149449428Y-120949197D01*
X149282002Y-121036726D01*
X149278231Y-121039758D01*
X149125220Y-121162781D01*
X149125217Y-121162783D01*
X149121447Y-121165815D01*
X149118333Y-121169526D01*
X149118332Y-121169527D01*
X149109585Y-121179952D01*
X148989024Y-121323630D01*
X148986689Y-121327878D01*
X148986688Y-121327879D01*
X148979955Y-121340126D01*
X148889776Y-121504162D01*
X148827484Y-121700532D01*
X148826944Y-121705344D01*
X148826944Y-121705345D01*
X148825865Y-121714970D01*
X148804520Y-121905262D01*
X148821759Y-122110553D01*
X148878544Y-122308586D01*
X148972712Y-122491818D01*
X149100677Y-122653270D01*
X149104357Y-122656402D01*
X149104359Y-122656404D01*
X149217017Y-122752283D01*
X149257564Y-122786791D01*
X149261787Y-122789151D01*
X149261791Y-122789154D01*
X149301342Y-122811258D01*
X149437398Y-122887297D01*
X149441996Y-122888791D01*
X149628724Y-122949463D01*
X149628726Y-122949464D01*
X149633329Y-122950959D01*
X149837894Y-122975351D01*
X149842716Y-122974980D01*
X149842719Y-122974980D01*
X149910541Y-122969761D01*
X150043300Y-122959546D01*
X150241725Y-122904145D01*
X150246038Y-122901966D01*
X150246044Y-122901964D01*
X150421289Y-122813441D01*
X150421291Y-122813440D01*
X150425610Y-122811258D01*
X150460943Y-122783653D01*
X150584135Y-122687406D01*
X150584139Y-122687402D01*
X150587951Y-122684424D01*
X150722564Y-122528472D01*
X150741231Y-122495613D01*
X150821934Y-122353550D01*
X150821935Y-122353547D01*
X150824323Y-122349344D01*
X150837882Y-122308586D01*
X150887824Y-122158454D01*
X150887824Y-122158452D01*
X150889351Y-122153863D01*
X150915171Y-121949474D01*
X150915583Y-121920000D01*
X150895480Y-121714970D01*
X150835935Y-121517749D01*
X150739218Y-121335849D01*
X150609011Y-121176200D01*
X150450275Y-121044882D01*
X150269055Y-120946897D01*
X150264437Y-120945467D01*
X150264431Y-120945465D01*
X150219548Y-120931571D01*
X150169551Y-120896302D01*
X150149834Y-120838381D01*
X150167927Y-120779932D01*
X150216920Y-120743281D01*
X150248824Y-120737999D01*
X150755411Y-120737999D01*
X150760751Y-120737710D01*
X150814035Y-120731922D01*
X150826020Y-120729073D01*
X150949855Y-120682649D01*
X150962108Y-120675941D01*
X151067256Y-120597137D01*
X151077137Y-120587256D01*
X151155941Y-120482108D01*
X151162649Y-120469855D01*
X151209072Y-120346022D01*
X151211923Y-120334033D01*
X151217711Y-120280748D01*
X151218000Y-120275414D01*
X151218000Y-119649680D01*
X151213878Y-119636995D01*
X151209757Y-119634000D01*
X149705000Y-119634000D01*
X149646809Y-119615093D01*
X149610845Y-119565593D01*
X149606000Y-119535000D01*
X149606000Y-119110320D01*
X150114000Y-119110320D01*
X150118122Y-119123005D01*
X150122243Y-119126000D01*
X151202319Y-119126000D01*
X151215004Y-119121878D01*
X151217999Y-119117757D01*
X151217999Y-118484589D01*
X151217710Y-118479249D01*
X151211922Y-118425965D01*
X151209073Y-118413980D01*
X151162649Y-118290145D01*
X151155941Y-118277892D01*
X151077137Y-118172744D01*
X151067256Y-118162863D01*
X150962108Y-118084059D01*
X150949855Y-118077351D01*
X150826022Y-118030928D01*
X150814033Y-118028077D01*
X150760748Y-118022289D01*
X150755414Y-118022000D01*
X150129680Y-118022000D01*
X150116995Y-118026122D01*
X150114000Y-118030243D01*
X150114000Y-119110320D01*
X149606000Y-119110320D01*
X149606000Y-118037681D01*
X149601878Y-118024996D01*
X149597757Y-118022001D01*
X148964589Y-118022001D01*
X148959249Y-118022290D01*
X148905965Y-118028078D01*
X148893980Y-118030927D01*
X148770145Y-118077351D01*
X148757892Y-118084059D01*
X148652744Y-118162863D01*
X148642863Y-118172744D01*
X148564059Y-118277892D01*
X148557351Y-118290145D01*
X148510928Y-118413978D01*
X148508077Y-118425967D01*
X148502289Y-118479252D01*
X148502000Y-118484586D01*
X148502000Y-119237748D01*
X148483093Y-119295939D01*
X148433593Y-119331903D01*
X148402397Y-119336746D01*
X148338887Y-119336358D01*
X148325227Y-119336274D01*
X148325226Y-119336274D01*
X148318176Y-119336231D01*
X148311399Y-119338168D01*
X148311398Y-119338168D01*
X148180329Y-119375628D01*
X148179597Y-119373067D01*
X148130463Y-119378321D01*
X148080867Y-119351451D01*
X144204496Y-115475080D01*
X144176719Y-115420563D01*
X144175500Y-115405076D01*
X144175500Y-112984081D01*
X144194407Y-112925890D01*
X144218182Y-112903894D01*
X144218054Y-112903740D01*
X144220930Y-112901352D01*
X144222700Y-112899715D01*
X144229491Y-112895545D01*
X144293013Y-112825367D01*
X144320968Y-112794482D01*
X144325700Y-112789254D01*
X144388210Y-112660233D01*
X144392099Y-112637121D01*
X144411362Y-112522624D01*
X144411362Y-112522620D01*
X144411996Y-112518854D01*
X144412147Y-112506500D01*
X144403339Y-112444997D01*
X144413806Y-112384715D01*
X144457707Y-112342096D01*
X144518275Y-112333422D01*
X144571343Y-112360959D01*
X144695504Y-112485120D01*
X144723281Y-112539637D01*
X144724500Y-112555124D01*
X144724500Y-114955516D01*
X144722598Y-114974829D01*
X144719103Y-114992400D01*
X144724500Y-115019532D01*
X144724500Y-115019533D01*
X144740485Y-115099895D01*
X144801376Y-115191024D01*
X144809486Y-115196443D01*
X144816267Y-115200974D01*
X144831269Y-115213285D01*
X146473633Y-116855649D01*
X146501410Y-116910166D01*
X146501450Y-116940883D01*
X146495477Y-116979247D01*
X146494391Y-116986223D01*
X146495306Y-116993220D01*
X146495306Y-116993221D01*
X146496814Y-117004754D01*
X146512980Y-117128379D01*
X146515821Y-117134835D01*
X146515821Y-117134836D01*
X146523586Y-117152482D01*
X146570720Y-117259603D01*
X146583792Y-117275154D01*
X146658431Y-117363949D01*
X146658434Y-117363951D01*
X146662970Y-117369348D01*
X146668841Y-117373256D01*
X146668842Y-117373257D01*
X146681143Y-117381445D01*
X146782313Y-117448790D01*
X146882920Y-117480221D01*
X146912425Y-117489439D01*
X146912426Y-117489439D01*
X146919157Y-117491542D01*
X146990828Y-117492856D01*
X147055445Y-117494041D01*
X147055447Y-117494041D01*
X147062499Y-117494170D01*
X147069302Y-117492315D01*
X147069304Y-117492315D01*
X147144503Y-117471813D01*
X147200817Y-117456460D01*
X147322991Y-117381445D01*
X147330403Y-117373257D01*
X147414468Y-117280382D01*
X147419200Y-117275154D01*
X147481710Y-117146133D01*
X147485875Y-117121382D01*
X147504862Y-117008524D01*
X147504862Y-117008520D01*
X147505496Y-117004754D01*
X147505647Y-116992400D01*
X147485323Y-116850482D01*
X147425984Y-116719972D01*
X147332400Y-116611363D01*
X147212095Y-116533385D01*
X147074739Y-116492307D01*
X146931376Y-116491431D01*
X146931393Y-116488641D01*
X146883155Y-116479962D01*
X146859933Y-116462717D01*
X145304496Y-114907280D01*
X145276719Y-114852763D01*
X145275500Y-114837276D01*
X145275500Y-114567014D01*
X148528043Y-114567014D01*
X148558807Y-114703524D01*
X148561231Y-114711258D01*
X148642183Y-114910620D01*
X148645840Y-114917860D01*
X148758266Y-115101322D01*
X148763056Y-115107867D01*
X148903935Y-115270502D01*
X148909729Y-115276176D01*
X149075292Y-115413629D01*
X149081921Y-115418270D01*
X149267713Y-115526838D01*
X149275008Y-115530334D01*
X149476038Y-115607099D01*
X149483808Y-115609357D01*
X149590637Y-115631091D01*
X149603846Y-115629586D01*
X149606000Y-115621405D01*
X149606000Y-115620952D01*
X150114000Y-115620952D01*
X150118122Y-115633637D01*
X150119650Y-115634748D01*
X150124884Y-115635238D01*
X150139291Y-115633392D01*
X150147200Y-115631710D01*
X150353304Y-115569876D01*
X150360852Y-115566918D01*
X150554087Y-115472253D01*
X150561046Y-115468104D01*
X150736231Y-115343148D01*
X150742412Y-115337924D01*
X150894831Y-115186035D01*
X150900088Y-115179858D01*
X151025651Y-115005119D01*
X151029823Y-114998176D01*
X151125164Y-114805268D01*
X151128144Y-114797744D01*
X151190701Y-114591843D01*
X151192410Y-114583938D01*
X151194304Y-114569547D01*
X151191873Y-114556431D01*
X151190571Y-114555195D01*
X151185290Y-114554000D01*
X150129680Y-114554000D01*
X150116995Y-114558122D01*
X150114000Y-114562243D01*
X150114000Y-115620952D01*
X149606000Y-115620952D01*
X149606000Y-114569680D01*
X149601878Y-114556995D01*
X149597757Y-114554000D01*
X148540790Y-114554000D01*
X148528460Y-114558006D01*
X148528043Y-114567014D01*
X145275500Y-114567014D01*
X145275500Y-112436879D01*
X145277402Y-112417566D01*
X145278994Y-112409562D01*
X145280896Y-112400000D01*
X145275500Y-112372871D01*
X145275500Y-112372867D01*
X145259515Y-112292505D01*
X145243141Y-112268000D01*
X145213994Y-112224378D01*
X145213993Y-112224377D01*
X145198624Y-112201376D01*
X145183733Y-112191426D01*
X145168731Y-112179115D01*
X144461680Y-111472064D01*
X144433903Y-111417547D01*
X144434056Y-111385636D01*
X144439861Y-111351127D01*
X144440496Y-111347354D01*
X144440647Y-111335000D01*
X144420323Y-111193082D01*
X144360984Y-111062572D01*
X144267400Y-110953963D01*
X144147095Y-110875985D01*
X144009739Y-110834907D01*
X143926497Y-110834398D01*
X143873427Y-110834074D01*
X143873426Y-110834074D01*
X143866376Y-110834031D01*
X143859599Y-110835968D01*
X143859598Y-110835968D01*
X143735309Y-110871490D01*
X143735307Y-110871491D01*
X143728529Y-110873428D01*
X143727664Y-110873974D01*
X143669575Y-110880183D01*
X143616533Y-110849683D01*
X143599866Y-110824286D01*
X143557905Y-110731996D01*
X143557904Y-110731995D01*
X143554984Y-110725572D01*
X143461400Y-110616963D01*
X143341095Y-110538985D01*
X143203739Y-110497907D01*
X143120497Y-110497398D01*
X143067427Y-110497074D01*
X143067426Y-110497074D01*
X143060376Y-110497031D01*
X143053599Y-110498968D01*
X143053598Y-110498968D01*
X142929309Y-110534490D01*
X142929307Y-110534491D01*
X142922529Y-110536428D01*
X142801280Y-110612930D01*
X142796613Y-110618214D01*
X142796611Y-110618216D01*
X142711044Y-110715103D01*
X142711042Y-110715105D01*
X142706377Y-110720388D01*
X142703381Y-110726770D01*
X142703380Y-110726771D01*
X142700927Y-110731996D01*
X142645447Y-110850163D01*
X142644362Y-110857132D01*
X142644361Y-110857135D01*
X142640041Y-110884882D01*
X142623391Y-110991823D01*
X142624306Y-110998820D01*
X142624306Y-110998821D01*
X142641065Y-111126982D01*
X142641980Y-111133979D01*
X142644820Y-111140433D01*
X142644821Y-111140437D01*
X142695116Y-111254740D01*
X142703500Y-111294612D01*
X142703500Y-118230500D01*
X142684593Y-118288691D01*
X142635093Y-118324655D01*
X142604500Y-118329500D01*
X141370252Y-118329500D01*
X141344005Y-118334721D01*
X141321334Y-118339230D01*
X141321332Y-118339231D01*
X141311769Y-118341133D01*
X141245448Y-118385448D01*
X141201133Y-118451769D01*
X141189500Y-118510252D01*
X141189500Y-120249748D01*
X140535500Y-120249748D01*
X140535500Y-108077540D01*
X140554407Y-108019349D01*
X140603907Y-107983385D01*
X140665093Y-107983385D01*
X140710283Y-108013838D01*
X140755431Y-108067549D01*
X140755434Y-108067551D01*
X140759970Y-108072948D01*
X140765841Y-108076856D01*
X140765842Y-108076857D01*
X140797544Y-108097960D01*
X140879313Y-108152390D01*
X140965225Y-108179230D01*
X141009425Y-108193039D01*
X141009426Y-108193039D01*
X141016157Y-108195142D01*
X141081301Y-108196336D01*
X141152441Y-108197641D01*
X141152444Y-108197641D01*
X141159499Y-108197770D01*
X141159490Y-108198271D01*
X141214816Y-108208924D01*
X141236976Y-108225592D01*
X141427504Y-108416120D01*
X141455281Y-108470637D01*
X141456500Y-108486124D01*
X141456500Y-115351388D01*
X141437593Y-115409579D01*
X141415410Y-115430354D01*
X141415616Y-115430596D01*
X141410525Y-115434928D01*
X141410325Y-115435116D01*
X141404280Y-115438930D01*
X141399609Y-115444219D01*
X141314044Y-115541103D01*
X141314042Y-115541105D01*
X141309377Y-115546388D01*
X141248447Y-115676163D01*
X141226391Y-115817823D01*
X141227306Y-115824820D01*
X141227306Y-115824821D01*
X141228814Y-115836354D01*
X141244980Y-115959979D01*
X141247821Y-115966435D01*
X141247821Y-115966436D01*
X141255586Y-115984082D01*
X141302720Y-116091203D01*
X141315792Y-116106754D01*
X141390431Y-116195549D01*
X141390434Y-116195551D01*
X141394970Y-116200948D01*
X141400841Y-116204856D01*
X141400842Y-116204857D01*
X141413143Y-116213045D01*
X141514313Y-116280390D01*
X141614920Y-116311821D01*
X141644425Y-116321039D01*
X141644426Y-116321039D01*
X141651157Y-116323142D01*
X141722828Y-116324456D01*
X141787445Y-116325641D01*
X141787447Y-116325641D01*
X141794499Y-116325770D01*
X141801302Y-116323915D01*
X141801304Y-116323915D01*
X141876503Y-116303413D01*
X141932817Y-116288060D01*
X142054991Y-116213045D01*
X142062403Y-116204857D01*
X142146468Y-116111982D01*
X142151200Y-116106754D01*
X142213710Y-115977733D01*
X142217875Y-115952982D01*
X142236862Y-115840124D01*
X142236862Y-115840120D01*
X142237496Y-115836354D01*
X142237647Y-115824000D01*
X142217323Y-115682082D01*
X142184257Y-115609357D01*
X142160905Y-115557996D01*
X142160904Y-115557995D01*
X142157984Y-115551572D01*
X142064400Y-115442963D01*
X142052653Y-115435349D01*
X142014107Y-115387833D01*
X142007500Y-115352274D01*
X142007500Y-108959823D01*
X144694891Y-108959823D01*
X144695806Y-108966820D01*
X144695806Y-108966821D01*
X144697314Y-108978354D01*
X144713480Y-109101979D01*
X144716321Y-109108435D01*
X144716321Y-109108436D01*
X144724086Y-109126082D01*
X144771220Y-109233203D01*
X144784292Y-109248754D01*
X144858931Y-109337549D01*
X144858934Y-109337551D01*
X144863470Y-109342948D01*
X144869341Y-109346856D01*
X144869342Y-109346857D01*
X144881643Y-109355045D01*
X144982813Y-109422390D01*
X145083420Y-109453821D01*
X145112925Y-109463039D01*
X145112926Y-109463039D01*
X145119657Y-109465142D01*
X145191328Y-109466456D01*
X145255945Y-109467641D01*
X145255947Y-109467641D01*
X145262999Y-109467770D01*
X145269802Y-109465915D01*
X145269804Y-109465915D01*
X145345003Y-109445413D01*
X145401317Y-109430060D01*
X145523491Y-109355045D01*
X145530903Y-109346857D01*
X145614968Y-109253982D01*
X145619700Y-109248754D01*
X145682210Y-109119733D01*
X145686375Y-109094982D01*
X145705362Y-108982124D01*
X145705362Y-108982120D01*
X145705996Y-108978354D01*
X145706147Y-108966000D01*
X145685823Y-108824082D01*
X145642836Y-108729537D01*
X145629405Y-108699996D01*
X145629404Y-108699995D01*
X145626484Y-108693572D01*
X145557708Y-108613754D01*
X145537505Y-108590307D01*
X145537504Y-108590306D01*
X145532900Y-108584963D01*
X145521153Y-108577349D01*
X145482607Y-108529833D01*
X145476000Y-108494274D01*
X145476000Y-108324823D01*
X147703391Y-108324823D01*
X147721980Y-108466979D01*
X147724821Y-108473435D01*
X147724821Y-108473436D01*
X147776246Y-108590307D01*
X147779720Y-108598203D01*
X147792792Y-108613754D01*
X147867431Y-108702549D01*
X147867434Y-108702551D01*
X147871970Y-108707948D01*
X147882294Y-108714820D01*
X147889356Y-108719521D01*
X147927320Y-108767504D01*
X147933500Y-108801933D01*
X147933500Y-112231116D01*
X147931598Y-112250429D01*
X147928103Y-112268000D01*
X147930005Y-112277562D01*
X147933500Y-112295132D01*
X147933500Y-112295133D01*
X147946594Y-112360959D01*
X147949485Y-112375495D01*
X148010376Y-112466624D01*
X148018486Y-112472043D01*
X148025267Y-112476574D01*
X148040269Y-112488885D01*
X148050933Y-112499549D01*
X148078710Y-112554066D01*
X148078750Y-112584783D01*
X148077946Y-112589950D01*
X148071691Y-112630123D01*
X148072606Y-112637120D01*
X148072606Y-112637121D01*
X148077095Y-112671450D01*
X148090280Y-112772279D01*
X148093121Y-112778735D01*
X148093121Y-112778736D01*
X148142217Y-112890314D01*
X148148020Y-112903503D01*
X148169197Y-112928696D01*
X148235731Y-113007849D01*
X148235734Y-113007851D01*
X148240270Y-113013248D01*
X148246141Y-113017156D01*
X148246142Y-113017157D01*
X148258443Y-113025345D01*
X148359613Y-113092690D01*
X148460220Y-113124121D01*
X148489725Y-113133339D01*
X148489726Y-113133339D01*
X148496457Y-113135442D01*
X148568128Y-113136756D01*
X148632745Y-113137941D01*
X148632747Y-113137941D01*
X148639799Y-113138070D01*
X148646602Y-113136215D01*
X148646604Y-113136215D01*
X148721803Y-113115713D01*
X148778117Y-113100360D01*
X148900291Y-113025345D01*
X148907703Y-113017157D01*
X148991768Y-112924282D01*
X148996500Y-112919054D01*
X149059010Y-112790033D01*
X149060204Y-112782941D01*
X149078961Y-112671450D01*
X149107261Y-112617202D01*
X149162042Y-112589950D01*
X149222379Y-112600101D01*
X149240747Y-112612478D01*
X149257564Y-112626791D01*
X149261787Y-112629151D01*
X149261791Y-112629154D01*
X149378702Y-112694493D01*
X149437398Y-112727297D01*
X149591944Y-112777512D01*
X149641444Y-112813476D01*
X149660351Y-112871667D01*
X149641444Y-112929858D01*
X149591944Y-112965822D01*
X149576327Y-112969528D01*
X149548226Y-112973828D01*
X149540341Y-112975707D01*
X149335807Y-113042558D01*
X149328350Y-113045693D01*
X149137479Y-113145054D01*
X149130627Y-113149369D01*
X148958544Y-113278573D01*
X148952491Y-113283947D01*
X148803830Y-113439513D01*
X148798727Y-113445814D01*
X148677466Y-113623575D01*
X148673468Y-113630613D01*
X148582871Y-113825790D01*
X148580073Y-113833394D01*
X148524056Y-114035384D01*
X148525756Y-114043462D01*
X148527566Y-114045098D01*
X148531792Y-114046000D01*
X151180779Y-114046000D01*
X151192730Y-114042117D01*
X151193058Y-114032462D01*
X151150946Y-113864809D01*
X151148333Y-113857133D01*
X151062534Y-113659807D01*
X151058701Y-113652660D01*
X150941826Y-113471997D01*
X150936880Y-113465575D01*
X150792065Y-113306426D01*
X150786139Y-113300899D01*
X150617269Y-113167534D01*
X150610525Y-113163054D01*
X150422141Y-113059060D01*
X150414749Y-113055738D01*
X150211920Y-112983912D01*
X150204081Y-112981841D01*
X150134589Y-112969463D01*
X150080616Y-112940644D01*
X150053890Y-112885605D01*
X150064619Y-112825367D01*
X150108706Y-112782941D01*
X150125327Y-112776644D01*
X150169867Y-112764208D01*
X150241725Y-112744145D01*
X150246038Y-112741966D01*
X150246044Y-112741964D01*
X150421289Y-112653441D01*
X150421291Y-112653440D01*
X150425610Y-112651258D01*
X150443705Y-112637121D01*
X150584135Y-112527406D01*
X150584139Y-112527402D01*
X150587951Y-112524424D01*
X150603423Y-112506500D01*
X150671933Y-112427129D01*
X150722564Y-112368472D01*
X150742475Y-112333422D01*
X150821934Y-112193550D01*
X150821935Y-112193547D01*
X150824323Y-112189344D01*
X150833631Y-112161365D01*
X150887824Y-111998454D01*
X150887824Y-111998452D01*
X150889351Y-111993863D01*
X150915171Y-111789474D01*
X150915583Y-111760000D01*
X150895480Y-111554970D01*
X150835935Y-111357749D01*
X150739218Y-111175849D01*
X150609011Y-111016200D01*
X150592790Y-111002781D01*
X150454002Y-110887965D01*
X150454000Y-110887964D01*
X150450275Y-110884882D01*
X150269055Y-110786897D01*
X150205855Y-110767333D01*
X150076875Y-110727407D01*
X150076871Y-110727406D01*
X150072254Y-110725977D01*
X150067446Y-110725472D01*
X150067443Y-110725471D01*
X149872185Y-110704949D01*
X149872183Y-110704949D01*
X149867369Y-110704443D01*
X149807354Y-110709905D01*
X149667022Y-110722675D01*
X149667017Y-110722676D01*
X149662203Y-110723114D01*
X149464572Y-110781280D01*
X149460288Y-110783519D01*
X149460287Y-110783520D01*
X149449428Y-110789197D01*
X149282002Y-110876726D01*
X149278231Y-110879758D01*
X149125220Y-111002781D01*
X149125217Y-111002783D01*
X149121447Y-111005815D01*
X149118333Y-111009526D01*
X149118332Y-111009527D01*
X149068432Y-111068996D01*
X148989024Y-111163630D01*
X148986689Y-111167878D01*
X148986688Y-111167879D01*
X148979955Y-111180126D01*
X148889776Y-111344162D01*
X148888313Y-111348775D01*
X148888311Y-111348779D01*
X148849203Y-111472064D01*
X148827484Y-111540532D01*
X148826944Y-111545344D01*
X148826944Y-111545345D01*
X148808257Y-111711948D01*
X148804520Y-111745262D01*
X148821759Y-111950553D01*
X148823092Y-111955201D01*
X148823092Y-111955202D01*
X148846013Y-112035137D01*
X148843878Y-112096285D01*
X148806208Y-112144500D01*
X148747393Y-112161365D01*
X148722483Y-112157274D01*
X148652039Y-112136207D01*
X148582894Y-112135785D01*
X148524822Y-112116523D01*
X148489160Y-112066804D01*
X148484500Y-112036787D01*
X148484500Y-108804591D01*
X148503407Y-108746400D01*
X148521629Y-108729537D01*
X148520554Y-108728242D01*
X148525987Y-108723732D01*
X148531991Y-108720045D01*
X148536719Y-108714822D01*
X148536721Y-108714820D01*
X148623469Y-108618981D01*
X148623470Y-108618980D01*
X148628200Y-108613754D01*
X148629716Y-108610624D01*
X148676639Y-108573963D01*
X148737787Y-108571827D01*
X148788513Y-108606041D01*
X148809500Y-108666992D01*
X148809500Y-110089748D01*
X148821133Y-110148231D01*
X148865448Y-110214552D01*
X148931769Y-110258867D01*
X148941332Y-110260769D01*
X148941334Y-110260770D01*
X148964005Y-110265279D01*
X148990252Y-110270500D01*
X150729748Y-110270500D01*
X150755995Y-110265279D01*
X150778666Y-110260770D01*
X150778668Y-110260769D01*
X150788231Y-110258867D01*
X150854552Y-110214552D01*
X150898867Y-110148231D01*
X150910500Y-110089748D01*
X150910500Y-108350252D01*
X150898867Y-108291769D01*
X150854552Y-108225448D01*
X150788231Y-108181133D01*
X150778668Y-108179231D01*
X150778666Y-108179230D01*
X150755126Y-108174548D01*
X150729748Y-108169500D01*
X148990252Y-108169500D01*
X148964874Y-108174548D01*
X148941334Y-108179230D01*
X148941332Y-108179231D01*
X148931769Y-108181133D01*
X148865448Y-108225448D01*
X148860029Y-108233558D01*
X148859207Y-108234380D01*
X148804690Y-108262157D01*
X148744258Y-108252586D01*
X148700993Y-108209321D01*
X148695093Y-108194455D01*
X148694323Y-108189082D01*
X148691406Y-108182666D01*
X148691405Y-108182663D01*
X148637905Y-108064996D01*
X148637904Y-108064995D01*
X148634984Y-108058572D01*
X148570198Y-107983385D01*
X148546005Y-107955307D01*
X148546004Y-107955306D01*
X148541400Y-107949963D01*
X148421095Y-107871985D01*
X148283739Y-107830907D01*
X148200497Y-107830398D01*
X148147427Y-107830074D01*
X148147426Y-107830074D01*
X148140376Y-107830031D01*
X148133599Y-107831968D01*
X148133598Y-107831968D01*
X148009309Y-107867490D01*
X148009307Y-107867491D01*
X148002529Y-107869428D01*
X147881280Y-107945930D01*
X147876613Y-107951214D01*
X147876611Y-107951216D01*
X147791044Y-108048103D01*
X147791042Y-108048105D01*
X147786377Y-108053388D01*
X147783381Y-108059770D01*
X147783380Y-108059771D01*
X147773716Y-108080354D01*
X147725447Y-108183163D01*
X147724362Y-108190132D01*
X147724361Y-108190135D01*
X147715028Y-108250082D01*
X147703391Y-108324823D01*
X145476000Y-108324823D01*
X145476000Y-107864791D01*
X145494907Y-107806600D01*
X145513129Y-107789737D01*
X145512054Y-107788442D01*
X145517487Y-107783932D01*
X145523491Y-107780245D01*
X145528219Y-107775022D01*
X145528221Y-107775020D01*
X145614968Y-107679182D01*
X145619700Y-107673954D01*
X145682210Y-107544933D01*
X145685630Y-107524610D01*
X145705362Y-107407324D01*
X145705362Y-107407320D01*
X145705996Y-107403554D01*
X145706147Y-107391200D01*
X145685823Y-107249282D01*
X145626484Y-107118772D01*
X145550824Y-107030965D01*
X145537505Y-107015507D01*
X145537504Y-107015506D01*
X145532900Y-107010163D01*
X145412595Y-106932185D01*
X145275239Y-106891107D01*
X145191997Y-106890598D01*
X145138927Y-106890274D01*
X145138926Y-106890274D01*
X145131876Y-106890231D01*
X145125099Y-106892168D01*
X145125098Y-106892168D01*
X145000809Y-106927690D01*
X145000807Y-106927691D01*
X144994029Y-106929628D01*
X144872780Y-107006130D01*
X144868113Y-107011414D01*
X144868111Y-107011416D01*
X144782544Y-107108303D01*
X144782542Y-107108305D01*
X144777877Y-107113588D01*
X144716947Y-107243363D01*
X144715862Y-107250332D01*
X144715861Y-107250335D01*
X144705951Y-107313986D01*
X144694891Y-107385023D01*
X144695806Y-107392020D01*
X144695806Y-107392021D01*
X144710453Y-107504033D01*
X144713480Y-107527179D01*
X144716321Y-107533635D01*
X144716321Y-107533636D01*
X144728391Y-107561066D01*
X144771220Y-107658403D01*
X144806040Y-107699826D01*
X144858931Y-107762749D01*
X144858934Y-107762751D01*
X144863470Y-107768148D01*
X144873794Y-107775020D01*
X144880856Y-107779721D01*
X144918820Y-107827704D01*
X144925000Y-107862133D01*
X144925000Y-108493388D01*
X144906093Y-108551579D01*
X144883910Y-108572354D01*
X144884116Y-108572596D01*
X144879025Y-108576928D01*
X144878825Y-108577116D01*
X144872780Y-108580930D01*
X144868109Y-108586219D01*
X144782544Y-108683103D01*
X144782542Y-108683105D01*
X144777877Y-108688388D01*
X144716947Y-108818163D01*
X144694891Y-108959823D01*
X142007500Y-108959823D01*
X142007500Y-108367884D01*
X142009402Y-108348571D01*
X142010995Y-108340562D01*
X142012897Y-108331000D01*
X141991516Y-108223506D01*
X141945994Y-108155378D01*
X141945993Y-108155377D01*
X141930624Y-108132376D01*
X141915733Y-108122426D01*
X141900731Y-108110115D01*
X141623680Y-107833064D01*
X141602463Y-107791423D01*
X142597991Y-107791423D01*
X142598906Y-107798420D01*
X142598906Y-107798421D01*
X142615665Y-107926582D01*
X142616580Y-107933579D01*
X142619421Y-107940035D01*
X142619421Y-107940036D01*
X142654320Y-108019349D01*
X142674320Y-108064803D01*
X142685027Y-108077540D01*
X142762031Y-108169149D01*
X142762034Y-108169151D01*
X142766570Y-108174548D01*
X142772441Y-108178456D01*
X142772442Y-108178457D01*
X142778761Y-108182663D01*
X142885913Y-108253990D01*
X142980883Y-108283660D01*
X143016025Y-108294639D01*
X143016026Y-108294639D01*
X143022757Y-108296742D01*
X143094428Y-108298056D01*
X143159045Y-108299241D01*
X143159047Y-108299241D01*
X143166099Y-108299370D01*
X143172902Y-108297515D01*
X143172904Y-108297515D01*
X143248103Y-108277013D01*
X143304417Y-108261660D01*
X143426591Y-108186645D01*
X143434003Y-108178457D01*
X143518068Y-108085582D01*
X143522800Y-108080354D01*
X143585310Y-107951333D01*
X143589475Y-107926582D01*
X143608462Y-107813724D01*
X143608462Y-107813720D01*
X143609096Y-107809954D01*
X143609247Y-107797600D01*
X143588923Y-107655682D01*
X143537978Y-107543633D01*
X143529100Y-107502658D01*
X143529100Y-107089156D01*
X143548007Y-107030965D01*
X143558096Y-107019152D01*
X147581933Y-102995315D01*
X147625897Y-102969805D01*
X147687317Y-102953060D01*
X147809491Y-102878045D01*
X147849939Y-102833359D01*
X147900968Y-102776982D01*
X147905700Y-102771754D01*
X147968210Y-102642733D01*
X147987861Y-102525935D01*
X147991362Y-102505124D01*
X147991362Y-102505120D01*
X147991996Y-102501354D01*
X147992147Y-102489000D01*
X147971823Y-102347082D01*
X147942109Y-102281730D01*
X147915405Y-102222996D01*
X147915404Y-102222995D01*
X147912484Y-102216572D01*
X147852082Y-102146472D01*
X147823505Y-102113307D01*
X147823504Y-102113306D01*
X147818900Y-102107963D01*
X147698595Y-102029985D01*
X147561239Y-101988907D01*
X147477997Y-101988398D01*
X147424927Y-101988074D01*
X147424926Y-101988074D01*
X147417876Y-101988031D01*
X147411099Y-101989968D01*
X147411098Y-101989968D01*
X147286809Y-102025490D01*
X147286807Y-102025491D01*
X147280029Y-102027428D01*
X147158780Y-102103930D01*
X147154113Y-102109214D01*
X147154111Y-102109216D01*
X147068544Y-102206103D01*
X147068542Y-102206105D01*
X147063877Y-102211388D01*
X147002947Y-102341163D01*
X147001862Y-102348130D01*
X146999798Y-102354881D01*
X146997461Y-102354166D01*
X146974634Y-102399118D01*
X146889433Y-102484319D01*
X146834916Y-102512096D01*
X146774484Y-102502525D01*
X146731219Y-102459260D01*
X146721801Y-102397890D01*
X146722962Y-102390991D01*
X146722962Y-102390987D01*
X146723596Y-102387221D01*
X146723747Y-102374867D01*
X146703423Y-102232949D01*
X146673305Y-102166707D01*
X146647005Y-102108863D01*
X146647004Y-102108862D01*
X146644084Y-102102439D01*
X146550500Y-101993830D01*
X146430195Y-101915852D01*
X146292839Y-101874774D01*
X146209597Y-101874265D01*
X146156527Y-101873941D01*
X146156526Y-101873941D01*
X146149476Y-101873898D01*
X146142699Y-101875835D01*
X146142698Y-101875835D01*
X146018409Y-101911357D01*
X146018407Y-101911358D01*
X146011629Y-101913295D01*
X145890380Y-101989797D01*
X145885713Y-101995081D01*
X145885711Y-101995083D01*
X145823168Y-102065901D01*
X145770476Y-102097001D01*
X145748964Y-102099367D01*
X145108817Y-102099367D01*
X145089504Y-102097465D01*
X145071933Y-102093970D01*
X144964439Y-102115351D01*
X144912145Y-102150293D01*
X144854740Y-102166484D01*
X144854739Y-102166707D01*
X144853965Y-102166702D01*
X144853964Y-102166702D01*
X144755926Y-102166103D01*
X144718427Y-102165874D01*
X144718426Y-102165874D01*
X144711376Y-102165831D01*
X144704599Y-102167768D01*
X144704598Y-102167768D01*
X144580309Y-102203290D01*
X144580307Y-102203291D01*
X144573529Y-102205228D01*
X144452280Y-102281730D01*
X144447613Y-102287014D01*
X144447611Y-102287016D01*
X144362044Y-102383903D01*
X144362042Y-102383905D01*
X144357377Y-102389188D01*
X144296447Y-102518963D01*
X144295362Y-102525932D01*
X144295361Y-102525935D01*
X144280680Y-102620230D01*
X144274391Y-102660623D01*
X144292980Y-102802779D01*
X144295821Y-102809235D01*
X144295821Y-102809236D01*
X144334102Y-102896235D01*
X144350720Y-102934003D01*
X144380815Y-102969805D01*
X144438431Y-103038349D01*
X144438434Y-103038351D01*
X144442970Y-103043748D01*
X144448841Y-103047656D01*
X144448842Y-103047657D01*
X144461143Y-103055845D01*
X144562313Y-103123190D01*
X144662920Y-103154621D01*
X144692425Y-103163839D01*
X144692426Y-103163839D01*
X144699157Y-103165942D01*
X144770828Y-103167256D01*
X144835445Y-103168441D01*
X144835447Y-103168441D01*
X144842499Y-103168570D01*
X144849302Y-103166715D01*
X144849304Y-103166715D01*
X144924503Y-103146213D01*
X144980817Y-103130860D01*
X145102991Y-103055845D01*
X145110403Y-103047657D01*
X145194468Y-102954782D01*
X145199200Y-102949554D01*
X145261710Y-102820533D01*
X145276447Y-102732941D01*
X145304747Y-102678694D01*
X145359528Y-102651442D01*
X145374075Y-102650367D01*
X145749682Y-102650367D01*
X145807873Y-102669274D01*
X145825465Y-102685665D01*
X145881070Y-102751815D01*
X146000413Y-102831257D01*
X146101020Y-102862688D01*
X146130525Y-102871906D01*
X146130526Y-102871906D01*
X146137257Y-102874009D01*
X146260311Y-102876265D01*
X146318145Y-102896235D01*
X146353196Y-102946386D01*
X146352074Y-103007561D01*
X146328500Y-103045252D01*
X142755072Y-106618680D01*
X142743212Y-106641956D01*
X142735106Y-106655185D01*
X142719751Y-106676319D01*
X142711682Y-106701153D01*
X142705740Y-106715498D01*
X142693881Y-106738774D01*
X142692662Y-106746470D01*
X142689796Y-106764565D01*
X142686170Y-106779667D01*
X142680507Y-106797096D01*
X142680506Y-106797102D01*
X142678100Y-106804507D01*
X142678100Y-107504033D01*
X142668714Y-107546107D01*
X142620047Y-107649763D01*
X142618962Y-107656732D01*
X142618961Y-107656735D01*
X142610337Y-107712127D01*
X142597991Y-107791423D01*
X141602463Y-107791423D01*
X141595903Y-107778547D01*
X141596056Y-107746636D01*
X141601861Y-107712127D01*
X141602496Y-107708354D01*
X141602647Y-107696000D01*
X141582323Y-107554082D01*
X141522984Y-107423572D01*
X141429400Y-107314963D01*
X141309095Y-107236985D01*
X141171739Y-107195907D01*
X141088497Y-107195398D01*
X141035427Y-107195074D01*
X141035426Y-107195074D01*
X141028376Y-107195031D01*
X141021599Y-107196968D01*
X141021598Y-107196968D01*
X140897309Y-107232490D01*
X140897307Y-107232491D01*
X140890529Y-107234428D01*
X140769280Y-107310930D01*
X140764613Y-107316214D01*
X140764611Y-107316216D01*
X140708704Y-107379520D01*
X140656012Y-107410620D01*
X140595104Y-107404810D01*
X140549243Y-107364307D01*
X140535500Y-107313986D01*
X140535500Y-98914073D01*
X145811041Y-98914073D01*
X145811956Y-98921070D01*
X145811956Y-98921071D01*
X145813464Y-98932604D01*
X145829630Y-99056229D01*
X145832471Y-99062685D01*
X145832471Y-99062686D01*
X145840236Y-99080332D01*
X145887370Y-99187453D01*
X145900442Y-99203004D01*
X145975081Y-99291799D01*
X145975084Y-99291801D01*
X145979620Y-99297198D01*
X145985491Y-99301106D01*
X145985492Y-99301107D01*
X145997793Y-99309295D01*
X146098963Y-99376640D01*
X146199570Y-99408071D01*
X146229075Y-99417289D01*
X146229076Y-99417289D01*
X146235807Y-99419392D01*
X146307478Y-99420706D01*
X146372095Y-99421891D01*
X146372097Y-99421891D01*
X146379149Y-99422020D01*
X146385952Y-99420165D01*
X146385954Y-99420165D01*
X146461153Y-99399663D01*
X146517467Y-99384310D01*
X146556434Y-99360384D01*
X146608235Y-99345750D01*
X148892921Y-99345750D01*
X148947779Y-99362339D01*
X148969263Y-99376640D01*
X149069870Y-99408071D01*
X149099375Y-99417289D01*
X149099376Y-99417289D01*
X149106107Y-99419392D01*
X149177778Y-99420706D01*
X149242395Y-99421891D01*
X149242397Y-99421891D01*
X149249449Y-99422020D01*
X149256252Y-99420165D01*
X149256254Y-99420165D01*
X149331453Y-99399663D01*
X149387767Y-99384310D01*
X149509941Y-99309295D01*
X149517353Y-99301107D01*
X149601418Y-99208232D01*
X149606150Y-99203004D01*
X149668660Y-99073983D01*
X149672825Y-99049232D01*
X149691812Y-98936374D01*
X149691812Y-98936370D01*
X149692446Y-98932604D01*
X149692597Y-98920250D01*
X149672273Y-98778332D01*
X149612934Y-98647822D01*
X149519350Y-98539213D01*
X149399045Y-98461235D01*
X149261689Y-98420157D01*
X149178447Y-98419648D01*
X149125377Y-98419324D01*
X149125376Y-98419324D01*
X149118326Y-98419281D01*
X149111549Y-98421218D01*
X149111548Y-98421218D01*
X148987259Y-98456740D01*
X148987257Y-98456741D01*
X148980479Y-98458678D01*
X148974515Y-98462441D01*
X148974511Y-98462443D01*
X148947513Y-98479477D01*
X148894686Y-98494750D01*
X146609730Y-98494750D01*
X146555883Y-98478825D01*
X146534666Y-98465073D01*
X146534667Y-98465073D01*
X146528745Y-98461235D01*
X146391389Y-98420157D01*
X146308147Y-98419648D01*
X146255077Y-98419324D01*
X146255076Y-98419324D01*
X146248026Y-98419281D01*
X146241249Y-98421218D01*
X146241248Y-98421218D01*
X146116959Y-98456740D01*
X146116957Y-98456741D01*
X146110179Y-98458678D01*
X145988930Y-98535180D01*
X145984263Y-98540464D01*
X145984261Y-98540466D01*
X145898694Y-98637353D01*
X145898692Y-98637355D01*
X145894027Y-98642638D01*
X145833097Y-98772413D01*
X145811041Y-98914073D01*
X140535500Y-98914073D01*
X140535500Y-94979679D01*
X145223835Y-94979679D01*
X145224750Y-94986676D01*
X145224750Y-94986677D01*
X145226258Y-94998210D01*
X145242424Y-95121835D01*
X145245265Y-95128291D01*
X145245265Y-95128292D01*
X145253030Y-95145938D01*
X145300164Y-95253059D01*
X145313236Y-95268610D01*
X145387875Y-95357405D01*
X145387878Y-95357407D01*
X145392414Y-95362804D01*
X145398285Y-95366712D01*
X145398286Y-95366713D01*
X145410587Y-95374901D01*
X145511757Y-95442246D01*
X145612364Y-95473677D01*
X145641869Y-95482895D01*
X145641870Y-95482895D01*
X145648601Y-95484998D01*
X145720272Y-95486312D01*
X145784889Y-95487497D01*
X145784891Y-95487497D01*
X145791943Y-95487626D01*
X145798746Y-95485771D01*
X145798748Y-95485771D01*
X145873947Y-95465269D01*
X145930261Y-95449916D01*
X146052435Y-95374901D01*
X146059847Y-95366713D01*
X146143912Y-95273838D01*
X146148644Y-95268610D01*
X146211154Y-95139589D01*
X146215319Y-95114838D01*
X146234306Y-95001980D01*
X146234306Y-95001976D01*
X146234940Y-94998210D01*
X146235091Y-94985856D01*
X146232005Y-94964308D01*
X146242472Y-94904026D01*
X146260001Y-94880270D01*
X146663611Y-94476660D01*
X146718128Y-94448883D01*
X146753985Y-94451498D01*
X146754161Y-94450411D01*
X146761124Y-94451538D01*
X146767857Y-94453642D01*
X146839528Y-94454956D01*
X146904145Y-94456141D01*
X146904147Y-94456141D01*
X146911199Y-94456270D01*
X146918002Y-94454415D01*
X146918004Y-94454415D01*
X146993203Y-94433913D01*
X147049517Y-94418560D01*
X147171691Y-94343545D01*
X147267900Y-94237254D01*
X147330410Y-94108233D01*
X147354196Y-93966854D01*
X147354347Y-93954500D01*
X147334023Y-93812582D01*
X147274684Y-93682072D01*
X147181100Y-93573463D01*
X147060795Y-93495485D01*
X146923439Y-93454407D01*
X146840197Y-93453898D01*
X146787127Y-93453574D01*
X146787126Y-93453574D01*
X146780076Y-93453531D01*
X146773299Y-93455468D01*
X146773298Y-93455468D01*
X146649009Y-93490990D01*
X146649007Y-93490991D01*
X146642229Y-93492928D01*
X146520980Y-93569430D01*
X146516313Y-93574714D01*
X146516311Y-93574716D01*
X146430744Y-93671603D01*
X146430742Y-93671605D01*
X146426077Y-93676888D01*
X146365147Y-93806663D01*
X146364062Y-93813634D01*
X146364061Y-93813636D01*
X146348262Y-93915110D01*
X146320445Y-93969882D01*
X145833810Y-94456518D01*
X145779293Y-94484296D01*
X145763206Y-94485513D01*
X145683949Y-94485028D01*
X145667871Y-94484930D01*
X145667870Y-94484930D01*
X145660820Y-94484887D01*
X145654043Y-94486824D01*
X145654042Y-94486824D01*
X145529753Y-94522346D01*
X145529751Y-94522347D01*
X145522973Y-94524284D01*
X145401724Y-94600786D01*
X145397057Y-94606070D01*
X145397055Y-94606072D01*
X145311488Y-94702959D01*
X145311486Y-94702961D01*
X145306821Y-94708244D01*
X145245891Y-94838019D01*
X145244806Y-94844988D01*
X145244805Y-94844991D01*
X145235614Y-94904026D01*
X145223835Y-94979679D01*
X140535500Y-94979679D01*
X140535500Y-92009616D01*
X140978700Y-92009616D01*
X140993924Y-92135420D01*
X141053855Y-92294023D01*
X141149888Y-92433751D01*
X141276479Y-92546540D01*
X141426319Y-92625876D01*
X141508539Y-92646529D01*
X141584969Y-92665727D01*
X141584972Y-92665727D01*
X141590759Y-92667181D01*
X141676359Y-92667629D01*
X141754339Y-92668038D01*
X141754341Y-92668038D01*
X141760305Y-92668069D01*
X141766101Y-92666677D01*
X141766105Y-92666677D01*
X141873497Y-92640893D01*
X141925168Y-92628488D01*
X142000500Y-92589606D01*
X142070525Y-92553464D01*
X142070527Y-92553462D01*
X142075831Y-92550725D01*
X142203596Y-92439269D01*
X142301087Y-92300553D01*
X142362676Y-92142587D01*
X142379700Y-92013274D01*
X142379700Y-91127492D01*
X142398607Y-91069301D01*
X142448107Y-91033337D01*
X142509293Y-91033337D01*
X142558793Y-91069301D01*
X142570164Y-91089606D01*
X142604019Y-91171340D01*
X142604021Y-91171344D01*
X142606502Y-91177333D01*
X142610448Y-91182475D01*
X142610450Y-91182479D01*
X142694798Y-91292402D01*
X142698749Y-91297551D01*
X142703898Y-91301502D01*
X142813821Y-91385850D01*
X142813825Y-91385852D01*
X142818967Y-91389798D01*
X142824956Y-91392279D01*
X142824960Y-91392281D01*
X142952967Y-91445303D01*
X142958964Y-91447787D01*
X143071480Y-91462600D01*
X143146920Y-91462600D01*
X143259436Y-91447787D01*
X143265433Y-91445303D01*
X143393440Y-91392281D01*
X143393444Y-91392279D01*
X143399433Y-91389798D01*
X143404575Y-91385852D01*
X143404579Y-91385850D01*
X143514502Y-91301502D01*
X143519651Y-91297551D01*
X143523602Y-91292402D01*
X143607950Y-91182479D01*
X143607952Y-91182475D01*
X143611898Y-91177333D01*
X143614379Y-91171344D01*
X143614381Y-91171340D01*
X143667403Y-91043333D01*
X143669887Y-91037336D01*
X143689666Y-90887100D01*
X148308734Y-90887100D01*
X148328513Y-91037336D01*
X148330997Y-91043333D01*
X148384019Y-91171340D01*
X148384021Y-91171344D01*
X148386502Y-91177333D01*
X148390448Y-91182475D01*
X148390450Y-91182479D01*
X148474798Y-91292402D01*
X148478749Y-91297551D01*
X148483898Y-91301502D01*
X148593821Y-91385850D01*
X148593825Y-91385852D01*
X148598967Y-91389798D01*
X148604956Y-91392279D01*
X148604960Y-91392281D01*
X148732967Y-91445303D01*
X148738964Y-91447787D01*
X148851480Y-91462600D01*
X148926920Y-91462600D01*
X149039436Y-91447787D01*
X149045433Y-91445303D01*
X149173440Y-91392281D01*
X149173444Y-91392279D01*
X149179433Y-91389798D01*
X149184575Y-91385852D01*
X149184579Y-91385850D01*
X149294502Y-91301502D01*
X149299651Y-91297551D01*
X149303602Y-91292402D01*
X149387950Y-91182479D01*
X149387952Y-91182475D01*
X149391898Y-91177333D01*
X149394379Y-91171344D01*
X149394381Y-91171340D01*
X149428236Y-91089606D01*
X149467973Y-91043080D01*
X149527468Y-91028797D01*
X149583996Y-91052212D01*
X149615965Y-91104381D01*
X149618700Y-91127492D01*
X149618700Y-92009616D01*
X149633924Y-92135420D01*
X149693855Y-92294023D01*
X149789888Y-92433751D01*
X149916479Y-92546540D01*
X150066319Y-92625876D01*
X150148539Y-92646529D01*
X150224969Y-92665727D01*
X150224972Y-92665727D01*
X150230759Y-92667181D01*
X150316359Y-92667629D01*
X150394339Y-92668038D01*
X150394341Y-92668038D01*
X150400305Y-92668069D01*
X150406101Y-92666677D01*
X150406105Y-92666677D01*
X150513497Y-92640893D01*
X150565168Y-92628488D01*
X150640500Y-92589606D01*
X150710525Y-92553464D01*
X150710527Y-92553462D01*
X150715831Y-92550725D01*
X150843596Y-92439269D01*
X150941087Y-92300553D01*
X151002676Y-92142587D01*
X151019700Y-92013274D01*
X151019700Y-86894584D01*
X151004476Y-86768780D01*
X150944545Y-86610177D01*
X150848512Y-86470449D01*
X150721921Y-86357660D01*
X150572081Y-86278324D01*
X150489861Y-86257671D01*
X150413431Y-86238473D01*
X150413428Y-86238473D01*
X150407641Y-86237019D01*
X150322041Y-86236571D01*
X150244061Y-86236162D01*
X150244059Y-86236162D01*
X150238095Y-86236131D01*
X150232299Y-86237523D01*
X150232295Y-86237523D01*
X150124903Y-86263307D01*
X150073232Y-86275712D01*
X149997900Y-86314594D01*
X149927875Y-86350736D01*
X149927873Y-86350738D01*
X149922569Y-86353475D01*
X149794804Y-86464931D01*
X149697313Y-86603647D01*
X149635724Y-86761613D01*
X149618700Y-86890926D01*
X149618700Y-90646708D01*
X149599793Y-90704899D01*
X149550293Y-90740863D01*
X149489107Y-90740863D01*
X149439607Y-90704899D01*
X149428236Y-90684594D01*
X149394381Y-90602860D01*
X149394379Y-90602856D01*
X149391898Y-90596867D01*
X149387952Y-90591725D01*
X149387950Y-90591721D01*
X149303602Y-90481798D01*
X149299651Y-90476649D01*
X149294502Y-90472698D01*
X149184579Y-90388350D01*
X149184575Y-90388348D01*
X149179433Y-90384402D01*
X149173444Y-90381921D01*
X149173440Y-90381919D01*
X149045433Y-90328897D01*
X149039436Y-90326413D01*
X148926920Y-90311600D01*
X148851480Y-90311600D01*
X148738964Y-90326413D01*
X148732967Y-90328897D01*
X148604960Y-90381919D01*
X148604956Y-90381921D01*
X148598967Y-90384402D01*
X148593825Y-90388348D01*
X148593821Y-90388350D01*
X148483898Y-90472698D01*
X148478749Y-90476649D01*
X148474798Y-90481798D01*
X148390450Y-90591721D01*
X148390448Y-90591725D01*
X148386502Y-90596867D01*
X148384021Y-90602856D01*
X148384019Y-90602860D01*
X148365857Y-90646708D01*
X148328513Y-90736864D01*
X148308734Y-90887100D01*
X143689666Y-90887100D01*
X143669887Y-90736864D01*
X143632543Y-90646708D01*
X143614381Y-90602860D01*
X143614379Y-90602856D01*
X143611898Y-90596867D01*
X143607952Y-90591725D01*
X143607950Y-90591721D01*
X143523602Y-90481798D01*
X143519651Y-90476649D01*
X143514502Y-90472698D01*
X143404579Y-90388350D01*
X143404575Y-90388348D01*
X143399433Y-90384402D01*
X143393444Y-90381921D01*
X143393440Y-90381919D01*
X143265433Y-90328897D01*
X143259436Y-90326413D01*
X143146920Y-90311600D01*
X143071480Y-90311600D01*
X142958964Y-90326413D01*
X142952967Y-90328897D01*
X142824960Y-90381919D01*
X142824956Y-90381921D01*
X142818967Y-90384402D01*
X142813825Y-90388348D01*
X142813821Y-90388350D01*
X142703898Y-90472698D01*
X142698749Y-90476649D01*
X142694798Y-90481798D01*
X142610450Y-90591721D01*
X142610448Y-90591725D01*
X142606502Y-90596867D01*
X142604021Y-90602856D01*
X142604019Y-90602860D01*
X142570164Y-90684594D01*
X142530427Y-90731120D01*
X142470932Y-90745403D01*
X142414404Y-90721988D01*
X142382435Y-90669819D01*
X142379700Y-90646708D01*
X142379700Y-86894584D01*
X142364476Y-86768780D01*
X142304545Y-86610177D01*
X142208512Y-86470449D01*
X142081921Y-86357660D01*
X141932081Y-86278324D01*
X141849861Y-86257671D01*
X141773431Y-86238473D01*
X141773428Y-86238473D01*
X141767641Y-86237019D01*
X141682041Y-86236571D01*
X141604061Y-86236162D01*
X141604059Y-86236162D01*
X141598095Y-86236131D01*
X141592299Y-86237523D01*
X141592295Y-86237523D01*
X141484903Y-86263307D01*
X141433232Y-86275712D01*
X141357900Y-86314594D01*
X141287875Y-86350736D01*
X141287873Y-86350738D01*
X141282569Y-86353475D01*
X141154804Y-86464931D01*
X141057313Y-86603647D01*
X140995724Y-86761613D01*
X140978700Y-86890926D01*
X140978700Y-92009616D01*
X140535500Y-92009616D01*
X140535500Y-84932300D01*
X140554407Y-84874109D01*
X140603907Y-84838145D01*
X140634500Y-84833300D01*
X151465500Y-84833300D01*
X151523691Y-84852207D01*
G37*
%TD.AperFunction*%
%TD*%
M02*
