%TF.GenerationSoftware,KiCad,Pcbnew,6.0.11+dfsg-1~bpo11+1*%
%TF.CreationDate,2023-10-28T20:26:38+09:00*%
%TF.ProjectId,pcb-devboard,7063622d-6465-4766-926f-6172642e6b69,rev?*%
%TF.SameCoordinates,Original*%
%TF.FileFunction,Soldermask,Top*%
%TF.FilePolarity,Negative*%
%FSLAX46Y46*%
G04 Gerber Fmt 4.6, Leading zero omitted, Abs format (unit mm)*
G04 Created by KiCad (PCBNEW 6.0.11+dfsg-1~bpo11+1) date 2023-10-28 20:26:38*
%MOMM*%
%LPD*%
G01*
G04 APERTURE LIST*
G04 Aperture macros list*
%AMRoundRect*
0 Rectangle with rounded corners*
0 $1 Rounding radius*
0 $2 $3 $4 $5 $6 $7 $8 $9 X,Y pos of 4 corners*
0 Add a 4 corners polygon primitive as box body*
4,1,4,$2,$3,$4,$5,$6,$7,$8,$9,$2,$3,0*
0 Add four circle primitives for the rounded corners*
1,1,$1+$1,$2,$3*
1,1,$1+$1,$4,$5*
1,1,$1+$1,$6,$7*
1,1,$1+$1,$8,$9*
0 Add four rect primitives between the rounded corners*
20,1,$1+$1,$2,$3,$4,$5,0*
20,1,$1+$1,$4,$5,$6,$7,0*
20,1,$1+$1,$6,$7,$8,$9,0*
20,1,$1+$1,$8,$9,$2,$3,0*%
G04 Aperture macros list end*
%ADD10RoundRect,0.225000X-0.225000X-0.250000X0.225000X-0.250000X0.225000X0.250000X-0.225000X0.250000X0*%
%ADD11R,0.300000X1.400000*%
%ADD12RoundRect,0.135000X-0.185000X0.135000X-0.185000X-0.135000X0.185000X-0.135000X0.185000X0.135000X0*%
%ADD13R,1.500000X1.000000*%
%ADD14RoundRect,0.135000X-0.135000X-0.185000X0.135000X-0.185000X0.135000X0.185000X-0.135000X0.185000X0*%
%ADD15RoundRect,0.135000X0.185000X-0.135000X0.185000X0.135000X-0.185000X0.135000X-0.185000X-0.135000X0*%
%ADD16R,1.000000X1.500000*%
%ADD17RoundRect,0.218750X0.256250X-0.218750X0.256250X0.218750X-0.256250X0.218750X-0.256250X-0.218750X0*%
%ADD18C,0.650000*%
%ADD19R,0.600000X1.450000*%
%ADD20R,0.300000X1.450000*%
%ADD21RoundRect,0.225000X0.250000X-0.225000X0.250000X0.225000X-0.250000X0.225000X-0.250000X-0.225000X0*%
%ADD22RoundRect,0.135000X0.135000X0.185000X-0.135000X0.185000X-0.135000X-0.185000X0.135000X-0.185000X0*%
%ADD23RoundRect,0.150000X-0.825000X-0.150000X0.825000X-0.150000X0.825000X0.150000X-0.825000X0.150000X0*%
%ADD24R,1.000000X1.000000*%
%ADD25R,1.700000X1.700000*%
%ADD26O,1.700000X1.700000*%
G04 APERTURE END LIST*
D10*
%TO.C,C3*%
X141668200Y-109220000D03*
X143218200Y-109220000D03*
%TD*%
D11*
%TO.C,U1*%
X146643600Y-96555100D03*
X146143600Y-96555100D03*
X145643600Y-96555100D03*
X145143600Y-96555100D03*
X144643600Y-96555100D03*
X144643600Y-100955100D03*
X145143600Y-100955100D03*
X145643600Y-100955100D03*
X146143600Y-100955100D03*
X146643600Y-100955100D03*
%TD*%
D12*
%TO.C,R3*%
X141681200Y-94462500D03*
X141681200Y-95482500D03*
%TD*%
D13*
%TO.C,JP5*%
X149860000Y-104872000D03*
X149860000Y-106172000D03*
%TD*%
D14*
%TO.C,R7*%
X140966000Y-98932900D03*
X141986000Y-98932900D03*
%TD*%
D15*
%TO.C,R1*%
X147777200Y-94997900D03*
X147777200Y-93977900D03*
%TD*%
D16*
%TO.C,JP1*%
X149260800Y-102489000D03*
X150560800Y-102489000D03*
%TD*%
D13*
%TO.C,JP3*%
X147193000Y-104872000D03*
X147193000Y-106172000D03*
%TD*%
D17*
%TO.C,D1*%
X141478000Y-102895500D03*
X141478000Y-101320500D03*
%TD*%
D18*
%TO.C,USB1*%
X148889200Y-90887100D03*
X143109200Y-90887100D03*
D19*
X149224200Y-92332100D03*
X148449200Y-92332100D03*
D20*
X147749200Y-92332100D03*
X147249200Y-92332100D03*
X146749200Y-92332100D03*
X146249200Y-92332100D03*
X145749200Y-92332100D03*
X145249200Y-92332100D03*
X144749200Y-92332100D03*
X144249200Y-92332100D03*
D19*
X143549200Y-92332100D03*
X142774200Y-92332100D03*
%TD*%
D21*
%TO.C,C2*%
X148386800Y-99707900D03*
X148386800Y-98157900D03*
%TD*%
D22*
%TO.C,R6*%
X141986000Y-99999700D03*
X140966000Y-99999700D03*
%TD*%
D15*
%TO.C,R2*%
X144246600Y-94999900D03*
X144246600Y-93979900D03*
%TD*%
D12*
%TO.C,R5*%
X143103600Y-93979900D03*
X143103600Y-94999900D03*
%TD*%
D21*
%TO.C,C4*%
X150317200Y-99199900D03*
X150317200Y-97649900D03*
%TD*%
D13*
%TO.C,JP2*%
X144526000Y-104872000D03*
X144526000Y-106172000D03*
%TD*%
%TO.C,JP4*%
X141859000Y-104872000D03*
X141859000Y-106172000D03*
%TD*%
D23*
%TO.C,U2*%
X141670000Y-110998000D03*
X141670000Y-112268000D03*
X141670000Y-113538000D03*
X141670000Y-114808000D03*
X146620000Y-114808000D03*
X146620000Y-113538000D03*
X146620000Y-112268000D03*
X146620000Y-110998000D03*
%TD*%
D21*
%TO.C,C1*%
X150317200Y-96012500D03*
X150317200Y-94462500D03*
%TD*%
D22*
%TO.C,R8*%
X147421600Y-109448600D03*
X146401600Y-109448600D03*
%TD*%
D12*
%TO.C,R4*%
X143103600Y-96062700D03*
X143103600Y-97082700D03*
%TD*%
D24*
%TO.C,TP1*%
X141503400Y-97231200D03*
%TD*%
D25*
%TO.C,J2*%
X142240000Y-119380000D03*
D26*
X142240000Y-121920000D03*
X142240000Y-124460000D03*
X142240000Y-127000000D03*
%TD*%
D25*
%TO.C,J3*%
X149860000Y-119380000D03*
D26*
X149860000Y-121920000D03*
X149860000Y-124460000D03*
X149860000Y-127000000D03*
%TD*%
D25*
%TO.C,J1*%
X149860000Y-109220000D03*
D26*
X149860000Y-111760000D03*
X149860000Y-114300000D03*
%TD*%
M02*
