%TF.GenerationSoftware,KiCad,Pcbnew,6.0.11+dfsg-1~bpo11+1*%
%TF.CreationDate,2024-05-12T17:16:57+09:00*%
%TF.ProjectId,pcb-devboard,7063622d-6465-4766-926f-6172642e6b69,rev?*%
%TF.SameCoordinates,Original*%
%TF.FileFunction,Copper,L2,Bot*%
%TF.FilePolarity,Positive*%
%FSLAX46Y46*%
G04 Gerber Fmt 4.6, Leading zero omitted, Abs format (unit mm)*
G04 Created by KiCad (PCBNEW 6.0.11+dfsg-1~bpo11+1) date 2024-05-12 17:16:57*
%MOMM*%
%LPD*%
G01*
G04 APERTURE LIST*
%TA.AperFunction,ComponentPad*%
%ADD10R,1.700000X1.700000*%
%TD*%
%TA.AperFunction,ComponentPad*%
%ADD11O,1.700000X1.700000*%
%TD*%
%TA.AperFunction,ViaPad*%
%ADD12C,0.600000*%
%TD*%
%TA.AperFunction,Conductor*%
%ADD13C,0.150000*%
%TD*%
%TA.AperFunction,Conductor*%
%ADD14C,0.450000*%
%TD*%
G04 APERTURE END LIST*
D10*
%TO.P,J4,1,Pin_1*%
%TO.N,VSYS*%
X109220000Y-93726000D03*
D11*
%TO.P,J4,2,Pin_2*%
%TO.N,/PIN_PB2*%
X109220000Y-91186000D03*
%TO.P,J4,3,Pin_3*%
%TO.N,/PIN_PB3*%
X111760000Y-93726000D03*
%TO.P,J4,4,Pin_4*%
%TO.N,/PIN_PA0*%
X111760000Y-91186000D03*
%TO.P,J4,5,Pin_5*%
%TO.N,/PIN_PA1*%
X114300000Y-93726000D03*
%TO.P,J4,6,Pin_6*%
%TO.N,/PIN_PA2*%
X114300000Y-91186000D03*
%TO.P,J4,7,Pin_7*%
%TO.N,GND*%
X116840000Y-93726000D03*
%TO.P,J4,8,Pin_8*%
%TO.N,unconnected-(J4-Pad8)*%
X116840000Y-91186000D03*
%TD*%
D10*
%TO.P,J2,1,Pin_1*%
%TO.N,GND*%
X119380000Y-111760000D03*
D11*
%TO.P,J2,2,Pin_2*%
%TO.N,/PIN_PA0*%
X119380000Y-114300000D03*
%TO.P,J2,3,Pin_3*%
%TO.N,/PIN_PA1*%
X119380000Y-116840000D03*
%TO.P,J2,4,Pin_4*%
%TO.N,/PIN_PA2*%
X119380000Y-119380000D03*
%TO.P,J2,5,Pin_5*%
%TO.N,/PIN_PA3*%
X119380000Y-121920000D03*
%TO.P,J2,6,Pin_6*%
%TO.N,/PIN_PA4*%
X119380000Y-124460000D03*
%TO.P,J2,7,Pin_7*%
%TO.N,/PIN_PA5*%
X119380000Y-127000000D03*
%TO.P,J2,8,Pin_8*%
%TO.N,/PIN_PA6*%
X119380000Y-129540000D03*
%TO.P,J2,9,Pin_9*%
%TO.N,/PIN_PA7*%
X119380000Y-132080000D03*
%TO.P,J2,10,Pin_10*%
%TO.N,/PIN_PB0*%
X119380000Y-134620000D03*
%TD*%
D10*
%TO.P,J3,1,Pin_1*%
%TO.N,VSYS*%
X106680000Y-111760000D03*
D11*
%TO.P,J3,2,Pin_2*%
%TO.N,/PIN_PB1*%
X106680000Y-114300000D03*
%TO.P,J3,3,Pin_3*%
%TO.N,/PIN_PB2*%
X106680000Y-116840000D03*
%TO.P,J3,4,Pin_4*%
%TO.N,/PIN_PB3*%
X106680000Y-119380000D03*
%TO.P,J3,5,Pin_5*%
%TO.N,/PIN_PB4*%
X106680000Y-121920000D03*
%TO.P,J3,6,Pin_6*%
%TO.N,/PIN_PB5*%
X106680000Y-124460000D03*
%TO.P,J3,7,Pin_7*%
%TO.N,/PIN_PC0*%
X106680000Y-127000000D03*
%TO.P,J3,8,Pin_8*%
%TO.N,/PIN_PC1*%
X106680000Y-129540000D03*
%TO.P,J3,9,Pin_9*%
%TO.N,/PIN_PC2*%
X106680000Y-132080000D03*
%TO.P,J3,10,Pin_10*%
%TO.N,/PIN_PC3*%
X106680000Y-134620000D03*
%TD*%
D12*
%TO.N,GND*%
X113284000Y-135763000D03*
X105918000Y-93218000D03*
X120015000Y-97028000D03*
X105791000Y-102616000D03*
%TO.N,VSYS*%
X105791000Y-109347000D03*
X105791000Y-106233405D03*
%TO.N,/PIN_PB3*%
X107061000Y-105918000D03*
%TO.N,/PIN_PB2*%
X106807000Y-107188000D03*
%TO.N,/PIN_PA1*%
X114427000Y-100838000D03*
X113411000Y-116840000D03*
%TO.N,/PIN_PA2*%
X114427000Y-99568000D03*
X113411000Y-119380000D03*
%TO.N,/PIN_PA7*%
X109855000Y-102108000D03*
X112141000Y-130810000D03*
%TO.N,/PIN_PA6*%
X109855000Y-100838000D03*
X112141000Y-128143000D03*
%TO.N,/PIN_PA3*%
X112776000Y-121920000D03*
X115951000Y-98298000D03*
%TO.N,/PIN_PA4*%
X112141000Y-124460000D03*
X109855000Y-98298000D03*
%TO.N,/PIN_PA5*%
X109855000Y-99568000D03*
X112141000Y-125476000D03*
%TO.N,/PIN_PB0*%
X116967000Y-110109000D03*
%TO.N,/PIN_PC0*%
X113284000Y-127000000D03*
X114046000Y-107315000D03*
%TO.N,/PIN_PC1*%
X113284000Y-129540000D03*
X114681000Y-105918000D03*
%TO.N,/PIN_PC2*%
X115443000Y-104648000D03*
X113284000Y-132080000D03*
%TO.N,/PIN_PC3*%
X113284000Y-134620000D03*
X116078000Y-103378000D03*
%TD*%
D13*
%TO.N,/PIN_PB3*%
X111760000Y-93726000D02*
X111760000Y-94869000D01*
X111760000Y-94869000D02*
X110998000Y-95631000D01*
X110998000Y-95631000D02*
X108077000Y-95631000D01*
X108077000Y-95631000D02*
X107061000Y-96647000D01*
X107061000Y-96647000D02*
X107061000Y-105918000D01*
D14*
%TO.N,VSYS*%
X105791000Y-106233405D02*
X105791000Y-109347000D01*
D13*
%TO.N,/PIN_PB2*%
X106807000Y-107188000D02*
X106426000Y-106807000D01*
X106426000Y-106807000D02*
X106426000Y-93980000D01*
X106426000Y-93980000D02*
X109220000Y-91186000D01*
%TO.N,/PIN_PA1*%
X114427000Y-100838000D02*
X113411000Y-101854000D01*
X113411000Y-101854000D02*
X113411000Y-116840000D01*
%TO.N,/PIN_PA2*%
X112776000Y-101252500D02*
X112776000Y-101219000D01*
X113411000Y-119380000D02*
X112776000Y-118745000D01*
X112776000Y-118745000D02*
X112776000Y-101252500D01*
X112776000Y-101219000D02*
X114427000Y-99568000D01*
%TO.N,/PIN_PA7*%
X109855000Y-128524000D02*
X112141000Y-130810000D01*
X109855000Y-102108000D02*
X109855000Y-128524000D01*
%TO.N,/PIN_PA6*%
X109855000Y-100838000D02*
X110744000Y-101727000D01*
X110744000Y-101727000D02*
X110744000Y-126746000D01*
X110744000Y-126746000D02*
X112141000Y-128143000D01*
%TO.N,/PIN_PA3*%
X112268000Y-121412000D02*
X112268000Y-100457000D01*
X112776000Y-121920000D02*
X112268000Y-121412000D01*
X112268000Y-100457000D02*
X114427000Y-98298000D01*
X114427000Y-98298000D02*
X115951000Y-98298000D01*
%TO.N,/PIN_PA4*%
X111760000Y-124079000D02*
X112141000Y-124460000D01*
X109855000Y-98298000D02*
X111760000Y-100203000D01*
X111760000Y-100203000D02*
X111760000Y-124079000D01*
%TO.N,/PIN_PA5*%
X109855000Y-99568000D02*
X111252000Y-100965000D01*
X111252000Y-124587000D02*
X112141000Y-125476000D01*
X111252000Y-100965000D02*
X111252000Y-124587000D01*
%TO.N,/PIN_PB0*%
X119380000Y-134620000D02*
X117983000Y-134620000D01*
X116967000Y-133604000D02*
X116967000Y-110109000D01*
X116967000Y-133604000D02*
X117983000Y-134620000D01*
%TO.N,/PIN_PC0*%
X113284000Y-127000000D02*
X114046000Y-126238000D01*
X114046000Y-126238000D02*
X114046000Y-107315000D01*
%TO.N,/PIN_PC1*%
X114681000Y-128143000D02*
X114681000Y-105918000D01*
X113284000Y-129540000D02*
X114681000Y-128143000D01*
%TO.N,/PIN_PC2*%
X113284000Y-132080000D02*
X115443000Y-129921000D01*
X115443000Y-129921000D02*
X115443000Y-104648000D01*
%TO.N,/PIN_PC3*%
X113284000Y-134620000D02*
X116078000Y-131826000D01*
X116078000Y-131826000D02*
X116078000Y-103378000D01*
%TD*%
%TA.AperFunction,Conductor*%
%TO.N,GND*%
G36*
X121043691Y-89373407D02*
G01*
X121079655Y-89422907D01*
X121084500Y-89453500D01*
X121084500Y-136225500D01*
X121065593Y-136283691D01*
X121016093Y-136319655D01*
X120985500Y-136324500D01*
X105074500Y-136324500D01*
X105016309Y-136305593D01*
X104980345Y-136256093D01*
X104975500Y-136225500D01*
X104975500Y-134605262D01*
X105624520Y-134605262D01*
X105625526Y-134617244D01*
X105639927Y-134788731D01*
X105641759Y-134810553D01*
X105643092Y-134815201D01*
X105643092Y-134815202D01*
X105697176Y-135003814D01*
X105698544Y-135008586D01*
X105792712Y-135191818D01*
X105920677Y-135353270D01*
X105924357Y-135356402D01*
X105924359Y-135356404D01*
X106037017Y-135452283D01*
X106077564Y-135486791D01*
X106081787Y-135489151D01*
X106081791Y-135489154D01*
X106121342Y-135511258D01*
X106257398Y-135587297D01*
X106261996Y-135588791D01*
X106448724Y-135649463D01*
X106448726Y-135649464D01*
X106453329Y-135650959D01*
X106657894Y-135675351D01*
X106662716Y-135674980D01*
X106662719Y-135674980D01*
X106730541Y-135669761D01*
X106863300Y-135659546D01*
X107061725Y-135604145D01*
X107066038Y-135601966D01*
X107066044Y-135601964D01*
X107241289Y-135513441D01*
X107241291Y-135513440D01*
X107245610Y-135511258D01*
X107280943Y-135483653D01*
X107404135Y-135387406D01*
X107404139Y-135387402D01*
X107407951Y-135384424D01*
X107542564Y-135228472D01*
X107561231Y-135195613D01*
X107641934Y-135053550D01*
X107641935Y-135053547D01*
X107644323Y-135049344D01*
X107657882Y-135008586D01*
X107707824Y-134858454D01*
X107707824Y-134858452D01*
X107709351Y-134853863D01*
X107711869Y-134833935D01*
X107734823Y-134652228D01*
X107735171Y-134649474D01*
X107735583Y-134620000D01*
X107735313Y-134617244D01*
X107715952Y-134419780D01*
X107715951Y-134419776D01*
X107715480Y-134414970D01*
X107655935Y-134217749D01*
X107559218Y-134035849D01*
X107429011Y-133876200D01*
X107358651Y-133817993D01*
X107274002Y-133747965D01*
X107274000Y-133747964D01*
X107270275Y-133744882D01*
X107089055Y-133646897D01*
X106981367Y-133613562D01*
X106896875Y-133587407D01*
X106896871Y-133587406D01*
X106892254Y-133585977D01*
X106887446Y-133585472D01*
X106887443Y-133585471D01*
X106692185Y-133564949D01*
X106692183Y-133564949D01*
X106687369Y-133564443D01*
X106627354Y-133569905D01*
X106487022Y-133582675D01*
X106487017Y-133582676D01*
X106482203Y-133583114D01*
X106284572Y-133641280D01*
X106280288Y-133643519D01*
X106280287Y-133643520D01*
X106269428Y-133649197D01*
X106102002Y-133736726D01*
X106098231Y-133739758D01*
X105945220Y-133862781D01*
X105945217Y-133862783D01*
X105941447Y-133865815D01*
X105938333Y-133869526D01*
X105938332Y-133869527D01*
X105929585Y-133879952D01*
X105809024Y-134023630D01*
X105806689Y-134027878D01*
X105806688Y-134027879D01*
X105799955Y-134040126D01*
X105709776Y-134204162D01*
X105708313Y-134208775D01*
X105708311Y-134208779D01*
X105700016Y-134234930D01*
X105647484Y-134400532D01*
X105646944Y-134405344D01*
X105646944Y-134405345D01*
X105628753Y-134567527D01*
X105624520Y-134605262D01*
X104975500Y-134605262D01*
X104975500Y-132065262D01*
X105624520Y-132065262D01*
X105641759Y-132270553D01*
X105643092Y-132275201D01*
X105643092Y-132275202D01*
X105697176Y-132463814D01*
X105698544Y-132468586D01*
X105792712Y-132651818D01*
X105920677Y-132813270D01*
X105924357Y-132816402D01*
X105924359Y-132816404D01*
X106037017Y-132912283D01*
X106077564Y-132946791D01*
X106081787Y-132949151D01*
X106081791Y-132949154D01*
X106121342Y-132971258D01*
X106257398Y-133047297D01*
X106261996Y-133048791D01*
X106448724Y-133109463D01*
X106448726Y-133109464D01*
X106453329Y-133110959D01*
X106657894Y-133135351D01*
X106662716Y-133134980D01*
X106662719Y-133134980D01*
X106730541Y-133129761D01*
X106863300Y-133119546D01*
X107061725Y-133064145D01*
X107066038Y-133061966D01*
X107066044Y-133061964D01*
X107241289Y-132973441D01*
X107241291Y-132973440D01*
X107245610Y-132971258D01*
X107280943Y-132943653D01*
X107404135Y-132847406D01*
X107404139Y-132847402D01*
X107407951Y-132844424D01*
X107542564Y-132688472D01*
X107561231Y-132655613D01*
X107641934Y-132513550D01*
X107641935Y-132513547D01*
X107644323Y-132509344D01*
X107657882Y-132468586D01*
X107707824Y-132318454D01*
X107707824Y-132318452D01*
X107709351Y-132313863D01*
X107721717Y-132215979D01*
X107734823Y-132112228D01*
X107735171Y-132109474D01*
X107735583Y-132080000D01*
X107735313Y-132077244D01*
X107715952Y-131879780D01*
X107715951Y-131879776D01*
X107715480Y-131874970D01*
X107655935Y-131677749D01*
X107559218Y-131495849D01*
X107429011Y-131336200D01*
X107397238Y-131309915D01*
X107274002Y-131207965D01*
X107274000Y-131207964D01*
X107270275Y-131204882D01*
X107089055Y-131106897D01*
X107022869Y-131086409D01*
X106896875Y-131047407D01*
X106896871Y-131047406D01*
X106892254Y-131045977D01*
X106887446Y-131045472D01*
X106887443Y-131045471D01*
X106692185Y-131024949D01*
X106692183Y-131024949D01*
X106687369Y-131024443D01*
X106627354Y-131029905D01*
X106487022Y-131042675D01*
X106487017Y-131042676D01*
X106482203Y-131043114D01*
X106284572Y-131101280D01*
X106280288Y-131103519D01*
X106280287Y-131103520D01*
X106269428Y-131109197D01*
X106102002Y-131196726D01*
X106098231Y-131199758D01*
X105945220Y-131322781D01*
X105945217Y-131322783D01*
X105941447Y-131325815D01*
X105938333Y-131329526D01*
X105938332Y-131329527D01*
X105929585Y-131339952D01*
X105809024Y-131483630D01*
X105806689Y-131487878D01*
X105806688Y-131487879D01*
X105799955Y-131500126D01*
X105709776Y-131664162D01*
X105708313Y-131668775D01*
X105708311Y-131668779D01*
X105670139Y-131789115D01*
X105647484Y-131860532D01*
X105646944Y-131865344D01*
X105646944Y-131865345D01*
X105628753Y-132027527D01*
X105624520Y-132065262D01*
X104975500Y-132065262D01*
X104975500Y-129525262D01*
X105624520Y-129525262D01*
X105641759Y-129730553D01*
X105643092Y-129735201D01*
X105643092Y-129735202D01*
X105697176Y-129923814D01*
X105698544Y-129928586D01*
X105792712Y-130111818D01*
X105920677Y-130273270D01*
X105924357Y-130276402D01*
X105924359Y-130276404D01*
X105962696Y-130309031D01*
X106077564Y-130406791D01*
X106081787Y-130409151D01*
X106081791Y-130409154D01*
X106198702Y-130474493D01*
X106257398Y-130507297D01*
X106261996Y-130508791D01*
X106448724Y-130569463D01*
X106448726Y-130569464D01*
X106453329Y-130570959D01*
X106657894Y-130595351D01*
X106662716Y-130594980D01*
X106662719Y-130594980D01*
X106730541Y-130589761D01*
X106863300Y-130579546D01*
X107061725Y-130524145D01*
X107066038Y-130521966D01*
X107066044Y-130521964D01*
X107241289Y-130433441D01*
X107241291Y-130433440D01*
X107245610Y-130431258D01*
X107343443Y-130354823D01*
X107404135Y-130307406D01*
X107404139Y-130307402D01*
X107407951Y-130304424D01*
X107413875Y-130297562D01*
X107502346Y-130195065D01*
X107542564Y-130148472D01*
X107561231Y-130115613D01*
X107641934Y-129973550D01*
X107641935Y-129973547D01*
X107644323Y-129969344D01*
X107651380Y-129948132D01*
X107707824Y-129778454D01*
X107707824Y-129778452D01*
X107709351Y-129773863D01*
X107721717Y-129675979D01*
X107734823Y-129572228D01*
X107735171Y-129569474D01*
X107735583Y-129540000D01*
X107735313Y-129537244D01*
X107715952Y-129339780D01*
X107715951Y-129339776D01*
X107715480Y-129334970D01*
X107655935Y-129137749D01*
X107559218Y-128955849D01*
X107429011Y-128796200D01*
X107358651Y-128737993D01*
X107274002Y-128667965D01*
X107274000Y-128667964D01*
X107270275Y-128664882D01*
X107089055Y-128566897D01*
X107025855Y-128547333D01*
X106896875Y-128507407D01*
X106896871Y-128507406D01*
X106892254Y-128505977D01*
X106887446Y-128505472D01*
X106887443Y-128505471D01*
X106692185Y-128484949D01*
X106692183Y-128484949D01*
X106687369Y-128484443D01*
X106627354Y-128489905D01*
X106487022Y-128502675D01*
X106487017Y-128502676D01*
X106482203Y-128503114D01*
X106284572Y-128561280D01*
X106280288Y-128563519D01*
X106280287Y-128563520D01*
X106269428Y-128569197D01*
X106102002Y-128656726D01*
X106098231Y-128659758D01*
X105945220Y-128782781D01*
X105945217Y-128782783D01*
X105941447Y-128785815D01*
X105938333Y-128789526D01*
X105938332Y-128789527D01*
X105929585Y-128799952D01*
X105809024Y-128943630D01*
X105806689Y-128947878D01*
X105806688Y-128947879D01*
X105799955Y-128960126D01*
X105709776Y-129124162D01*
X105708313Y-129128775D01*
X105708311Y-129128779D01*
X105700016Y-129154930D01*
X105647484Y-129320532D01*
X105646944Y-129325344D01*
X105646944Y-129325345D01*
X105628753Y-129487527D01*
X105624520Y-129525262D01*
X104975500Y-129525262D01*
X104975500Y-126985262D01*
X105624520Y-126985262D01*
X105641759Y-127190553D01*
X105643092Y-127195201D01*
X105643092Y-127195202D01*
X105697176Y-127383814D01*
X105698544Y-127388586D01*
X105792712Y-127571818D01*
X105920677Y-127733270D01*
X105924357Y-127736402D01*
X105924359Y-127736404D01*
X106037017Y-127832283D01*
X106077564Y-127866791D01*
X106081787Y-127869151D01*
X106081791Y-127869154D01*
X106121342Y-127891258D01*
X106257398Y-127967297D01*
X106261996Y-127968791D01*
X106448724Y-128029463D01*
X106448726Y-128029464D01*
X106453329Y-128030959D01*
X106657894Y-128055351D01*
X106662716Y-128054980D01*
X106662719Y-128054980D01*
X106730541Y-128049761D01*
X106863300Y-128039546D01*
X107061725Y-127984145D01*
X107066038Y-127981966D01*
X107066044Y-127981964D01*
X107241289Y-127893441D01*
X107241291Y-127893440D01*
X107245610Y-127891258D01*
X107280943Y-127863653D01*
X107404135Y-127767406D01*
X107404139Y-127767402D01*
X107407951Y-127764424D01*
X107413388Y-127758126D01*
X107479128Y-127681964D01*
X107542564Y-127608472D01*
X107561231Y-127575613D01*
X107641934Y-127433550D01*
X107641935Y-127433547D01*
X107644323Y-127429344D01*
X107657882Y-127388586D01*
X107707824Y-127238454D01*
X107707824Y-127238452D01*
X107709351Y-127233863D01*
X107721717Y-127135979D01*
X107734823Y-127032228D01*
X107735171Y-127029474D01*
X107735583Y-127000000D01*
X107735313Y-126997244D01*
X107715952Y-126799780D01*
X107715951Y-126799776D01*
X107715480Y-126794970D01*
X107655935Y-126597749D01*
X107559218Y-126415849D01*
X107429011Y-126256200D01*
X107304119Y-126152880D01*
X107274002Y-126127965D01*
X107274000Y-126127964D01*
X107270275Y-126124882D01*
X107089055Y-126026897D01*
X107025855Y-126007333D01*
X106896875Y-125967407D01*
X106896871Y-125967406D01*
X106892254Y-125965977D01*
X106887446Y-125965472D01*
X106887443Y-125965471D01*
X106692185Y-125944949D01*
X106692183Y-125944949D01*
X106687369Y-125944443D01*
X106627354Y-125949905D01*
X106487022Y-125962675D01*
X106487017Y-125962676D01*
X106482203Y-125963114D01*
X106284572Y-126021280D01*
X106280288Y-126023519D01*
X106280287Y-126023520D01*
X106269428Y-126029197D01*
X106102002Y-126116726D01*
X106098231Y-126119758D01*
X105945220Y-126242781D01*
X105945217Y-126242783D01*
X105941447Y-126245815D01*
X105938333Y-126249526D01*
X105938332Y-126249527D01*
X105929585Y-126259952D01*
X105809024Y-126403630D01*
X105806689Y-126407878D01*
X105806688Y-126407879D01*
X105799955Y-126420126D01*
X105709776Y-126584162D01*
X105708313Y-126588775D01*
X105708311Y-126588779D01*
X105670138Y-126709116D01*
X105647484Y-126780532D01*
X105646944Y-126785344D01*
X105646944Y-126785345D01*
X105628753Y-126947527D01*
X105624520Y-126985262D01*
X104975500Y-126985262D01*
X104975500Y-124445262D01*
X105624520Y-124445262D01*
X105641759Y-124650553D01*
X105643092Y-124655201D01*
X105643092Y-124655202D01*
X105697176Y-124843814D01*
X105698544Y-124848586D01*
X105792712Y-125031818D01*
X105920677Y-125193270D01*
X105924357Y-125196402D01*
X105924359Y-125196404D01*
X106037017Y-125292283D01*
X106077564Y-125326791D01*
X106081787Y-125329151D01*
X106081791Y-125329154D01*
X106121342Y-125351258D01*
X106257398Y-125427297D01*
X106261996Y-125428791D01*
X106448724Y-125489463D01*
X106448726Y-125489464D01*
X106453329Y-125490959D01*
X106657894Y-125515351D01*
X106662716Y-125514980D01*
X106662719Y-125514980D01*
X106730541Y-125509761D01*
X106863300Y-125499546D01*
X107061725Y-125444145D01*
X107066038Y-125441966D01*
X107066044Y-125441964D01*
X107241289Y-125353441D01*
X107241291Y-125353440D01*
X107245610Y-125351258D01*
X107260981Y-125339249D01*
X107404135Y-125227406D01*
X107404139Y-125227402D01*
X107407951Y-125224424D01*
X107430565Y-125198226D01*
X107515085Y-125100307D01*
X107542564Y-125068472D01*
X107561231Y-125035613D01*
X107641934Y-124893550D01*
X107641935Y-124893547D01*
X107644323Y-124889344D01*
X107646232Y-124883608D01*
X107707824Y-124698454D01*
X107707824Y-124698452D01*
X107709351Y-124693863D01*
X107721717Y-124595979D01*
X107734823Y-124492228D01*
X107735171Y-124489474D01*
X107735583Y-124460000D01*
X107735313Y-124457244D01*
X107715952Y-124259780D01*
X107715951Y-124259776D01*
X107715480Y-124254970D01*
X107655935Y-124057749D01*
X107559218Y-123875849D01*
X107429011Y-123716200D01*
X107270275Y-123584882D01*
X107089055Y-123486897D01*
X107025855Y-123467333D01*
X106896875Y-123427407D01*
X106896871Y-123427406D01*
X106892254Y-123425977D01*
X106887446Y-123425472D01*
X106887443Y-123425471D01*
X106692185Y-123404949D01*
X106692183Y-123404949D01*
X106687369Y-123404443D01*
X106627354Y-123409905D01*
X106487022Y-123422675D01*
X106487017Y-123422676D01*
X106482203Y-123423114D01*
X106284572Y-123481280D01*
X106280288Y-123483519D01*
X106280287Y-123483520D01*
X106269428Y-123489197D01*
X106102002Y-123576726D01*
X106098231Y-123579758D01*
X105945220Y-123702781D01*
X105945217Y-123702783D01*
X105941447Y-123705815D01*
X105938333Y-123709526D01*
X105938332Y-123709527D01*
X105929585Y-123719952D01*
X105809024Y-123863630D01*
X105806689Y-123867878D01*
X105806688Y-123867879D01*
X105799955Y-123880126D01*
X105709776Y-124044162D01*
X105708313Y-124048775D01*
X105708311Y-124048779D01*
X105697041Y-124084307D01*
X105647484Y-124240532D01*
X105646944Y-124245344D01*
X105646944Y-124245345D01*
X105641600Y-124292993D01*
X105624520Y-124445262D01*
X104975500Y-124445262D01*
X104975500Y-121905262D01*
X105624520Y-121905262D01*
X105641759Y-122110553D01*
X105643092Y-122115201D01*
X105643092Y-122115202D01*
X105697176Y-122303814D01*
X105698544Y-122308586D01*
X105792712Y-122491818D01*
X105920677Y-122653270D01*
X105924357Y-122656402D01*
X105924359Y-122656404D01*
X106037017Y-122752283D01*
X106077564Y-122786791D01*
X106081787Y-122789151D01*
X106081791Y-122789154D01*
X106121342Y-122811258D01*
X106257398Y-122887297D01*
X106261996Y-122888791D01*
X106448724Y-122949463D01*
X106448726Y-122949464D01*
X106453329Y-122950959D01*
X106657894Y-122975351D01*
X106662716Y-122974980D01*
X106662719Y-122974980D01*
X106730541Y-122969761D01*
X106863300Y-122959546D01*
X107061725Y-122904145D01*
X107066038Y-122901966D01*
X107066044Y-122901964D01*
X107241289Y-122813441D01*
X107241291Y-122813440D01*
X107245610Y-122811258D01*
X107280943Y-122783653D01*
X107404135Y-122687406D01*
X107404139Y-122687402D01*
X107407951Y-122684424D01*
X107542564Y-122528472D01*
X107561231Y-122495613D01*
X107641934Y-122353550D01*
X107641935Y-122353547D01*
X107644323Y-122349344D01*
X107657882Y-122308586D01*
X107707824Y-122158454D01*
X107707824Y-122158452D01*
X107709351Y-122153863D01*
X107721717Y-122055979D01*
X107734823Y-121952228D01*
X107735171Y-121949474D01*
X107735583Y-121920000D01*
X107735313Y-121917244D01*
X107715952Y-121719780D01*
X107715951Y-121719776D01*
X107715480Y-121714970D01*
X107655935Y-121517749D01*
X107559218Y-121335849D01*
X107429011Y-121176200D01*
X107270275Y-121044882D01*
X107089055Y-120946897D01*
X107025855Y-120927333D01*
X106896875Y-120887407D01*
X106896871Y-120887406D01*
X106892254Y-120885977D01*
X106887446Y-120885472D01*
X106887443Y-120885471D01*
X106692185Y-120864949D01*
X106692183Y-120864949D01*
X106687369Y-120864443D01*
X106627354Y-120869905D01*
X106487022Y-120882675D01*
X106487017Y-120882676D01*
X106482203Y-120883114D01*
X106284572Y-120941280D01*
X106280288Y-120943519D01*
X106280287Y-120943520D01*
X106269428Y-120949197D01*
X106102002Y-121036726D01*
X106098231Y-121039758D01*
X105945220Y-121162781D01*
X105945217Y-121162783D01*
X105941447Y-121165815D01*
X105938333Y-121169526D01*
X105938332Y-121169527D01*
X105830628Y-121297884D01*
X105809024Y-121323630D01*
X105806689Y-121327878D01*
X105806688Y-121327879D01*
X105799955Y-121340126D01*
X105709776Y-121504162D01*
X105708313Y-121508775D01*
X105708311Y-121508779D01*
X105697041Y-121544307D01*
X105647484Y-121700532D01*
X105646944Y-121705344D01*
X105646944Y-121705345D01*
X105635416Y-121808124D01*
X105624520Y-121905262D01*
X104975500Y-121905262D01*
X104975500Y-119365262D01*
X105624520Y-119365262D01*
X105641759Y-119570553D01*
X105643092Y-119575201D01*
X105643092Y-119575202D01*
X105696328Y-119760857D01*
X105698544Y-119768586D01*
X105792712Y-119951818D01*
X105920677Y-120113270D01*
X105924357Y-120116402D01*
X105924359Y-120116404D01*
X106037017Y-120212283D01*
X106077564Y-120246791D01*
X106081787Y-120249151D01*
X106081791Y-120249154D01*
X106121342Y-120271258D01*
X106257398Y-120347297D01*
X106261996Y-120348791D01*
X106448724Y-120409463D01*
X106448726Y-120409464D01*
X106453329Y-120410959D01*
X106657894Y-120435351D01*
X106662716Y-120434980D01*
X106662719Y-120434980D01*
X106730541Y-120429761D01*
X106863300Y-120419546D01*
X107061725Y-120364145D01*
X107066038Y-120361966D01*
X107066044Y-120361964D01*
X107241289Y-120273441D01*
X107241291Y-120273440D01*
X107245610Y-120271258D01*
X107280943Y-120243653D01*
X107404135Y-120147406D01*
X107404139Y-120147402D01*
X107407951Y-120144424D01*
X107542564Y-119988472D01*
X107561231Y-119955613D01*
X107641934Y-119813550D01*
X107641935Y-119813547D01*
X107644323Y-119809344D01*
X107657882Y-119768586D01*
X107707824Y-119618454D01*
X107707824Y-119618452D01*
X107709351Y-119613863D01*
X107721717Y-119515979D01*
X107734823Y-119412228D01*
X107735171Y-119409474D01*
X107735583Y-119380000D01*
X107735313Y-119377244D01*
X107715952Y-119179780D01*
X107715951Y-119179776D01*
X107715480Y-119174970D01*
X107655935Y-118977749D01*
X107559218Y-118795849D01*
X107429011Y-118636200D01*
X107270275Y-118504882D01*
X107089055Y-118406897D01*
X107025855Y-118387333D01*
X106896875Y-118347407D01*
X106896871Y-118347406D01*
X106892254Y-118345977D01*
X106887446Y-118345472D01*
X106887443Y-118345471D01*
X106692185Y-118324949D01*
X106692183Y-118324949D01*
X106687369Y-118324443D01*
X106627354Y-118329905D01*
X106487022Y-118342675D01*
X106487017Y-118342676D01*
X106482203Y-118343114D01*
X106284572Y-118401280D01*
X106280288Y-118403519D01*
X106280287Y-118403520D01*
X106269428Y-118409197D01*
X106102002Y-118496726D01*
X106098231Y-118499758D01*
X105945220Y-118622781D01*
X105945217Y-118622783D01*
X105941447Y-118625815D01*
X105938333Y-118629526D01*
X105938332Y-118629527D01*
X105929585Y-118639952D01*
X105809024Y-118783630D01*
X105806689Y-118787878D01*
X105806688Y-118787879D01*
X105799955Y-118800126D01*
X105709776Y-118964162D01*
X105708313Y-118968775D01*
X105708311Y-118968779D01*
X105683508Y-119046969D01*
X105647484Y-119160532D01*
X105646944Y-119165344D01*
X105646944Y-119165345D01*
X105645865Y-119174970D01*
X105624520Y-119365262D01*
X104975500Y-119365262D01*
X104975500Y-116825262D01*
X105624520Y-116825262D01*
X105641759Y-117030553D01*
X105643092Y-117035201D01*
X105643092Y-117035202D01*
X105687110Y-117188710D01*
X105698544Y-117228586D01*
X105792712Y-117411818D01*
X105920677Y-117573270D01*
X105924357Y-117576402D01*
X105924359Y-117576404D01*
X106037017Y-117672283D01*
X106077564Y-117706791D01*
X106081787Y-117709151D01*
X106081791Y-117709154D01*
X106121342Y-117731258D01*
X106257398Y-117807297D01*
X106261996Y-117808791D01*
X106448724Y-117869463D01*
X106448726Y-117869464D01*
X106453329Y-117870959D01*
X106657894Y-117895351D01*
X106662716Y-117894980D01*
X106662719Y-117894980D01*
X106730541Y-117889761D01*
X106863300Y-117879546D01*
X107061725Y-117824145D01*
X107066038Y-117821966D01*
X107066044Y-117821964D01*
X107241289Y-117733441D01*
X107241291Y-117733440D01*
X107245610Y-117731258D01*
X107280943Y-117703653D01*
X107404135Y-117607406D01*
X107404139Y-117607402D01*
X107407951Y-117604424D01*
X107542564Y-117448472D01*
X107561231Y-117415613D01*
X107641934Y-117273550D01*
X107641935Y-117273547D01*
X107644323Y-117269344D01*
X107657882Y-117228586D01*
X107707824Y-117078454D01*
X107707824Y-117078452D01*
X107709351Y-117073863D01*
X107735171Y-116869474D01*
X107735583Y-116840000D01*
X107715480Y-116634970D01*
X107655935Y-116437749D01*
X107559218Y-116255849D01*
X107429011Y-116096200D01*
X107270275Y-115964882D01*
X107089055Y-115866897D01*
X107025855Y-115847333D01*
X106896875Y-115807407D01*
X106896871Y-115807406D01*
X106892254Y-115805977D01*
X106887446Y-115805472D01*
X106887443Y-115805471D01*
X106692185Y-115784949D01*
X106692183Y-115784949D01*
X106687369Y-115784443D01*
X106627354Y-115789905D01*
X106487022Y-115802675D01*
X106487017Y-115802676D01*
X106482203Y-115803114D01*
X106284572Y-115861280D01*
X106280288Y-115863519D01*
X106280287Y-115863520D01*
X106269428Y-115869197D01*
X106102002Y-115956726D01*
X106098231Y-115959758D01*
X105945220Y-116082781D01*
X105945217Y-116082783D01*
X105941447Y-116085815D01*
X105938333Y-116089526D01*
X105938332Y-116089527D01*
X105929585Y-116099952D01*
X105809024Y-116243630D01*
X105806689Y-116247878D01*
X105806688Y-116247879D01*
X105799955Y-116260126D01*
X105709776Y-116424162D01*
X105708313Y-116428775D01*
X105708311Y-116428779D01*
X105688601Y-116490914D01*
X105647484Y-116620532D01*
X105646944Y-116625344D01*
X105646944Y-116625345D01*
X105645865Y-116634970D01*
X105624520Y-116825262D01*
X104975500Y-116825262D01*
X104975500Y-114285262D01*
X105624520Y-114285262D01*
X105641759Y-114490553D01*
X105698544Y-114688586D01*
X105792712Y-114871818D01*
X105920677Y-115033270D01*
X105924357Y-115036402D01*
X105924359Y-115036404D01*
X106037017Y-115132283D01*
X106077564Y-115166791D01*
X106081787Y-115169151D01*
X106081791Y-115169154D01*
X106121342Y-115191258D01*
X106257398Y-115267297D01*
X106261996Y-115268791D01*
X106448724Y-115329463D01*
X106448726Y-115329464D01*
X106453329Y-115330959D01*
X106657894Y-115355351D01*
X106662716Y-115354980D01*
X106662719Y-115354980D01*
X106730541Y-115349761D01*
X106863300Y-115339546D01*
X107061725Y-115284145D01*
X107066038Y-115281966D01*
X107066044Y-115281964D01*
X107241289Y-115193441D01*
X107241291Y-115193440D01*
X107245610Y-115191258D01*
X107280943Y-115163653D01*
X107404135Y-115067406D01*
X107404139Y-115067402D01*
X107407951Y-115064424D01*
X107542564Y-114908472D01*
X107561231Y-114875613D01*
X107641934Y-114733550D01*
X107641935Y-114733547D01*
X107644323Y-114729344D01*
X107657882Y-114688586D01*
X107707824Y-114538454D01*
X107707824Y-114538452D01*
X107709351Y-114533863D01*
X107735171Y-114329474D01*
X107735583Y-114300000D01*
X107715480Y-114094970D01*
X107655935Y-113897749D01*
X107559218Y-113715849D01*
X107429011Y-113556200D01*
X107270275Y-113424882D01*
X107089055Y-113326897D01*
X106992774Y-113297093D01*
X106896875Y-113267407D01*
X106896871Y-113267406D01*
X106892254Y-113265977D01*
X106887446Y-113265472D01*
X106887443Y-113265471D01*
X106692185Y-113244949D01*
X106692183Y-113244949D01*
X106687369Y-113244443D01*
X106627354Y-113249905D01*
X106487022Y-113262675D01*
X106487017Y-113262676D01*
X106482203Y-113263114D01*
X106284572Y-113321280D01*
X106280288Y-113323519D01*
X106280287Y-113323520D01*
X106269428Y-113329197D01*
X106102002Y-113416726D01*
X106098231Y-113419758D01*
X105945220Y-113542781D01*
X105945217Y-113542783D01*
X105941447Y-113545815D01*
X105938333Y-113549526D01*
X105938332Y-113549527D01*
X105929585Y-113559952D01*
X105809024Y-113703630D01*
X105806689Y-113707878D01*
X105806688Y-113707879D01*
X105799955Y-113720126D01*
X105709776Y-113884162D01*
X105647484Y-114080532D01*
X105646944Y-114085344D01*
X105646944Y-114085345D01*
X105645865Y-114094970D01*
X105624520Y-114285262D01*
X104975500Y-114285262D01*
X104975500Y-112629748D01*
X105629500Y-112629748D01*
X105641133Y-112688231D01*
X105685448Y-112754552D01*
X105751769Y-112798867D01*
X105761332Y-112800769D01*
X105761334Y-112800770D01*
X105784005Y-112805279D01*
X105810252Y-112810500D01*
X107549748Y-112810500D01*
X107575995Y-112805279D01*
X107598666Y-112800770D01*
X107598668Y-112800769D01*
X107608231Y-112798867D01*
X107674552Y-112754552D01*
X107718867Y-112688231D01*
X107730500Y-112629748D01*
X107730500Y-110890252D01*
X107718867Y-110831769D01*
X107674552Y-110765448D01*
X107608231Y-110721133D01*
X107598668Y-110719231D01*
X107598666Y-110719230D01*
X107575995Y-110714721D01*
X107549748Y-110709500D01*
X105810252Y-110709500D01*
X105784005Y-110714721D01*
X105761334Y-110719230D01*
X105761332Y-110719231D01*
X105751769Y-110721133D01*
X105685448Y-110765448D01*
X105641133Y-110831769D01*
X105629500Y-110890252D01*
X105629500Y-112629748D01*
X104975500Y-112629748D01*
X104975500Y-109340823D01*
X105285391Y-109340823D01*
X105286306Y-109347820D01*
X105286306Y-109347821D01*
X105287814Y-109359354D01*
X105303980Y-109482979D01*
X105306821Y-109489435D01*
X105306821Y-109489436D01*
X105314586Y-109507082D01*
X105361720Y-109614203D01*
X105390099Y-109647964D01*
X105449431Y-109718549D01*
X105449434Y-109718551D01*
X105453970Y-109723948D01*
X105459841Y-109727856D01*
X105459842Y-109727857D01*
X105472143Y-109736045D01*
X105573313Y-109803390D01*
X105646015Y-109826103D01*
X105703425Y-109844039D01*
X105703426Y-109844039D01*
X105710157Y-109846142D01*
X105781828Y-109847456D01*
X105846445Y-109848641D01*
X105846447Y-109848641D01*
X105853499Y-109848770D01*
X105860302Y-109846915D01*
X105860304Y-109846915D01*
X105936640Y-109826103D01*
X105991817Y-109811060D01*
X106113991Y-109736045D01*
X106121307Y-109727963D01*
X106205468Y-109634982D01*
X106210200Y-109629754D01*
X106272710Y-109500733D01*
X106276875Y-109475982D01*
X106295862Y-109363124D01*
X106295862Y-109363120D01*
X106296496Y-109359354D01*
X106296647Y-109347000D01*
X106276323Y-109205082D01*
X106225378Y-109093033D01*
X106216500Y-109052058D01*
X106216500Y-107535040D01*
X106235407Y-107476849D01*
X106284907Y-107440885D01*
X106346093Y-107440885D01*
X106391283Y-107471338D01*
X106465431Y-107559549D01*
X106465434Y-107559551D01*
X106469970Y-107564948D01*
X106475841Y-107568856D01*
X106475842Y-107568857D01*
X106488143Y-107577045D01*
X106589313Y-107644390D01*
X106655978Y-107665217D01*
X106719425Y-107685039D01*
X106719426Y-107685039D01*
X106726157Y-107687142D01*
X106797828Y-107688456D01*
X106862445Y-107689641D01*
X106862447Y-107689641D01*
X106869499Y-107689770D01*
X106876302Y-107687915D01*
X106876304Y-107687915D01*
X106959558Y-107665217D01*
X107007817Y-107652060D01*
X107129991Y-107577045D01*
X107137403Y-107568857D01*
X107221468Y-107475982D01*
X107226200Y-107470754D01*
X107288710Y-107341733D01*
X107312496Y-107200354D01*
X107312647Y-107188000D01*
X107292323Y-107046082D01*
X107232984Y-106915572D01*
X107158032Y-106828586D01*
X107144005Y-106812307D01*
X107144004Y-106812306D01*
X107139400Y-106806963D01*
X107019095Y-106728985D01*
X106881739Y-106687907D01*
X106799895Y-106687407D01*
X106741821Y-106668145D01*
X106706160Y-106618426D01*
X106701500Y-106588409D01*
X106701500Y-106462546D01*
X106720407Y-106404355D01*
X106769907Y-106368391D01*
X106831093Y-106368391D01*
X106839101Y-106371586D01*
X106843313Y-106374390D01*
X106850046Y-106376493D01*
X106850047Y-106376494D01*
X106973425Y-106415039D01*
X106973426Y-106415039D01*
X106980157Y-106417142D01*
X107051828Y-106418456D01*
X107116445Y-106419641D01*
X107116447Y-106419641D01*
X107123499Y-106419770D01*
X107130302Y-106417915D01*
X107130304Y-106417915D01*
X107236607Y-106388933D01*
X107261817Y-106382060D01*
X107383991Y-106307045D01*
X107391403Y-106298857D01*
X107475468Y-106205982D01*
X107480200Y-106200754D01*
X107536007Y-106085568D01*
X107539634Y-106078082D01*
X107542710Y-106071733D01*
X107546875Y-106046982D01*
X107565862Y-105934124D01*
X107565862Y-105934120D01*
X107566496Y-105930354D01*
X107566647Y-105918000D01*
X107546323Y-105776082D01*
X107524543Y-105728180D01*
X107489905Y-105651996D01*
X107489904Y-105651995D01*
X107486984Y-105645572D01*
X107393400Y-105536963D01*
X107381653Y-105529349D01*
X107343107Y-105481833D01*
X107336500Y-105446274D01*
X107336500Y-102101823D01*
X109349391Y-102101823D01*
X109367980Y-102243979D01*
X109425720Y-102375203D01*
X109438792Y-102390754D01*
X109513431Y-102479549D01*
X109513434Y-102479551D01*
X109517970Y-102484948D01*
X109528294Y-102491820D01*
X109535356Y-102496521D01*
X109573320Y-102544504D01*
X109579500Y-102578933D01*
X109579500Y-128487116D01*
X109577598Y-128506429D01*
X109574103Y-128524000D01*
X109576005Y-128533562D01*
X109579500Y-128551132D01*
X109579500Y-128551133D01*
X109590625Y-128607060D01*
X109595485Y-128631495D01*
X109656376Y-128722624D01*
X109664486Y-128728043D01*
X109671267Y-128732574D01*
X109686269Y-128744885D01*
X111614633Y-130673249D01*
X111642410Y-130727766D01*
X111642450Y-130758483D01*
X111636477Y-130796847D01*
X111635391Y-130803823D01*
X111636306Y-130810820D01*
X111636306Y-130810821D01*
X111637814Y-130822354D01*
X111653980Y-130945979D01*
X111656821Y-130952435D01*
X111656821Y-130952436D01*
X111697758Y-131045471D01*
X111711720Y-131077203D01*
X111738614Y-131109197D01*
X111799431Y-131181549D01*
X111799434Y-131181551D01*
X111803970Y-131186948D01*
X111809841Y-131190856D01*
X111809842Y-131190857D01*
X111815291Y-131194484D01*
X111923313Y-131266390D01*
X112023920Y-131297821D01*
X112053425Y-131307039D01*
X112053426Y-131307039D01*
X112060157Y-131309142D01*
X112131828Y-131310456D01*
X112196445Y-131311641D01*
X112196447Y-131311641D01*
X112203499Y-131311770D01*
X112210302Y-131309915D01*
X112210304Y-131309915D01*
X112285503Y-131289413D01*
X112341817Y-131274060D01*
X112463991Y-131199045D01*
X112471403Y-131190857D01*
X112555468Y-131097982D01*
X112560200Y-131092754D01*
X112622710Y-130963733D01*
X112626875Y-130938982D01*
X112645862Y-130826124D01*
X112645862Y-130826120D01*
X112646496Y-130822354D01*
X112646647Y-130810000D01*
X112626323Y-130668082D01*
X112566984Y-130537572D01*
X112473400Y-130428963D01*
X112353095Y-130350985D01*
X112215739Y-130309907D01*
X112072376Y-130309031D01*
X112072393Y-130306241D01*
X112024155Y-130297562D01*
X112000933Y-130280317D01*
X110159496Y-128438880D01*
X110131719Y-128384363D01*
X110130500Y-128368876D01*
X110130500Y-102581591D01*
X110149407Y-102523400D01*
X110167629Y-102506537D01*
X110166554Y-102505242D01*
X110171987Y-102500732D01*
X110177991Y-102497045D01*
X110182719Y-102491822D01*
X110182721Y-102491820D01*
X110269468Y-102395982D01*
X110274200Y-102390754D01*
X110280406Y-102377945D01*
X110322794Y-102333821D01*
X110383022Y-102323039D01*
X110438085Y-102349717D01*
X110466951Y-102403665D01*
X110468500Y-102421111D01*
X110468500Y-126709116D01*
X110466598Y-126728429D01*
X110463103Y-126746000D01*
X110468500Y-126773132D01*
X110468500Y-126773133D01*
X110484485Y-126853495D01*
X110545376Y-126944624D01*
X110553486Y-126950043D01*
X110560267Y-126954574D01*
X110575269Y-126966885D01*
X111614633Y-128006249D01*
X111642410Y-128060766D01*
X111642450Y-128091483D01*
X111637165Y-128125431D01*
X111635391Y-128136823D01*
X111636306Y-128143820D01*
X111636306Y-128143821D01*
X111637449Y-128152562D01*
X111653980Y-128278979D01*
X111656821Y-128285435D01*
X111656821Y-128285436D01*
X111693536Y-128368876D01*
X111711720Y-128410203D01*
X111757845Y-128465076D01*
X111799431Y-128514549D01*
X111799434Y-128514551D01*
X111803970Y-128519948D01*
X111809841Y-128523856D01*
X111809842Y-128523857D01*
X111822143Y-128532045D01*
X111923313Y-128599390D01*
X111995461Y-128621930D01*
X112053425Y-128640039D01*
X112053426Y-128640039D01*
X112060157Y-128642142D01*
X112131828Y-128643456D01*
X112196445Y-128644641D01*
X112196447Y-128644641D01*
X112203499Y-128644770D01*
X112210302Y-128642915D01*
X112210304Y-128642915D01*
X112287275Y-128621930D01*
X112341817Y-128607060D01*
X112463991Y-128532045D01*
X112471403Y-128523857D01*
X112555468Y-128430982D01*
X112560200Y-128425754D01*
X112622710Y-128296733D01*
X112626875Y-128271982D01*
X112645862Y-128159124D01*
X112645862Y-128159120D01*
X112646496Y-128155354D01*
X112646647Y-128143000D01*
X112626323Y-128001082D01*
X112576389Y-127891258D01*
X112569905Y-127876996D01*
X112569904Y-127876995D01*
X112566984Y-127870572D01*
X112473400Y-127761963D01*
X112353095Y-127683985D01*
X112215739Y-127642907D01*
X112072376Y-127642031D01*
X112072393Y-127639241D01*
X112024155Y-127630562D01*
X112000933Y-127613317D01*
X111048496Y-126660880D01*
X111020719Y-126606363D01*
X111019500Y-126590876D01*
X111019500Y-124983124D01*
X111038407Y-124924933D01*
X111087907Y-124888969D01*
X111149093Y-124888969D01*
X111188504Y-124913120D01*
X111614633Y-125339249D01*
X111642410Y-125393766D01*
X111642450Y-125424483D01*
X111636477Y-125462847D01*
X111635391Y-125469823D01*
X111636306Y-125476820D01*
X111636306Y-125476821D01*
X111641296Y-125514980D01*
X111653980Y-125611979D01*
X111656821Y-125618435D01*
X111656821Y-125618436D01*
X111664586Y-125636082D01*
X111711720Y-125743203D01*
X111724792Y-125758754D01*
X111799431Y-125847549D01*
X111799434Y-125847551D01*
X111803970Y-125852948D01*
X111809841Y-125856856D01*
X111809842Y-125856857D01*
X111822143Y-125865045D01*
X111923313Y-125932390D01*
X112020252Y-125962675D01*
X112053425Y-125973039D01*
X112053426Y-125973039D01*
X112060157Y-125975142D01*
X112131828Y-125976456D01*
X112196445Y-125977641D01*
X112196447Y-125977641D01*
X112203499Y-125977770D01*
X112210302Y-125975915D01*
X112210304Y-125975915D01*
X112325740Y-125944443D01*
X112341817Y-125940060D01*
X112463991Y-125865045D01*
X112471403Y-125856857D01*
X112555468Y-125763982D01*
X112560200Y-125758754D01*
X112622710Y-125629733D01*
X112626875Y-125604982D01*
X112645862Y-125492124D01*
X112645862Y-125492120D01*
X112646496Y-125488354D01*
X112646647Y-125476000D01*
X112626323Y-125334082D01*
X112576465Y-125224424D01*
X112569905Y-125209996D01*
X112569904Y-125209995D01*
X112566984Y-125203572D01*
X112473400Y-125094963D01*
X112405651Y-125051050D01*
X112367104Y-125003534D01*
X112363849Y-124942435D01*
X112397128Y-124891092D01*
X112407688Y-124883615D01*
X112463991Y-124849045D01*
X112560200Y-124742754D01*
X112622710Y-124613733D01*
X112643153Y-124492228D01*
X112645862Y-124476124D01*
X112645862Y-124476120D01*
X112646496Y-124472354D01*
X112646647Y-124460000D01*
X112626323Y-124318082D01*
X112566984Y-124187572D01*
X112473400Y-124078963D01*
X112353095Y-124000985D01*
X112215739Y-123959907D01*
X112133895Y-123959407D01*
X112075821Y-123940145D01*
X112040160Y-123890426D01*
X112035500Y-123860409D01*
X112035500Y-121808124D01*
X112054407Y-121749933D01*
X112103907Y-121713969D01*
X112165093Y-121713969D01*
X112204504Y-121738120D01*
X112249633Y-121783249D01*
X112277410Y-121837766D01*
X112277450Y-121868483D01*
X112271724Y-121905262D01*
X112270391Y-121913823D01*
X112271306Y-121920820D01*
X112271306Y-121920821D01*
X112272814Y-121932354D01*
X112288980Y-122055979D01*
X112291821Y-122062435D01*
X112291821Y-122062436D01*
X112329937Y-122149060D01*
X112346720Y-122187203D01*
X112359792Y-122202754D01*
X112434431Y-122291549D01*
X112434434Y-122291551D01*
X112438970Y-122296948D01*
X112444841Y-122300856D01*
X112444842Y-122300857D01*
X112449456Y-122303928D01*
X112558313Y-122376390D01*
X112658920Y-122407821D01*
X112688425Y-122417039D01*
X112688426Y-122417039D01*
X112695157Y-122419142D01*
X112766828Y-122420456D01*
X112831445Y-122421641D01*
X112831447Y-122421641D01*
X112838499Y-122421770D01*
X112845302Y-122419915D01*
X112845304Y-122419915D01*
X112920503Y-122399413D01*
X112976817Y-122384060D01*
X113098991Y-122309045D01*
X113106403Y-122300857D01*
X113190468Y-122207982D01*
X113195200Y-122202754D01*
X113257710Y-122073733D01*
X113261875Y-122048982D01*
X113280862Y-121936124D01*
X113280862Y-121936120D01*
X113281496Y-121932354D01*
X113281647Y-121920000D01*
X113261323Y-121778082D01*
X113201984Y-121647572D01*
X113108400Y-121538963D01*
X112988095Y-121460985D01*
X112850739Y-121419907D01*
X112707376Y-121419031D01*
X112707393Y-121416241D01*
X112659155Y-121407562D01*
X112635933Y-121390317D01*
X112572496Y-121326880D01*
X112544719Y-121272363D01*
X112543500Y-121256876D01*
X112543500Y-119141124D01*
X112562407Y-119082933D01*
X112611907Y-119046969D01*
X112673093Y-119046969D01*
X112712504Y-119071120D01*
X112884633Y-119243249D01*
X112912410Y-119297766D01*
X112912450Y-119328483D01*
X112906724Y-119365262D01*
X112905391Y-119373823D01*
X112923980Y-119515979D01*
X112926821Y-119522435D01*
X112926821Y-119522436D01*
X112964937Y-119609060D01*
X112981720Y-119647203D01*
X113027845Y-119702076D01*
X113069431Y-119751549D01*
X113069434Y-119751551D01*
X113073970Y-119756948D01*
X113193313Y-119836390D01*
X113293920Y-119867821D01*
X113323425Y-119877039D01*
X113323426Y-119877039D01*
X113330157Y-119879142D01*
X113401828Y-119880456D01*
X113466445Y-119881641D01*
X113466447Y-119881641D01*
X113473499Y-119881770D01*
X113480302Y-119879915D01*
X113480304Y-119879915D01*
X113596459Y-119848247D01*
X113611817Y-119844060D01*
X113619697Y-119839222D01*
X113621466Y-119838795D01*
X113624300Y-119837569D01*
X113624513Y-119838061D01*
X113679177Y-119824884D01*
X113735727Y-119848247D01*
X113767743Y-119900387D01*
X113770500Y-119923586D01*
X113770500Y-126082876D01*
X113751593Y-126141067D01*
X113741504Y-126152880D01*
X113423507Y-126470877D01*
X113368990Y-126498654D01*
X113352898Y-126499871D01*
X113222427Y-126499074D01*
X113222426Y-126499074D01*
X113215376Y-126499031D01*
X113208599Y-126500968D01*
X113208598Y-126500968D01*
X113084309Y-126536490D01*
X113084307Y-126536491D01*
X113077529Y-126538428D01*
X112956280Y-126614930D01*
X112951613Y-126620214D01*
X112951611Y-126620216D01*
X112866044Y-126717103D01*
X112866042Y-126717105D01*
X112861377Y-126722388D01*
X112800447Y-126852163D01*
X112799362Y-126859132D01*
X112799361Y-126859135D01*
X112794985Y-126887244D01*
X112778391Y-126993823D01*
X112779306Y-127000820D01*
X112779306Y-127000821D01*
X112780814Y-127012354D01*
X112796980Y-127135979D01*
X112799821Y-127142435D01*
X112799821Y-127142436D01*
X112837937Y-127229060D01*
X112854720Y-127267203D01*
X112867792Y-127282754D01*
X112942431Y-127371549D01*
X112942434Y-127371551D01*
X112946970Y-127376948D01*
X112952841Y-127380856D01*
X112952842Y-127380857D01*
X112957456Y-127383928D01*
X113066313Y-127456390D01*
X113166920Y-127487821D01*
X113196425Y-127497039D01*
X113196426Y-127497039D01*
X113203157Y-127499142D01*
X113274828Y-127500456D01*
X113339445Y-127501641D01*
X113339447Y-127501641D01*
X113346499Y-127501770D01*
X113353302Y-127499915D01*
X113353304Y-127499915D01*
X113428503Y-127479413D01*
X113484817Y-127464060D01*
X113606991Y-127389045D01*
X113614403Y-127380857D01*
X113698468Y-127287982D01*
X113703200Y-127282754D01*
X113765710Y-127153733D01*
X113769875Y-127128982D01*
X113788862Y-127016124D01*
X113788862Y-127016120D01*
X113789496Y-127012354D01*
X113789647Y-127000000D01*
X113782132Y-126947526D01*
X113792599Y-126887244D01*
X113810128Y-126863488D01*
X114214731Y-126458885D01*
X114229733Y-126446574D01*
X114244624Y-126436624D01*
X114245270Y-126437591D01*
X114291013Y-126414284D01*
X114351445Y-126423855D01*
X114394710Y-126467120D01*
X114405500Y-126512065D01*
X114405500Y-127987876D01*
X114386593Y-128046067D01*
X114376504Y-128057880D01*
X113423507Y-129010877D01*
X113368990Y-129038654D01*
X113352898Y-129039871D01*
X113222427Y-129039074D01*
X113222426Y-129039074D01*
X113215376Y-129039031D01*
X113208599Y-129040968D01*
X113208598Y-129040968D01*
X113084309Y-129076490D01*
X113084307Y-129076491D01*
X113077529Y-129078428D01*
X112956280Y-129154930D01*
X112951613Y-129160214D01*
X112951611Y-129160216D01*
X112866044Y-129257103D01*
X112866042Y-129257105D01*
X112861377Y-129262388D01*
X112800447Y-129392163D01*
X112799362Y-129399132D01*
X112799361Y-129399135D01*
X112794985Y-129427244D01*
X112778391Y-129533823D01*
X112779306Y-129540820D01*
X112779306Y-129540821D01*
X112780814Y-129552354D01*
X112796980Y-129675979D01*
X112799821Y-129682435D01*
X112799821Y-129682436D01*
X112837937Y-129769060D01*
X112854720Y-129807203D01*
X112900845Y-129862075D01*
X112942431Y-129911549D01*
X112942434Y-129911551D01*
X112946970Y-129916948D01*
X112952841Y-129920856D01*
X112952842Y-129920857D01*
X112957456Y-129923928D01*
X113066313Y-129996390D01*
X113166920Y-130027821D01*
X113196425Y-130037039D01*
X113196426Y-130037039D01*
X113203157Y-130039142D01*
X113274828Y-130040456D01*
X113339445Y-130041641D01*
X113339447Y-130041641D01*
X113346499Y-130041770D01*
X113353302Y-130039915D01*
X113353304Y-130039915D01*
X113428503Y-130019413D01*
X113484817Y-130004060D01*
X113606991Y-129929045D01*
X113614403Y-129920857D01*
X113698468Y-129827982D01*
X113703200Y-129822754D01*
X113765710Y-129693733D01*
X113769875Y-129668982D01*
X113788862Y-129556124D01*
X113788862Y-129556120D01*
X113789496Y-129552354D01*
X113789647Y-129540000D01*
X113782132Y-129487526D01*
X113792599Y-129427244D01*
X113810128Y-129403488D01*
X114849731Y-128363885D01*
X114864733Y-128351574D01*
X114871514Y-128347043D01*
X114879624Y-128341624D01*
X114909620Y-128296733D01*
X114940515Y-128250495D01*
X114961897Y-128143000D01*
X114958402Y-128125429D01*
X114956500Y-128106116D01*
X114956500Y-106391591D01*
X114975407Y-106333400D01*
X114993629Y-106316538D01*
X114992553Y-106315242D01*
X114997982Y-106310735D01*
X115003991Y-106307045D01*
X115006606Y-106304157D01*
X115062109Y-106282067D01*
X115121399Y-106297179D01*
X115160483Y-106344254D01*
X115167500Y-106380861D01*
X115167500Y-129765876D01*
X115148593Y-129824067D01*
X115138504Y-129835880D01*
X113423507Y-131550877D01*
X113368990Y-131578654D01*
X113352898Y-131579871D01*
X113222427Y-131579074D01*
X113222426Y-131579074D01*
X113215376Y-131579031D01*
X113208599Y-131580968D01*
X113208598Y-131580968D01*
X113084309Y-131616490D01*
X113084307Y-131616491D01*
X113077529Y-131618428D01*
X112956280Y-131694930D01*
X112951613Y-131700214D01*
X112951611Y-131700216D01*
X112866044Y-131797103D01*
X112866042Y-131797105D01*
X112861377Y-131802388D01*
X112800447Y-131932163D01*
X112799362Y-131939132D01*
X112799361Y-131939135D01*
X112794985Y-131967244D01*
X112778391Y-132073823D01*
X112779306Y-132080820D01*
X112779306Y-132080821D01*
X112780814Y-132092354D01*
X112796980Y-132215979D01*
X112799821Y-132222435D01*
X112799821Y-132222436D01*
X112837937Y-132309060D01*
X112854720Y-132347203D01*
X112867792Y-132362754D01*
X112942431Y-132451549D01*
X112942434Y-132451551D01*
X112946970Y-132456948D01*
X112952841Y-132460856D01*
X112952842Y-132460857D01*
X112957456Y-132463928D01*
X113066313Y-132536390D01*
X113166920Y-132567821D01*
X113196425Y-132577039D01*
X113196426Y-132577039D01*
X113203157Y-132579142D01*
X113274828Y-132580456D01*
X113339445Y-132581641D01*
X113339447Y-132581641D01*
X113346499Y-132581770D01*
X113353302Y-132579915D01*
X113353304Y-132579915D01*
X113428503Y-132559413D01*
X113484817Y-132544060D01*
X113606991Y-132469045D01*
X113614403Y-132460857D01*
X113698468Y-132367982D01*
X113703200Y-132362754D01*
X113765710Y-132233733D01*
X113769875Y-132208982D01*
X113788862Y-132096124D01*
X113788862Y-132096120D01*
X113789496Y-132092354D01*
X113789647Y-132080000D01*
X113782132Y-132027526D01*
X113792599Y-131967244D01*
X113810128Y-131943488D01*
X115611731Y-130141885D01*
X115626733Y-130129574D01*
X115641624Y-130119624D01*
X115642270Y-130120591D01*
X115688013Y-130097284D01*
X115748445Y-130106855D01*
X115791710Y-130150120D01*
X115802500Y-130195065D01*
X115802500Y-131670876D01*
X115783593Y-131729067D01*
X115773504Y-131740880D01*
X113423507Y-134090877D01*
X113368990Y-134118654D01*
X113352898Y-134119871D01*
X113222427Y-134119074D01*
X113222426Y-134119074D01*
X113215376Y-134119031D01*
X113208599Y-134120968D01*
X113208598Y-134120968D01*
X113084309Y-134156490D01*
X113084307Y-134156491D01*
X113077529Y-134158428D01*
X112956280Y-134234930D01*
X112951613Y-134240214D01*
X112951611Y-134240216D01*
X112866044Y-134337103D01*
X112866042Y-134337105D01*
X112861377Y-134342388D01*
X112800447Y-134472163D01*
X112799362Y-134479132D01*
X112799361Y-134479135D01*
X112794985Y-134507244D01*
X112778391Y-134613823D01*
X112779306Y-134620820D01*
X112779306Y-134620821D01*
X112780814Y-134632354D01*
X112796980Y-134755979D01*
X112799821Y-134762435D01*
X112799821Y-134762436D01*
X112848953Y-134874096D01*
X112854720Y-134887203D01*
X112900845Y-134942075D01*
X112942431Y-134991549D01*
X112942434Y-134991551D01*
X112946970Y-134996948D01*
X112952841Y-135000856D01*
X112952842Y-135000857D01*
X112957456Y-135003928D01*
X113066313Y-135076390D01*
X113166920Y-135107821D01*
X113196425Y-135117039D01*
X113196426Y-135117039D01*
X113203157Y-135119142D01*
X113274828Y-135120456D01*
X113339445Y-135121641D01*
X113339447Y-135121641D01*
X113346499Y-135121770D01*
X113353302Y-135119915D01*
X113353304Y-135119915D01*
X113428503Y-135099413D01*
X113484817Y-135084060D01*
X113606991Y-135009045D01*
X113614403Y-135000857D01*
X113698468Y-134907982D01*
X113703200Y-134902754D01*
X113765710Y-134773733D01*
X113769875Y-134748982D01*
X113788862Y-134636124D01*
X113788862Y-134636120D01*
X113789496Y-134632354D01*
X113789647Y-134620000D01*
X113782132Y-134567526D01*
X113792599Y-134507244D01*
X113810128Y-134483488D01*
X116246731Y-132046885D01*
X116261733Y-132034574D01*
X116268514Y-132030043D01*
X116276624Y-132024624D01*
X116337515Y-131933495D01*
X116353500Y-131853133D01*
X116353500Y-131853132D01*
X116358897Y-131826000D01*
X116355402Y-131808428D01*
X116353500Y-131789115D01*
X116353500Y-110424744D01*
X116372407Y-110366553D01*
X116421907Y-110330589D01*
X116483093Y-110330589D01*
X116532593Y-110366553D01*
X116535136Y-110370331D01*
X116537720Y-110376203D01*
X116572586Y-110417681D01*
X116625431Y-110480549D01*
X116625434Y-110480551D01*
X116629970Y-110485948D01*
X116640294Y-110492820D01*
X116647356Y-110497521D01*
X116685320Y-110545504D01*
X116691500Y-110579933D01*
X116691500Y-133567116D01*
X116689598Y-133586429D01*
X116686103Y-133604000D01*
X116691500Y-133631132D01*
X116691500Y-133631133D01*
X116707485Y-133711495D01*
X116768376Y-133802624D01*
X116776486Y-133808043D01*
X116783267Y-133812574D01*
X116798269Y-133824885D01*
X117762115Y-134788731D01*
X117774426Y-134803733D01*
X117784376Y-134818624D01*
X117807377Y-134833993D01*
X117807378Y-134833994D01*
X117833535Y-134851471D01*
X117875505Y-134879515D01*
X117885068Y-134881417D01*
X117885070Y-134881418D01*
X117914155Y-134887203D01*
X117955867Y-134895500D01*
X117955868Y-134895500D01*
X117983000Y-134900897D01*
X118000571Y-134897402D01*
X118019884Y-134895500D01*
X118291515Y-134895500D01*
X118349706Y-134914407D01*
X118386680Y-134967211D01*
X118397176Y-135003814D01*
X118398544Y-135008586D01*
X118492712Y-135191818D01*
X118620677Y-135353270D01*
X118624357Y-135356402D01*
X118624359Y-135356404D01*
X118737017Y-135452283D01*
X118777564Y-135486791D01*
X118781787Y-135489151D01*
X118781791Y-135489154D01*
X118821342Y-135511258D01*
X118957398Y-135587297D01*
X118961996Y-135588791D01*
X119148724Y-135649463D01*
X119148726Y-135649464D01*
X119153329Y-135650959D01*
X119357894Y-135675351D01*
X119362716Y-135674980D01*
X119362719Y-135674980D01*
X119430541Y-135669761D01*
X119563300Y-135659546D01*
X119761725Y-135604145D01*
X119766038Y-135601966D01*
X119766044Y-135601964D01*
X119941289Y-135513441D01*
X119941291Y-135513440D01*
X119945610Y-135511258D01*
X119980943Y-135483653D01*
X120104135Y-135387406D01*
X120104139Y-135387402D01*
X120107951Y-135384424D01*
X120242564Y-135228472D01*
X120261231Y-135195613D01*
X120341934Y-135053550D01*
X120341935Y-135053547D01*
X120344323Y-135049344D01*
X120357882Y-135008586D01*
X120407824Y-134858454D01*
X120407824Y-134858452D01*
X120409351Y-134853863D01*
X120411869Y-134833935D01*
X120434823Y-134652228D01*
X120435171Y-134649474D01*
X120435583Y-134620000D01*
X120435313Y-134617244D01*
X120415952Y-134419780D01*
X120415951Y-134419776D01*
X120415480Y-134414970D01*
X120355935Y-134217749D01*
X120259218Y-134035849D01*
X120129011Y-133876200D01*
X120058651Y-133817993D01*
X119974002Y-133747965D01*
X119974000Y-133747964D01*
X119970275Y-133744882D01*
X119789055Y-133646897D01*
X119681367Y-133613562D01*
X119596875Y-133587407D01*
X119596871Y-133587406D01*
X119592254Y-133585977D01*
X119587446Y-133585472D01*
X119587443Y-133585471D01*
X119392185Y-133564949D01*
X119392183Y-133564949D01*
X119387369Y-133564443D01*
X119327354Y-133569905D01*
X119187022Y-133582675D01*
X119187017Y-133582676D01*
X119182203Y-133583114D01*
X118984572Y-133641280D01*
X118980288Y-133643519D01*
X118980287Y-133643520D01*
X118969428Y-133649197D01*
X118802002Y-133736726D01*
X118798231Y-133739758D01*
X118645220Y-133862781D01*
X118645217Y-133862783D01*
X118641447Y-133865815D01*
X118638333Y-133869526D01*
X118638332Y-133869527D01*
X118629585Y-133879952D01*
X118509024Y-134023630D01*
X118506689Y-134027878D01*
X118506688Y-134027879D01*
X118499955Y-134040126D01*
X118409776Y-134204162D01*
X118408312Y-134208778D01*
X118408310Y-134208782D01*
X118387167Y-134275434D01*
X118351550Y-134325184D01*
X118292801Y-134344500D01*
X118138124Y-134344500D01*
X118079933Y-134325593D01*
X118068120Y-134315504D01*
X117271496Y-133518880D01*
X117243719Y-133464363D01*
X117242500Y-133448876D01*
X117242500Y-132065262D01*
X118324520Y-132065262D01*
X118341759Y-132270553D01*
X118343092Y-132275201D01*
X118343092Y-132275202D01*
X118397176Y-132463814D01*
X118398544Y-132468586D01*
X118492712Y-132651818D01*
X118620677Y-132813270D01*
X118624357Y-132816402D01*
X118624359Y-132816404D01*
X118737017Y-132912283D01*
X118777564Y-132946791D01*
X118781787Y-132949151D01*
X118781791Y-132949154D01*
X118821342Y-132971258D01*
X118957398Y-133047297D01*
X118961996Y-133048791D01*
X119148724Y-133109463D01*
X119148726Y-133109464D01*
X119153329Y-133110959D01*
X119357894Y-133135351D01*
X119362716Y-133134980D01*
X119362719Y-133134980D01*
X119430541Y-133129761D01*
X119563300Y-133119546D01*
X119761725Y-133064145D01*
X119766038Y-133061966D01*
X119766044Y-133061964D01*
X119941289Y-132973441D01*
X119941291Y-132973440D01*
X119945610Y-132971258D01*
X119980943Y-132943653D01*
X120104135Y-132847406D01*
X120104139Y-132847402D01*
X120107951Y-132844424D01*
X120242564Y-132688472D01*
X120261231Y-132655613D01*
X120341934Y-132513550D01*
X120341935Y-132513547D01*
X120344323Y-132509344D01*
X120357882Y-132468586D01*
X120407824Y-132318454D01*
X120407824Y-132318452D01*
X120409351Y-132313863D01*
X120421717Y-132215979D01*
X120434823Y-132112228D01*
X120435171Y-132109474D01*
X120435583Y-132080000D01*
X120435313Y-132077244D01*
X120415952Y-131879780D01*
X120415951Y-131879776D01*
X120415480Y-131874970D01*
X120355935Y-131677749D01*
X120259218Y-131495849D01*
X120129011Y-131336200D01*
X120097238Y-131309915D01*
X119974002Y-131207965D01*
X119974000Y-131207964D01*
X119970275Y-131204882D01*
X119789055Y-131106897D01*
X119722869Y-131086409D01*
X119596875Y-131047407D01*
X119596871Y-131047406D01*
X119592254Y-131045977D01*
X119587446Y-131045472D01*
X119587443Y-131045471D01*
X119392185Y-131024949D01*
X119392183Y-131024949D01*
X119387369Y-131024443D01*
X119327354Y-131029905D01*
X119187022Y-131042675D01*
X119187017Y-131042676D01*
X119182203Y-131043114D01*
X118984572Y-131101280D01*
X118980288Y-131103519D01*
X118980287Y-131103520D01*
X118969428Y-131109197D01*
X118802002Y-131196726D01*
X118798231Y-131199758D01*
X118645220Y-131322781D01*
X118645217Y-131322783D01*
X118641447Y-131325815D01*
X118638333Y-131329526D01*
X118638332Y-131329527D01*
X118629585Y-131339952D01*
X118509024Y-131483630D01*
X118506689Y-131487878D01*
X118506688Y-131487879D01*
X118499955Y-131500126D01*
X118409776Y-131664162D01*
X118408313Y-131668775D01*
X118408311Y-131668779D01*
X118370139Y-131789115D01*
X118347484Y-131860532D01*
X118346944Y-131865344D01*
X118346944Y-131865345D01*
X118328753Y-132027527D01*
X118324520Y-132065262D01*
X117242500Y-132065262D01*
X117242500Y-129525262D01*
X118324520Y-129525262D01*
X118341759Y-129730553D01*
X118343092Y-129735201D01*
X118343092Y-129735202D01*
X118397176Y-129923814D01*
X118398544Y-129928586D01*
X118492712Y-130111818D01*
X118620677Y-130273270D01*
X118624357Y-130276402D01*
X118624359Y-130276404D01*
X118662696Y-130309031D01*
X118777564Y-130406791D01*
X118781787Y-130409151D01*
X118781791Y-130409154D01*
X118898702Y-130474493D01*
X118957398Y-130507297D01*
X118961996Y-130508791D01*
X119148724Y-130569463D01*
X119148726Y-130569464D01*
X119153329Y-130570959D01*
X119357894Y-130595351D01*
X119362716Y-130594980D01*
X119362719Y-130594980D01*
X119430541Y-130589761D01*
X119563300Y-130579546D01*
X119761725Y-130524145D01*
X119766038Y-130521966D01*
X119766044Y-130521964D01*
X119941289Y-130433441D01*
X119941291Y-130433440D01*
X119945610Y-130431258D01*
X120043443Y-130354823D01*
X120104135Y-130307406D01*
X120104139Y-130307402D01*
X120107951Y-130304424D01*
X120113875Y-130297562D01*
X120202346Y-130195065D01*
X120242564Y-130148472D01*
X120261231Y-130115613D01*
X120341934Y-129973550D01*
X120341935Y-129973547D01*
X120344323Y-129969344D01*
X120351380Y-129948132D01*
X120407824Y-129778454D01*
X120407824Y-129778452D01*
X120409351Y-129773863D01*
X120421717Y-129675979D01*
X120434823Y-129572228D01*
X120435171Y-129569474D01*
X120435583Y-129540000D01*
X120435313Y-129537244D01*
X120415952Y-129339780D01*
X120415951Y-129339776D01*
X120415480Y-129334970D01*
X120355935Y-129137749D01*
X120259218Y-128955849D01*
X120129011Y-128796200D01*
X120058651Y-128737993D01*
X119974002Y-128667965D01*
X119974000Y-128667964D01*
X119970275Y-128664882D01*
X119789055Y-128566897D01*
X119725855Y-128547333D01*
X119596875Y-128507407D01*
X119596871Y-128507406D01*
X119592254Y-128505977D01*
X119587446Y-128505472D01*
X119587443Y-128505471D01*
X119392185Y-128484949D01*
X119392183Y-128484949D01*
X119387369Y-128484443D01*
X119327354Y-128489905D01*
X119187022Y-128502675D01*
X119187017Y-128502676D01*
X119182203Y-128503114D01*
X118984572Y-128561280D01*
X118980288Y-128563519D01*
X118980287Y-128563520D01*
X118969428Y-128569197D01*
X118802002Y-128656726D01*
X118798231Y-128659758D01*
X118645220Y-128782781D01*
X118645217Y-128782783D01*
X118641447Y-128785815D01*
X118638333Y-128789526D01*
X118638332Y-128789527D01*
X118629585Y-128799952D01*
X118509024Y-128943630D01*
X118506689Y-128947878D01*
X118506688Y-128947879D01*
X118499955Y-128960126D01*
X118409776Y-129124162D01*
X118408313Y-129128775D01*
X118408311Y-129128779D01*
X118400016Y-129154930D01*
X118347484Y-129320532D01*
X118346944Y-129325344D01*
X118346944Y-129325345D01*
X118328753Y-129487527D01*
X118324520Y-129525262D01*
X117242500Y-129525262D01*
X117242500Y-126985262D01*
X118324520Y-126985262D01*
X118341759Y-127190553D01*
X118343092Y-127195201D01*
X118343092Y-127195202D01*
X118397176Y-127383814D01*
X118398544Y-127388586D01*
X118492712Y-127571818D01*
X118620677Y-127733270D01*
X118624357Y-127736402D01*
X118624359Y-127736404D01*
X118737017Y-127832283D01*
X118777564Y-127866791D01*
X118781787Y-127869151D01*
X118781791Y-127869154D01*
X118821342Y-127891258D01*
X118957398Y-127967297D01*
X118961996Y-127968791D01*
X119148724Y-128029463D01*
X119148726Y-128029464D01*
X119153329Y-128030959D01*
X119357894Y-128055351D01*
X119362716Y-128054980D01*
X119362719Y-128054980D01*
X119430541Y-128049761D01*
X119563300Y-128039546D01*
X119761725Y-127984145D01*
X119766038Y-127981966D01*
X119766044Y-127981964D01*
X119941289Y-127893441D01*
X119941291Y-127893440D01*
X119945610Y-127891258D01*
X119980943Y-127863653D01*
X120104135Y-127767406D01*
X120104139Y-127767402D01*
X120107951Y-127764424D01*
X120113388Y-127758126D01*
X120179128Y-127681964D01*
X120242564Y-127608472D01*
X120261231Y-127575613D01*
X120341934Y-127433550D01*
X120341935Y-127433547D01*
X120344323Y-127429344D01*
X120357882Y-127388586D01*
X120407824Y-127238454D01*
X120407824Y-127238452D01*
X120409351Y-127233863D01*
X120421717Y-127135979D01*
X120434823Y-127032228D01*
X120435171Y-127029474D01*
X120435583Y-127000000D01*
X120435313Y-126997244D01*
X120415952Y-126799780D01*
X120415951Y-126799776D01*
X120415480Y-126794970D01*
X120355935Y-126597749D01*
X120259218Y-126415849D01*
X120129011Y-126256200D01*
X120004119Y-126152880D01*
X119974002Y-126127965D01*
X119974000Y-126127964D01*
X119970275Y-126124882D01*
X119789055Y-126026897D01*
X119725855Y-126007333D01*
X119596875Y-125967407D01*
X119596871Y-125967406D01*
X119592254Y-125965977D01*
X119587446Y-125965472D01*
X119587443Y-125965471D01*
X119392185Y-125944949D01*
X119392183Y-125944949D01*
X119387369Y-125944443D01*
X119327354Y-125949905D01*
X119187022Y-125962675D01*
X119187017Y-125962676D01*
X119182203Y-125963114D01*
X118984572Y-126021280D01*
X118980288Y-126023519D01*
X118980287Y-126023520D01*
X118969428Y-126029197D01*
X118802002Y-126116726D01*
X118798231Y-126119758D01*
X118645220Y-126242781D01*
X118645217Y-126242783D01*
X118641447Y-126245815D01*
X118638333Y-126249526D01*
X118638332Y-126249527D01*
X118629585Y-126259952D01*
X118509024Y-126403630D01*
X118506689Y-126407878D01*
X118506688Y-126407879D01*
X118499955Y-126420126D01*
X118409776Y-126584162D01*
X118408313Y-126588775D01*
X118408311Y-126588779D01*
X118370138Y-126709116D01*
X118347484Y-126780532D01*
X118346944Y-126785344D01*
X118346944Y-126785345D01*
X118328753Y-126947527D01*
X118324520Y-126985262D01*
X117242500Y-126985262D01*
X117242500Y-124445262D01*
X118324520Y-124445262D01*
X118341759Y-124650553D01*
X118343092Y-124655201D01*
X118343092Y-124655202D01*
X118397176Y-124843814D01*
X118398544Y-124848586D01*
X118492712Y-125031818D01*
X118620677Y-125193270D01*
X118624357Y-125196402D01*
X118624359Y-125196404D01*
X118737017Y-125292283D01*
X118777564Y-125326791D01*
X118781787Y-125329151D01*
X118781791Y-125329154D01*
X118821342Y-125351258D01*
X118957398Y-125427297D01*
X118961996Y-125428791D01*
X119148724Y-125489463D01*
X119148726Y-125489464D01*
X119153329Y-125490959D01*
X119357894Y-125515351D01*
X119362716Y-125514980D01*
X119362719Y-125514980D01*
X119430541Y-125509761D01*
X119563300Y-125499546D01*
X119761725Y-125444145D01*
X119766038Y-125441966D01*
X119766044Y-125441964D01*
X119941289Y-125353441D01*
X119941291Y-125353440D01*
X119945610Y-125351258D01*
X119960981Y-125339249D01*
X120104135Y-125227406D01*
X120104139Y-125227402D01*
X120107951Y-125224424D01*
X120130565Y-125198226D01*
X120215085Y-125100307D01*
X120242564Y-125068472D01*
X120261231Y-125035613D01*
X120341934Y-124893550D01*
X120341935Y-124893547D01*
X120344323Y-124889344D01*
X120346232Y-124883608D01*
X120407824Y-124698454D01*
X120407824Y-124698452D01*
X120409351Y-124693863D01*
X120421717Y-124595979D01*
X120434823Y-124492228D01*
X120435171Y-124489474D01*
X120435583Y-124460000D01*
X120435313Y-124457244D01*
X120415952Y-124259780D01*
X120415951Y-124259776D01*
X120415480Y-124254970D01*
X120355935Y-124057749D01*
X120259218Y-123875849D01*
X120129011Y-123716200D01*
X119970275Y-123584882D01*
X119789055Y-123486897D01*
X119725855Y-123467333D01*
X119596875Y-123427407D01*
X119596871Y-123427406D01*
X119592254Y-123425977D01*
X119587446Y-123425472D01*
X119587443Y-123425471D01*
X119392185Y-123404949D01*
X119392183Y-123404949D01*
X119387369Y-123404443D01*
X119327354Y-123409905D01*
X119187022Y-123422675D01*
X119187017Y-123422676D01*
X119182203Y-123423114D01*
X118984572Y-123481280D01*
X118980288Y-123483519D01*
X118980287Y-123483520D01*
X118969428Y-123489197D01*
X118802002Y-123576726D01*
X118798231Y-123579758D01*
X118645220Y-123702781D01*
X118645217Y-123702783D01*
X118641447Y-123705815D01*
X118638333Y-123709526D01*
X118638332Y-123709527D01*
X118629585Y-123719952D01*
X118509024Y-123863630D01*
X118506689Y-123867878D01*
X118506688Y-123867879D01*
X118499955Y-123880126D01*
X118409776Y-124044162D01*
X118408313Y-124048775D01*
X118408311Y-124048779D01*
X118397041Y-124084307D01*
X118347484Y-124240532D01*
X118346944Y-124245344D01*
X118346944Y-124245345D01*
X118341600Y-124292993D01*
X118324520Y-124445262D01*
X117242500Y-124445262D01*
X117242500Y-121905262D01*
X118324520Y-121905262D01*
X118341759Y-122110553D01*
X118343092Y-122115201D01*
X118343092Y-122115202D01*
X118397176Y-122303814D01*
X118398544Y-122308586D01*
X118492712Y-122491818D01*
X118620677Y-122653270D01*
X118624357Y-122656402D01*
X118624359Y-122656404D01*
X118737017Y-122752283D01*
X118777564Y-122786791D01*
X118781787Y-122789151D01*
X118781791Y-122789154D01*
X118821342Y-122811258D01*
X118957398Y-122887297D01*
X118961996Y-122888791D01*
X119148724Y-122949463D01*
X119148726Y-122949464D01*
X119153329Y-122950959D01*
X119357894Y-122975351D01*
X119362716Y-122974980D01*
X119362719Y-122974980D01*
X119430541Y-122969761D01*
X119563300Y-122959546D01*
X119761725Y-122904145D01*
X119766038Y-122901966D01*
X119766044Y-122901964D01*
X119941289Y-122813441D01*
X119941291Y-122813440D01*
X119945610Y-122811258D01*
X119980943Y-122783653D01*
X120104135Y-122687406D01*
X120104139Y-122687402D01*
X120107951Y-122684424D01*
X120242564Y-122528472D01*
X120261231Y-122495613D01*
X120341934Y-122353550D01*
X120341935Y-122353547D01*
X120344323Y-122349344D01*
X120357882Y-122308586D01*
X120407824Y-122158454D01*
X120407824Y-122158452D01*
X120409351Y-122153863D01*
X120421717Y-122055979D01*
X120434823Y-121952228D01*
X120435171Y-121949474D01*
X120435583Y-121920000D01*
X120435313Y-121917244D01*
X120415952Y-121719780D01*
X120415951Y-121719776D01*
X120415480Y-121714970D01*
X120355935Y-121517749D01*
X120259218Y-121335849D01*
X120129011Y-121176200D01*
X119970275Y-121044882D01*
X119789055Y-120946897D01*
X119725855Y-120927333D01*
X119596875Y-120887407D01*
X119596871Y-120887406D01*
X119592254Y-120885977D01*
X119587446Y-120885472D01*
X119587443Y-120885471D01*
X119392185Y-120864949D01*
X119392183Y-120864949D01*
X119387369Y-120864443D01*
X119327354Y-120869905D01*
X119187022Y-120882675D01*
X119187017Y-120882676D01*
X119182203Y-120883114D01*
X118984572Y-120941280D01*
X118980288Y-120943519D01*
X118980287Y-120943520D01*
X118969428Y-120949197D01*
X118802002Y-121036726D01*
X118798231Y-121039758D01*
X118645220Y-121162781D01*
X118645217Y-121162783D01*
X118641447Y-121165815D01*
X118638333Y-121169526D01*
X118638332Y-121169527D01*
X118530628Y-121297884D01*
X118509024Y-121323630D01*
X118506689Y-121327878D01*
X118506688Y-121327879D01*
X118499955Y-121340126D01*
X118409776Y-121504162D01*
X118408313Y-121508775D01*
X118408311Y-121508779D01*
X118397041Y-121544307D01*
X118347484Y-121700532D01*
X118346944Y-121705344D01*
X118346944Y-121705345D01*
X118335416Y-121808124D01*
X118324520Y-121905262D01*
X117242500Y-121905262D01*
X117242500Y-119365262D01*
X118324520Y-119365262D01*
X118341759Y-119570553D01*
X118343092Y-119575201D01*
X118343092Y-119575202D01*
X118396328Y-119760857D01*
X118398544Y-119768586D01*
X118492712Y-119951818D01*
X118620677Y-120113270D01*
X118624357Y-120116402D01*
X118624359Y-120116404D01*
X118737017Y-120212283D01*
X118777564Y-120246791D01*
X118781787Y-120249151D01*
X118781791Y-120249154D01*
X118821342Y-120271258D01*
X118957398Y-120347297D01*
X118961996Y-120348791D01*
X119148724Y-120409463D01*
X119148726Y-120409464D01*
X119153329Y-120410959D01*
X119357894Y-120435351D01*
X119362716Y-120434980D01*
X119362719Y-120434980D01*
X119430541Y-120429761D01*
X119563300Y-120419546D01*
X119761725Y-120364145D01*
X119766038Y-120361966D01*
X119766044Y-120361964D01*
X119941289Y-120273441D01*
X119941291Y-120273440D01*
X119945610Y-120271258D01*
X119980943Y-120243653D01*
X120104135Y-120147406D01*
X120104139Y-120147402D01*
X120107951Y-120144424D01*
X120242564Y-119988472D01*
X120261231Y-119955613D01*
X120341934Y-119813550D01*
X120341935Y-119813547D01*
X120344323Y-119809344D01*
X120357882Y-119768586D01*
X120407824Y-119618454D01*
X120407824Y-119618452D01*
X120409351Y-119613863D01*
X120421717Y-119515979D01*
X120434823Y-119412228D01*
X120435171Y-119409474D01*
X120435583Y-119380000D01*
X120435313Y-119377244D01*
X120415952Y-119179780D01*
X120415951Y-119179776D01*
X120415480Y-119174970D01*
X120355935Y-118977749D01*
X120259218Y-118795849D01*
X120129011Y-118636200D01*
X119970275Y-118504882D01*
X119789055Y-118406897D01*
X119725855Y-118387333D01*
X119596875Y-118347407D01*
X119596871Y-118347406D01*
X119592254Y-118345977D01*
X119587446Y-118345472D01*
X119587443Y-118345471D01*
X119392185Y-118324949D01*
X119392183Y-118324949D01*
X119387369Y-118324443D01*
X119327354Y-118329905D01*
X119187022Y-118342675D01*
X119187017Y-118342676D01*
X119182203Y-118343114D01*
X118984572Y-118401280D01*
X118980288Y-118403519D01*
X118980287Y-118403520D01*
X118969428Y-118409197D01*
X118802002Y-118496726D01*
X118798231Y-118499758D01*
X118645220Y-118622781D01*
X118645217Y-118622783D01*
X118641447Y-118625815D01*
X118638333Y-118629526D01*
X118638332Y-118629527D01*
X118629585Y-118639952D01*
X118509024Y-118783630D01*
X118506689Y-118787878D01*
X118506688Y-118787879D01*
X118499955Y-118800126D01*
X118409776Y-118964162D01*
X118408313Y-118968775D01*
X118408311Y-118968779D01*
X118383508Y-119046969D01*
X118347484Y-119160532D01*
X118346944Y-119165344D01*
X118346944Y-119165345D01*
X118345865Y-119174970D01*
X118324520Y-119365262D01*
X117242500Y-119365262D01*
X117242500Y-116825262D01*
X118324520Y-116825262D01*
X118341759Y-117030553D01*
X118343092Y-117035201D01*
X118343092Y-117035202D01*
X118387110Y-117188710D01*
X118398544Y-117228586D01*
X118492712Y-117411818D01*
X118620677Y-117573270D01*
X118624357Y-117576402D01*
X118624359Y-117576404D01*
X118737017Y-117672283D01*
X118777564Y-117706791D01*
X118781787Y-117709151D01*
X118781791Y-117709154D01*
X118821342Y-117731258D01*
X118957398Y-117807297D01*
X118961996Y-117808791D01*
X119148724Y-117869463D01*
X119148726Y-117869464D01*
X119153329Y-117870959D01*
X119357894Y-117895351D01*
X119362716Y-117894980D01*
X119362719Y-117894980D01*
X119430541Y-117889761D01*
X119563300Y-117879546D01*
X119761725Y-117824145D01*
X119766038Y-117821966D01*
X119766044Y-117821964D01*
X119941289Y-117733441D01*
X119941291Y-117733440D01*
X119945610Y-117731258D01*
X119980943Y-117703653D01*
X120104135Y-117607406D01*
X120104139Y-117607402D01*
X120107951Y-117604424D01*
X120242564Y-117448472D01*
X120261231Y-117415613D01*
X120341934Y-117273550D01*
X120341935Y-117273547D01*
X120344323Y-117269344D01*
X120357882Y-117228586D01*
X120407824Y-117078454D01*
X120407824Y-117078452D01*
X120409351Y-117073863D01*
X120435171Y-116869474D01*
X120435583Y-116840000D01*
X120415480Y-116634970D01*
X120355935Y-116437749D01*
X120259218Y-116255849D01*
X120129011Y-116096200D01*
X119970275Y-115964882D01*
X119789055Y-115866897D01*
X119725855Y-115847333D01*
X119596875Y-115807407D01*
X119596871Y-115807406D01*
X119592254Y-115805977D01*
X119587446Y-115805472D01*
X119587443Y-115805471D01*
X119392185Y-115784949D01*
X119392183Y-115784949D01*
X119387369Y-115784443D01*
X119327354Y-115789905D01*
X119187022Y-115802675D01*
X119187017Y-115802676D01*
X119182203Y-115803114D01*
X118984572Y-115861280D01*
X118980288Y-115863519D01*
X118980287Y-115863520D01*
X118969428Y-115869197D01*
X118802002Y-115956726D01*
X118798231Y-115959758D01*
X118645220Y-116082781D01*
X118645217Y-116082783D01*
X118641447Y-116085815D01*
X118638333Y-116089526D01*
X118638332Y-116089527D01*
X118629585Y-116099952D01*
X118509024Y-116243630D01*
X118506689Y-116247878D01*
X118506688Y-116247879D01*
X118499955Y-116260126D01*
X118409776Y-116424162D01*
X118408313Y-116428775D01*
X118408311Y-116428779D01*
X118388601Y-116490914D01*
X118347484Y-116620532D01*
X118346944Y-116625344D01*
X118346944Y-116625345D01*
X118345865Y-116634970D01*
X118324520Y-116825262D01*
X117242500Y-116825262D01*
X117242500Y-112655411D01*
X118022001Y-112655411D01*
X118022290Y-112660751D01*
X118028078Y-112714035D01*
X118030927Y-112726020D01*
X118077351Y-112849855D01*
X118084059Y-112862108D01*
X118162863Y-112967256D01*
X118172744Y-112977137D01*
X118277892Y-113055941D01*
X118290145Y-113062649D01*
X118413978Y-113109072D01*
X118425967Y-113111923D01*
X118479252Y-113117711D01*
X118484586Y-113118000D01*
X118988247Y-113118000D01*
X119046438Y-113136907D01*
X119082402Y-113186407D01*
X119082402Y-113247593D01*
X119046438Y-113297093D01*
X119016198Y-113311972D01*
X118984572Y-113321280D01*
X118980288Y-113323519D01*
X118980287Y-113323520D01*
X118969428Y-113329197D01*
X118802002Y-113416726D01*
X118798231Y-113419758D01*
X118645220Y-113542781D01*
X118645217Y-113542783D01*
X118641447Y-113545815D01*
X118638333Y-113549526D01*
X118638332Y-113549527D01*
X118629585Y-113559952D01*
X118509024Y-113703630D01*
X118506689Y-113707878D01*
X118506688Y-113707879D01*
X118499955Y-113720126D01*
X118409776Y-113884162D01*
X118347484Y-114080532D01*
X118346944Y-114085344D01*
X118346944Y-114085345D01*
X118345865Y-114094970D01*
X118324520Y-114285262D01*
X118341759Y-114490553D01*
X118398544Y-114688586D01*
X118492712Y-114871818D01*
X118620677Y-115033270D01*
X118624357Y-115036402D01*
X118624359Y-115036404D01*
X118737017Y-115132283D01*
X118777564Y-115166791D01*
X118781787Y-115169151D01*
X118781791Y-115169154D01*
X118821342Y-115191258D01*
X118957398Y-115267297D01*
X118961996Y-115268791D01*
X119148724Y-115329463D01*
X119148726Y-115329464D01*
X119153329Y-115330959D01*
X119357894Y-115355351D01*
X119362716Y-115354980D01*
X119362719Y-115354980D01*
X119430541Y-115349761D01*
X119563300Y-115339546D01*
X119761725Y-115284145D01*
X119766038Y-115281966D01*
X119766044Y-115281964D01*
X119941289Y-115193441D01*
X119941291Y-115193440D01*
X119945610Y-115191258D01*
X119980943Y-115163653D01*
X120104135Y-115067406D01*
X120104139Y-115067402D01*
X120107951Y-115064424D01*
X120242564Y-114908472D01*
X120261231Y-114875613D01*
X120341934Y-114733550D01*
X120341935Y-114733547D01*
X120344323Y-114729344D01*
X120357882Y-114688586D01*
X120407824Y-114538454D01*
X120407824Y-114538452D01*
X120409351Y-114533863D01*
X120435171Y-114329474D01*
X120435583Y-114300000D01*
X120415480Y-114094970D01*
X120355935Y-113897749D01*
X120259218Y-113715849D01*
X120129011Y-113556200D01*
X119970275Y-113424882D01*
X119789055Y-113326897D01*
X119784437Y-113325467D01*
X119784431Y-113325465D01*
X119739548Y-113311571D01*
X119689551Y-113276302D01*
X119669834Y-113218381D01*
X119687927Y-113159932D01*
X119736920Y-113123281D01*
X119768824Y-113117999D01*
X120275411Y-113117999D01*
X120280751Y-113117710D01*
X120334035Y-113111922D01*
X120346020Y-113109073D01*
X120469855Y-113062649D01*
X120482108Y-113055941D01*
X120587256Y-112977137D01*
X120597137Y-112967256D01*
X120675941Y-112862108D01*
X120682649Y-112849855D01*
X120729072Y-112726022D01*
X120731923Y-112714033D01*
X120737711Y-112660748D01*
X120738000Y-112655414D01*
X120738000Y-112029680D01*
X120733878Y-112016995D01*
X120729757Y-112014000D01*
X118037681Y-112014000D01*
X118024996Y-112018122D01*
X118022001Y-112022243D01*
X118022001Y-112655411D01*
X117242500Y-112655411D01*
X117242500Y-111490320D01*
X118022000Y-111490320D01*
X118026122Y-111503005D01*
X118030243Y-111506000D01*
X119110320Y-111506000D01*
X119123005Y-111501878D01*
X119126000Y-111497757D01*
X119126000Y-111490320D01*
X119634000Y-111490320D01*
X119638122Y-111503005D01*
X119642243Y-111506000D01*
X120722319Y-111506000D01*
X120735004Y-111501878D01*
X120737999Y-111497757D01*
X120737999Y-110864589D01*
X120737710Y-110859249D01*
X120731922Y-110805965D01*
X120729073Y-110793980D01*
X120682649Y-110670145D01*
X120675941Y-110657892D01*
X120597137Y-110552744D01*
X120587256Y-110542863D01*
X120482108Y-110464059D01*
X120469855Y-110457351D01*
X120346022Y-110410928D01*
X120334033Y-110408077D01*
X120280748Y-110402289D01*
X120275414Y-110402000D01*
X119649680Y-110402000D01*
X119636995Y-110406122D01*
X119634000Y-110410243D01*
X119634000Y-111490320D01*
X119126000Y-111490320D01*
X119126000Y-110417681D01*
X119121878Y-110404996D01*
X119117757Y-110402001D01*
X118484589Y-110402001D01*
X118479249Y-110402290D01*
X118425965Y-110408078D01*
X118413980Y-110410927D01*
X118290145Y-110457351D01*
X118277892Y-110464059D01*
X118172744Y-110542863D01*
X118162863Y-110552744D01*
X118084059Y-110657892D01*
X118077351Y-110670145D01*
X118030928Y-110793978D01*
X118028077Y-110805967D01*
X118022289Y-110859252D01*
X118022000Y-110864586D01*
X118022000Y-111490320D01*
X117242500Y-111490320D01*
X117242500Y-110582591D01*
X117261407Y-110524400D01*
X117279629Y-110507537D01*
X117278554Y-110506242D01*
X117283987Y-110501732D01*
X117289991Y-110498045D01*
X117294719Y-110492822D01*
X117294721Y-110492820D01*
X117381468Y-110396982D01*
X117386200Y-110391754D01*
X117448710Y-110262733D01*
X117472496Y-110121354D01*
X117472647Y-110109000D01*
X117452323Y-109967082D01*
X117398530Y-109848770D01*
X117395905Y-109842996D01*
X117395904Y-109842995D01*
X117392984Y-109836572D01*
X117299400Y-109727963D01*
X117179095Y-109649985D01*
X117041739Y-109608907D01*
X116958497Y-109608398D01*
X116905427Y-109608074D01*
X116905426Y-109608074D01*
X116898376Y-109608031D01*
X116891599Y-109609968D01*
X116891598Y-109609968D01*
X116767309Y-109645490D01*
X116767307Y-109645491D01*
X116760529Y-109647428D01*
X116639280Y-109723930D01*
X116634613Y-109729214D01*
X116634611Y-109729216D01*
X116549044Y-109826103D01*
X116549042Y-109826105D01*
X116544377Y-109831388D01*
X116541380Y-109837770D01*
X116537508Y-109843666D01*
X116536032Y-109842697D01*
X116500269Y-109880847D01*
X116440177Y-109892364D01*
X116384793Y-109866361D01*
X116355270Y-109812769D01*
X116353500Y-109794134D01*
X116353500Y-103851591D01*
X116372407Y-103793400D01*
X116390629Y-103776537D01*
X116389554Y-103775242D01*
X116394987Y-103770732D01*
X116400991Y-103767045D01*
X116405719Y-103761822D01*
X116405721Y-103761820D01*
X116492468Y-103665982D01*
X116497200Y-103660754D01*
X116559710Y-103531733D01*
X116563875Y-103506982D01*
X116582862Y-103394124D01*
X116582862Y-103394120D01*
X116583496Y-103390354D01*
X116583647Y-103378000D01*
X116563323Y-103236082D01*
X116503984Y-103105572D01*
X116410400Y-102996963D01*
X116290095Y-102918985D01*
X116152739Y-102877907D01*
X116069497Y-102877398D01*
X116016427Y-102877074D01*
X116016426Y-102877074D01*
X116009376Y-102877031D01*
X116002599Y-102878968D01*
X116002598Y-102878968D01*
X115878309Y-102914490D01*
X115878307Y-102914491D01*
X115871529Y-102916428D01*
X115750280Y-102992930D01*
X115745613Y-102998214D01*
X115745611Y-102998216D01*
X115660044Y-103095103D01*
X115660042Y-103095105D01*
X115655377Y-103100388D01*
X115594447Y-103230163D01*
X115572391Y-103371823D01*
X115573306Y-103378820D01*
X115573306Y-103378821D01*
X115574814Y-103390354D01*
X115590980Y-103513979D01*
X115593821Y-103520435D01*
X115593821Y-103520436D01*
X115601586Y-103538082D01*
X115648720Y-103645203D01*
X115661792Y-103660754D01*
X115736431Y-103749549D01*
X115736434Y-103749551D01*
X115740970Y-103754948D01*
X115751294Y-103761820D01*
X115758356Y-103766521D01*
X115796320Y-103814504D01*
X115802500Y-103848933D01*
X115802500Y-104103395D01*
X115783593Y-104161586D01*
X115734093Y-104197550D01*
X115672907Y-104197550D01*
X115661975Y-104193266D01*
X115661017Y-104192823D01*
X115655095Y-104188985D01*
X115517739Y-104147907D01*
X115434497Y-104147398D01*
X115381427Y-104147074D01*
X115381426Y-104147074D01*
X115374376Y-104147031D01*
X115367599Y-104148968D01*
X115367598Y-104148968D01*
X115243309Y-104184490D01*
X115243307Y-104184491D01*
X115236529Y-104186428D01*
X115115280Y-104262930D01*
X115110613Y-104268214D01*
X115110611Y-104268216D01*
X115025044Y-104365103D01*
X115025042Y-104365105D01*
X115020377Y-104370388D01*
X114959447Y-104500163D01*
X114937391Y-104641823D01*
X114955980Y-104783979D01*
X115013720Y-104915203D01*
X115059845Y-104970075D01*
X115101431Y-105019549D01*
X115101434Y-105019551D01*
X115105970Y-105024948D01*
X115123356Y-105036521D01*
X115161320Y-105084504D01*
X115167500Y-105118933D01*
X115167500Y-105454981D01*
X115148593Y-105513172D01*
X115099093Y-105549136D01*
X115037907Y-105549136D01*
X115014215Y-105535705D01*
X115013400Y-105536963D01*
X114899016Y-105462823D01*
X114899017Y-105462823D01*
X114893095Y-105458985D01*
X114755739Y-105417907D01*
X114672497Y-105417398D01*
X114619427Y-105417074D01*
X114619426Y-105417074D01*
X114612376Y-105417031D01*
X114605599Y-105418968D01*
X114605598Y-105418968D01*
X114481309Y-105454490D01*
X114481307Y-105454491D01*
X114474529Y-105456428D01*
X114353280Y-105532930D01*
X114348613Y-105538214D01*
X114348611Y-105538216D01*
X114263044Y-105635103D01*
X114263042Y-105635105D01*
X114258377Y-105640388D01*
X114197447Y-105770163D01*
X114196362Y-105777132D01*
X114196361Y-105777135D01*
X114185862Y-105844572D01*
X114175391Y-105911823D01*
X114176306Y-105918820D01*
X114176306Y-105918821D01*
X114177814Y-105930354D01*
X114193980Y-106053979D01*
X114196821Y-106060435D01*
X114196821Y-106060436D01*
X114207880Y-106085568D01*
X114251720Y-106185203D01*
X114287046Y-106227228D01*
X114339431Y-106289549D01*
X114339434Y-106289551D01*
X114343970Y-106294948D01*
X114354285Y-106301814D01*
X114361356Y-106306521D01*
X114399320Y-106354504D01*
X114405500Y-106388933D01*
X114405500Y-106770395D01*
X114386593Y-106828586D01*
X114337093Y-106864550D01*
X114275907Y-106864550D01*
X114264975Y-106860266D01*
X114264017Y-106859823D01*
X114258095Y-106855985D01*
X114120739Y-106814907D01*
X114037497Y-106814398D01*
X113984427Y-106814074D01*
X113984426Y-106814074D01*
X113977376Y-106814031D01*
X113970599Y-106815968D01*
X113970598Y-106815968D01*
X113846309Y-106851490D01*
X113846307Y-106851491D01*
X113839529Y-106853428D01*
X113833565Y-106857191D01*
X113827127Y-106860071D01*
X113825905Y-106857339D01*
X113779038Y-106869248D01*
X113722206Y-106846583D01*
X113689549Y-106794841D01*
X113686500Y-106770459D01*
X113686500Y-102009124D01*
X113705407Y-101950933D01*
X113715496Y-101939120D01*
X114288240Y-101366376D01*
X114342757Y-101338599D01*
X114360059Y-101337397D01*
X114482445Y-101339641D01*
X114482447Y-101339641D01*
X114489499Y-101339770D01*
X114496302Y-101337915D01*
X114496304Y-101337915D01*
X114576932Y-101315933D01*
X114627817Y-101302060D01*
X114749991Y-101227045D01*
X114757403Y-101218857D01*
X114841468Y-101125982D01*
X114846200Y-101120754D01*
X114908710Y-100991733D01*
X114911515Y-100975064D01*
X114931862Y-100854124D01*
X114931862Y-100854120D01*
X114932496Y-100850354D01*
X114932647Y-100838000D01*
X114912323Y-100696082D01*
X114869615Y-100602151D01*
X114855905Y-100571996D01*
X114855904Y-100571995D01*
X114852984Y-100565572D01*
X114759400Y-100456963D01*
X114639095Y-100378985D01*
X114501739Y-100337907D01*
X114418497Y-100337398D01*
X114365427Y-100337074D01*
X114365426Y-100337074D01*
X114358376Y-100337031D01*
X114351599Y-100338968D01*
X114351598Y-100338968D01*
X114348236Y-100339929D01*
X114292121Y-100355967D01*
X114290623Y-100356395D01*
X114229477Y-100354206D01*
X114181295Y-100316495D01*
X114164481Y-100257665D01*
X114185458Y-100200188D01*
X114193414Y-100191202D01*
X114288240Y-100096376D01*
X114342757Y-100068599D01*
X114360059Y-100067397D01*
X114482445Y-100069641D01*
X114482447Y-100069641D01*
X114489499Y-100069770D01*
X114496302Y-100067915D01*
X114496304Y-100067915D01*
X114571503Y-100047413D01*
X114627817Y-100032060D01*
X114749991Y-99957045D01*
X114757403Y-99948857D01*
X114841468Y-99855982D01*
X114846200Y-99850754D01*
X114908710Y-99721733D01*
X114911515Y-99705064D01*
X114931862Y-99584124D01*
X114931862Y-99584120D01*
X114932496Y-99580354D01*
X114932647Y-99568000D01*
X114912323Y-99426082D01*
X114869615Y-99332151D01*
X114855905Y-99301996D01*
X114855904Y-99301995D01*
X114852984Y-99295572D01*
X114759400Y-99186963D01*
X114639095Y-99108985D01*
X114501739Y-99067907D01*
X114418497Y-99067398D01*
X114365427Y-99067074D01*
X114365426Y-99067074D01*
X114358376Y-99067031D01*
X114351599Y-99068968D01*
X114351598Y-99068968D01*
X114348236Y-99069929D01*
X114292121Y-99085967D01*
X114290623Y-99086395D01*
X114229477Y-99084206D01*
X114181295Y-99046495D01*
X114164481Y-98987665D01*
X114185458Y-98930188D01*
X114193414Y-98921202D01*
X114512120Y-98602496D01*
X114566637Y-98574719D01*
X114582124Y-98573500D01*
X115482582Y-98573500D01*
X115540773Y-98592407D01*
X115558365Y-98608798D01*
X115613970Y-98674948D01*
X115619841Y-98678856D01*
X115619842Y-98678857D01*
X115632143Y-98687045D01*
X115733313Y-98754390D01*
X115833920Y-98785821D01*
X115863425Y-98795039D01*
X115863426Y-98795039D01*
X115870157Y-98797142D01*
X115941828Y-98798456D01*
X116006445Y-98799641D01*
X116006447Y-98799641D01*
X116013499Y-98799770D01*
X116020302Y-98797915D01*
X116020304Y-98797915D01*
X116095503Y-98777413D01*
X116151817Y-98762060D01*
X116273991Y-98687045D01*
X116281403Y-98678857D01*
X116365468Y-98585982D01*
X116370200Y-98580754D01*
X116432710Y-98451733D01*
X116435515Y-98435064D01*
X116455862Y-98314124D01*
X116455862Y-98314120D01*
X116456496Y-98310354D01*
X116456647Y-98298000D01*
X116436323Y-98156082D01*
X116392482Y-98059658D01*
X116379905Y-98031996D01*
X116379904Y-98031995D01*
X116376984Y-98025572D01*
X116283400Y-97916963D01*
X116163095Y-97838985D01*
X116025739Y-97797907D01*
X115942497Y-97797398D01*
X115889427Y-97797074D01*
X115889426Y-97797074D01*
X115882376Y-97797031D01*
X115875599Y-97798968D01*
X115875598Y-97798968D01*
X115751309Y-97834490D01*
X115751307Y-97834491D01*
X115744529Y-97836428D01*
X115623280Y-97912930D01*
X115618613Y-97918214D01*
X115618611Y-97918216D01*
X115556068Y-97989034D01*
X115503376Y-98020134D01*
X115481864Y-98022500D01*
X114463884Y-98022500D01*
X114444571Y-98020598D01*
X114427000Y-98017103D01*
X114399868Y-98022500D01*
X114399867Y-98022500D01*
X114364442Y-98029547D01*
X114329070Y-98036582D01*
X114329068Y-98036583D01*
X114319505Y-98038485D01*
X114287818Y-98059658D01*
X114251378Y-98084006D01*
X114251377Y-98084007D01*
X114228376Y-98099376D01*
X114222957Y-98107486D01*
X114218426Y-98114267D01*
X114206115Y-98129269D01*
X112187044Y-100148340D01*
X112132527Y-100176117D01*
X112081386Y-100168018D01*
X112071431Y-100166839D01*
X112026503Y-100125304D01*
X112024512Y-100120628D01*
X112019515Y-100095506D01*
X112019515Y-100095505D01*
X111958624Y-100004376D01*
X111943733Y-99994426D01*
X111928731Y-99982115D01*
X110381680Y-98435064D01*
X110353903Y-98380547D01*
X110354056Y-98348636D01*
X110359861Y-98314127D01*
X110360496Y-98310354D01*
X110360647Y-98298000D01*
X110340323Y-98156082D01*
X110296482Y-98059658D01*
X110283905Y-98031996D01*
X110283904Y-98031995D01*
X110280984Y-98025572D01*
X110187400Y-97916963D01*
X110067095Y-97838985D01*
X109929739Y-97797907D01*
X109846497Y-97797398D01*
X109793427Y-97797074D01*
X109793426Y-97797074D01*
X109786376Y-97797031D01*
X109779599Y-97798968D01*
X109779598Y-97798968D01*
X109655309Y-97834490D01*
X109655307Y-97834491D01*
X109648529Y-97836428D01*
X109527280Y-97912930D01*
X109522613Y-97918214D01*
X109522611Y-97918216D01*
X109437044Y-98015103D01*
X109437042Y-98015105D01*
X109432377Y-98020388D01*
X109371447Y-98150163D01*
X109349391Y-98291823D01*
X109350306Y-98298820D01*
X109350306Y-98298821D01*
X109356820Y-98348636D01*
X109367980Y-98433979D01*
X109370821Y-98440435D01*
X109370821Y-98440436D01*
X109378586Y-98458082D01*
X109425720Y-98565203D01*
X109457068Y-98602496D01*
X109513431Y-98669549D01*
X109513434Y-98669551D01*
X109517970Y-98674948D01*
X109523841Y-98678856D01*
X109523842Y-98678857D01*
X109536143Y-98687045D01*
X109637313Y-98754390D01*
X109737920Y-98785821D01*
X109767425Y-98795039D01*
X109767426Y-98795039D01*
X109774157Y-98797142D01*
X109839301Y-98798336D01*
X109910441Y-98799641D01*
X109910444Y-98799641D01*
X109917499Y-98799770D01*
X109917490Y-98800271D01*
X109972816Y-98810924D01*
X109994976Y-98827592D01*
X110088498Y-98921114D01*
X110116275Y-98975631D01*
X110106704Y-99036063D01*
X110063439Y-99079328D01*
X110003007Y-99088899D01*
X109990128Y-99085967D01*
X109936500Y-99069929D01*
X109929739Y-99067907D01*
X109846497Y-99067398D01*
X109793427Y-99067074D01*
X109793426Y-99067074D01*
X109786376Y-99067031D01*
X109779599Y-99068968D01*
X109779598Y-99068968D01*
X109655309Y-99104490D01*
X109655307Y-99104491D01*
X109648529Y-99106428D01*
X109527280Y-99182930D01*
X109522613Y-99188214D01*
X109522611Y-99188216D01*
X109437044Y-99285103D01*
X109437042Y-99285105D01*
X109432377Y-99290388D01*
X109429381Y-99296770D01*
X109429380Y-99296771D01*
X109417752Y-99321538D01*
X109371447Y-99420163D01*
X109349391Y-99561823D01*
X109350306Y-99568820D01*
X109350306Y-99568821D01*
X109360993Y-99650547D01*
X109367980Y-99703979D01*
X109370821Y-99710435D01*
X109370821Y-99710436D01*
X109378586Y-99728082D01*
X109425720Y-99835203D01*
X109438792Y-99850754D01*
X109513431Y-99939549D01*
X109513434Y-99939551D01*
X109517970Y-99944948D01*
X109523841Y-99948856D01*
X109523842Y-99948857D01*
X109536143Y-99957045D01*
X109637313Y-100024390D01*
X109737920Y-100055821D01*
X109767425Y-100065039D01*
X109767426Y-100065039D01*
X109774157Y-100067142D01*
X109839301Y-100068336D01*
X109910441Y-100069641D01*
X109910444Y-100069641D01*
X109917499Y-100069770D01*
X109917490Y-100070271D01*
X109972816Y-100080924D01*
X109994976Y-100097592D01*
X110088498Y-100191114D01*
X110116275Y-100245631D01*
X110106704Y-100306063D01*
X110063439Y-100349328D01*
X110003007Y-100358899D01*
X109990128Y-100355967D01*
X109936500Y-100339929D01*
X109929739Y-100337907D01*
X109846497Y-100337398D01*
X109793427Y-100337074D01*
X109793426Y-100337074D01*
X109786376Y-100337031D01*
X109779599Y-100338968D01*
X109779598Y-100338968D01*
X109655309Y-100374490D01*
X109655307Y-100374491D01*
X109648529Y-100376428D01*
X109527280Y-100452930D01*
X109522613Y-100458214D01*
X109522611Y-100458216D01*
X109437044Y-100555103D01*
X109437042Y-100555105D01*
X109432377Y-100560388D01*
X109429381Y-100566770D01*
X109429380Y-100566771D01*
X109417752Y-100591538D01*
X109371447Y-100690163D01*
X109349391Y-100831823D01*
X109350306Y-100838820D01*
X109350306Y-100838821D01*
X109357375Y-100892880D01*
X109367980Y-100973979D01*
X109370821Y-100980435D01*
X109370821Y-100980436D01*
X109381633Y-101005007D01*
X109425720Y-101105203D01*
X109438792Y-101120754D01*
X109513431Y-101209549D01*
X109513434Y-101209551D01*
X109517970Y-101214948D01*
X109523841Y-101218856D01*
X109523842Y-101218857D01*
X109536143Y-101227045D01*
X109637313Y-101294390D01*
X109706270Y-101315933D01*
X109767425Y-101335039D01*
X109767426Y-101335039D01*
X109774157Y-101337142D01*
X109839301Y-101338336D01*
X109910441Y-101339641D01*
X109910444Y-101339641D01*
X109917499Y-101339770D01*
X109917490Y-101340271D01*
X109972816Y-101350924D01*
X109994976Y-101367592D01*
X110088498Y-101461114D01*
X110116275Y-101515631D01*
X110106704Y-101576063D01*
X110063439Y-101619328D01*
X110003007Y-101628899D01*
X109990128Y-101625967D01*
X109936500Y-101609929D01*
X109929739Y-101607907D01*
X109846497Y-101607398D01*
X109793427Y-101607074D01*
X109793426Y-101607074D01*
X109786376Y-101607031D01*
X109779599Y-101608968D01*
X109779598Y-101608968D01*
X109655309Y-101644490D01*
X109655307Y-101644491D01*
X109648529Y-101646428D01*
X109527280Y-101722930D01*
X109522613Y-101728214D01*
X109522611Y-101728216D01*
X109437044Y-101825103D01*
X109437042Y-101825105D01*
X109432377Y-101830388D01*
X109371447Y-101960163D01*
X109370362Y-101967132D01*
X109370361Y-101967135D01*
X109363824Y-102009124D01*
X109349391Y-102101823D01*
X107336500Y-102101823D01*
X107336500Y-96802124D01*
X107355407Y-96743933D01*
X107365496Y-96732120D01*
X108162120Y-95935496D01*
X108216637Y-95907719D01*
X108232124Y-95906500D01*
X110961116Y-95906500D01*
X110980429Y-95908402D01*
X110998000Y-95911897D01*
X111025132Y-95906500D01*
X111025133Y-95906500D01*
X111060558Y-95899453D01*
X111095930Y-95892418D01*
X111095932Y-95892417D01*
X111105495Y-95890515D01*
X111147465Y-95862471D01*
X111173622Y-95844994D01*
X111173623Y-95844993D01*
X111173710Y-95844935D01*
X111188518Y-95835041D01*
X111188520Y-95835039D01*
X111196624Y-95829624D01*
X111202039Y-95821520D01*
X111202043Y-95821516D01*
X111206578Y-95814729D01*
X111218888Y-95799728D01*
X111928731Y-95089885D01*
X111943733Y-95077574D01*
X111950514Y-95073043D01*
X111958624Y-95067624D01*
X111964125Y-95059392D01*
X112014096Y-94984605D01*
X112019515Y-94976495D01*
X112023526Y-94956334D01*
X112035500Y-94896133D01*
X112035500Y-94896132D01*
X112038995Y-94878562D01*
X112040897Y-94869000D01*
X112038995Y-94859437D01*
X112037402Y-94851428D01*
X112035500Y-94832115D01*
X112035500Y-94814948D01*
X112054407Y-94756757D01*
X112107878Y-94719595D01*
X112137062Y-94711447D01*
X112137065Y-94711446D01*
X112141725Y-94710145D01*
X112146038Y-94707966D01*
X112146044Y-94707964D01*
X112321289Y-94619441D01*
X112321291Y-94619440D01*
X112325610Y-94617258D01*
X112332295Y-94612035D01*
X112484135Y-94493406D01*
X112484139Y-94493402D01*
X112487951Y-94490424D01*
X112622564Y-94334472D01*
X112641231Y-94301613D01*
X112721934Y-94159550D01*
X112721935Y-94159547D01*
X112724323Y-94155344D01*
X112730340Y-94137258D01*
X112787824Y-93964454D01*
X112787824Y-93964452D01*
X112789351Y-93959863D01*
X112815171Y-93755474D01*
X112815583Y-93726000D01*
X112814138Y-93711262D01*
X113244520Y-93711262D01*
X113261759Y-93916553D01*
X113263092Y-93921201D01*
X113263092Y-93921202D01*
X113288537Y-94009938D01*
X113318544Y-94114586D01*
X113412712Y-94297818D01*
X113540677Y-94459270D01*
X113544357Y-94462402D01*
X113544359Y-94462404D01*
X113620638Y-94527322D01*
X113697564Y-94592791D01*
X113701787Y-94595151D01*
X113701791Y-94595154D01*
X113741342Y-94617258D01*
X113877398Y-94693297D01*
X113881996Y-94694791D01*
X114068724Y-94755463D01*
X114068726Y-94755464D01*
X114073329Y-94756959D01*
X114277894Y-94781351D01*
X114282716Y-94780980D01*
X114282719Y-94780980D01*
X114353259Y-94775552D01*
X114483300Y-94765546D01*
X114681725Y-94710145D01*
X114686038Y-94707966D01*
X114686044Y-94707964D01*
X114861289Y-94619441D01*
X114861291Y-94619440D01*
X114865610Y-94617258D01*
X114872295Y-94612035D01*
X115024135Y-94493406D01*
X115024139Y-94493402D01*
X115027951Y-94490424D01*
X115162564Y-94334472D01*
X115181231Y-94301613D01*
X115261934Y-94159550D01*
X115261935Y-94159547D01*
X115264323Y-94155344D01*
X115270340Y-94137258D01*
X115319122Y-93990612D01*
X115355431Y-93941364D01*
X115413752Y-93922863D01*
X115471809Y-93942177D01*
X115507427Y-93991926D01*
X115509639Y-94000096D01*
X115538807Y-94129524D01*
X115541231Y-94137258D01*
X115622183Y-94336620D01*
X115625840Y-94343860D01*
X115738266Y-94527322D01*
X115743056Y-94533867D01*
X115883935Y-94696502D01*
X115889729Y-94702176D01*
X116055292Y-94839629D01*
X116061921Y-94844270D01*
X116247713Y-94952838D01*
X116255008Y-94956334D01*
X116456038Y-95033099D01*
X116463808Y-95035357D01*
X116570637Y-95057091D01*
X116583846Y-95055586D01*
X116586000Y-95047405D01*
X116586000Y-95046952D01*
X117094000Y-95046952D01*
X117098122Y-95059637D01*
X117099650Y-95060748D01*
X117104884Y-95061238D01*
X117119291Y-95059392D01*
X117127200Y-95057710D01*
X117333304Y-94995876D01*
X117340852Y-94992918D01*
X117534087Y-94898253D01*
X117541046Y-94894104D01*
X117716231Y-94769148D01*
X117722412Y-94763924D01*
X117874831Y-94612035D01*
X117880088Y-94605858D01*
X118005651Y-94431119D01*
X118009823Y-94424176D01*
X118105164Y-94231268D01*
X118108144Y-94223744D01*
X118170701Y-94017843D01*
X118172410Y-94009938D01*
X118174304Y-93995547D01*
X118171873Y-93982431D01*
X118170571Y-93981195D01*
X118165290Y-93980000D01*
X117109680Y-93980000D01*
X117096995Y-93984122D01*
X117094000Y-93988243D01*
X117094000Y-95046952D01*
X116586000Y-95046952D01*
X116586000Y-93571000D01*
X116604907Y-93512809D01*
X116654407Y-93476845D01*
X116685000Y-93472000D01*
X118160779Y-93472000D01*
X118172730Y-93468117D01*
X118173058Y-93458462D01*
X118130946Y-93290809D01*
X118128333Y-93283133D01*
X118042534Y-93085807D01*
X118038701Y-93078660D01*
X117921826Y-92897997D01*
X117916880Y-92891575D01*
X117772065Y-92732426D01*
X117766139Y-92726899D01*
X117597269Y-92593534D01*
X117590525Y-92589054D01*
X117402141Y-92485060D01*
X117394749Y-92481738D01*
X117191920Y-92409912D01*
X117184081Y-92407841D01*
X117114589Y-92395463D01*
X117060616Y-92366644D01*
X117033890Y-92311605D01*
X117044619Y-92251367D01*
X117088706Y-92208941D01*
X117105327Y-92202644D01*
X117149867Y-92190208D01*
X117221725Y-92170145D01*
X117226038Y-92167966D01*
X117226044Y-92167964D01*
X117401289Y-92079441D01*
X117401291Y-92079440D01*
X117405610Y-92077258D01*
X117440943Y-92049653D01*
X117564135Y-91953406D01*
X117564139Y-91953402D01*
X117567951Y-91950424D01*
X117702564Y-91794472D01*
X117722210Y-91759889D01*
X117801934Y-91619550D01*
X117801935Y-91619547D01*
X117804323Y-91615344D01*
X117817882Y-91574586D01*
X117867824Y-91424454D01*
X117867824Y-91424452D01*
X117869351Y-91419863D01*
X117895171Y-91215474D01*
X117895583Y-91186000D01*
X117875480Y-90980970D01*
X117815935Y-90783749D01*
X117719218Y-90601849D01*
X117589011Y-90442200D01*
X117430275Y-90310882D01*
X117249055Y-90212897D01*
X117185855Y-90193333D01*
X117056875Y-90153407D01*
X117056871Y-90153406D01*
X117052254Y-90151977D01*
X117047446Y-90151472D01*
X117047443Y-90151471D01*
X116852185Y-90130949D01*
X116852183Y-90130949D01*
X116847369Y-90130443D01*
X116787354Y-90135905D01*
X116647022Y-90148675D01*
X116647017Y-90148676D01*
X116642203Y-90149114D01*
X116444572Y-90207280D01*
X116440288Y-90209519D01*
X116440287Y-90209520D01*
X116429428Y-90215197D01*
X116262002Y-90302726D01*
X116258231Y-90305758D01*
X116105220Y-90428781D01*
X116105217Y-90428783D01*
X116101447Y-90431815D01*
X116098333Y-90435526D01*
X116098332Y-90435527D01*
X116089585Y-90445952D01*
X115969024Y-90589630D01*
X115966689Y-90593878D01*
X115966688Y-90593879D01*
X115959955Y-90606126D01*
X115869776Y-90770162D01*
X115807484Y-90966532D01*
X115806944Y-90971344D01*
X115806944Y-90971345D01*
X115805865Y-90980970D01*
X115784520Y-91171262D01*
X115801759Y-91376553D01*
X115858544Y-91574586D01*
X115952712Y-91757818D01*
X116080677Y-91919270D01*
X116084357Y-91922402D01*
X116084359Y-91922404D01*
X116197017Y-92018283D01*
X116237564Y-92052791D01*
X116241787Y-92055151D01*
X116241791Y-92055154D01*
X116281342Y-92077258D01*
X116417398Y-92153297D01*
X116571944Y-92203512D01*
X116621444Y-92239476D01*
X116640351Y-92297667D01*
X116621444Y-92355858D01*
X116571944Y-92391822D01*
X116556327Y-92395528D01*
X116528226Y-92399828D01*
X116520341Y-92401707D01*
X116315807Y-92468558D01*
X116308350Y-92471693D01*
X116117479Y-92571054D01*
X116110627Y-92575369D01*
X115938544Y-92704573D01*
X115932491Y-92709947D01*
X115783830Y-92865513D01*
X115778727Y-92871814D01*
X115657466Y-93049575D01*
X115653468Y-93056613D01*
X115562871Y-93251790D01*
X115560073Y-93259394D01*
X115506095Y-93454031D01*
X115472325Y-93505052D01*
X115415014Y-93526480D01*
X115356054Y-93510129D01*
X115317965Y-93462244D01*
X115315921Y-93456188D01*
X115277333Y-93328380D01*
X115275935Y-93323749D01*
X115179218Y-93141849D01*
X115049011Y-92982200D01*
X114947227Y-92897997D01*
X114894002Y-92853965D01*
X114894000Y-92853964D01*
X114890275Y-92850882D01*
X114753474Y-92776914D01*
X114713309Y-92755197D01*
X114713308Y-92755197D01*
X114709055Y-92752897D01*
X114625069Y-92726899D01*
X114516875Y-92693407D01*
X114516871Y-92693406D01*
X114512254Y-92691977D01*
X114507446Y-92691472D01*
X114507443Y-92691471D01*
X114312185Y-92670949D01*
X114312183Y-92670949D01*
X114307369Y-92670443D01*
X114251800Y-92675500D01*
X114107022Y-92688675D01*
X114107017Y-92688676D01*
X114102203Y-92689114D01*
X113904572Y-92747280D01*
X113900288Y-92749519D01*
X113900287Y-92749520D01*
X113889428Y-92755197D01*
X113722002Y-92842726D01*
X113718231Y-92845758D01*
X113565220Y-92968781D01*
X113565217Y-92968783D01*
X113561447Y-92971815D01*
X113558333Y-92975526D01*
X113558332Y-92975527D01*
X113549585Y-92985952D01*
X113429024Y-93129630D01*
X113426689Y-93133878D01*
X113426688Y-93133879D01*
X113419955Y-93146126D01*
X113329776Y-93310162D01*
X113267484Y-93506532D01*
X113266944Y-93511344D01*
X113266944Y-93511345D01*
X113265865Y-93520970D01*
X113244520Y-93711262D01*
X112814138Y-93711262D01*
X112813667Y-93706454D01*
X112795952Y-93525780D01*
X112795951Y-93525776D01*
X112795480Y-93520970D01*
X112777750Y-93462244D01*
X112737333Y-93328380D01*
X112735935Y-93323749D01*
X112639218Y-93141849D01*
X112509011Y-92982200D01*
X112407227Y-92897997D01*
X112354002Y-92853965D01*
X112354000Y-92853964D01*
X112350275Y-92850882D01*
X112213474Y-92776914D01*
X112173309Y-92755197D01*
X112173308Y-92755197D01*
X112169055Y-92752897D01*
X112085069Y-92726899D01*
X111976875Y-92693407D01*
X111976871Y-92693406D01*
X111972254Y-92691977D01*
X111967446Y-92691472D01*
X111967443Y-92691471D01*
X111772185Y-92670949D01*
X111772183Y-92670949D01*
X111767369Y-92670443D01*
X111711800Y-92675500D01*
X111567022Y-92688675D01*
X111567017Y-92688676D01*
X111562203Y-92689114D01*
X111364572Y-92747280D01*
X111360288Y-92749519D01*
X111360287Y-92749520D01*
X111349428Y-92755197D01*
X111182002Y-92842726D01*
X111178231Y-92845758D01*
X111025220Y-92968781D01*
X111025217Y-92968783D01*
X111021447Y-92971815D01*
X111018333Y-92975526D01*
X111018332Y-92975527D01*
X111009585Y-92985952D01*
X110889024Y-93129630D01*
X110886689Y-93133878D01*
X110886688Y-93133879D01*
X110879955Y-93146126D01*
X110789776Y-93310162D01*
X110727484Y-93506532D01*
X110726944Y-93511344D01*
X110726944Y-93511345D01*
X110725865Y-93520970D01*
X110704520Y-93711262D01*
X110721759Y-93916553D01*
X110723092Y-93921201D01*
X110723092Y-93921202D01*
X110748537Y-94009938D01*
X110778544Y-94114586D01*
X110872712Y-94297818D01*
X111000677Y-94459270D01*
X111004357Y-94462402D01*
X111004359Y-94462404D01*
X111080638Y-94527322D01*
X111157564Y-94592791D01*
X111161787Y-94595151D01*
X111161791Y-94595154D01*
X111201342Y-94617258D01*
X111337398Y-94693297D01*
X111342001Y-94694793D01*
X111346442Y-94696733D01*
X111345917Y-94697935D01*
X111390759Y-94730513D01*
X111409669Y-94788703D01*
X111390764Y-94846895D01*
X111380673Y-94858711D01*
X110912880Y-95326504D01*
X110858363Y-95354281D01*
X110842876Y-95355500D01*
X108113884Y-95355500D01*
X108094571Y-95353598D01*
X108077000Y-95350103D01*
X108049868Y-95355500D01*
X108049867Y-95355500D01*
X108014442Y-95362547D01*
X107979070Y-95369582D01*
X107979068Y-95369583D01*
X107969505Y-95371485D01*
X107927535Y-95399529D01*
X107901378Y-95417006D01*
X107901377Y-95417007D01*
X107878376Y-95432376D01*
X107872957Y-95440486D01*
X107868426Y-95447267D01*
X107856115Y-95462269D01*
X106892269Y-96426115D01*
X106877267Y-96438426D01*
X106862376Y-96448376D01*
X106861730Y-96447409D01*
X106815987Y-96470716D01*
X106755555Y-96461145D01*
X106712290Y-96417880D01*
X106701500Y-96372935D01*
X106701500Y-94135124D01*
X106720407Y-94076933D01*
X106730496Y-94065120D01*
X108000496Y-92795120D01*
X108055013Y-92767343D01*
X108115445Y-92776914D01*
X108158710Y-92820179D01*
X108169500Y-92865124D01*
X108169500Y-94595748D01*
X108181133Y-94654231D01*
X108225448Y-94720552D01*
X108291769Y-94764867D01*
X108301332Y-94766769D01*
X108301334Y-94766770D01*
X108324005Y-94771279D01*
X108350252Y-94776500D01*
X110089748Y-94776500D01*
X110115995Y-94771279D01*
X110138666Y-94766770D01*
X110138668Y-94766769D01*
X110148231Y-94764867D01*
X110214552Y-94720552D01*
X110258867Y-94654231D01*
X110270500Y-94595748D01*
X110270500Y-92856252D01*
X110258867Y-92797769D01*
X110214552Y-92731448D01*
X110148231Y-92687133D01*
X110138668Y-92685231D01*
X110138666Y-92685230D01*
X110115995Y-92680721D01*
X110089748Y-92675500D01*
X108359124Y-92675500D01*
X108300933Y-92656593D01*
X108264969Y-92607093D01*
X108264969Y-92545907D01*
X108289120Y-92506496D01*
X108644974Y-92150642D01*
X108699491Y-92122865D01*
X108763276Y-92134227D01*
X108797398Y-92153297D01*
X108801996Y-92154791D01*
X108988724Y-92215463D01*
X108988726Y-92215464D01*
X108993329Y-92216959D01*
X109197894Y-92241351D01*
X109202716Y-92240980D01*
X109202719Y-92240980D01*
X109270541Y-92235761D01*
X109403300Y-92225546D01*
X109601725Y-92170145D01*
X109606038Y-92167966D01*
X109606044Y-92167964D01*
X109781289Y-92079441D01*
X109781291Y-92079440D01*
X109785610Y-92077258D01*
X109820943Y-92049653D01*
X109944135Y-91953406D01*
X109944139Y-91953402D01*
X109947951Y-91950424D01*
X110082564Y-91794472D01*
X110102210Y-91759889D01*
X110181934Y-91619550D01*
X110181935Y-91619547D01*
X110184323Y-91615344D01*
X110197882Y-91574586D01*
X110247824Y-91424454D01*
X110247824Y-91424452D01*
X110249351Y-91419863D01*
X110275171Y-91215474D01*
X110275583Y-91186000D01*
X110274138Y-91171262D01*
X110704520Y-91171262D01*
X110721759Y-91376553D01*
X110778544Y-91574586D01*
X110872712Y-91757818D01*
X111000677Y-91919270D01*
X111004357Y-91922402D01*
X111004359Y-91922404D01*
X111117017Y-92018283D01*
X111157564Y-92052791D01*
X111161787Y-92055151D01*
X111161791Y-92055154D01*
X111201342Y-92077258D01*
X111337398Y-92153297D01*
X111341996Y-92154791D01*
X111528724Y-92215463D01*
X111528726Y-92215464D01*
X111533329Y-92216959D01*
X111737894Y-92241351D01*
X111742716Y-92240980D01*
X111742719Y-92240980D01*
X111810541Y-92235761D01*
X111943300Y-92225546D01*
X112141725Y-92170145D01*
X112146038Y-92167966D01*
X112146044Y-92167964D01*
X112321289Y-92079441D01*
X112321291Y-92079440D01*
X112325610Y-92077258D01*
X112360943Y-92049653D01*
X112484135Y-91953406D01*
X112484139Y-91953402D01*
X112487951Y-91950424D01*
X112622564Y-91794472D01*
X112642210Y-91759889D01*
X112721934Y-91619550D01*
X112721935Y-91619547D01*
X112724323Y-91615344D01*
X112737882Y-91574586D01*
X112787824Y-91424454D01*
X112787824Y-91424452D01*
X112789351Y-91419863D01*
X112815171Y-91215474D01*
X112815583Y-91186000D01*
X112814138Y-91171262D01*
X113244520Y-91171262D01*
X113261759Y-91376553D01*
X113318544Y-91574586D01*
X113412712Y-91757818D01*
X113540677Y-91919270D01*
X113544357Y-91922402D01*
X113544359Y-91922404D01*
X113657017Y-92018283D01*
X113697564Y-92052791D01*
X113701787Y-92055151D01*
X113701791Y-92055154D01*
X113741342Y-92077258D01*
X113877398Y-92153297D01*
X113881996Y-92154791D01*
X114068724Y-92215463D01*
X114068726Y-92215464D01*
X114073329Y-92216959D01*
X114277894Y-92241351D01*
X114282716Y-92240980D01*
X114282719Y-92240980D01*
X114350541Y-92235761D01*
X114483300Y-92225546D01*
X114681725Y-92170145D01*
X114686038Y-92167966D01*
X114686044Y-92167964D01*
X114861289Y-92079441D01*
X114861291Y-92079440D01*
X114865610Y-92077258D01*
X114900943Y-92049653D01*
X115024135Y-91953406D01*
X115024139Y-91953402D01*
X115027951Y-91950424D01*
X115162564Y-91794472D01*
X115182210Y-91759889D01*
X115261934Y-91619550D01*
X115261935Y-91619547D01*
X115264323Y-91615344D01*
X115277882Y-91574586D01*
X115327824Y-91424454D01*
X115327824Y-91424452D01*
X115329351Y-91419863D01*
X115355171Y-91215474D01*
X115355583Y-91186000D01*
X115335480Y-90980970D01*
X115275935Y-90783749D01*
X115179218Y-90601849D01*
X115049011Y-90442200D01*
X114890275Y-90310882D01*
X114709055Y-90212897D01*
X114645855Y-90193333D01*
X114516875Y-90153407D01*
X114516871Y-90153406D01*
X114512254Y-90151977D01*
X114507446Y-90151472D01*
X114507443Y-90151471D01*
X114312185Y-90130949D01*
X114312183Y-90130949D01*
X114307369Y-90130443D01*
X114247354Y-90135905D01*
X114107022Y-90148675D01*
X114107017Y-90148676D01*
X114102203Y-90149114D01*
X113904572Y-90207280D01*
X113900288Y-90209519D01*
X113900287Y-90209520D01*
X113889428Y-90215197D01*
X113722002Y-90302726D01*
X113718231Y-90305758D01*
X113565220Y-90428781D01*
X113565217Y-90428783D01*
X113561447Y-90431815D01*
X113558333Y-90435526D01*
X113558332Y-90435527D01*
X113549585Y-90445952D01*
X113429024Y-90589630D01*
X113426689Y-90593878D01*
X113426688Y-90593879D01*
X113419955Y-90606126D01*
X113329776Y-90770162D01*
X113267484Y-90966532D01*
X113266944Y-90971344D01*
X113266944Y-90971345D01*
X113265865Y-90980970D01*
X113244520Y-91171262D01*
X112814138Y-91171262D01*
X112795480Y-90980970D01*
X112735935Y-90783749D01*
X112639218Y-90601849D01*
X112509011Y-90442200D01*
X112350275Y-90310882D01*
X112169055Y-90212897D01*
X112105855Y-90193333D01*
X111976875Y-90153407D01*
X111976871Y-90153406D01*
X111972254Y-90151977D01*
X111967446Y-90151472D01*
X111967443Y-90151471D01*
X111772185Y-90130949D01*
X111772183Y-90130949D01*
X111767369Y-90130443D01*
X111707354Y-90135905D01*
X111567022Y-90148675D01*
X111567017Y-90148676D01*
X111562203Y-90149114D01*
X111364572Y-90207280D01*
X111360288Y-90209519D01*
X111360287Y-90209520D01*
X111349428Y-90215197D01*
X111182002Y-90302726D01*
X111178231Y-90305758D01*
X111025220Y-90428781D01*
X111025217Y-90428783D01*
X111021447Y-90431815D01*
X111018333Y-90435526D01*
X111018332Y-90435527D01*
X111009585Y-90445952D01*
X110889024Y-90589630D01*
X110886689Y-90593878D01*
X110886688Y-90593879D01*
X110879955Y-90606126D01*
X110789776Y-90770162D01*
X110727484Y-90966532D01*
X110726944Y-90971344D01*
X110726944Y-90971345D01*
X110725865Y-90980970D01*
X110704520Y-91171262D01*
X110274138Y-91171262D01*
X110255480Y-90980970D01*
X110195935Y-90783749D01*
X110099218Y-90601849D01*
X109969011Y-90442200D01*
X109810275Y-90310882D01*
X109629055Y-90212897D01*
X109565855Y-90193333D01*
X109436875Y-90153407D01*
X109436871Y-90153406D01*
X109432254Y-90151977D01*
X109427446Y-90151472D01*
X109427443Y-90151471D01*
X109232185Y-90130949D01*
X109232183Y-90130949D01*
X109227369Y-90130443D01*
X109167354Y-90135905D01*
X109027022Y-90148675D01*
X109027017Y-90148676D01*
X109022203Y-90149114D01*
X108824572Y-90207280D01*
X108820288Y-90209519D01*
X108820287Y-90209520D01*
X108809428Y-90215197D01*
X108642002Y-90302726D01*
X108638231Y-90305758D01*
X108485220Y-90428781D01*
X108485217Y-90428783D01*
X108481447Y-90431815D01*
X108478333Y-90435526D01*
X108478332Y-90435527D01*
X108469585Y-90445952D01*
X108349024Y-90589630D01*
X108346689Y-90593878D01*
X108346688Y-90593879D01*
X108339955Y-90606126D01*
X108249776Y-90770162D01*
X108187484Y-90966532D01*
X108186944Y-90971344D01*
X108186944Y-90971345D01*
X108185865Y-90980970D01*
X108164520Y-91171262D01*
X108181759Y-91376553D01*
X108238544Y-91574586D01*
X108240759Y-91578896D01*
X108274543Y-91644632D01*
X108284326Y-91705030D01*
X108256495Y-91759889D01*
X106257269Y-93759115D01*
X106242267Y-93771426D01*
X106227376Y-93781376D01*
X106166485Y-93872505D01*
X106166485Y-93872506D01*
X106145103Y-93980000D01*
X106147005Y-93989561D01*
X106148598Y-93997569D01*
X106150500Y-94016884D01*
X106150500Y-105688800D01*
X106131593Y-105746991D01*
X106082093Y-105782955D01*
X106020907Y-105782955D01*
X106009975Y-105778671D01*
X106009017Y-105778228D01*
X106003095Y-105774390D01*
X105865739Y-105733312D01*
X105782497Y-105732803D01*
X105729427Y-105732479D01*
X105729426Y-105732479D01*
X105722376Y-105732436D01*
X105715599Y-105734373D01*
X105715598Y-105734373D01*
X105591309Y-105769895D01*
X105591307Y-105769896D01*
X105584529Y-105771833D01*
X105463280Y-105848335D01*
X105458613Y-105853619D01*
X105458611Y-105853621D01*
X105373044Y-105950508D01*
X105373042Y-105950510D01*
X105368377Y-105955793D01*
X105307447Y-106085568D01*
X105285391Y-106227228D01*
X105286306Y-106234225D01*
X105286306Y-106234226D01*
X105295144Y-106301814D01*
X105303980Y-106369384D01*
X105306820Y-106375838D01*
X105306821Y-106375842D01*
X105357116Y-106490145D01*
X105365500Y-106530017D01*
X105365500Y-109053433D01*
X105356114Y-109095507D01*
X105307447Y-109199163D01*
X105285391Y-109340823D01*
X104975500Y-109340823D01*
X104975500Y-89453500D01*
X104994407Y-89395309D01*
X105043907Y-89359345D01*
X105074500Y-89354500D01*
X120985500Y-89354500D01*
X121043691Y-89373407D01*
G37*
%TD.AperFunction*%
%TD*%
M02*
