%TF.GenerationSoftware,KiCad,Pcbnew,6.0.11+dfsg-1~bpo11+1*%
%TF.CreationDate,2024-05-12T17:16:57+09:00*%
%TF.ProjectId,pcb-devboard,7063622d-6465-4766-926f-6172642e6b69,rev?*%
%TF.SameCoordinates,Original*%
%TF.FileFunction,Copper,L1,Top*%
%TF.FilePolarity,Positive*%
%FSLAX46Y46*%
G04 Gerber Fmt 4.6, Leading zero omitted, Abs format (unit mm)*
G04 Created by KiCad (PCBNEW 6.0.11+dfsg-1~bpo11+1) date 2024-05-12 17:16:57*
%MOMM*%
%LPD*%
G01*
G04 APERTURE LIST*
G04 Aperture macros list*
%AMRoundRect*
0 Rectangle with rounded corners*
0 $1 Rounding radius*
0 $2 $3 $4 $5 $6 $7 $8 $9 X,Y pos of 4 corners*
0 Add a 4 corners polygon primitive as box body*
4,1,4,$2,$3,$4,$5,$6,$7,$8,$9,$2,$3,0*
0 Add four circle primitives for the rounded corners*
1,1,$1+$1,$2,$3*
1,1,$1+$1,$4,$5*
1,1,$1+$1,$6,$7*
1,1,$1+$1,$8,$9*
0 Add four rect primitives between the rounded corners*
20,1,$1+$1,$2,$3,$4,$5,0*
20,1,$1+$1,$4,$5,$6,$7,0*
20,1,$1+$1,$6,$7,$8,$9,0*
20,1,$1+$1,$8,$9,$2,$3,0*%
G04 Aperture macros list end*
%TA.AperFunction,SMDPad,CuDef*%
%ADD10RoundRect,0.250000X-0.450000X0.325000X-0.450000X-0.325000X0.450000X-0.325000X0.450000X0.325000X0*%
%TD*%
%TA.AperFunction,SMDPad,CuDef*%
%ADD11RoundRect,0.250000X0.450000X-0.325000X0.450000X0.325000X-0.450000X0.325000X-0.450000X-0.325000X0*%
%TD*%
%TA.AperFunction,ComponentPad*%
%ADD12R,1.700000X1.700000*%
%TD*%
%TA.AperFunction,ComponentPad*%
%ADD13O,1.700000X1.700000*%
%TD*%
%TA.AperFunction,SMDPad,CuDef*%
%ADD14RoundRect,0.150000X-0.875000X-0.150000X0.875000X-0.150000X0.875000X0.150000X-0.875000X0.150000X0*%
%TD*%
%TA.AperFunction,ViaPad*%
%ADD15C,0.600000*%
%TD*%
%TA.AperFunction,Conductor*%
%ADD16C,0.450000*%
%TD*%
%TA.AperFunction,Conductor*%
%ADD17C,0.150000*%
%TD*%
G04 APERTURE END LIST*
D10*
%TO.P,C1,1*%
%TO.N,VSYS*%
X105918000Y-99051000D03*
%TO.P,C1,2*%
%TO.N,GND*%
X105918000Y-101101000D03*
%TD*%
D11*
%TO.P,C3,2*%
%TO.N,GND*%
X105918000Y-94987000D03*
%TO.P,C3,1*%
%TO.N,VSYS*%
X105918000Y-97037000D03*
%TD*%
D12*
%TO.P,J4,1,Pin_1*%
%TO.N,VSYS*%
X109220000Y-93726000D03*
D13*
%TO.P,J4,2,Pin_2*%
%TO.N,/PIN_PB2*%
X109220000Y-91186000D03*
%TO.P,J4,3,Pin_3*%
%TO.N,/PIN_PB3*%
X111760000Y-93726000D03*
%TO.P,J4,4,Pin_4*%
%TO.N,/PIN_PA0*%
X111760000Y-91186000D03*
%TO.P,J4,5,Pin_5*%
%TO.N,/PIN_PA1*%
X114300000Y-93726000D03*
%TO.P,J4,6,Pin_6*%
%TO.N,/PIN_PA2*%
X114300000Y-91186000D03*
%TO.P,J4,7,Pin_7*%
%TO.N,GND*%
X116840000Y-93726000D03*
%TO.P,J4,8,Pin_8*%
%TO.N,unconnected-(J4-Pad8)*%
X116840000Y-91186000D03*
%TD*%
D14*
%TO.P,U2,1,VCC*%
%TO.N,VSYS*%
X108429000Y-97028000D03*
%TO.P,U2,2,PA4*%
%TO.N,/PIN_PA4*%
X108429000Y-98298000D03*
%TO.P,U2,3,PA5*%
%TO.N,/PIN_PA5*%
X108429000Y-99568000D03*
%TO.P,U2,4,PA6*%
%TO.N,/PIN_PA6*%
X108429000Y-100838000D03*
%TO.P,U2,5,PA7*%
%TO.N,/PIN_PA7*%
X108429000Y-102108000D03*
%TO.P,U2,6,PB5*%
%TO.N,/PIN_PB5*%
X108429000Y-103378000D03*
%TO.P,U2,7,PB4*%
%TO.N,/PIN_PB4*%
X108429000Y-104648000D03*
%TO.P,U2,8,PB3*%
%TO.N,/PIN_PB3*%
X108429000Y-105918000D03*
%TO.P,U2,9,PB2*%
%TO.N,/PIN_PB2*%
X108429000Y-107188000D03*
%TO.P,U2,10,PB1*%
%TO.N,/PIN_PB1*%
X108429000Y-108458000D03*
%TO.P,U2,11,PB0*%
%TO.N,/PIN_PB0*%
X117729000Y-108458000D03*
%TO.P,U2,12,PC0*%
%TO.N,/PIN_PC0*%
X117729000Y-107188000D03*
%TO.P,U2,13,PC1*%
%TO.N,/PIN_PC1*%
X117729000Y-105918000D03*
%TO.P,U2,14,PC2*%
%TO.N,/PIN_PC2*%
X117729000Y-104648000D03*
%TO.P,U2,15,PC3*%
%TO.N,/PIN_PC3*%
X117729000Y-103378000D03*
%TO.P,U2,16,~{RESET}/PA0*%
%TO.N,/PIN_PA0*%
X117729000Y-102108000D03*
%TO.P,U2,17,PA1*%
%TO.N,/PIN_PA1*%
X117729000Y-100838000D03*
%TO.P,U2,18,PA2*%
%TO.N,/PIN_PA2*%
X117729000Y-99568000D03*
%TO.P,U2,19,PA3*%
%TO.N,/PIN_PA3*%
X117729000Y-98298000D03*
%TO.P,U2,20,GND*%
%TO.N,GND*%
X117729000Y-97028000D03*
%TD*%
D12*
%TO.P,J2,1,Pin_1*%
%TO.N,GND*%
X119380000Y-111760000D03*
D13*
%TO.P,J2,2,Pin_2*%
%TO.N,/PIN_PA0*%
X119380000Y-114300000D03*
%TO.P,J2,3,Pin_3*%
%TO.N,/PIN_PA1*%
X119380000Y-116840000D03*
%TO.P,J2,4,Pin_4*%
%TO.N,/PIN_PA2*%
X119380000Y-119380000D03*
%TO.P,J2,5,Pin_5*%
%TO.N,/PIN_PA3*%
X119380000Y-121920000D03*
%TO.P,J2,6,Pin_6*%
%TO.N,/PIN_PA4*%
X119380000Y-124460000D03*
%TO.P,J2,7,Pin_7*%
%TO.N,/PIN_PA5*%
X119380000Y-127000000D03*
%TO.P,J2,8,Pin_8*%
%TO.N,/PIN_PA6*%
X119380000Y-129540000D03*
%TO.P,J2,9,Pin_9*%
%TO.N,/PIN_PA7*%
X119380000Y-132080000D03*
%TO.P,J2,10,Pin_10*%
%TO.N,/PIN_PB0*%
X119380000Y-134620000D03*
%TD*%
D12*
%TO.P,J3,1,Pin_1*%
%TO.N,VSYS*%
X106680000Y-111760000D03*
D13*
%TO.P,J3,2,Pin_2*%
%TO.N,/PIN_PB1*%
X106680000Y-114300000D03*
%TO.P,J3,3,Pin_3*%
%TO.N,/PIN_PB2*%
X106680000Y-116840000D03*
%TO.P,J3,4,Pin_4*%
%TO.N,/PIN_PB3*%
X106680000Y-119380000D03*
%TO.P,J3,5,Pin_5*%
%TO.N,/PIN_PB4*%
X106680000Y-121920000D03*
%TO.P,J3,6,Pin_6*%
%TO.N,/PIN_PB5*%
X106680000Y-124460000D03*
%TO.P,J3,7,Pin_7*%
%TO.N,/PIN_PC0*%
X106680000Y-127000000D03*
%TO.P,J3,8,Pin_8*%
%TO.N,/PIN_PC1*%
X106680000Y-129540000D03*
%TO.P,J3,9,Pin_9*%
%TO.N,/PIN_PC2*%
X106680000Y-132080000D03*
%TO.P,J3,10,Pin_10*%
%TO.N,/PIN_PC3*%
X106680000Y-134620000D03*
%TD*%
D15*
%TO.N,GND*%
X113284000Y-135763000D03*
X105918000Y-93218000D03*
X120015000Y-97028000D03*
X105791000Y-102616000D03*
%TO.N,VSYS*%
X105791000Y-109347000D03*
X105791000Y-106233405D03*
%TO.N,/PIN_PB3*%
X107061000Y-105918000D03*
%TO.N,/PIN_PB2*%
X106807000Y-107188000D03*
%TO.N,/PIN_PA1*%
X114427000Y-100838000D03*
X113411000Y-116840000D03*
%TO.N,/PIN_PA2*%
X114427000Y-99568000D03*
X113411000Y-119380000D03*
%TO.N,/PIN_PA7*%
X109855000Y-102108000D03*
X112141000Y-130810000D03*
%TO.N,/PIN_PA6*%
X109855000Y-100838000D03*
X112141000Y-128143000D03*
%TO.N,/PIN_PA3*%
X112776000Y-121920000D03*
X115951000Y-98298000D03*
%TO.N,/PIN_PA4*%
X112141000Y-124460000D03*
X109855000Y-98298000D03*
%TO.N,/PIN_PA5*%
X109855000Y-99568000D03*
X112141000Y-125476000D03*
%TO.N,/PIN_PB0*%
X116967000Y-110109000D03*
%TO.N,/PIN_PC0*%
X113284000Y-127000000D03*
X114046000Y-107315000D03*
%TO.N,/PIN_PC1*%
X113284000Y-129540000D03*
X114681000Y-105918000D03*
%TO.N,/PIN_PC2*%
X115443000Y-104648000D03*
X113284000Y-132080000D03*
%TO.N,/PIN_PC3*%
X113284000Y-134620000D03*
X116078000Y-103378000D03*
%TD*%
D16*
%TO.N,VSYS*%
X105918000Y-99051000D02*
X106993000Y-100126000D01*
X106993000Y-100126000D02*
X106993000Y-105031405D01*
X106993000Y-105031405D02*
X105791000Y-106233405D01*
X105791000Y-109347000D02*
X106680000Y-110236000D01*
X106680000Y-110236000D02*
X106680000Y-111760000D01*
X105918000Y-99051000D02*
X105918000Y-97037000D01*
D17*
%TO.N,/PIN_PB3*%
X108429000Y-105918000D02*
X107061000Y-105918000D01*
%TO.N,/PIN_PB2*%
X108429000Y-107188000D02*
X106807000Y-107188000D01*
D16*
%TO.N,VSYS*%
X108429000Y-97028000D02*
X108429000Y-96295000D01*
X107315000Y-97028000D02*
X108380000Y-97028000D01*
X109220000Y-95504000D02*
X109220000Y-93726000D01*
X108429000Y-96295000D02*
X109220000Y-95504000D01*
X105927000Y-97028000D02*
X107315000Y-97028000D01*
D17*
%TO.N,/PIN_PA0*%
X119380000Y-109474000D02*
X119380000Y-102616000D01*
X113030000Y-96393000D02*
X113030000Y-92456000D01*
X117729000Y-111125000D02*
X119380000Y-109474000D01*
X113030000Y-92456000D02*
X111760000Y-91186000D01*
X112649000Y-96774000D02*
X113030000Y-96393000D01*
X119380000Y-114300000D02*
X117729000Y-112649000D01*
X112649000Y-100838000D02*
X112649000Y-96774000D01*
X117729000Y-112649000D02*
X117729000Y-111125000D01*
X113919000Y-102108000D02*
X112649000Y-100838000D01*
X119380000Y-102616000D02*
X118872000Y-102108000D01*
X118872000Y-102108000D02*
X113919000Y-102108000D01*
%TO.N,/PIN_PA1*%
X114427000Y-100838000D02*
X114046000Y-100838000D01*
X119380000Y-116840000D02*
X113411000Y-116840000D01*
X114300000Y-96456500D02*
X114300000Y-93726000D01*
X114427000Y-100838000D02*
X117680000Y-100838000D01*
X113411000Y-100203000D02*
X113411000Y-97345500D01*
X114046000Y-100838000D02*
X113411000Y-100203000D01*
X113411000Y-97345500D02*
X114300000Y-96456500D01*
%TO.N,/PIN_PA2*%
X115570000Y-96393000D02*
X115570000Y-92456000D01*
X114427000Y-99568000D02*
X117680000Y-99568000D01*
X114427000Y-97536000D02*
X115570000Y-96393000D01*
X119380000Y-119380000D02*
X113411000Y-119380000D01*
X114427000Y-99568000D02*
X114427000Y-97536000D01*
X115570000Y-92456000D02*
X114300000Y-91186000D01*
%TO.N,/PIN_PA7*%
X112141000Y-130810000D02*
X117983000Y-130810000D01*
X117983000Y-130810000D02*
X119253000Y-132080000D01*
X109855000Y-102108000D02*
X108380000Y-102108000D01*
%TO.N,/PIN_PA6*%
X118110000Y-129540000D02*
X119380000Y-129540000D01*
X116713000Y-128143000D02*
X118110000Y-129540000D01*
X109855000Y-100838000D02*
X108380000Y-100838000D01*
X112141000Y-128143000D02*
X116713000Y-128143000D01*
%TO.N,/PIN_PA3*%
X119380000Y-121920000D02*
X112776000Y-121920000D01*
X115951000Y-98298000D02*
X117680000Y-98298000D01*
%TO.N,/PIN_PA4*%
X109855000Y-98298000D02*
X108380000Y-98298000D01*
X119380000Y-124460000D02*
X112141000Y-124460000D01*
%TO.N,/PIN_PA5*%
X108380000Y-99568000D02*
X109855000Y-99568000D01*
X117856000Y-125476000D02*
X119380000Y-127000000D01*
X112141000Y-125476000D02*
X117856000Y-125476000D01*
%TO.N,/PIN_PB0*%
X117729000Y-109347000D02*
X117729000Y-108458000D01*
X116967000Y-110109000D02*
X117729000Y-109347000D01*
%TO.N,/PIN_PB1*%
X108429000Y-108458000D02*
X108429000Y-112551000D01*
X108429000Y-112551000D02*
X106680000Y-114300000D01*
%TO.N,/PIN_PB2*%
X109601000Y-107188000D02*
X108380000Y-107188000D01*
X109728000Y-113792000D02*
X109728000Y-107315000D01*
X106680000Y-116840000D02*
X109728000Y-113792000D01*
X109728000Y-107315000D02*
X109601000Y-107188000D01*
%TO.N,/PIN_PB3*%
X110490000Y-106553000D02*
X110490000Y-115570000D01*
X110490000Y-115570000D02*
X106680000Y-119380000D01*
X109855000Y-105918000D02*
X110490000Y-106553000D01*
X108380000Y-105918000D02*
X109855000Y-105918000D01*
%TO.N,/PIN_PB4*%
X110236000Y-104648000D02*
X108380000Y-104648000D01*
X111379000Y-117221000D02*
X111379000Y-105791000D01*
X106680000Y-121920000D02*
X111379000Y-117221000D01*
X111379000Y-105791000D02*
X110236000Y-104648000D01*
%TO.N,/PIN_PB5*%
X110363000Y-103378000D02*
X108380000Y-103378000D01*
X112141000Y-105156000D02*
X110363000Y-103378000D01*
X106680000Y-124460000D02*
X112141000Y-118999000D01*
X112141000Y-118999000D02*
X112141000Y-105156000D01*
%TO.N,/PIN_PC0*%
X114046000Y-107315000D02*
X117553000Y-107315000D01*
X106680000Y-127000000D02*
X113284000Y-127000000D01*
%TO.N,/PIN_PC1*%
X113284000Y-129540000D02*
X106680000Y-129540000D01*
X114681000Y-105918000D02*
X117680000Y-105918000D01*
%TO.N,/PIN_PC2*%
X106680000Y-132080000D02*
X113284000Y-132080000D01*
X115443000Y-104648000D02*
X117680000Y-104648000D01*
%TO.N,/PIN_PC3*%
X106680000Y-134620000D02*
X113284000Y-134620000D01*
X116078000Y-103378000D02*
X117680000Y-103378000D01*
%TD*%
%TA.AperFunction,Conductor*%
%TO.N,GND*%
G36*
X121043691Y-89373407D02*
G01*
X121079655Y-89422907D01*
X121084500Y-89453500D01*
X121084500Y-136225500D01*
X121065593Y-136283691D01*
X121016093Y-136319655D01*
X120985500Y-136324500D01*
X105074500Y-136324500D01*
X105016309Y-136305593D01*
X104980345Y-136256093D01*
X104975500Y-136225500D01*
X104975500Y-134605262D01*
X105624520Y-134605262D01*
X105641759Y-134810553D01*
X105643092Y-134815201D01*
X105643092Y-134815202D01*
X105697176Y-135003814D01*
X105698544Y-135008586D01*
X105792712Y-135191818D01*
X105920677Y-135353270D01*
X105924357Y-135356402D01*
X105924359Y-135356404D01*
X106037017Y-135452283D01*
X106077564Y-135486791D01*
X106081787Y-135489151D01*
X106081791Y-135489154D01*
X106121342Y-135511258D01*
X106257398Y-135587297D01*
X106261996Y-135588791D01*
X106448724Y-135649463D01*
X106448726Y-135649464D01*
X106453329Y-135650959D01*
X106657894Y-135675351D01*
X106662716Y-135674980D01*
X106662719Y-135674980D01*
X106730541Y-135669761D01*
X106863300Y-135659546D01*
X107061725Y-135604145D01*
X107066038Y-135601966D01*
X107066044Y-135601964D01*
X107241289Y-135513441D01*
X107241291Y-135513440D01*
X107245610Y-135511258D01*
X107280943Y-135483653D01*
X107404135Y-135387406D01*
X107404139Y-135387402D01*
X107407951Y-135384424D01*
X107542564Y-135228472D01*
X107561231Y-135195613D01*
X107641934Y-135053550D01*
X107641935Y-135053547D01*
X107644323Y-135049344D01*
X107672963Y-134963250D01*
X107709271Y-134914003D01*
X107766901Y-134895500D01*
X112815582Y-134895500D01*
X112873773Y-134914407D01*
X112891365Y-134930798D01*
X112946970Y-134996948D01*
X112952841Y-135000856D01*
X112952842Y-135000857D01*
X112957456Y-135003928D01*
X113066313Y-135076390D01*
X113166920Y-135107821D01*
X113196425Y-135117039D01*
X113196426Y-135117039D01*
X113203157Y-135119142D01*
X113274828Y-135120456D01*
X113339445Y-135121641D01*
X113339447Y-135121641D01*
X113346499Y-135121770D01*
X113353302Y-135119915D01*
X113353304Y-135119915D01*
X113428503Y-135099413D01*
X113484817Y-135084060D01*
X113606991Y-135009045D01*
X113614403Y-135000857D01*
X113698468Y-134907982D01*
X113703200Y-134902754D01*
X113765710Y-134773733D01*
X113786153Y-134652228D01*
X113788862Y-134636124D01*
X113788862Y-134636120D01*
X113789496Y-134632354D01*
X113789647Y-134620000D01*
X113787536Y-134605262D01*
X118324520Y-134605262D01*
X118341759Y-134810553D01*
X118343092Y-134815201D01*
X118343092Y-134815202D01*
X118397176Y-135003814D01*
X118398544Y-135008586D01*
X118492712Y-135191818D01*
X118620677Y-135353270D01*
X118624357Y-135356402D01*
X118624359Y-135356404D01*
X118737017Y-135452283D01*
X118777564Y-135486791D01*
X118781787Y-135489151D01*
X118781791Y-135489154D01*
X118821342Y-135511258D01*
X118957398Y-135587297D01*
X118961996Y-135588791D01*
X119148724Y-135649463D01*
X119148726Y-135649464D01*
X119153329Y-135650959D01*
X119357894Y-135675351D01*
X119362716Y-135674980D01*
X119362719Y-135674980D01*
X119430541Y-135669761D01*
X119563300Y-135659546D01*
X119761725Y-135604145D01*
X119766038Y-135601966D01*
X119766044Y-135601964D01*
X119941289Y-135513441D01*
X119941291Y-135513440D01*
X119945610Y-135511258D01*
X119980943Y-135483653D01*
X120104135Y-135387406D01*
X120104139Y-135387402D01*
X120107951Y-135384424D01*
X120242564Y-135228472D01*
X120261231Y-135195613D01*
X120341934Y-135053550D01*
X120341935Y-135053547D01*
X120344323Y-135049344D01*
X120357882Y-135008586D01*
X120407824Y-134858454D01*
X120407824Y-134858452D01*
X120409351Y-134853863D01*
X120435171Y-134649474D01*
X120435583Y-134620000D01*
X120435313Y-134617244D01*
X120415952Y-134419780D01*
X120415951Y-134419776D01*
X120415480Y-134414970D01*
X120355935Y-134217749D01*
X120259218Y-134035849D01*
X120129011Y-133876200D01*
X119970275Y-133744882D01*
X119789055Y-133646897D01*
X119725855Y-133627333D01*
X119596875Y-133587407D01*
X119596871Y-133587406D01*
X119592254Y-133585977D01*
X119587446Y-133585472D01*
X119587443Y-133585471D01*
X119392185Y-133564949D01*
X119392183Y-133564949D01*
X119387369Y-133564443D01*
X119327354Y-133569905D01*
X119187022Y-133582675D01*
X119187017Y-133582676D01*
X119182203Y-133583114D01*
X118984572Y-133641280D01*
X118980288Y-133643519D01*
X118980287Y-133643520D01*
X118969428Y-133649197D01*
X118802002Y-133736726D01*
X118798231Y-133739758D01*
X118645220Y-133862781D01*
X118645217Y-133862783D01*
X118641447Y-133865815D01*
X118638333Y-133869526D01*
X118638332Y-133869527D01*
X118629585Y-133879952D01*
X118509024Y-134023630D01*
X118506689Y-134027878D01*
X118506688Y-134027879D01*
X118499955Y-134040126D01*
X118409776Y-134204162D01*
X118408313Y-134208775D01*
X118408311Y-134208779D01*
X118398339Y-134240216D01*
X118347484Y-134400532D01*
X118346944Y-134405344D01*
X118346944Y-134405345D01*
X118345865Y-134414970D01*
X118324520Y-134605262D01*
X113787536Y-134605262D01*
X113769323Y-134478082D01*
X113709984Y-134347572D01*
X113616400Y-134238963D01*
X113496095Y-134160985D01*
X113358739Y-134119907D01*
X113275497Y-134119398D01*
X113222427Y-134119074D01*
X113222426Y-134119074D01*
X113215376Y-134119031D01*
X113208599Y-134120968D01*
X113208598Y-134120968D01*
X113084309Y-134156490D01*
X113084307Y-134156491D01*
X113077529Y-134158428D01*
X112956280Y-134234930D01*
X112951613Y-134240214D01*
X112951611Y-134240216D01*
X112889068Y-134311034D01*
X112836376Y-134342134D01*
X112814864Y-134344500D01*
X107767728Y-134344500D01*
X107709537Y-134325593D01*
X107672953Y-134274114D01*
X107657336Y-134222388D01*
X107657333Y-134222380D01*
X107655935Y-134217749D01*
X107559218Y-134035849D01*
X107429011Y-133876200D01*
X107270275Y-133744882D01*
X107089055Y-133646897D01*
X107025855Y-133627333D01*
X106896875Y-133587407D01*
X106896871Y-133587406D01*
X106892254Y-133585977D01*
X106887446Y-133585472D01*
X106887443Y-133585471D01*
X106692185Y-133564949D01*
X106692183Y-133564949D01*
X106687369Y-133564443D01*
X106627354Y-133569905D01*
X106487022Y-133582675D01*
X106487017Y-133582676D01*
X106482203Y-133583114D01*
X106284572Y-133641280D01*
X106280288Y-133643519D01*
X106280287Y-133643520D01*
X106269428Y-133649197D01*
X106102002Y-133736726D01*
X106098231Y-133739758D01*
X105945220Y-133862781D01*
X105945217Y-133862783D01*
X105941447Y-133865815D01*
X105938333Y-133869526D01*
X105938332Y-133869527D01*
X105929585Y-133879952D01*
X105809024Y-134023630D01*
X105806689Y-134027878D01*
X105806688Y-134027879D01*
X105799955Y-134040126D01*
X105709776Y-134204162D01*
X105708313Y-134208775D01*
X105708311Y-134208779D01*
X105698339Y-134240216D01*
X105647484Y-134400532D01*
X105646944Y-134405344D01*
X105646944Y-134405345D01*
X105645865Y-134414970D01*
X105624520Y-134605262D01*
X104975500Y-134605262D01*
X104975500Y-132065262D01*
X105624520Y-132065262D01*
X105641759Y-132270553D01*
X105643092Y-132275201D01*
X105643092Y-132275202D01*
X105697176Y-132463814D01*
X105698544Y-132468586D01*
X105792712Y-132651818D01*
X105920677Y-132813270D01*
X105924357Y-132816402D01*
X105924359Y-132816404D01*
X106037017Y-132912283D01*
X106077564Y-132946791D01*
X106081787Y-132949151D01*
X106081791Y-132949154D01*
X106121342Y-132971258D01*
X106257398Y-133047297D01*
X106261996Y-133048791D01*
X106448724Y-133109463D01*
X106448726Y-133109464D01*
X106453329Y-133110959D01*
X106657894Y-133135351D01*
X106662716Y-133134980D01*
X106662719Y-133134980D01*
X106730541Y-133129761D01*
X106863300Y-133119546D01*
X107061725Y-133064145D01*
X107066038Y-133061966D01*
X107066044Y-133061964D01*
X107241289Y-132973441D01*
X107241291Y-132973440D01*
X107245610Y-132971258D01*
X107280943Y-132943653D01*
X107404135Y-132847406D01*
X107404139Y-132847402D01*
X107407951Y-132844424D01*
X107542564Y-132688472D01*
X107561231Y-132655613D01*
X107641934Y-132513550D01*
X107641935Y-132513547D01*
X107644323Y-132509344D01*
X107672963Y-132423250D01*
X107709271Y-132374003D01*
X107766901Y-132355500D01*
X112815582Y-132355500D01*
X112873773Y-132374407D01*
X112891365Y-132390798D01*
X112946970Y-132456948D01*
X112952841Y-132460856D01*
X112952842Y-132460857D01*
X112957456Y-132463928D01*
X113066313Y-132536390D01*
X113166920Y-132567821D01*
X113196425Y-132577039D01*
X113196426Y-132577039D01*
X113203157Y-132579142D01*
X113274828Y-132580456D01*
X113339445Y-132581641D01*
X113339447Y-132581641D01*
X113346499Y-132581770D01*
X113353302Y-132579915D01*
X113353304Y-132579915D01*
X113428503Y-132559413D01*
X113484817Y-132544060D01*
X113606991Y-132469045D01*
X113614403Y-132460857D01*
X113698468Y-132367982D01*
X113703200Y-132362754D01*
X113765710Y-132233733D01*
X113786153Y-132112228D01*
X113788862Y-132096124D01*
X113788862Y-132096120D01*
X113789496Y-132092354D01*
X113789647Y-132080000D01*
X113769323Y-131938082D01*
X113709984Y-131807572D01*
X113616400Y-131698963D01*
X113496095Y-131620985D01*
X113358739Y-131579907D01*
X113275497Y-131579398D01*
X113222427Y-131579074D01*
X113222426Y-131579074D01*
X113215376Y-131579031D01*
X113208599Y-131580968D01*
X113208598Y-131580968D01*
X113084309Y-131616490D01*
X113084307Y-131616491D01*
X113077529Y-131618428D01*
X112956280Y-131694930D01*
X112951613Y-131700214D01*
X112951611Y-131700216D01*
X112889068Y-131771034D01*
X112836376Y-131802134D01*
X112814864Y-131804500D01*
X107767728Y-131804500D01*
X107709537Y-131785593D01*
X107672953Y-131734114D01*
X107657336Y-131682388D01*
X107657333Y-131682380D01*
X107655935Y-131677749D01*
X107559218Y-131495849D01*
X107429011Y-131336200D01*
X107397238Y-131309915D01*
X107274002Y-131207965D01*
X107274000Y-131207964D01*
X107270275Y-131204882D01*
X107089055Y-131106897D01*
X107019932Y-131085500D01*
X106896875Y-131047407D01*
X106896871Y-131047406D01*
X106892254Y-131045977D01*
X106887446Y-131045472D01*
X106887443Y-131045471D01*
X106692185Y-131024949D01*
X106692183Y-131024949D01*
X106687369Y-131024443D01*
X106627354Y-131029905D01*
X106487022Y-131042675D01*
X106487017Y-131042676D01*
X106482203Y-131043114D01*
X106284572Y-131101280D01*
X106280288Y-131103519D01*
X106280287Y-131103520D01*
X106269428Y-131109197D01*
X106102002Y-131196726D01*
X106098231Y-131199758D01*
X105945220Y-131322781D01*
X105945217Y-131322783D01*
X105941447Y-131325815D01*
X105938333Y-131329526D01*
X105938332Y-131329527D01*
X105929585Y-131339952D01*
X105809024Y-131483630D01*
X105806689Y-131487878D01*
X105806688Y-131487879D01*
X105799955Y-131500126D01*
X105709776Y-131664162D01*
X105708313Y-131668775D01*
X105708311Y-131668779D01*
X105698339Y-131700216D01*
X105647484Y-131860532D01*
X105646944Y-131865344D01*
X105646944Y-131865345D01*
X105645865Y-131874970D01*
X105624520Y-132065262D01*
X104975500Y-132065262D01*
X104975500Y-130803823D01*
X111635391Y-130803823D01*
X111653980Y-130945979D01*
X111656821Y-130952435D01*
X111656821Y-130952436D01*
X111697758Y-131045471D01*
X111711720Y-131077203D01*
X111738614Y-131109197D01*
X111799431Y-131181549D01*
X111799434Y-131181551D01*
X111803970Y-131186948D01*
X111809841Y-131190856D01*
X111809842Y-131190857D01*
X111815291Y-131194484D01*
X111923313Y-131266390D01*
X112023920Y-131297821D01*
X112053425Y-131307039D01*
X112053426Y-131307039D01*
X112060157Y-131309142D01*
X112131828Y-131310456D01*
X112196445Y-131311641D01*
X112196447Y-131311641D01*
X112203499Y-131311770D01*
X112210302Y-131309915D01*
X112210304Y-131309915D01*
X112285503Y-131289413D01*
X112341817Y-131274060D01*
X112463991Y-131199045D01*
X112468726Y-131193814D01*
X112537291Y-131118064D01*
X112590359Y-131087610D01*
X112610689Y-131085500D01*
X117827876Y-131085500D01*
X117886067Y-131104407D01*
X117897880Y-131114496D01*
X118376309Y-131592925D01*
X118404086Y-131647442D01*
X118400671Y-131692863D01*
X118398339Y-131700216D01*
X118347484Y-131860532D01*
X118346944Y-131865344D01*
X118346944Y-131865345D01*
X118345865Y-131874970D01*
X118324520Y-132065262D01*
X118341759Y-132270553D01*
X118343092Y-132275201D01*
X118343092Y-132275202D01*
X118397176Y-132463814D01*
X118398544Y-132468586D01*
X118492712Y-132651818D01*
X118620677Y-132813270D01*
X118624357Y-132816402D01*
X118624359Y-132816404D01*
X118737017Y-132912283D01*
X118777564Y-132946791D01*
X118781787Y-132949151D01*
X118781791Y-132949154D01*
X118821342Y-132971258D01*
X118957398Y-133047297D01*
X118961996Y-133048791D01*
X119148724Y-133109463D01*
X119148726Y-133109464D01*
X119153329Y-133110959D01*
X119357894Y-133135351D01*
X119362716Y-133134980D01*
X119362719Y-133134980D01*
X119430541Y-133129761D01*
X119563300Y-133119546D01*
X119761725Y-133064145D01*
X119766038Y-133061966D01*
X119766044Y-133061964D01*
X119941289Y-132973441D01*
X119941291Y-132973440D01*
X119945610Y-132971258D01*
X119980943Y-132943653D01*
X120104135Y-132847406D01*
X120104139Y-132847402D01*
X120107951Y-132844424D01*
X120242564Y-132688472D01*
X120261231Y-132655613D01*
X120341934Y-132513550D01*
X120341935Y-132513547D01*
X120344323Y-132509344D01*
X120357882Y-132468586D01*
X120407824Y-132318454D01*
X120407824Y-132318452D01*
X120409351Y-132313863D01*
X120435171Y-132109474D01*
X120435583Y-132080000D01*
X120435313Y-132077244D01*
X120415952Y-131879780D01*
X120415951Y-131879776D01*
X120415480Y-131874970D01*
X120355935Y-131677749D01*
X120259218Y-131495849D01*
X120129011Y-131336200D01*
X120097238Y-131309915D01*
X119974002Y-131207965D01*
X119974000Y-131207964D01*
X119970275Y-131204882D01*
X119789055Y-131106897D01*
X119719932Y-131085500D01*
X119596875Y-131047407D01*
X119596871Y-131047406D01*
X119592254Y-131045977D01*
X119587446Y-131045472D01*
X119587443Y-131045471D01*
X119392185Y-131024949D01*
X119392183Y-131024949D01*
X119387369Y-131024443D01*
X119327354Y-131029905D01*
X119187022Y-131042675D01*
X119187017Y-131042676D01*
X119182203Y-131043114D01*
X118984572Y-131101280D01*
X118980288Y-131103519D01*
X118980287Y-131103520D01*
X118969428Y-131109197D01*
X118838435Y-131177679D01*
X118778107Y-131187883D01*
X118722565Y-131159949D01*
X118203885Y-130641269D01*
X118191574Y-130626267D01*
X118187043Y-130619486D01*
X118181624Y-130611376D01*
X118158623Y-130596007D01*
X118158622Y-130596006D01*
X118121136Y-130570959D01*
X118090495Y-130550485D01*
X118080932Y-130548583D01*
X118080930Y-130548582D01*
X118045558Y-130541547D01*
X118010133Y-130534500D01*
X118010132Y-130534500D01*
X117983000Y-130529103D01*
X117965429Y-130532598D01*
X117946116Y-130534500D01*
X112609715Y-130534500D01*
X112551524Y-130515593D01*
X112534719Y-130500127D01*
X112473400Y-130428963D01*
X112353095Y-130350985D01*
X112215739Y-130309907D01*
X112132497Y-130309398D01*
X112079427Y-130309074D01*
X112079426Y-130309074D01*
X112072376Y-130309031D01*
X112065599Y-130310968D01*
X112065598Y-130310968D01*
X111941309Y-130346490D01*
X111941307Y-130346491D01*
X111934529Y-130348428D01*
X111813280Y-130424930D01*
X111808613Y-130430214D01*
X111808611Y-130430216D01*
X111723044Y-130527103D01*
X111723042Y-130527105D01*
X111718377Y-130532388D01*
X111657447Y-130662163D01*
X111635391Y-130803823D01*
X104975500Y-130803823D01*
X104975500Y-129525262D01*
X105624520Y-129525262D01*
X105624925Y-129530082D01*
X105639927Y-129708731D01*
X105641759Y-129730553D01*
X105643092Y-129735201D01*
X105643092Y-129735202D01*
X105697176Y-129923814D01*
X105698544Y-129928586D01*
X105792712Y-130111818D01*
X105920677Y-130273270D01*
X105924357Y-130276402D01*
X105924359Y-130276404D01*
X106009617Y-130348964D01*
X106077564Y-130406791D01*
X106081787Y-130409151D01*
X106081791Y-130409154D01*
X106198702Y-130474493D01*
X106257398Y-130507297D01*
X106261996Y-130508791D01*
X106448724Y-130569463D01*
X106448726Y-130569464D01*
X106453329Y-130570959D01*
X106657894Y-130595351D01*
X106662716Y-130594980D01*
X106662719Y-130594980D01*
X106730541Y-130589761D01*
X106863300Y-130579546D01*
X107061725Y-130524145D01*
X107066038Y-130521966D01*
X107066044Y-130521964D01*
X107241289Y-130433441D01*
X107241291Y-130433440D01*
X107245610Y-130431258D01*
X107346812Y-130352191D01*
X107404135Y-130307406D01*
X107404139Y-130307402D01*
X107407951Y-130304424D01*
X107542564Y-130148472D01*
X107561231Y-130115613D01*
X107641934Y-129973550D01*
X107641935Y-129973547D01*
X107644323Y-129969344D01*
X107672963Y-129883250D01*
X107709271Y-129834003D01*
X107766901Y-129815500D01*
X112815582Y-129815500D01*
X112873773Y-129834407D01*
X112891365Y-129850798D01*
X112946970Y-129916948D01*
X112952841Y-129920856D01*
X112952842Y-129920857D01*
X112957456Y-129923928D01*
X113066313Y-129996390D01*
X113166920Y-130027821D01*
X113196425Y-130037039D01*
X113196426Y-130037039D01*
X113203157Y-130039142D01*
X113274828Y-130040456D01*
X113339445Y-130041641D01*
X113339447Y-130041641D01*
X113346499Y-130041770D01*
X113353302Y-130039915D01*
X113353304Y-130039915D01*
X113428503Y-130019413D01*
X113484817Y-130004060D01*
X113606991Y-129929045D01*
X113614403Y-129920857D01*
X113698468Y-129827982D01*
X113703200Y-129822754D01*
X113765710Y-129693733D01*
X113786153Y-129572228D01*
X113788862Y-129556124D01*
X113788862Y-129556120D01*
X113789496Y-129552354D01*
X113789647Y-129540000D01*
X113769323Y-129398082D01*
X113709984Y-129267572D01*
X113616400Y-129158963D01*
X113496095Y-129080985D01*
X113358739Y-129039907D01*
X113275497Y-129039398D01*
X113222427Y-129039074D01*
X113222426Y-129039074D01*
X113215376Y-129039031D01*
X113208599Y-129040968D01*
X113208598Y-129040968D01*
X113084309Y-129076490D01*
X113084307Y-129076491D01*
X113077529Y-129078428D01*
X112956280Y-129154930D01*
X112951613Y-129160214D01*
X112951611Y-129160216D01*
X112889068Y-129231034D01*
X112836376Y-129262134D01*
X112814864Y-129264500D01*
X107767728Y-129264500D01*
X107709537Y-129245593D01*
X107672953Y-129194114D01*
X107657336Y-129142388D01*
X107657333Y-129142380D01*
X107655935Y-129137749D01*
X107559218Y-128955849D01*
X107429011Y-128796200D01*
X107270275Y-128664882D01*
X107089055Y-128566897D01*
X107025855Y-128547333D01*
X106896875Y-128507407D01*
X106896871Y-128507406D01*
X106892254Y-128505977D01*
X106887446Y-128505472D01*
X106887443Y-128505471D01*
X106692185Y-128484949D01*
X106692183Y-128484949D01*
X106687369Y-128484443D01*
X106627354Y-128489905D01*
X106487022Y-128502675D01*
X106487017Y-128502676D01*
X106482203Y-128503114D01*
X106284572Y-128561280D01*
X106280288Y-128563519D01*
X106280287Y-128563520D01*
X106269428Y-128569197D01*
X106102002Y-128656726D01*
X106098231Y-128659758D01*
X105945220Y-128782781D01*
X105945217Y-128782783D01*
X105941447Y-128785815D01*
X105938333Y-128789526D01*
X105938332Y-128789527D01*
X105929585Y-128799952D01*
X105809024Y-128943630D01*
X105806689Y-128947878D01*
X105806688Y-128947879D01*
X105799955Y-128960126D01*
X105709776Y-129124162D01*
X105708313Y-129128775D01*
X105708311Y-129128779D01*
X105698339Y-129160216D01*
X105647484Y-129320532D01*
X105646944Y-129325344D01*
X105646944Y-129325345D01*
X105645865Y-129334970D01*
X105624520Y-129525262D01*
X104975500Y-129525262D01*
X104975500Y-128136823D01*
X111635391Y-128136823D01*
X111653980Y-128278979D01*
X111711720Y-128410203D01*
X111743068Y-128447496D01*
X111799431Y-128514549D01*
X111799434Y-128514551D01*
X111803970Y-128519948D01*
X111809841Y-128523856D01*
X111809842Y-128523857D01*
X111822143Y-128532045D01*
X111923313Y-128599390D01*
X112023920Y-128630821D01*
X112053425Y-128640039D01*
X112053426Y-128640039D01*
X112060157Y-128642142D01*
X112131828Y-128643456D01*
X112196445Y-128644641D01*
X112196447Y-128644641D01*
X112203499Y-128644770D01*
X112210302Y-128642915D01*
X112210304Y-128642915D01*
X112285503Y-128622413D01*
X112341817Y-128607060D01*
X112463991Y-128532045D01*
X112468726Y-128526814D01*
X112537291Y-128451064D01*
X112590359Y-128420610D01*
X112610689Y-128418500D01*
X116557876Y-128418500D01*
X116616067Y-128437407D01*
X116627880Y-128447496D01*
X117889115Y-129708731D01*
X117901426Y-129723733D01*
X117911376Y-129738624D01*
X117934377Y-129753993D01*
X117934378Y-129753994D01*
X118002505Y-129799515D01*
X118110000Y-129820897D01*
X118127571Y-129817402D01*
X118146884Y-129815500D01*
X118291515Y-129815500D01*
X118349706Y-129834407D01*
X118386680Y-129887211D01*
X118397176Y-129923814D01*
X118398544Y-129928586D01*
X118492712Y-130111818D01*
X118620677Y-130273270D01*
X118624357Y-130276402D01*
X118624359Y-130276404D01*
X118709617Y-130348964D01*
X118777564Y-130406791D01*
X118781787Y-130409151D01*
X118781791Y-130409154D01*
X118898702Y-130474493D01*
X118957398Y-130507297D01*
X118961996Y-130508791D01*
X119148724Y-130569463D01*
X119148726Y-130569464D01*
X119153329Y-130570959D01*
X119357894Y-130595351D01*
X119362716Y-130594980D01*
X119362719Y-130594980D01*
X119430541Y-130589761D01*
X119563300Y-130579546D01*
X119761725Y-130524145D01*
X119766038Y-130521966D01*
X119766044Y-130521964D01*
X119941289Y-130433441D01*
X119941291Y-130433440D01*
X119945610Y-130431258D01*
X120046812Y-130352191D01*
X120104135Y-130307406D01*
X120104139Y-130307402D01*
X120107951Y-130304424D01*
X120242564Y-130148472D01*
X120261231Y-130115613D01*
X120341934Y-129973550D01*
X120341935Y-129973547D01*
X120344323Y-129969344D01*
X120357882Y-129928586D01*
X120407824Y-129778454D01*
X120407824Y-129778452D01*
X120409351Y-129773863D01*
X120435171Y-129569474D01*
X120435583Y-129540000D01*
X120435313Y-129537244D01*
X120415952Y-129339780D01*
X120415951Y-129339776D01*
X120415480Y-129334970D01*
X120355935Y-129137749D01*
X120259218Y-128955849D01*
X120129011Y-128796200D01*
X119970275Y-128664882D01*
X119789055Y-128566897D01*
X119725855Y-128547333D01*
X119596875Y-128507407D01*
X119596871Y-128507406D01*
X119592254Y-128505977D01*
X119587446Y-128505472D01*
X119587443Y-128505471D01*
X119392185Y-128484949D01*
X119392183Y-128484949D01*
X119387369Y-128484443D01*
X119327354Y-128489905D01*
X119187022Y-128502675D01*
X119187017Y-128502676D01*
X119182203Y-128503114D01*
X118984572Y-128561280D01*
X118980288Y-128563519D01*
X118980287Y-128563520D01*
X118969428Y-128569197D01*
X118802002Y-128656726D01*
X118798231Y-128659758D01*
X118645220Y-128782781D01*
X118645217Y-128782783D01*
X118641447Y-128785815D01*
X118638333Y-128789526D01*
X118638332Y-128789527D01*
X118629585Y-128799952D01*
X118509024Y-128943630D01*
X118506689Y-128947878D01*
X118506688Y-128947879D01*
X118499955Y-128960126D01*
X118409776Y-129124162D01*
X118408312Y-129128778D01*
X118408310Y-129128782D01*
X118387167Y-129195434D01*
X118351550Y-129245184D01*
X118292801Y-129264500D01*
X118265124Y-129264500D01*
X118206933Y-129245593D01*
X118195120Y-129235504D01*
X116933885Y-127974269D01*
X116921574Y-127959267D01*
X116917043Y-127952486D01*
X116911624Y-127944376D01*
X116888623Y-127929007D01*
X116888622Y-127929006D01*
X116852182Y-127904658D01*
X116820495Y-127883485D01*
X116810932Y-127881583D01*
X116810930Y-127881582D01*
X116775558Y-127874547D01*
X116740133Y-127867500D01*
X116740132Y-127867500D01*
X116713000Y-127862103D01*
X116695429Y-127865598D01*
X116676116Y-127867500D01*
X112609715Y-127867500D01*
X112551524Y-127848593D01*
X112534719Y-127833127D01*
X112473400Y-127761963D01*
X112353095Y-127683985D01*
X112215739Y-127642907D01*
X112132497Y-127642398D01*
X112079427Y-127642074D01*
X112079426Y-127642074D01*
X112072376Y-127642031D01*
X112065599Y-127643968D01*
X112065598Y-127643968D01*
X111941309Y-127679490D01*
X111941307Y-127679491D01*
X111934529Y-127681428D01*
X111813280Y-127757930D01*
X111808613Y-127763214D01*
X111808611Y-127763216D01*
X111723044Y-127860103D01*
X111723042Y-127860105D01*
X111718377Y-127865388D01*
X111657447Y-127995163D01*
X111656362Y-128002132D01*
X111656361Y-128002135D01*
X111648076Y-128055351D01*
X111635391Y-128136823D01*
X104975500Y-128136823D01*
X104975500Y-126985262D01*
X105624520Y-126985262D01*
X105641759Y-127190553D01*
X105643092Y-127195201D01*
X105643092Y-127195202D01*
X105697176Y-127383814D01*
X105698544Y-127388586D01*
X105792712Y-127571818D01*
X105920677Y-127733270D01*
X105924357Y-127736402D01*
X105924359Y-127736404D01*
X106037017Y-127832283D01*
X106077564Y-127866791D01*
X106081787Y-127869151D01*
X106081791Y-127869154D01*
X106188884Y-127929006D01*
X106257398Y-127967297D01*
X106261996Y-127968791D01*
X106448724Y-128029463D01*
X106448726Y-128029464D01*
X106453329Y-128030959D01*
X106657894Y-128055351D01*
X106662716Y-128054980D01*
X106662719Y-128054980D01*
X106730541Y-128049761D01*
X106863300Y-128039546D01*
X107061725Y-127984145D01*
X107066038Y-127981966D01*
X107066044Y-127981964D01*
X107241289Y-127893441D01*
X107241291Y-127893440D01*
X107245610Y-127891258D01*
X107257995Y-127881582D01*
X107404135Y-127767406D01*
X107404139Y-127767402D01*
X107407951Y-127764424D01*
X107413388Y-127758126D01*
X107474071Y-127687823D01*
X107542564Y-127608472D01*
X107561231Y-127575613D01*
X107641934Y-127433550D01*
X107641935Y-127433547D01*
X107644323Y-127429344D01*
X107672963Y-127343250D01*
X107709271Y-127294003D01*
X107766901Y-127275500D01*
X112815582Y-127275500D01*
X112873773Y-127294407D01*
X112891365Y-127310798D01*
X112946970Y-127376948D01*
X112952841Y-127380856D01*
X112952842Y-127380857D01*
X112957456Y-127383928D01*
X113066313Y-127456390D01*
X113166920Y-127487821D01*
X113196425Y-127497039D01*
X113196426Y-127497039D01*
X113203157Y-127499142D01*
X113274828Y-127500456D01*
X113339445Y-127501641D01*
X113339447Y-127501641D01*
X113346499Y-127501770D01*
X113353302Y-127499915D01*
X113353304Y-127499915D01*
X113428503Y-127479413D01*
X113484817Y-127464060D01*
X113606991Y-127389045D01*
X113614403Y-127380857D01*
X113698468Y-127287982D01*
X113703200Y-127282754D01*
X113765710Y-127153733D01*
X113786153Y-127032228D01*
X113788862Y-127016124D01*
X113788862Y-127016120D01*
X113789496Y-127012354D01*
X113789647Y-127000000D01*
X113769323Y-126858082D01*
X113709984Y-126727572D01*
X113616400Y-126618963D01*
X113496095Y-126540985D01*
X113358739Y-126499907D01*
X113275497Y-126499398D01*
X113222427Y-126499074D01*
X113222426Y-126499074D01*
X113215376Y-126499031D01*
X113208599Y-126500968D01*
X113208598Y-126500968D01*
X113084309Y-126536490D01*
X113084307Y-126536491D01*
X113077529Y-126538428D01*
X112956280Y-126614930D01*
X112951613Y-126620214D01*
X112951611Y-126620216D01*
X112889068Y-126691034D01*
X112836376Y-126722134D01*
X112814864Y-126724500D01*
X107767728Y-126724500D01*
X107709537Y-126705593D01*
X107672953Y-126654114D01*
X107657336Y-126602388D01*
X107657333Y-126602380D01*
X107655935Y-126597749D01*
X107559218Y-126415849D01*
X107429011Y-126256200D01*
X107270275Y-126124882D01*
X107089055Y-126026897D01*
X107025855Y-126007333D01*
X106896875Y-125967407D01*
X106896871Y-125967406D01*
X106892254Y-125965977D01*
X106887446Y-125965472D01*
X106887443Y-125965471D01*
X106692185Y-125944949D01*
X106692183Y-125944949D01*
X106687369Y-125944443D01*
X106627354Y-125949905D01*
X106487022Y-125962675D01*
X106487017Y-125962676D01*
X106482203Y-125963114D01*
X106284572Y-126021280D01*
X106280288Y-126023519D01*
X106280287Y-126023520D01*
X106269428Y-126029197D01*
X106102002Y-126116726D01*
X106098231Y-126119758D01*
X105945220Y-126242781D01*
X105945217Y-126242783D01*
X105941447Y-126245815D01*
X105938333Y-126249526D01*
X105938332Y-126249527D01*
X105929585Y-126259952D01*
X105809024Y-126403630D01*
X105806689Y-126407878D01*
X105806688Y-126407879D01*
X105799955Y-126420126D01*
X105709776Y-126584162D01*
X105708313Y-126588775D01*
X105708311Y-126588779D01*
X105698339Y-126620216D01*
X105647484Y-126780532D01*
X105646944Y-126785344D01*
X105646944Y-126785345D01*
X105645865Y-126794970D01*
X105624520Y-126985262D01*
X104975500Y-126985262D01*
X104975500Y-109340823D01*
X105285391Y-109340823D01*
X105286306Y-109347820D01*
X105286306Y-109347821D01*
X105289747Y-109374132D01*
X105303980Y-109482979D01*
X105306821Y-109489435D01*
X105306821Y-109489436D01*
X105347328Y-109581494D01*
X105361720Y-109614203D01*
X105392812Y-109651191D01*
X105449431Y-109718549D01*
X105449434Y-109718551D01*
X105453970Y-109723948D01*
X105573313Y-109803390D01*
X105580040Y-109805492D01*
X105580043Y-109805493D01*
X105655251Y-109828989D01*
X105695733Y-109853481D01*
X106225504Y-110383252D01*
X106253281Y-110437769D01*
X106254500Y-110453256D01*
X106254500Y-110610500D01*
X106235593Y-110668691D01*
X106186093Y-110704655D01*
X106155500Y-110709500D01*
X105810252Y-110709500D01*
X105784005Y-110714721D01*
X105761334Y-110719230D01*
X105761332Y-110719231D01*
X105751769Y-110721133D01*
X105685448Y-110765448D01*
X105641133Y-110831769D01*
X105629500Y-110890252D01*
X105629500Y-112629748D01*
X105634605Y-112655414D01*
X105638727Y-112676133D01*
X105641133Y-112688231D01*
X105685448Y-112754552D01*
X105751769Y-112798867D01*
X105761332Y-112800769D01*
X105761334Y-112800770D01*
X105784005Y-112805279D01*
X105810252Y-112810500D01*
X107540876Y-112810500D01*
X107599067Y-112829407D01*
X107635031Y-112878907D01*
X107635031Y-112940093D01*
X107610880Y-112979504D01*
X107254450Y-113335934D01*
X107199933Y-113363711D01*
X107137359Y-113353015D01*
X107093309Y-113329197D01*
X107093308Y-113329197D01*
X107089055Y-113326897D01*
X106992774Y-113297093D01*
X106896875Y-113267407D01*
X106896871Y-113267406D01*
X106892254Y-113265977D01*
X106887446Y-113265472D01*
X106887443Y-113265471D01*
X106692185Y-113244949D01*
X106692183Y-113244949D01*
X106687369Y-113244443D01*
X106627354Y-113249905D01*
X106487022Y-113262675D01*
X106487017Y-113262676D01*
X106482203Y-113263114D01*
X106284572Y-113321280D01*
X106280288Y-113323519D01*
X106280287Y-113323520D01*
X106255748Y-113336349D01*
X106102002Y-113416726D01*
X106098231Y-113419758D01*
X105945220Y-113542781D01*
X105945217Y-113542783D01*
X105941447Y-113545815D01*
X105938333Y-113549526D01*
X105938332Y-113549527D01*
X105830628Y-113677884D01*
X105809024Y-113703630D01*
X105806689Y-113707878D01*
X105806688Y-113707879D01*
X105799955Y-113720126D01*
X105709776Y-113884162D01*
X105647484Y-114080532D01*
X105646944Y-114085344D01*
X105646944Y-114085345D01*
X105645865Y-114094970D01*
X105624520Y-114285262D01*
X105641759Y-114490553D01*
X105698544Y-114688586D01*
X105792712Y-114871818D01*
X105920677Y-115033270D01*
X105924357Y-115036402D01*
X105924359Y-115036404D01*
X106037017Y-115132283D01*
X106077564Y-115166791D01*
X106081787Y-115169151D01*
X106081791Y-115169154D01*
X106121342Y-115191258D01*
X106257398Y-115267297D01*
X106261996Y-115268791D01*
X106448724Y-115329463D01*
X106448726Y-115329464D01*
X106453329Y-115330959D01*
X106657894Y-115355351D01*
X106662716Y-115354980D01*
X106662719Y-115354980D01*
X106730541Y-115349761D01*
X106863300Y-115339546D01*
X107061725Y-115284145D01*
X107066038Y-115281966D01*
X107066044Y-115281964D01*
X107241289Y-115193441D01*
X107241291Y-115193440D01*
X107245610Y-115191258D01*
X107280943Y-115163653D01*
X107404135Y-115067406D01*
X107404139Y-115067402D01*
X107407951Y-115064424D01*
X107542564Y-114908472D01*
X107561231Y-114875613D01*
X107641934Y-114733550D01*
X107641935Y-114733547D01*
X107644323Y-114729344D01*
X107657882Y-114688586D01*
X107707824Y-114538454D01*
X107707824Y-114538452D01*
X107709351Y-114533863D01*
X107735171Y-114329474D01*
X107735583Y-114300000D01*
X107715480Y-114094970D01*
X107655935Y-113897749D01*
X107626429Y-113842256D01*
X107615805Y-113782004D01*
X107643838Y-113725778D01*
X108597731Y-112771885D01*
X108612733Y-112759574D01*
X108619514Y-112755043D01*
X108627624Y-112749624D01*
X108643395Y-112726022D01*
X108674286Y-112679790D01*
X108688515Y-112658495D01*
X108688516Y-112658494D01*
X108709897Y-112551000D01*
X108706402Y-112533428D01*
X108704500Y-112514116D01*
X108704500Y-109057500D01*
X108723407Y-108999309D01*
X108772907Y-108963345D01*
X108803500Y-108958500D01*
X109337218Y-108958500D01*
X109340808Y-108957972D01*
X109344406Y-108957708D01*
X109344511Y-108959143D01*
X109399417Y-108968462D01*
X109442201Y-109012203D01*
X109452500Y-109056170D01*
X109452500Y-113636876D01*
X109433593Y-113695067D01*
X109423504Y-113706880D01*
X107254450Y-115875934D01*
X107199933Y-115903711D01*
X107137359Y-115893015D01*
X107093309Y-115869197D01*
X107093308Y-115869197D01*
X107089055Y-115866897D01*
X107025855Y-115847333D01*
X106896875Y-115807407D01*
X106896871Y-115807406D01*
X106892254Y-115805977D01*
X106887446Y-115805472D01*
X106887443Y-115805471D01*
X106692185Y-115784949D01*
X106692183Y-115784949D01*
X106687369Y-115784443D01*
X106627354Y-115789905D01*
X106487022Y-115802675D01*
X106487017Y-115802676D01*
X106482203Y-115803114D01*
X106284572Y-115861280D01*
X106280288Y-115863519D01*
X106280287Y-115863520D01*
X106223869Y-115893015D01*
X106102002Y-115956726D01*
X106098231Y-115959758D01*
X105945220Y-116082781D01*
X105945217Y-116082783D01*
X105941447Y-116085815D01*
X105938333Y-116089526D01*
X105938332Y-116089527D01*
X105929585Y-116099952D01*
X105809024Y-116243630D01*
X105806689Y-116247878D01*
X105806688Y-116247879D01*
X105799955Y-116260126D01*
X105709776Y-116424162D01*
X105708313Y-116428775D01*
X105708311Y-116428779D01*
X105698339Y-116460216D01*
X105647484Y-116620532D01*
X105646944Y-116625344D01*
X105646944Y-116625345D01*
X105645865Y-116634970D01*
X105624520Y-116825262D01*
X105641759Y-117030553D01*
X105643092Y-117035201D01*
X105643092Y-117035202D01*
X105697176Y-117223814D01*
X105698544Y-117228586D01*
X105792712Y-117411818D01*
X105920677Y-117573270D01*
X105924357Y-117576402D01*
X105924359Y-117576404D01*
X106037017Y-117672283D01*
X106077564Y-117706791D01*
X106081787Y-117709151D01*
X106081791Y-117709154D01*
X106121342Y-117731258D01*
X106257398Y-117807297D01*
X106261996Y-117808791D01*
X106448724Y-117869463D01*
X106448726Y-117869464D01*
X106453329Y-117870959D01*
X106657894Y-117895351D01*
X106662716Y-117894980D01*
X106662719Y-117894980D01*
X106730541Y-117889761D01*
X106863300Y-117879546D01*
X107061725Y-117824145D01*
X107066038Y-117821966D01*
X107066044Y-117821964D01*
X107241289Y-117733441D01*
X107241291Y-117733440D01*
X107245610Y-117731258D01*
X107280943Y-117703653D01*
X107404135Y-117607406D01*
X107404139Y-117607402D01*
X107407951Y-117604424D01*
X107542564Y-117448472D01*
X107561231Y-117415613D01*
X107641934Y-117273550D01*
X107641935Y-117273547D01*
X107644323Y-117269344D01*
X107657882Y-117228586D01*
X107707824Y-117078454D01*
X107707824Y-117078452D01*
X107709351Y-117073863D01*
X107721717Y-116975979D01*
X107734823Y-116872228D01*
X107735171Y-116869474D01*
X107735583Y-116840000D01*
X107735313Y-116837244D01*
X107715952Y-116639780D01*
X107715951Y-116639776D01*
X107715480Y-116634970D01*
X107655935Y-116437749D01*
X107626429Y-116382256D01*
X107615805Y-116322004D01*
X107643838Y-116265778D01*
X109896731Y-114012885D01*
X109911733Y-114000574D01*
X109918514Y-113996043D01*
X109926624Y-113990624D01*
X109987515Y-113899495D01*
X110003500Y-113819133D01*
X110003500Y-113819132D01*
X110008897Y-113792000D01*
X110005402Y-113774429D01*
X110003500Y-113755116D01*
X110003500Y-107351884D01*
X110005402Y-107332569D01*
X110005827Y-107330436D01*
X110008897Y-107315000D01*
X109987515Y-107207506D01*
X109987515Y-107207505D01*
X109926624Y-107116376D01*
X109911733Y-107106426D01*
X109896731Y-107094115D01*
X109821885Y-107019269D01*
X109809574Y-107004267D01*
X109805043Y-106997486D01*
X109799624Y-106989376D01*
X109776623Y-106974007D01*
X109776622Y-106974006D01*
X109716693Y-106933963D01*
X109716604Y-106933903D01*
X109716602Y-106933902D01*
X109708495Y-106928485D01*
X109681376Y-106923091D01*
X109627993Y-106893195D01*
X109611824Y-106869624D01*
X109596538Y-106838490D01*
X109592932Y-106831145D01*
X109577729Y-106815968D01*
X109516140Y-106754487D01*
X109510350Y-106748707D01*
X109405518Y-106697464D01*
X109397916Y-106696355D01*
X109397913Y-106696354D01*
X109340763Y-106688017D01*
X109340761Y-106688017D01*
X109337218Y-106687500D01*
X107520782Y-106687500D01*
X107517199Y-106688028D01*
X107517192Y-106688028D01*
X107459501Y-106696521D01*
X107459499Y-106696522D01*
X107451888Y-106697642D01*
X107444982Y-106701033D01*
X107444981Y-106701033D01*
X107405726Y-106720306D01*
X107347145Y-106749068D01*
X107341364Y-106754859D01*
X107284239Y-106812084D01*
X107229746Y-106839910D01*
X107169306Y-106830391D01*
X107149097Y-106816748D01*
X107144002Y-106812304D01*
X107139400Y-106806963D01*
X107019095Y-106728985D01*
X106881739Y-106687907D01*
X106798497Y-106687398D01*
X106745427Y-106687074D01*
X106745426Y-106687074D01*
X106738376Y-106687031D01*
X106731599Y-106688968D01*
X106731598Y-106688968D01*
X106607309Y-106724490D01*
X106607307Y-106724491D01*
X106600529Y-106726428D01*
X106479280Y-106802930D01*
X106474613Y-106808214D01*
X106474611Y-106808216D01*
X106389044Y-106905103D01*
X106389042Y-106905105D01*
X106384377Y-106910388D01*
X106323447Y-107040163D01*
X106322362Y-107047132D01*
X106322361Y-107047135D01*
X106311581Y-107116376D01*
X106301391Y-107181823D01*
X106302306Y-107188820D01*
X106302306Y-107188821D01*
X106317086Y-107301849D01*
X106319980Y-107323979D01*
X106322821Y-107330435D01*
X106322821Y-107330436D01*
X106372783Y-107443982D01*
X106377720Y-107455203D01*
X106390792Y-107470754D01*
X106465431Y-107559549D01*
X106465434Y-107559551D01*
X106469970Y-107564948D01*
X106475841Y-107568856D01*
X106475842Y-107568857D01*
X106504002Y-107587602D01*
X106589313Y-107644390D01*
X106687186Y-107674967D01*
X106719425Y-107685039D01*
X106719426Y-107685039D01*
X106726157Y-107687142D01*
X106797828Y-107688456D01*
X106862445Y-107689641D01*
X106862447Y-107689641D01*
X106869499Y-107689770D01*
X106876302Y-107687915D01*
X106876304Y-107687915D01*
X106951503Y-107667413D01*
X107007817Y-107652060D01*
X107129991Y-107577045D01*
X107139650Y-107566373D01*
X107192719Y-107535920D01*
X107253552Y-107542475D01*
X107282989Y-107562744D01*
X107347650Y-107627293D01*
X107452482Y-107678536D01*
X107460084Y-107679645D01*
X107460087Y-107679646D01*
X107517237Y-107687983D01*
X107517239Y-107687983D01*
X107520782Y-107688500D01*
X109337218Y-107688500D01*
X109340808Y-107687972D01*
X109344406Y-107687708D01*
X109344511Y-107689143D01*
X109399417Y-107698462D01*
X109442201Y-107742203D01*
X109452500Y-107786170D01*
X109452500Y-107859827D01*
X109433593Y-107918018D01*
X109384093Y-107953982D01*
X109344411Y-107957353D01*
X109344344Y-107958277D01*
X109340763Y-107958017D01*
X109337218Y-107957500D01*
X107520782Y-107957500D01*
X107517199Y-107958028D01*
X107517192Y-107958028D01*
X107459501Y-107966521D01*
X107459499Y-107966522D01*
X107451888Y-107967642D01*
X107347145Y-108019068D01*
X107264707Y-108101650D01*
X107213464Y-108206482D01*
X107212355Y-108214084D01*
X107212354Y-108214087D01*
X107204017Y-108271237D01*
X107203500Y-108274782D01*
X107203500Y-108641218D01*
X107213642Y-108710112D01*
X107217033Y-108717018D01*
X107217033Y-108717019D01*
X107236306Y-108756274D01*
X107265068Y-108814855D01*
X107270859Y-108820636D01*
X107306679Y-108856393D01*
X107347650Y-108897293D01*
X107452482Y-108948536D01*
X107460084Y-108949645D01*
X107460087Y-108949646D01*
X107517237Y-108957983D01*
X107517239Y-108957983D01*
X107520782Y-108958500D01*
X108054500Y-108958500D01*
X108112691Y-108977407D01*
X108148655Y-109026907D01*
X108153500Y-109057500D01*
X108153500Y-112395876D01*
X108134593Y-112454067D01*
X108124504Y-112465880D01*
X107899504Y-112690880D01*
X107844987Y-112718657D01*
X107784555Y-112709086D01*
X107741290Y-112665821D01*
X107730500Y-112620876D01*
X107730500Y-110890252D01*
X107718867Y-110831769D01*
X107674552Y-110765448D01*
X107608231Y-110721133D01*
X107598668Y-110719231D01*
X107598666Y-110719230D01*
X107575995Y-110714721D01*
X107549748Y-110709500D01*
X107204500Y-110709500D01*
X107146309Y-110690593D01*
X107110345Y-110641093D01*
X107105500Y-110610500D01*
X107105500Y-110168607D01*
X107103094Y-110161202D01*
X107103093Y-110161196D01*
X107097430Y-110143767D01*
X107093804Y-110128665D01*
X107090938Y-110110570D01*
X107089719Y-110102874D01*
X107077860Y-110079598D01*
X107071918Y-110065253D01*
X107063849Y-110040419D01*
X107048494Y-110019285D01*
X107040388Y-110006056D01*
X107028528Y-109982780D01*
X106303294Y-109257546D01*
X106278277Y-109215327D01*
X106277323Y-109212064D01*
X106276323Y-109205082D01*
X106216984Y-109074572D01*
X106123400Y-108965963D01*
X106003095Y-108887985D01*
X105865739Y-108846907D01*
X105782497Y-108846398D01*
X105729427Y-108846074D01*
X105729426Y-108846074D01*
X105722376Y-108846031D01*
X105715599Y-108847968D01*
X105715598Y-108847968D01*
X105591309Y-108883490D01*
X105591307Y-108883491D01*
X105584529Y-108885428D01*
X105566296Y-108896932D01*
X105469972Y-108957708D01*
X105463280Y-108961930D01*
X105458613Y-108967214D01*
X105458611Y-108967216D01*
X105373044Y-109064103D01*
X105373042Y-109064105D01*
X105368377Y-109069388D01*
X105307447Y-109199163D01*
X105306362Y-109206132D01*
X105306361Y-109206135D01*
X105299521Y-109250067D01*
X105285391Y-109340823D01*
X104975500Y-109340823D01*
X104975500Y-102190206D01*
X104994407Y-102132015D01*
X105043907Y-102096051D01*
X105105093Y-102096051D01*
X105126447Y-102105930D01*
X105140575Y-102114639D01*
X105150934Y-102119469D01*
X105308110Y-102171602D01*
X105318621Y-102173855D01*
X105415112Y-102183741D01*
X105420170Y-102184000D01*
X105648320Y-102184000D01*
X105661005Y-102179878D01*
X105664000Y-102175757D01*
X105664000Y-100946000D01*
X105682907Y-100887809D01*
X105732407Y-100851845D01*
X105763000Y-100847000D01*
X106073000Y-100847000D01*
X106131191Y-100865907D01*
X106167155Y-100915407D01*
X106172000Y-100946000D01*
X106172000Y-102168319D01*
X106176122Y-102181004D01*
X106180243Y-102183999D01*
X106415792Y-102183999D01*
X106420922Y-102183733D01*
X106458283Y-102179857D01*
X106518114Y-102192658D01*
X106558995Y-102238182D01*
X106567500Y-102278328D01*
X106567500Y-104814149D01*
X106548593Y-104872340D01*
X106538504Y-104884153D01*
X105695489Y-105727168D01*
X105652689Y-105752353D01*
X105584529Y-105771833D01*
X105463280Y-105848335D01*
X105458613Y-105853619D01*
X105458611Y-105853621D01*
X105373044Y-105950508D01*
X105373042Y-105950510D01*
X105368377Y-105955793D01*
X105307447Y-106085568D01*
X105285391Y-106227228D01*
X105286306Y-106234225D01*
X105286306Y-106234226D01*
X105300008Y-106339007D01*
X105303980Y-106369384D01*
X105306821Y-106375840D01*
X105306821Y-106375841D01*
X105337475Y-106445506D01*
X105361720Y-106500608D01*
X105374792Y-106516159D01*
X105449431Y-106604954D01*
X105449434Y-106604956D01*
X105453970Y-106610353D01*
X105459841Y-106614261D01*
X105459842Y-106614262D01*
X105472143Y-106622450D01*
X105573313Y-106689795D01*
X105673920Y-106721226D01*
X105703425Y-106730444D01*
X105703426Y-106730444D01*
X105710157Y-106732547D01*
X105781828Y-106733861D01*
X105846445Y-106735046D01*
X105846447Y-106735046D01*
X105853499Y-106735175D01*
X105860302Y-106733320D01*
X105860304Y-106733320D01*
X105952720Y-106708124D01*
X105991817Y-106697465D01*
X106113991Y-106622450D01*
X106121403Y-106614262D01*
X106205468Y-106521387D01*
X106210200Y-106516159D01*
X106272710Y-106387138D01*
X106274276Y-106377830D01*
X106275209Y-106376020D01*
X106276025Y-106373464D01*
X106276456Y-106373602D01*
X106301900Y-106324253D01*
X106471094Y-106155059D01*
X106525611Y-106127282D01*
X106586043Y-106136853D01*
X106623004Y-106174096D01*
X106625152Y-106172759D01*
X106628879Y-106178746D01*
X106631720Y-106185203D01*
X106663068Y-106222496D01*
X106719431Y-106289549D01*
X106719434Y-106289551D01*
X106723970Y-106294948D01*
X106729841Y-106298856D01*
X106729842Y-106298857D01*
X106742143Y-106307045D01*
X106843313Y-106374390D01*
X106941186Y-106404967D01*
X106973425Y-106415039D01*
X106973426Y-106415039D01*
X106980157Y-106417142D01*
X107051828Y-106418456D01*
X107116445Y-106419641D01*
X107116447Y-106419641D01*
X107123499Y-106419770D01*
X107130302Y-106417915D01*
X107130304Y-106417915D01*
X107243191Y-106387138D01*
X107261817Y-106382060D01*
X107275939Y-106373389D01*
X107335421Y-106359053D01*
X107371215Y-106368812D01*
X107452482Y-106408536D01*
X107460084Y-106409645D01*
X107460087Y-106409646D01*
X107517237Y-106417983D01*
X107517239Y-106417983D01*
X107520782Y-106418500D01*
X109337218Y-106418500D01*
X109340801Y-106417972D01*
X109340808Y-106417972D01*
X109398499Y-106409479D01*
X109398501Y-106409478D01*
X109406112Y-106408358D01*
X109510855Y-106356932D01*
X109527761Y-106339997D01*
X109572731Y-106294948D01*
X109593293Y-106274350D01*
X109596885Y-106267001D01*
X109596888Y-106266997D01*
X109605674Y-106249023D01*
X109648215Y-106205047D01*
X109694616Y-106193500D01*
X109699876Y-106193500D01*
X109758067Y-106212407D01*
X109769880Y-106222496D01*
X110185504Y-106638120D01*
X110213281Y-106692637D01*
X110214500Y-106708124D01*
X110214500Y-115414876D01*
X110195593Y-115473067D01*
X110185504Y-115484880D01*
X107254450Y-118415934D01*
X107199933Y-118443711D01*
X107137359Y-118433015D01*
X107093309Y-118409197D01*
X107093308Y-118409197D01*
X107089055Y-118406897D01*
X107025855Y-118387333D01*
X106896875Y-118347407D01*
X106896871Y-118347406D01*
X106892254Y-118345977D01*
X106887446Y-118345472D01*
X106887443Y-118345471D01*
X106692185Y-118324949D01*
X106692183Y-118324949D01*
X106687369Y-118324443D01*
X106627354Y-118329905D01*
X106487022Y-118342675D01*
X106487017Y-118342676D01*
X106482203Y-118343114D01*
X106284572Y-118401280D01*
X106280288Y-118403519D01*
X106280287Y-118403520D01*
X106223869Y-118433015D01*
X106102002Y-118496726D01*
X106098231Y-118499758D01*
X105945220Y-118622781D01*
X105945217Y-118622783D01*
X105941447Y-118625815D01*
X105938333Y-118629526D01*
X105938332Y-118629527D01*
X105929585Y-118639952D01*
X105809024Y-118783630D01*
X105806689Y-118787878D01*
X105806688Y-118787879D01*
X105799955Y-118800126D01*
X105709776Y-118964162D01*
X105708313Y-118968775D01*
X105708311Y-118968779D01*
X105687167Y-119035434D01*
X105647484Y-119160532D01*
X105646944Y-119165344D01*
X105646944Y-119165345D01*
X105640827Y-119219885D01*
X105624520Y-119365262D01*
X105641759Y-119570553D01*
X105643092Y-119575201D01*
X105643092Y-119575202D01*
X105697176Y-119763814D01*
X105698544Y-119768586D01*
X105792712Y-119951818D01*
X105920677Y-120113270D01*
X105924357Y-120116402D01*
X105924359Y-120116404D01*
X106037017Y-120212283D01*
X106077564Y-120246791D01*
X106081787Y-120249151D01*
X106081791Y-120249154D01*
X106121342Y-120271258D01*
X106257398Y-120347297D01*
X106261996Y-120348791D01*
X106448724Y-120409463D01*
X106448726Y-120409464D01*
X106453329Y-120410959D01*
X106657894Y-120435351D01*
X106662716Y-120434980D01*
X106662719Y-120434980D01*
X106730541Y-120429761D01*
X106863300Y-120419546D01*
X107061725Y-120364145D01*
X107066038Y-120361966D01*
X107066044Y-120361964D01*
X107241289Y-120273441D01*
X107241291Y-120273440D01*
X107245610Y-120271258D01*
X107280943Y-120243653D01*
X107404135Y-120147406D01*
X107404139Y-120147402D01*
X107407951Y-120144424D01*
X107542564Y-119988472D01*
X107561231Y-119955613D01*
X107641934Y-119813550D01*
X107641935Y-119813547D01*
X107644323Y-119809344D01*
X107657882Y-119768586D01*
X107707824Y-119618454D01*
X107707824Y-119618452D01*
X107709351Y-119613863D01*
X107721717Y-119515979D01*
X107734823Y-119412228D01*
X107735171Y-119409474D01*
X107735583Y-119380000D01*
X107735313Y-119377244D01*
X107715952Y-119179780D01*
X107715951Y-119179776D01*
X107715480Y-119174970D01*
X107655935Y-118977749D01*
X107626429Y-118922256D01*
X107615805Y-118862004D01*
X107643838Y-118805778D01*
X110658731Y-115790885D01*
X110673733Y-115778574D01*
X110680514Y-115774043D01*
X110688624Y-115768624D01*
X110749515Y-115677495D01*
X110765500Y-115597133D01*
X110765500Y-115597132D01*
X110770897Y-115570000D01*
X110767402Y-115552428D01*
X110765500Y-115533115D01*
X110765500Y-106589884D01*
X110767402Y-106570571D01*
X110768995Y-106562562D01*
X110770897Y-106553000D01*
X110749516Y-106445506D01*
X110703994Y-106377378D01*
X110703993Y-106377377D01*
X110688624Y-106354376D01*
X110673733Y-106344426D01*
X110658731Y-106332115D01*
X110075885Y-105749269D01*
X110063574Y-105734267D01*
X110059043Y-105727486D01*
X110053624Y-105719376D01*
X110030623Y-105704007D01*
X110030621Y-105704005D01*
X109973575Y-105665888D01*
X109973574Y-105665888D01*
X109962495Y-105658485D01*
X109882133Y-105642500D01*
X109882132Y-105642500D01*
X109855000Y-105637103D01*
X109837429Y-105640598D01*
X109818116Y-105642500D01*
X109694557Y-105642500D01*
X109636366Y-105623593D01*
X109605690Y-105587130D01*
X109596539Y-105568492D01*
X109596538Y-105568490D01*
X109592932Y-105561145D01*
X109510350Y-105478707D01*
X109405518Y-105427464D01*
X109397916Y-105426355D01*
X109397913Y-105426354D01*
X109340763Y-105418017D01*
X109340761Y-105418017D01*
X109337218Y-105417500D01*
X107520782Y-105417500D01*
X107517199Y-105418028D01*
X107517192Y-105418028D01*
X107459502Y-105426521D01*
X107459501Y-105426521D01*
X107451888Y-105427642D01*
X107451840Y-105427316D01*
X107395561Y-105426591D01*
X107346528Y-105389992D01*
X107328372Y-105331563D01*
X107343605Y-105285683D01*
X107341528Y-105284625D01*
X107353382Y-105261360D01*
X107361500Y-105248113D01*
X107372270Y-105233290D01*
X107372271Y-105233289D01*
X107376850Y-105226986D01*
X107379257Y-105219578D01*
X107379260Y-105219572D01*
X107381904Y-105211433D01*
X107417866Y-105161932D01*
X107476056Y-105143023D01*
X107490343Y-105144059D01*
X107520782Y-105148500D01*
X109337218Y-105148500D01*
X109340801Y-105147972D01*
X109340808Y-105147972D01*
X109398499Y-105139479D01*
X109398501Y-105139478D01*
X109406112Y-105138358D01*
X109510855Y-105086932D01*
X109593293Y-105004350D01*
X109596885Y-104997001D01*
X109596888Y-104996997D01*
X109605674Y-104979023D01*
X109648215Y-104935047D01*
X109694616Y-104923500D01*
X110080876Y-104923500D01*
X110139067Y-104942407D01*
X110150880Y-104952496D01*
X111074504Y-105876120D01*
X111102281Y-105930637D01*
X111103500Y-105946124D01*
X111103500Y-117065876D01*
X111084593Y-117124067D01*
X111074504Y-117135880D01*
X107254450Y-120955934D01*
X107199933Y-120983711D01*
X107137359Y-120973015D01*
X107093309Y-120949197D01*
X107093308Y-120949197D01*
X107089055Y-120946897D01*
X107025855Y-120927333D01*
X106896875Y-120887407D01*
X106896871Y-120887406D01*
X106892254Y-120885977D01*
X106887446Y-120885472D01*
X106887443Y-120885471D01*
X106692185Y-120864949D01*
X106692183Y-120864949D01*
X106687369Y-120864443D01*
X106627354Y-120869905D01*
X106487022Y-120882675D01*
X106487017Y-120882676D01*
X106482203Y-120883114D01*
X106284572Y-120941280D01*
X106280288Y-120943519D01*
X106280287Y-120943520D01*
X106223869Y-120973015D01*
X106102002Y-121036726D01*
X106098231Y-121039758D01*
X105945220Y-121162781D01*
X105945217Y-121162783D01*
X105941447Y-121165815D01*
X105938333Y-121169526D01*
X105938332Y-121169527D01*
X105929585Y-121179952D01*
X105809024Y-121323630D01*
X105806689Y-121327878D01*
X105806688Y-121327879D01*
X105799955Y-121340126D01*
X105709776Y-121504162D01*
X105708313Y-121508775D01*
X105708311Y-121508779D01*
X105698339Y-121540216D01*
X105647484Y-121700532D01*
X105646944Y-121705344D01*
X105646944Y-121705345D01*
X105645865Y-121714970D01*
X105624520Y-121905262D01*
X105641759Y-122110553D01*
X105643092Y-122115201D01*
X105643092Y-122115202D01*
X105697176Y-122303814D01*
X105698544Y-122308586D01*
X105792712Y-122491818D01*
X105920677Y-122653270D01*
X105924357Y-122656402D01*
X105924359Y-122656404D01*
X106037017Y-122752283D01*
X106077564Y-122786791D01*
X106081787Y-122789151D01*
X106081791Y-122789154D01*
X106121342Y-122811258D01*
X106257398Y-122887297D01*
X106261996Y-122888791D01*
X106448724Y-122949463D01*
X106448726Y-122949464D01*
X106453329Y-122950959D01*
X106657894Y-122975351D01*
X106662716Y-122974980D01*
X106662719Y-122974980D01*
X106730541Y-122969761D01*
X106863300Y-122959546D01*
X107061725Y-122904145D01*
X107066038Y-122901966D01*
X107066044Y-122901964D01*
X107241289Y-122813441D01*
X107241291Y-122813440D01*
X107245610Y-122811258D01*
X107280943Y-122783653D01*
X107404135Y-122687406D01*
X107404139Y-122687402D01*
X107407951Y-122684424D01*
X107542564Y-122528472D01*
X107561231Y-122495613D01*
X107641934Y-122353550D01*
X107641935Y-122353547D01*
X107644323Y-122349344D01*
X107657882Y-122308586D01*
X107707824Y-122158454D01*
X107707824Y-122158452D01*
X107709351Y-122153863D01*
X107721717Y-122055979D01*
X107734823Y-121952228D01*
X107735171Y-121949474D01*
X107735583Y-121920000D01*
X107735313Y-121917244D01*
X107715952Y-121719780D01*
X107715951Y-121719776D01*
X107715480Y-121714970D01*
X107655935Y-121517749D01*
X107626429Y-121462256D01*
X107615805Y-121402004D01*
X107643838Y-121345778D01*
X111547731Y-117441885D01*
X111562733Y-117429574D01*
X111569514Y-117425043D01*
X111577624Y-117419624D01*
X111620589Y-117355324D01*
X111638516Y-117328494D01*
X111659897Y-117221000D01*
X111656402Y-117203428D01*
X111654500Y-117184116D01*
X111654500Y-105827884D01*
X111656402Y-105808569D01*
X111657995Y-105800561D01*
X111659897Y-105791000D01*
X111654500Y-105763867D01*
X111648612Y-105734267D01*
X111640418Y-105693070D01*
X111640417Y-105693068D01*
X111638515Y-105683505D01*
X111577624Y-105592376D01*
X111562733Y-105582426D01*
X111547731Y-105570115D01*
X110456885Y-104479269D01*
X110444574Y-104464267D01*
X110440043Y-104457486D01*
X110434624Y-104449376D01*
X110411623Y-104434007D01*
X110411621Y-104434005D01*
X110354575Y-104395888D01*
X110354574Y-104395888D01*
X110343495Y-104388485D01*
X110263133Y-104372500D01*
X110263132Y-104372500D01*
X110236000Y-104367103D01*
X110218429Y-104370598D01*
X110199116Y-104372500D01*
X109694557Y-104372500D01*
X109636366Y-104353593D01*
X109605690Y-104317130D01*
X109596539Y-104298492D01*
X109596538Y-104298490D01*
X109592932Y-104291145D01*
X109510350Y-104208707D01*
X109405518Y-104157464D01*
X109397916Y-104156355D01*
X109397913Y-104156354D01*
X109340763Y-104148017D01*
X109340761Y-104148017D01*
X109337218Y-104147500D01*
X107520782Y-104147500D01*
X107520782Y-104146507D01*
X107465305Y-104132863D01*
X107425827Y-104086118D01*
X107418500Y-104048740D01*
X107418500Y-103977262D01*
X107437407Y-103919071D01*
X107486907Y-103883107D01*
X107520782Y-103878992D01*
X107520782Y-103878500D01*
X109337218Y-103878500D01*
X109340801Y-103877972D01*
X109340808Y-103877972D01*
X109398499Y-103869479D01*
X109398501Y-103869478D01*
X109406112Y-103868358D01*
X109510855Y-103816932D01*
X109593293Y-103734350D01*
X109596885Y-103727001D01*
X109596888Y-103726997D01*
X109605674Y-103709023D01*
X109648215Y-103665047D01*
X109694616Y-103653500D01*
X110207876Y-103653500D01*
X110266067Y-103672407D01*
X110277880Y-103682496D01*
X111836504Y-105241120D01*
X111864281Y-105295637D01*
X111865500Y-105311124D01*
X111865500Y-118843876D01*
X111846593Y-118902067D01*
X111836504Y-118913880D01*
X107254450Y-123495934D01*
X107199933Y-123523711D01*
X107137359Y-123513015D01*
X107093309Y-123489197D01*
X107093308Y-123489197D01*
X107089055Y-123486897D01*
X107025855Y-123467333D01*
X106896875Y-123427407D01*
X106896871Y-123427406D01*
X106892254Y-123425977D01*
X106887446Y-123425472D01*
X106887443Y-123425471D01*
X106692185Y-123404949D01*
X106692183Y-123404949D01*
X106687369Y-123404443D01*
X106627354Y-123409905D01*
X106487022Y-123422675D01*
X106487017Y-123422676D01*
X106482203Y-123423114D01*
X106284572Y-123481280D01*
X106280288Y-123483519D01*
X106280287Y-123483520D01*
X106223869Y-123513015D01*
X106102002Y-123576726D01*
X106098231Y-123579758D01*
X105945220Y-123702781D01*
X105945217Y-123702783D01*
X105941447Y-123705815D01*
X105938333Y-123709526D01*
X105938332Y-123709527D01*
X105929585Y-123719952D01*
X105809024Y-123863630D01*
X105806689Y-123867878D01*
X105806688Y-123867879D01*
X105799955Y-123880126D01*
X105709776Y-124044162D01*
X105708313Y-124048775D01*
X105708311Y-124048779D01*
X105698339Y-124080216D01*
X105647484Y-124240532D01*
X105646944Y-124245344D01*
X105646944Y-124245345D01*
X105645865Y-124254970D01*
X105624520Y-124445262D01*
X105641759Y-124650553D01*
X105643092Y-124655201D01*
X105643092Y-124655202D01*
X105697176Y-124843814D01*
X105698544Y-124848586D01*
X105792712Y-125031818D01*
X105920677Y-125193270D01*
X105924357Y-125196402D01*
X105924359Y-125196404D01*
X106001442Y-125262006D01*
X106077564Y-125326791D01*
X106081787Y-125329151D01*
X106081791Y-125329154D01*
X106121342Y-125351258D01*
X106257398Y-125427297D01*
X106261996Y-125428791D01*
X106448724Y-125489463D01*
X106448726Y-125489464D01*
X106453329Y-125490959D01*
X106657894Y-125515351D01*
X106662716Y-125514980D01*
X106662719Y-125514980D01*
X106730541Y-125509761D01*
X106863300Y-125499546D01*
X106969756Y-125469823D01*
X111635391Y-125469823D01*
X111636306Y-125476820D01*
X111636306Y-125476821D01*
X111641296Y-125514980D01*
X111653980Y-125611979D01*
X111711720Y-125743203D01*
X111743068Y-125780496D01*
X111799431Y-125847549D01*
X111799434Y-125847551D01*
X111803970Y-125852948D01*
X111809841Y-125856856D01*
X111809842Y-125856857D01*
X111822143Y-125865045D01*
X111923313Y-125932390D01*
X112020252Y-125962675D01*
X112053425Y-125973039D01*
X112053426Y-125973039D01*
X112060157Y-125975142D01*
X112131828Y-125976456D01*
X112196445Y-125977641D01*
X112196447Y-125977641D01*
X112203499Y-125977770D01*
X112210302Y-125975915D01*
X112210304Y-125975915D01*
X112325740Y-125944443D01*
X112341817Y-125940060D01*
X112463991Y-125865045D01*
X112468726Y-125859814D01*
X112537291Y-125784064D01*
X112590359Y-125753610D01*
X112610689Y-125751500D01*
X117700876Y-125751500D01*
X117759067Y-125770407D01*
X117770880Y-125780496D01*
X118415666Y-126425282D01*
X118443443Y-126479799D01*
X118432416Y-126542980D01*
X118409776Y-126584162D01*
X118408313Y-126588775D01*
X118408311Y-126588779D01*
X118398339Y-126620216D01*
X118347484Y-126780532D01*
X118346944Y-126785344D01*
X118346944Y-126785345D01*
X118345865Y-126794970D01*
X118324520Y-126985262D01*
X118341759Y-127190553D01*
X118343092Y-127195201D01*
X118343092Y-127195202D01*
X118397176Y-127383814D01*
X118398544Y-127388586D01*
X118492712Y-127571818D01*
X118620677Y-127733270D01*
X118624357Y-127736402D01*
X118624359Y-127736404D01*
X118737017Y-127832283D01*
X118777564Y-127866791D01*
X118781787Y-127869151D01*
X118781791Y-127869154D01*
X118888884Y-127929006D01*
X118957398Y-127967297D01*
X118961996Y-127968791D01*
X119148724Y-128029463D01*
X119148726Y-128029464D01*
X119153329Y-128030959D01*
X119357894Y-128055351D01*
X119362716Y-128054980D01*
X119362719Y-128054980D01*
X119430541Y-128049761D01*
X119563300Y-128039546D01*
X119761725Y-127984145D01*
X119766038Y-127981966D01*
X119766044Y-127981964D01*
X119941289Y-127893441D01*
X119941291Y-127893440D01*
X119945610Y-127891258D01*
X119957995Y-127881582D01*
X120104135Y-127767406D01*
X120104139Y-127767402D01*
X120107951Y-127764424D01*
X120113388Y-127758126D01*
X120174071Y-127687823D01*
X120242564Y-127608472D01*
X120261231Y-127575613D01*
X120341934Y-127433550D01*
X120341935Y-127433547D01*
X120344323Y-127429344D01*
X120357882Y-127388586D01*
X120407824Y-127238454D01*
X120407824Y-127238452D01*
X120409351Y-127233863D01*
X120435171Y-127029474D01*
X120435583Y-127000000D01*
X120435313Y-126997244D01*
X120415952Y-126799780D01*
X120415951Y-126799776D01*
X120415480Y-126794970D01*
X120355935Y-126597749D01*
X120259218Y-126415849D01*
X120129011Y-126256200D01*
X119970275Y-126124882D01*
X119789055Y-126026897D01*
X119725855Y-126007333D01*
X119596875Y-125967407D01*
X119596871Y-125967406D01*
X119592254Y-125965977D01*
X119587446Y-125965472D01*
X119587443Y-125965471D01*
X119392185Y-125944949D01*
X119392183Y-125944949D01*
X119387369Y-125944443D01*
X119327354Y-125949905D01*
X119187022Y-125962675D01*
X119187017Y-125962676D01*
X119182203Y-125963114D01*
X119140897Y-125975271D01*
X118989219Y-126019912D01*
X118989216Y-126019913D01*
X118984572Y-126021280D01*
X118921832Y-126054080D01*
X118861508Y-126064283D01*
X118805965Y-126036349D01*
X118076885Y-125307269D01*
X118064574Y-125292267D01*
X118060043Y-125285486D01*
X118054624Y-125277376D01*
X118031623Y-125262007D01*
X118031622Y-125262006D01*
X117975376Y-125224424D01*
X117963495Y-125216485D01*
X117883133Y-125200500D01*
X117883132Y-125200500D01*
X117856000Y-125195103D01*
X117838429Y-125198598D01*
X117819116Y-125200500D01*
X112609715Y-125200500D01*
X112551524Y-125181593D01*
X112534719Y-125166127D01*
X112473400Y-125094963D01*
X112405651Y-125051050D01*
X112367104Y-125003534D01*
X112363849Y-124942435D01*
X112397128Y-124891092D01*
X112407688Y-124883615D01*
X112463991Y-124849045D01*
X112468726Y-124843814D01*
X112537291Y-124768064D01*
X112590359Y-124737610D01*
X112610689Y-124735500D01*
X118291515Y-124735500D01*
X118349706Y-124754407D01*
X118386680Y-124807211D01*
X118397176Y-124843814D01*
X118398544Y-124848586D01*
X118492712Y-125031818D01*
X118620677Y-125193270D01*
X118624357Y-125196402D01*
X118624359Y-125196404D01*
X118701442Y-125262006D01*
X118777564Y-125326791D01*
X118781787Y-125329151D01*
X118781791Y-125329154D01*
X118821342Y-125351258D01*
X118957398Y-125427297D01*
X118961996Y-125428791D01*
X119148724Y-125489463D01*
X119148726Y-125489464D01*
X119153329Y-125490959D01*
X119357894Y-125515351D01*
X119362716Y-125514980D01*
X119362719Y-125514980D01*
X119430541Y-125509761D01*
X119563300Y-125499546D01*
X119761725Y-125444145D01*
X119766038Y-125441966D01*
X119766044Y-125441964D01*
X119941289Y-125353441D01*
X119941291Y-125353440D01*
X119945610Y-125351258D01*
X119973902Y-125329154D01*
X120104135Y-125227406D01*
X120104139Y-125227402D01*
X120107951Y-125224424D01*
X120116446Y-125214583D01*
X120167313Y-125155651D01*
X120242564Y-125068472D01*
X120261231Y-125035613D01*
X120341934Y-124893550D01*
X120341935Y-124893547D01*
X120344323Y-124889344D01*
X120346232Y-124883608D01*
X120407824Y-124698454D01*
X120407824Y-124698452D01*
X120409351Y-124693863D01*
X120421717Y-124595979D01*
X120434823Y-124492228D01*
X120435171Y-124489474D01*
X120435583Y-124460000D01*
X120435313Y-124457244D01*
X120415952Y-124259780D01*
X120415951Y-124259776D01*
X120415480Y-124254970D01*
X120355935Y-124057749D01*
X120259218Y-123875849D01*
X120129011Y-123716200D01*
X119970275Y-123584882D01*
X119789055Y-123486897D01*
X119725855Y-123467333D01*
X119596875Y-123427407D01*
X119596871Y-123427406D01*
X119592254Y-123425977D01*
X119587446Y-123425472D01*
X119587443Y-123425471D01*
X119392185Y-123404949D01*
X119392183Y-123404949D01*
X119387369Y-123404443D01*
X119327354Y-123409905D01*
X119187022Y-123422675D01*
X119187017Y-123422676D01*
X119182203Y-123423114D01*
X118984572Y-123481280D01*
X118980288Y-123483519D01*
X118980287Y-123483520D01*
X118923869Y-123513015D01*
X118802002Y-123576726D01*
X118798231Y-123579758D01*
X118645220Y-123702781D01*
X118645217Y-123702783D01*
X118641447Y-123705815D01*
X118638333Y-123709526D01*
X118638332Y-123709527D01*
X118629585Y-123719952D01*
X118509024Y-123863630D01*
X118506689Y-123867878D01*
X118506688Y-123867879D01*
X118499955Y-123880126D01*
X118409776Y-124044162D01*
X118408312Y-124048778D01*
X118408310Y-124048782D01*
X118387167Y-124115434D01*
X118351550Y-124165184D01*
X118292801Y-124184500D01*
X112609715Y-124184500D01*
X112551524Y-124165593D01*
X112534719Y-124150127D01*
X112473400Y-124078963D01*
X112353095Y-124000985D01*
X112215739Y-123959907D01*
X112132497Y-123959398D01*
X112079427Y-123959074D01*
X112079426Y-123959074D01*
X112072376Y-123959031D01*
X112065599Y-123960968D01*
X112065598Y-123960968D01*
X111941309Y-123996490D01*
X111941307Y-123996491D01*
X111934529Y-123998428D01*
X111813280Y-124074930D01*
X111808613Y-124080214D01*
X111808611Y-124080216D01*
X111723044Y-124177103D01*
X111723042Y-124177105D01*
X111718377Y-124182388D01*
X111657447Y-124312163D01*
X111635391Y-124453823D01*
X111653980Y-124595979D01*
X111656821Y-124602435D01*
X111656821Y-124602436D01*
X111694937Y-124689060D01*
X111711720Y-124727203D01*
X111746067Y-124768064D01*
X111799431Y-124831549D01*
X111799434Y-124831551D01*
X111803970Y-124836948D01*
X111809841Y-124840856D01*
X111809842Y-124840857D01*
X111877237Y-124885719D01*
X111915200Y-124933703D01*
X111917709Y-124994837D01*
X111883805Y-125045769D01*
X111875207Y-125051857D01*
X111848874Y-125068472D01*
X111813280Y-125090930D01*
X111808613Y-125096214D01*
X111808611Y-125096216D01*
X111723044Y-125193103D01*
X111723042Y-125193105D01*
X111718377Y-125198388D01*
X111657447Y-125328163D01*
X111635391Y-125469823D01*
X106969756Y-125469823D01*
X107061725Y-125444145D01*
X107066038Y-125441966D01*
X107066044Y-125441964D01*
X107241289Y-125353441D01*
X107241291Y-125353440D01*
X107245610Y-125351258D01*
X107273902Y-125329154D01*
X107404135Y-125227406D01*
X107404139Y-125227402D01*
X107407951Y-125224424D01*
X107416446Y-125214583D01*
X107467313Y-125155651D01*
X107542564Y-125068472D01*
X107561231Y-125035613D01*
X107641934Y-124893550D01*
X107641935Y-124893547D01*
X107644323Y-124889344D01*
X107646232Y-124883608D01*
X107707824Y-124698454D01*
X107707824Y-124698452D01*
X107709351Y-124693863D01*
X107721717Y-124595979D01*
X107734823Y-124492228D01*
X107735171Y-124489474D01*
X107735583Y-124460000D01*
X107735313Y-124457244D01*
X107715952Y-124259780D01*
X107715951Y-124259776D01*
X107715480Y-124254970D01*
X107655935Y-124057749D01*
X107626429Y-124002256D01*
X107615805Y-123942004D01*
X107643838Y-123885778D01*
X109615793Y-121913823D01*
X112270391Y-121913823D01*
X112288980Y-122055979D01*
X112291821Y-122062435D01*
X112291821Y-122062436D01*
X112329937Y-122149060D01*
X112346720Y-122187203D01*
X112381067Y-122228064D01*
X112434431Y-122291549D01*
X112434434Y-122291551D01*
X112438970Y-122296948D01*
X112444841Y-122300856D01*
X112444842Y-122300857D01*
X112449456Y-122303928D01*
X112558313Y-122376390D01*
X112658920Y-122407821D01*
X112688425Y-122417039D01*
X112688426Y-122417039D01*
X112695157Y-122419142D01*
X112766828Y-122420456D01*
X112831445Y-122421641D01*
X112831447Y-122421641D01*
X112838499Y-122421770D01*
X112845302Y-122419915D01*
X112845304Y-122419915D01*
X112920503Y-122399413D01*
X112976817Y-122384060D01*
X113098991Y-122309045D01*
X113103726Y-122303814D01*
X113172291Y-122228064D01*
X113225359Y-122197610D01*
X113245689Y-122195500D01*
X118291515Y-122195500D01*
X118349706Y-122214407D01*
X118386680Y-122267211D01*
X118397176Y-122303814D01*
X118398544Y-122308586D01*
X118492712Y-122491818D01*
X118620677Y-122653270D01*
X118624357Y-122656402D01*
X118624359Y-122656404D01*
X118737017Y-122752283D01*
X118777564Y-122786791D01*
X118781787Y-122789151D01*
X118781791Y-122789154D01*
X118821342Y-122811258D01*
X118957398Y-122887297D01*
X118961996Y-122888791D01*
X119148724Y-122949463D01*
X119148726Y-122949464D01*
X119153329Y-122950959D01*
X119357894Y-122975351D01*
X119362716Y-122974980D01*
X119362719Y-122974980D01*
X119430541Y-122969761D01*
X119563300Y-122959546D01*
X119761725Y-122904145D01*
X119766038Y-122901966D01*
X119766044Y-122901964D01*
X119941289Y-122813441D01*
X119941291Y-122813440D01*
X119945610Y-122811258D01*
X119980943Y-122783653D01*
X120104135Y-122687406D01*
X120104139Y-122687402D01*
X120107951Y-122684424D01*
X120242564Y-122528472D01*
X120261231Y-122495613D01*
X120341934Y-122353550D01*
X120341935Y-122353547D01*
X120344323Y-122349344D01*
X120357882Y-122308586D01*
X120407824Y-122158454D01*
X120407824Y-122158452D01*
X120409351Y-122153863D01*
X120421717Y-122055979D01*
X120434823Y-121952228D01*
X120435171Y-121949474D01*
X120435583Y-121920000D01*
X120435313Y-121917244D01*
X120415952Y-121719780D01*
X120415951Y-121719776D01*
X120415480Y-121714970D01*
X120355935Y-121517749D01*
X120259218Y-121335849D01*
X120129011Y-121176200D01*
X119970275Y-121044882D01*
X119789055Y-120946897D01*
X119725855Y-120927333D01*
X119596875Y-120887407D01*
X119596871Y-120887406D01*
X119592254Y-120885977D01*
X119587446Y-120885472D01*
X119587443Y-120885471D01*
X119392185Y-120864949D01*
X119392183Y-120864949D01*
X119387369Y-120864443D01*
X119327354Y-120869905D01*
X119187022Y-120882675D01*
X119187017Y-120882676D01*
X119182203Y-120883114D01*
X118984572Y-120941280D01*
X118980288Y-120943519D01*
X118980287Y-120943520D01*
X118923869Y-120973015D01*
X118802002Y-121036726D01*
X118798231Y-121039758D01*
X118645220Y-121162781D01*
X118645217Y-121162783D01*
X118641447Y-121165815D01*
X118638333Y-121169526D01*
X118638332Y-121169527D01*
X118629585Y-121179952D01*
X118509024Y-121323630D01*
X118506689Y-121327878D01*
X118506688Y-121327879D01*
X118499955Y-121340126D01*
X118409776Y-121504162D01*
X118408312Y-121508778D01*
X118408310Y-121508782D01*
X118387167Y-121575434D01*
X118351550Y-121625184D01*
X118292801Y-121644500D01*
X113244715Y-121644500D01*
X113186524Y-121625593D01*
X113169719Y-121610127D01*
X113108400Y-121538963D01*
X112988095Y-121460985D01*
X112850739Y-121419907D01*
X112767497Y-121419398D01*
X112714427Y-121419074D01*
X112714426Y-121419074D01*
X112707376Y-121419031D01*
X112700599Y-121420968D01*
X112700598Y-121420968D01*
X112576309Y-121456490D01*
X112576307Y-121456491D01*
X112569529Y-121458428D01*
X112448280Y-121534930D01*
X112443613Y-121540214D01*
X112443611Y-121540216D01*
X112358044Y-121637103D01*
X112358042Y-121637105D01*
X112353377Y-121642388D01*
X112292447Y-121772163D01*
X112270391Y-121913823D01*
X109615793Y-121913823D01*
X112155793Y-119373823D01*
X112905391Y-119373823D01*
X112923980Y-119515979D01*
X112926821Y-119522435D01*
X112926821Y-119522436D01*
X112964937Y-119609060D01*
X112981720Y-119647203D01*
X113016067Y-119688064D01*
X113069431Y-119751549D01*
X113069434Y-119751551D01*
X113073970Y-119756948D01*
X113079841Y-119760856D01*
X113079842Y-119760857D01*
X113084456Y-119763928D01*
X113193313Y-119836390D01*
X113293920Y-119867821D01*
X113323425Y-119877039D01*
X113323426Y-119877039D01*
X113330157Y-119879142D01*
X113401828Y-119880456D01*
X113466445Y-119881641D01*
X113466447Y-119881641D01*
X113473499Y-119881770D01*
X113480302Y-119879915D01*
X113480304Y-119879915D01*
X113555503Y-119859413D01*
X113611817Y-119844060D01*
X113733991Y-119769045D01*
X113738726Y-119763814D01*
X113807291Y-119688064D01*
X113860359Y-119657610D01*
X113880689Y-119655500D01*
X118291515Y-119655500D01*
X118349706Y-119674407D01*
X118386680Y-119727211D01*
X118397176Y-119763814D01*
X118398544Y-119768586D01*
X118492712Y-119951818D01*
X118620677Y-120113270D01*
X118624357Y-120116402D01*
X118624359Y-120116404D01*
X118737017Y-120212283D01*
X118777564Y-120246791D01*
X118781787Y-120249151D01*
X118781791Y-120249154D01*
X118821342Y-120271258D01*
X118957398Y-120347297D01*
X118961996Y-120348791D01*
X119148724Y-120409463D01*
X119148726Y-120409464D01*
X119153329Y-120410959D01*
X119357894Y-120435351D01*
X119362716Y-120434980D01*
X119362719Y-120434980D01*
X119430541Y-120429761D01*
X119563300Y-120419546D01*
X119761725Y-120364145D01*
X119766038Y-120361966D01*
X119766044Y-120361964D01*
X119941289Y-120273441D01*
X119941291Y-120273440D01*
X119945610Y-120271258D01*
X119980943Y-120243653D01*
X120104135Y-120147406D01*
X120104139Y-120147402D01*
X120107951Y-120144424D01*
X120242564Y-119988472D01*
X120261231Y-119955613D01*
X120341934Y-119813550D01*
X120341935Y-119813547D01*
X120344323Y-119809344D01*
X120357882Y-119768586D01*
X120407824Y-119618454D01*
X120407824Y-119618452D01*
X120409351Y-119613863D01*
X120421717Y-119515979D01*
X120434823Y-119412228D01*
X120435171Y-119409474D01*
X120435583Y-119380000D01*
X120435313Y-119377244D01*
X120415952Y-119179780D01*
X120415951Y-119179776D01*
X120415480Y-119174970D01*
X120355935Y-118977749D01*
X120259218Y-118795849D01*
X120129011Y-118636200D01*
X119970275Y-118504882D01*
X119789055Y-118406897D01*
X119725855Y-118387333D01*
X119596875Y-118347407D01*
X119596871Y-118347406D01*
X119592254Y-118345977D01*
X119587446Y-118345472D01*
X119587443Y-118345471D01*
X119392185Y-118324949D01*
X119392183Y-118324949D01*
X119387369Y-118324443D01*
X119327354Y-118329905D01*
X119187022Y-118342675D01*
X119187017Y-118342676D01*
X119182203Y-118343114D01*
X118984572Y-118401280D01*
X118980288Y-118403519D01*
X118980287Y-118403520D01*
X118923869Y-118433015D01*
X118802002Y-118496726D01*
X118798231Y-118499758D01*
X118645220Y-118622781D01*
X118645217Y-118622783D01*
X118641447Y-118625815D01*
X118638333Y-118629526D01*
X118638332Y-118629527D01*
X118629585Y-118639952D01*
X118509024Y-118783630D01*
X118506689Y-118787878D01*
X118506688Y-118787879D01*
X118499955Y-118800126D01*
X118409776Y-118964162D01*
X118408312Y-118968778D01*
X118408310Y-118968782D01*
X118387167Y-119035434D01*
X118351550Y-119085184D01*
X118292801Y-119104500D01*
X113879715Y-119104500D01*
X113821524Y-119085593D01*
X113804719Y-119070127D01*
X113743400Y-118998963D01*
X113623095Y-118920985D01*
X113485739Y-118879907D01*
X113402497Y-118879398D01*
X113349427Y-118879074D01*
X113349426Y-118879074D01*
X113342376Y-118879031D01*
X113335599Y-118880968D01*
X113335598Y-118880968D01*
X113211309Y-118916490D01*
X113211307Y-118916491D01*
X113204529Y-118918428D01*
X113083280Y-118994930D01*
X113078613Y-119000214D01*
X113078611Y-119000216D01*
X112993044Y-119097103D01*
X112993042Y-119097105D01*
X112988377Y-119102388D01*
X112927447Y-119232163D01*
X112905391Y-119373823D01*
X112155793Y-119373823D01*
X112309731Y-119219885D01*
X112324733Y-119207574D01*
X112331518Y-119203041D01*
X112331520Y-119203039D01*
X112339624Y-119197624D01*
X112351548Y-119179780D01*
X112364409Y-119160532D01*
X112395098Y-119114602D01*
X112400515Y-119106495D01*
X112421897Y-118999000D01*
X112418402Y-118981429D01*
X112416500Y-118962116D01*
X112416500Y-116833823D01*
X112905391Y-116833823D01*
X112923980Y-116975979D01*
X112926821Y-116982435D01*
X112926821Y-116982436D01*
X112964937Y-117069060D01*
X112981720Y-117107203D01*
X113016067Y-117148064D01*
X113069431Y-117211549D01*
X113069434Y-117211551D01*
X113073970Y-117216948D01*
X113079841Y-117220856D01*
X113079842Y-117220857D01*
X113084456Y-117223928D01*
X113193313Y-117296390D01*
X113293920Y-117327821D01*
X113323425Y-117337039D01*
X113323426Y-117337039D01*
X113330157Y-117339142D01*
X113401828Y-117340456D01*
X113466445Y-117341641D01*
X113466447Y-117341641D01*
X113473499Y-117341770D01*
X113480302Y-117339915D01*
X113480304Y-117339915D01*
X113557264Y-117318933D01*
X113611817Y-117304060D01*
X113733991Y-117229045D01*
X113741273Y-117221000D01*
X113807291Y-117148064D01*
X113860359Y-117117610D01*
X113880689Y-117115500D01*
X118291515Y-117115500D01*
X118349706Y-117134407D01*
X118386680Y-117187211D01*
X118397176Y-117223814D01*
X118398544Y-117228586D01*
X118492712Y-117411818D01*
X118620677Y-117573270D01*
X118624357Y-117576402D01*
X118624359Y-117576404D01*
X118737017Y-117672283D01*
X118777564Y-117706791D01*
X118781787Y-117709151D01*
X118781791Y-117709154D01*
X118821342Y-117731258D01*
X118957398Y-117807297D01*
X118961996Y-117808791D01*
X119148724Y-117869463D01*
X119148726Y-117869464D01*
X119153329Y-117870959D01*
X119357894Y-117895351D01*
X119362716Y-117894980D01*
X119362719Y-117894980D01*
X119430541Y-117889761D01*
X119563300Y-117879546D01*
X119761725Y-117824145D01*
X119766038Y-117821966D01*
X119766044Y-117821964D01*
X119941289Y-117733441D01*
X119941291Y-117733440D01*
X119945610Y-117731258D01*
X119980943Y-117703653D01*
X120104135Y-117607406D01*
X120104139Y-117607402D01*
X120107951Y-117604424D01*
X120242564Y-117448472D01*
X120261231Y-117415613D01*
X120341934Y-117273550D01*
X120341935Y-117273547D01*
X120344323Y-117269344D01*
X120357882Y-117228586D01*
X120407824Y-117078454D01*
X120407824Y-117078452D01*
X120409351Y-117073863D01*
X120421717Y-116975979D01*
X120434823Y-116872228D01*
X120435171Y-116869474D01*
X120435583Y-116840000D01*
X120435313Y-116837244D01*
X120415952Y-116639780D01*
X120415951Y-116639776D01*
X120415480Y-116634970D01*
X120355935Y-116437749D01*
X120259218Y-116255849D01*
X120129011Y-116096200D01*
X119970275Y-115964882D01*
X119789055Y-115866897D01*
X119725855Y-115847333D01*
X119596875Y-115807407D01*
X119596871Y-115807406D01*
X119592254Y-115805977D01*
X119587446Y-115805472D01*
X119587443Y-115805471D01*
X119392185Y-115784949D01*
X119392183Y-115784949D01*
X119387369Y-115784443D01*
X119327354Y-115789905D01*
X119187022Y-115802675D01*
X119187017Y-115802676D01*
X119182203Y-115803114D01*
X118984572Y-115861280D01*
X118980288Y-115863519D01*
X118980287Y-115863520D01*
X118923869Y-115893015D01*
X118802002Y-115956726D01*
X118798231Y-115959758D01*
X118645220Y-116082781D01*
X118645217Y-116082783D01*
X118641447Y-116085815D01*
X118638333Y-116089526D01*
X118638332Y-116089527D01*
X118629585Y-116099952D01*
X118509024Y-116243630D01*
X118506689Y-116247878D01*
X118506688Y-116247879D01*
X118499955Y-116260126D01*
X118409776Y-116424162D01*
X118408312Y-116428778D01*
X118408310Y-116428782D01*
X118387167Y-116495434D01*
X118351550Y-116545184D01*
X118292801Y-116564500D01*
X113879715Y-116564500D01*
X113821524Y-116545593D01*
X113804719Y-116530127D01*
X113743400Y-116458963D01*
X113623095Y-116380985D01*
X113485739Y-116339907D01*
X113402497Y-116339398D01*
X113349427Y-116339074D01*
X113349426Y-116339074D01*
X113342376Y-116339031D01*
X113335599Y-116340968D01*
X113335598Y-116340968D01*
X113211309Y-116376490D01*
X113211307Y-116376491D01*
X113204529Y-116378428D01*
X113083280Y-116454930D01*
X113078613Y-116460214D01*
X113078611Y-116460216D01*
X112993044Y-116557103D01*
X112993042Y-116557105D01*
X112988377Y-116562388D01*
X112927447Y-116692163D01*
X112905391Y-116833823D01*
X112416500Y-116833823D01*
X112416500Y-105192885D01*
X112418402Y-105173572D01*
X112419995Y-105165563D01*
X112419995Y-105165562D01*
X112421897Y-105156000D01*
X112408230Y-105087293D01*
X112400515Y-105048505D01*
X112339624Y-104957376D01*
X112324733Y-104947426D01*
X112309731Y-104935115D01*
X110583885Y-103209269D01*
X110571574Y-103194267D01*
X110567043Y-103187486D01*
X110561624Y-103179376D01*
X110538623Y-103164007D01*
X110538621Y-103164005D01*
X110481575Y-103125888D01*
X110481574Y-103125888D01*
X110470495Y-103118485D01*
X110390133Y-103102500D01*
X110390132Y-103102500D01*
X110363000Y-103097103D01*
X110345429Y-103100598D01*
X110326116Y-103102500D01*
X109694557Y-103102500D01*
X109636366Y-103083593D01*
X109605690Y-103047130D01*
X109596539Y-103028492D01*
X109596538Y-103028490D01*
X109592932Y-103021145D01*
X109510350Y-102938707D01*
X109405518Y-102887464D01*
X109397916Y-102886355D01*
X109397913Y-102886354D01*
X109340763Y-102878017D01*
X109340761Y-102878017D01*
X109337218Y-102877500D01*
X107520782Y-102877500D01*
X107520782Y-102876507D01*
X107465305Y-102862863D01*
X107425827Y-102816118D01*
X107418500Y-102778740D01*
X107418500Y-102707262D01*
X107437407Y-102649071D01*
X107486907Y-102613107D01*
X107520782Y-102608992D01*
X107520782Y-102608500D01*
X109337218Y-102608500D01*
X109340801Y-102607972D01*
X109340808Y-102607972D01*
X109398499Y-102599479D01*
X109398501Y-102599478D01*
X109406112Y-102598358D01*
X109510855Y-102546932D01*
X109511591Y-102548430D01*
X109560692Y-102532855D01*
X109614854Y-102549441D01*
X109631440Y-102560481D01*
X109631442Y-102560482D01*
X109637313Y-102564390D01*
X109715661Y-102588867D01*
X109767425Y-102605039D01*
X109767426Y-102605039D01*
X109774157Y-102607142D01*
X109845828Y-102608456D01*
X109910445Y-102609641D01*
X109910447Y-102609641D01*
X109917499Y-102609770D01*
X109924302Y-102607915D01*
X109924304Y-102607915D01*
X110019633Y-102581925D01*
X110055817Y-102572060D01*
X110177991Y-102497045D01*
X110259110Y-102407426D01*
X110269468Y-102395982D01*
X110274200Y-102390754D01*
X110336710Y-102261733D01*
X110340673Y-102238182D01*
X110359862Y-102124124D01*
X110359862Y-102124120D01*
X110360496Y-102120354D01*
X110360647Y-102108000D01*
X110340323Y-101966082D01*
X110280984Y-101835572D01*
X110203683Y-101745860D01*
X110192005Y-101732307D01*
X110192004Y-101732306D01*
X110187400Y-101726963D01*
X110067095Y-101648985D01*
X109929739Y-101607907D01*
X109846497Y-101607398D01*
X109793427Y-101607074D01*
X109793426Y-101607074D01*
X109786376Y-101607031D01*
X109779599Y-101608968D01*
X109779598Y-101608968D01*
X109655309Y-101644490D01*
X109655307Y-101644491D01*
X109648529Y-101646428D01*
X109638394Y-101652823D01*
X109613615Y-101668457D01*
X109554312Y-101683518D01*
X109510711Y-101667969D01*
X109510350Y-101668707D01*
X109503791Y-101665501D01*
X109503792Y-101665501D01*
X109502999Y-101665114D01*
X109502998Y-101665113D01*
X109456583Y-101642425D01*
X109405518Y-101617464D01*
X109397916Y-101616355D01*
X109397913Y-101616354D01*
X109340763Y-101608017D01*
X109340761Y-101608017D01*
X109337218Y-101607500D01*
X107520782Y-101607500D01*
X107520782Y-101606507D01*
X107465305Y-101592863D01*
X107425827Y-101546118D01*
X107418500Y-101508740D01*
X107418500Y-101437262D01*
X107437407Y-101379071D01*
X107486907Y-101343107D01*
X107520782Y-101338992D01*
X107520782Y-101338500D01*
X109337218Y-101338500D01*
X109340801Y-101337972D01*
X109340808Y-101337972D01*
X109398499Y-101329479D01*
X109398501Y-101329478D01*
X109406112Y-101328358D01*
X109510855Y-101276932D01*
X109511591Y-101278430D01*
X109560692Y-101262855D01*
X109614854Y-101279441D01*
X109631440Y-101290481D01*
X109631442Y-101290482D01*
X109637313Y-101294390D01*
X109735186Y-101324967D01*
X109767425Y-101335039D01*
X109767426Y-101335039D01*
X109774157Y-101337142D01*
X109845828Y-101338456D01*
X109910445Y-101339641D01*
X109910447Y-101339641D01*
X109917499Y-101339770D01*
X109924302Y-101337915D01*
X109924304Y-101337915D01*
X110019633Y-101311925D01*
X110055817Y-101302060D01*
X110177991Y-101227045D01*
X110185403Y-101218857D01*
X110269468Y-101125982D01*
X110274200Y-101120754D01*
X110336710Y-100991733D01*
X110343126Y-100953601D01*
X110359862Y-100854124D01*
X110359862Y-100854120D01*
X110360496Y-100850354D01*
X110360647Y-100838000D01*
X110340323Y-100696082D01*
X110318543Y-100648180D01*
X110283905Y-100571996D01*
X110283904Y-100571995D01*
X110280984Y-100565572D01*
X110203683Y-100475860D01*
X110192005Y-100462307D01*
X110192002Y-100462304D01*
X110187400Y-100456963D01*
X110067095Y-100378985D01*
X109929739Y-100337907D01*
X109846497Y-100337398D01*
X109793427Y-100337074D01*
X109793426Y-100337074D01*
X109786376Y-100337031D01*
X109779599Y-100338968D01*
X109779598Y-100338968D01*
X109655309Y-100374490D01*
X109655307Y-100374491D01*
X109648529Y-100376428D01*
X109638394Y-100382823D01*
X109613615Y-100398457D01*
X109554312Y-100413518D01*
X109510711Y-100397969D01*
X109510350Y-100398707D01*
X109503791Y-100395501D01*
X109503792Y-100395501D01*
X109502999Y-100395114D01*
X109502998Y-100395113D01*
X109456583Y-100372425D01*
X109405518Y-100347464D01*
X109397916Y-100346355D01*
X109397913Y-100346354D01*
X109340763Y-100338017D01*
X109340761Y-100338017D01*
X109337218Y-100337500D01*
X107520782Y-100337500D01*
X107520782Y-100336507D01*
X107465305Y-100322863D01*
X107425827Y-100276118D01*
X107418500Y-100238740D01*
X107418500Y-100167262D01*
X107437407Y-100109071D01*
X107486907Y-100073107D01*
X107520782Y-100068992D01*
X107520782Y-100068500D01*
X109337218Y-100068500D01*
X109340801Y-100067972D01*
X109340808Y-100067972D01*
X109398499Y-100059479D01*
X109398501Y-100059478D01*
X109406112Y-100058358D01*
X109427462Y-100047876D01*
X109510855Y-100006932D01*
X109511591Y-100008430D01*
X109560692Y-99992855D01*
X109614854Y-100009441D01*
X109631440Y-100020481D01*
X109631442Y-100020482D01*
X109637313Y-100024390D01*
X109712489Y-100047876D01*
X109767425Y-100065039D01*
X109767426Y-100065039D01*
X109774157Y-100067142D01*
X109845828Y-100068456D01*
X109910445Y-100069641D01*
X109910447Y-100069641D01*
X109917499Y-100069770D01*
X109924302Y-100067915D01*
X109924304Y-100067915D01*
X110031183Y-100038776D01*
X110055817Y-100032060D01*
X110177991Y-99957045D01*
X110185403Y-99948857D01*
X110269468Y-99855982D01*
X110274200Y-99850754D01*
X110336710Y-99721733D01*
X110339938Y-99702550D01*
X110359862Y-99584124D01*
X110359862Y-99584120D01*
X110360496Y-99580354D01*
X110360647Y-99568000D01*
X110340323Y-99426082D01*
X110305618Y-99349752D01*
X110283905Y-99301996D01*
X110283904Y-99301995D01*
X110280984Y-99295572D01*
X110203683Y-99205860D01*
X110192005Y-99192307D01*
X110192002Y-99192304D01*
X110187400Y-99186963D01*
X110067095Y-99108985D01*
X109929739Y-99067907D01*
X109846497Y-99067398D01*
X109793427Y-99067074D01*
X109793426Y-99067074D01*
X109786376Y-99067031D01*
X109779599Y-99068968D01*
X109779598Y-99068968D01*
X109655309Y-99104490D01*
X109655307Y-99104491D01*
X109648529Y-99106428D01*
X109638394Y-99112823D01*
X109613615Y-99128457D01*
X109554312Y-99143518D01*
X109510711Y-99127969D01*
X109510350Y-99128707D01*
X109503791Y-99125501D01*
X109503792Y-99125501D01*
X109502999Y-99125114D01*
X109502998Y-99125113D01*
X109443999Y-99096274D01*
X109405518Y-99077464D01*
X109397916Y-99076355D01*
X109397913Y-99076354D01*
X109340763Y-99068017D01*
X109340761Y-99068017D01*
X109337218Y-99067500D01*
X107520782Y-99067500D01*
X107517199Y-99068028D01*
X107517192Y-99068028D01*
X107459501Y-99076521D01*
X107459499Y-99076522D01*
X107451888Y-99077642D01*
X107347145Y-99129068D01*
X107264707Y-99211650D01*
X107213464Y-99316482D01*
X107212355Y-99324084D01*
X107212354Y-99324087D01*
X107208610Y-99349752D01*
X107203500Y-99384782D01*
X107203500Y-99495744D01*
X107184593Y-99553935D01*
X107135093Y-99589899D01*
X107073907Y-99589899D01*
X107034496Y-99565748D01*
X106847496Y-99378748D01*
X106819719Y-99324231D01*
X106818500Y-99308744D01*
X106818500Y-98672166D01*
X106815519Y-98640631D01*
X106770634Y-98512816D01*
X106747296Y-98481218D01*
X107203500Y-98481218D01*
X107204028Y-98484801D01*
X107204028Y-98484808D01*
X107209179Y-98519797D01*
X107213642Y-98550112D01*
X107217033Y-98557018D01*
X107217033Y-98557019D01*
X107221051Y-98565203D01*
X107265068Y-98654855D01*
X107347650Y-98737293D01*
X107452482Y-98788536D01*
X107460084Y-98789645D01*
X107460087Y-98789646D01*
X107517237Y-98797983D01*
X107517239Y-98797983D01*
X107520782Y-98798500D01*
X109337218Y-98798500D01*
X109340801Y-98797972D01*
X109340808Y-98797972D01*
X109398499Y-98789479D01*
X109398501Y-98789478D01*
X109406112Y-98788358D01*
X109510855Y-98736932D01*
X109511591Y-98738430D01*
X109560692Y-98722855D01*
X109614854Y-98739441D01*
X109631440Y-98750481D01*
X109631442Y-98750482D01*
X109637313Y-98754390D01*
X109735186Y-98784967D01*
X109767425Y-98795039D01*
X109767426Y-98795039D01*
X109774157Y-98797142D01*
X109845828Y-98798456D01*
X109910445Y-98799641D01*
X109910447Y-98799641D01*
X109917499Y-98799770D01*
X109924302Y-98797915D01*
X109924304Y-98797915D01*
X109999503Y-98777413D01*
X110055817Y-98762060D01*
X110177991Y-98687045D01*
X110185403Y-98678857D01*
X110269468Y-98585982D01*
X110274200Y-98580754D01*
X110336710Y-98451733D01*
X110339605Y-98434530D01*
X110359862Y-98314124D01*
X110359862Y-98314120D01*
X110360496Y-98310354D01*
X110360647Y-98298000D01*
X110340323Y-98156082D01*
X110293949Y-98054087D01*
X110283905Y-98031996D01*
X110283904Y-98031995D01*
X110280984Y-98025572D01*
X110187400Y-97916963D01*
X110067095Y-97838985D01*
X109929739Y-97797907D01*
X109846497Y-97797398D01*
X109793427Y-97797074D01*
X109793426Y-97797074D01*
X109786376Y-97797031D01*
X109779599Y-97798968D01*
X109779598Y-97798968D01*
X109655309Y-97834490D01*
X109655307Y-97834491D01*
X109648529Y-97836428D01*
X109624171Y-97851797D01*
X109613615Y-97858457D01*
X109554312Y-97873518D01*
X109510711Y-97857969D01*
X109510350Y-97858707D01*
X109503791Y-97855501D01*
X109503792Y-97855501D01*
X109502999Y-97855114D01*
X109502998Y-97855113D01*
X109422639Y-97815833D01*
X109405518Y-97807464D01*
X109397916Y-97806355D01*
X109397913Y-97806354D01*
X109340763Y-97798017D01*
X109340761Y-97798017D01*
X109337218Y-97797500D01*
X107520782Y-97797500D01*
X107517199Y-97798028D01*
X107517192Y-97798028D01*
X107459501Y-97806521D01*
X107459499Y-97806522D01*
X107451888Y-97807642D01*
X107444982Y-97811033D01*
X107444981Y-97811033D01*
X107435205Y-97815833D01*
X107347145Y-97859068D01*
X107264707Y-97941650D01*
X107213464Y-98046482D01*
X107212355Y-98054084D01*
X107212354Y-98054087D01*
X107204024Y-98111192D01*
X107203500Y-98114782D01*
X107203500Y-98481218D01*
X106747296Y-98481218D01*
X106744650Y-98477636D01*
X106694550Y-98409807D01*
X106690150Y-98403850D01*
X106581184Y-98323366D01*
X106453369Y-98278481D01*
X106447362Y-98277913D01*
X106447361Y-98277913D01*
X106441280Y-98277338D01*
X106433184Y-98276573D01*
X106377031Y-98252273D01*
X106345884Y-98199609D01*
X106343500Y-98178012D01*
X106343500Y-97909988D01*
X106362407Y-97851797D01*
X106411907Y-97815833D01*
X106433183Y-97811427D01*
X106441280Y-97810662D01*
X106447361Y-97810087D01*
X106447362Y-97810087D01*
X106453369Y-97809519D01*
X106581184Y-97764634D01*
X106690150Y-97684150D01*
X106770634Y-97575184D01*
X106790119Y-97519698D01*
X106827239Y-97471059D01*
X106883527Y-97453500D01*
X107298936Y-97453500D01*
X107346889Y-97468849D01*
X107347650Y-97467293D01*
X107452482Y-97518536D01*
X107460084Y-97519645D01*
X107460087Y-97519646D01*
X107517237Y-97527983D01*
X107517239Y-97527983D01*
X107520782Y-97528500D01*
X109337218Y-97528500D01*
X109340801Y-97527972D01*
X109340808Y-97527972D01*
X109398499Y-97519479D01*
X109398501Y-97519478D01*
X109406112Y-97518358D01*
X109510855Y-97466932D01*
X109593293Y-97384350D01*
X109644536Y-97279518D01*
X109645645Y-97271916D01*
X109645646Y-97271913D01*
X109653983Y-97214763D01*
X109653983Y-97214761D01*
X109654500Y-97211218D01*
X109654500Y-96844782D01*
X109648075Y-96801132D01*
X109645479Y-96783501D01*
X109645478Y-96783499D01*
X109644358Y-96775888D01*
X109636039Y-96758943D01*
X109596538Y-96678490D01*
X109592932Y-96671145D01*
X109582312Y-96660543D01*
X109520033Y-96598373D01*
X109510350Y-96588707D01*
X109405518Y-96537464D01*
X109397916Y-96536355D01*
X109397913Y-96536354D01*
X109340763Y-96528017D01*
X109340761Y-96528017D01*
X109337218Y-96527500D01*
X109037256Y-96527500D01*
X108979065Y-96508593D01*
X108943101Y-96459093D01*
X108943101Y-96397907D01*
X108967252Y-96358496D01*
X109568528Y-95757220D01*
X109580388Y-95733944D01*
X109588494Y-95720715D01*
X109603849Y-95699581D01*
X109611919Y-95674744D01*
X109617860Y-95660402D01*
X109629719Y-95637126D01*
X109633804Y-95611335D01*
X109637430Y-95596233D01*
X109643093Y-95578804D01*
X109643094Y-95578798D01*
X109645500Y-95571393D01*
X109645500Y-94875500D01*
X109664407Y-94817309D01*
X109713907Y-94781345D01*
X109744500Y-94776500D01*
X110089748Y-94776500D01*
X110115995Y-94771279D01*
X110138666Y-94766770D01*
X110138668Y-94766769D01*
X110148231Y-94764867D01*
X110214552Y-94720552D01*
X110258867Y-94654231D01*
X110270500Y-94595748D01*
X110270500Y-93711262D01*
X110704520Y-93711262D01*
X110704925Y-93716082D01*
X110720727Y-93904259D01*
X110721759Y-93916553D01*
X110723092Y-93921201D01*
X110723092Y-93921202D01*
X110762913Y-94060073D01*
X110778544Y-94114586D01*
X110872712Y-94297818D01*
X111000677Y-94459270D01*
X111004357Y-94462402D01*
X111004359Y-94462404D01*
X111061844Y-94511327D01*
X111157564Y-94592791D01*
X111161787Y-94595151D01*
X111161791Y-94595154D01*
X111201342Y-94617258D01*
X111337398Y-94693297D01*
X111341996Y-94694791D01*
X111528724Y-94755463D01*
X111528726Y-94755464D01*
X111533329Y-94756959D01*
X111737894Y-94781351D01*
X111742716Y-94780980D01*
X111742719Y-94780980D01*
X111813259Y-94775552D01*
X111943300Y-94765546D01*
X112141725Y-94710145D01*
X112146038Y-94707966D01*
X112146044Y-94707964D01*
X112321289Y-94619441D01*
X112321291Y-94619440D01*
X112325610Y-94617258D01*
X112336080Y-94609078D01*
X112484135Y-94493406D01*
X112484139Y-94493402D01*
X112487951Y-94490424D01*
X112514843Y-94459270D01*
X112580557Y-94383138D01*
X112632893Y-94351442D01*
X112693864Y-94356561D01*
X112740181Y-94396541D01*
X112754500Y-94447826D01*
X112754500Y-96237876D01*
X112735593Y-96296067D01*
X112725504Y-96307880D01*
X112480269Y-96553115D01*
X112465267Y-96565426D01*
X112450376Y-96575376D01*
X112435007Y-96598377D01*
X112435006Y-96598378D01*
X112420857Y-96619554D01*
X112389485Y-96666505D01*
X112387583Y-96676068D01*
X112387582Y-96676070D01*
X112387101Y-96678490D01*
X112379637Y-96716015D01*
X112368103Y-96774000D01*
X112370005Y-96783561D01*
X112371598Y-96791569D01*
X112373500Y-96810884D01*
X112373500Y-100801116D01*
X112371598Y-100820429D01*
X112368103Y-100838000D01*
X112373500Y-100865132D01*
X112373500Y-100865133D01*
X112389485Y-100945495D01*
X112401385Y-100963304D01*
X112420380Y-100991731D01*
X112420381Y-100991733D01*
X112440424Y-101021729D01*
X112450376Y-101036624D01*
X112458486Y-101042043D01*
X112465267Y-101046574D01*
X112480269Y-101058885D01*
X113698112Y-102276728D01*
X113710422Y-102291729D01*
X113714957Y-102298516D01*
X113714961Y-102298520D01*
X113720376Y-102306624D01*
X113728480Y-102312039D01*
X113728482Y-102312041D01*
X113743377Y-102321993D01*
X113743378Y-102321994D01*
X113811505Y-102367515D01*
X113919000Y-102388897D01*
X113936571Y-102385402D01*
X113955884Y-102383500D01*
X116463443Y-102383500D01*
X116521634Y-102402407D01*
X116552310Y-102438870D01*
X116565068Y-102464855D01*
X116647650Y-102547293D01*
X116752482Y-102598536D01*
X116760084Y-102599645D01*
X116760087Y-102599646D01*
X116817237Y-102607983D01*
X116817239Y-102607983D01*
X116820782Y-102608500D01*
X118637218Y-102608500D01*
X118640801Y-102607972D01*
X118640808Y-102607972D01*
X118698499Y-102599479D01*
X118698501Y-102599478D01*
X118706112Y-102598358D01*
X118725443Y-102588867D01*
X118803507Y-102550540D01*
X118803508Y-102550539D01*
X118810855Y-102546932D01*
X118810976Y-102547178D01*
X118864318Y-102530255D01*
X118922376Y-102549567D01*
X118933633Y-102559249D01*
X119075504Y-102701120D01*
X119103281Y-102755637D01*
X119104500Y-102771124D01*
X119104500Y-103025788D01*
X119085593Y-103083979D01*
X119036093Y-103119943D01*
X118974907Y-103119943D01*
X118925407Y-103083979D01*
X118916633Y-103069419D01*
X118896538Y-103028490D01*
X118892932Y-103021145D01*
X118810350Y-102938707D01*
X118705518Y-102887464D01*
X118697916Y-102886355D01*
X118697913Y-102886354D01*
X118640763Y-102878017D01*
X118640761Y-102878017D01*
X118637218Y-102877500D01*
X116820782Y-102877500D01*
X116817199Y-102878028D01*
X116817192Y-102878028D01*
X116759501Y-102886521D01*
X116759499Y-102886522D01*
X116751888Y-102887642D01*
X116647145Y-102939068D01*
X116641364Y-102944859D01*
X116568703Y-103017647D01*
X116514210Y-103045473D01*
X116453770Y-103035954D01*
X116423640Y-103012328D01*
X116410400Y-102996963D01*
X116290095Y-102918985D01*
X116152739Y-102877907D01*
X116069497Y-102877398D01*
X116016427Y-102877074D01*
X116016426Y-102877074D01*
X116009376Y-102877031D01*
X116002599Y-102878968D01*
X116002598Y-102878968D01*
X115878309Y-102914490D01*
X115878307Y-102914491D01*
X115871529Y-102916428D01*
X115750280Y-102992930D01*
X115745613Y-102998214D01*
X115745611Y-102998216D01*
X115660044Y-103095103D01*
X115660042Y-103095105D01*
X115655377Y-103100388D01*
X115594447Y-103230163D01*
X115572391Y-103371823D01*
X115590980Y-103513979D01*
X115593821Y-103520435D01*
X115593821Y-103520436D01*
X115611766Y-103561218D01*
X115648720Y-103645203D01*
X115680068Y-103682496D01*
X115736431Y-103749549D01*
X115736434Y-103749551D01*
X115740970Y-103754948D01*
X115860313Y-103834390D01*
X115958186Y-103864967D01*
X115990425Y-103875039D01*
X115990426Y-103875039D01*
X115997157Y-103877142D01*
X116068828Y-103878456D01*
X116133445Y-103879641D01*
X116133447Y-103879641D01*
X116140499Y-103879770D01*
X116147302Y-103877915D01*
X116147304Y-103877915D01*
X116242633Y-103851925D01*
X116278817Y-103842060D01*
X116400991Y-103767045D01*
X116405729Y-103761811D01*
X116424415Y-103741167D01*
X116477482Y-103710712D01*
X116538316Y-103717266D01*
X116567755Y-103737537D01*
X116647650Y-103817293D01*
X116752482Y-103868536D01*
X116760084Y-103869645D01*
X116760087Y-103869646D01*
X116817237Y-103877983D01*
X116817239Y-103877983D01*
X116820782Y-103878500D01*
X118637218Y-103878500D01*
X118640801Y-103877972D01*
X118640808Y-103877972D01*
X118698499Y-103869479D01*
X118698501Y-103869478D01*
X118706112Y-103868358D01*
X118810855Y-103816932D01*
X118893293Y-103734350D01*
X118916557Y-103686757D01*
X118959098Y-103642781D01*
X119019364Y-103632209D01*
X119074333Y-103659078D01*
X119103011Y-103713127D01*
X119104500Y-103730233D01*
X119104500Y-104295788D01*
X119085593Y-104353979D01*
X119036093Y-104389943D01*
X118974907Y-104389943D01*
X118925407Y-104353979D01*
X118916633Y-104339419D01*
X118896538Y-104298490D01*
X118892932Y-104291145D01*
X118810350Y-104208707D01*
X118705518Y-104157464D01*
X118697916Y-104156355D01*
X118697913Y-104156354D01*
X118640763Y-104148017D01*
X118640761Y-104148017D01*
X118637218Y-104147500D01*
X116820782Y-104147500D01*
X116817199Y-104148028D01*
X116817192Y-104148028D01*
X116759501Y-104156521D01*
X116759499Y-104156522D01*
X116751888Y-104157642D01*
X116647145Y-104209068D01*
X116564707Y-104291650D01*
X116561115Y-104298999D01*
X116561112Y-104299003D01*
X116552326Y-104316977D01*
X116509785Y-104360953D01*
X116463384Y-104372500D01*
X115911715Y-104372500D01*
X115853524Y-104353593D01*
X115836719Y-104338127D01*
X115775400Y-104266963D01*
X115655095Y-104188985D01*
X115517739Y-104147907D01*
X115434497Y-104147398D01*
X115381427Y-104147074D01*
X115381426Y-104147074D01*
X115374376Y-104147031D01*
X115367599Y-104148968D01*
X115367598Y-104148968D01*
X115243309Y-104184490D01*
X115243307Y-104184491D01*
X115236529Y-104186428D01*
X115115280Y-104262930D01*
X115110613Y-104268214D01*
X115110611Y-104268216D01*
X115025044Y-104365103D01*
X115025042Y-104365105D01*
X115020377Y-104370388D01*
X114959447Y-104500163D01*
X114937391Y-104641823D01*
X114955980Y-104783979D01*
X114958821Y-104790435D01*
X114958821Y-104790436D01*
X115000058Y-104884153D01*
X115013720Y-104915203D01*
X115040806Y-104947426D01*
X115101431Y-105019549D01*
X115101434Y-105019551D01*
X115105970Y-105024948D01*
X115111841Y-105028856D01*
X115111842Y-105028857D01*
X115129689Y-105040737D01*
X115225313Y-105104390D01*
X115323186Y-105134967D01*
X115355425Y-105145039D01*
X115355426Y-105145039D01*
X115362157Y-105147142D01*
X115433828Y-105148456D01*
X115498445Y-105149641D01*
X115498447Y-105149641D01*
X115505499Y-105149770D01*
X115512302Y-105147915D01*
X115512304Y-105147915D01*
X115619256Y-105118756D01*
X115643817Y-105112060D01*
X115765991Y-105037045D01*
X115770726Y-105031814D01*
X115839291Y-104956064D01*
X115892359Y-104925610D01*
X115912689Y-104923500D01*
X116463443Y-104923500D01*
X116521634Y-104942407D01*
X116552310Y-104978870D01*
X116565068Y-105004855D01*
X116647650Y-105087293D01*
X116752482Y-105138536D01*
X116760084Y-105139645D01*
X116760087Y-105139646D01*
X116817237Y-105147983D01*
X116817239Y-105147983D01*
X116820782Y-105148500D01*
X118637218Y-105148500D01*
X118640801Y-105147972D01*
X118640808Y-105147972D01*
X118698499Y-105139479D01*
X118698501Y-105139478D01*
X118706112Y-105138358D01*
X118810855Y-105086932D01*
X118893293Y-105004350D01*
X118916557Y-104956757D01*
X118959098Y-104912781D01*
X119019364Y-104902209D01*
X119074333Y-104929078D01*
X119103011Y-104983127D01*
X119104500Y-105000233D01*
X119104500Y-105565788D01*
X119085593Y-105623979D01*
X119036093Y-105659943D01*
X118974907Y-105659943D01*
X118925407Y-105623979D01*
X118916633Y-105609419D01*
X118908266Y-105592376D01*
X118892932Y-105561145D01*
X118810350Y-105478707D01*
X118705518Y-105427464D01*
X118697916Y-105426355D01*
X118697913Y-105426354D01*
X118640763Y-105418017D01*
X118640761Y-105418017D01*
X118637218Y-105417500D01*
X116820782Y-105417500D01*
X116817199Y-105418028D01*
X116817192Y-105418028D01*
X116759501Y-105426521D01*
X116759499Y-105426522D01*
X116751888Y-105427642D01*
X116647145Y-105479068D01*
X116641364Y-105484859D01*
X116605607Y-105520679D01*
X116564707Y-105561650D01*
X116561115Y-105568999D01*
X116561112Y-105569003D01*
X116552326Y-105586977D01*
X116509785Y-105630953D01*
X116463384Y-105642500D01*
X115149715Y-105642500D01*
X115091524Y-105623593D01*
X115074719Y-105608127D01*
X115013400Y-105536963D01*
X114893095Y-105458985D01*
X114755739Y-105417907D01*
X114672497Y-105417398D01*
X114619427Y-105417074D01*
X114619426Y-105417074D01*
X114612376Y-105417031D01*
X114605599Y-105418968D01*
X114605598Y-105418968D01*
X114481309Y-105454490D01*
X114481307Y-105454491D01*
X114474529Y-105456428D01*
X114353280Y-105532930D01*
X114348613Y-105538214D01*
X114348611Y-105538216D01*
X114263044Y-105635103D01*
X114263042Y-105635105D01*
X114258377Y-105640388D01*
X114197447Y-105770163D01*
X114196362Y-105777132D01*
X114196361Y-105777135D01*
X114192714Y-105800561D01*
X114175391Y-105911823D01*
X114193980Y-106053979D01*
X114196821Y-106060435D01*
X114196821Y-106060436D01*
X114246245Y-106172759D01*
X114251720Y-106185203D01*
X114283068Y-106222496D01*
X114339431Y-106289549D01*
X114339434Y-106289551D01*
X114343970Y-106294948D01*
X114349841Y-106298856D01*
X114349842Y-106298857D01*
X114362143Y-106307045D01*
X114463313Y-106374390D01*
X114561186Y-106404967D01*
X114593425Y-106415039D01*
X114593426Y-106415039D01*
X114600157Y-106417142D01*
X114671828Y-106418456D01*
X114736445Y-106419641D01*
X114736447Y-106419641D01*
X114743499Y-106419770D01*
X114750302Y-106417915D01*
X114750304Y-106417915D01*
X114863191Y-106387138D01*
X114881817Y-106382060D01*
X115003991Y-106307045D01*
X115008726Y-106301814D01*
X115077291Y-106226064D01*
X115130359Y-106195610D01*
X115150689Y-106193500D01*
X116463443Y-106193500D01*
X116521634Y-106212407D01*
X116552310Y-106248870D01*
X116565068Y-106274855D01*
X116647650Y-106357293D01*
X116752482Y-106408536D01*
X116760084Y-106409645D01*
X116760087Y-106409646D01*
X116817237Y-106417983D01*
X116817239Y-106417983D01*
X116820782Y-106418500D01*
X118637218Y-106418500D01*
X118640801Y-106417972D01*
X118640808Y-106417972D01*
X118698499Y-106409479D01*
X118698501Y-106409478D01*
X118706112Y-106408358D01*
X118810855Y-106356932D01*
X118827761Y-106339997D01*
X118872731Y-106294948D01*
X118893293Y-106274350D01*
X118916557Y-106226757D01*
X118959098Y-106182781D01*
X119019364Y-106172209D01*
X119074333Y-106199078D01*
X119103011Y-106253127D01*
X119104500Y-106270233D01*
X119104500Y-106835788D01*
X119085593Y-106893979D01*
X119036093Y-106929943D01*
X118974907Y-106929943D01*
X118925407Y-106893979D01*
X118916633Y-106879419D01*
X118904136Y-106853964D01*
X118892932Y-106831145D01*
X118877729Y-106815968D01*
X118816140Y-106754487D01*
X118810350Y-106748707D01*
X118705518Y-106697464D01*
X118697916Y-106696355D01*
X118697913Y-106696354D01*
X118640763Y-106688017D01*
X118640761Y-106688017D01*
X118637218Y-106687500D01*
X116820782Y-106687500D01*
X116817199Y-106688028D01*
X116817192Y-106688028D01*
X116759501Y-106696521D01*
X116759499Y-106696522D01*
X116751888Y-106697642D01*
X116744982Y-106701033D01*
X116744981Y-106701033D01*
X116705726Y-106720306D01*
X116647145Y-106749068D01*
X116564707Y-106831650D01*
X116513464Y-106936482D01*
X116512355Y-106944087D01*
X116510793Y-106954791D01*
X116483684Y-107009643D01*
X116429510Y-107038085D01*
X116412830Y-107039500D01*
X114514715Y-107039500D01*
X114456524Y-107020593D01*
X114439719Y-107005127D01*
X114378400Y-106933963D01*
X114258095Y-106855985D01*
X114120739Y-106814907D01*
X114037497Y-106814398D01*
X113984427Y-106814074D01*
X113984426Y-106814074D01*
X113977376Y-106814031D01*
X113970599Y-106815968D01*
X113970598Y-106815968D01*
X113846309Y-106851490D01*
X113846307Y-106851491D01*
X113839529Y-106853428D01*
X113718280Y-106929930D01*
X113713613Y-106935214D01*
X113713611Y-106935216D01*
X113628044Y-107032103D01*
X113628042Y-107032105D01*
X113623377Y-107037388D01*
X113562447Y-107167163D01*
X113561362Y-107174132D01*
X113561361Y-107174135D01*
X113552254Y-107232628D01*
X113540391Y-107308823D01*
X113558980Y-107450979D01*
X113561821Y-107457435D01*
X113561821Y-107457436D01*
X113610848Y-107568857D01*
X113616720Y-107582203D01*
X113651067Y-107623064D01*
X113704431Y-107686549D01*
X113704434Y-107686551D01*
X113708970Y-107691948D01*
X113714841Y-107695856D01*
X113714842Y-107695857D01*
X113727143Y-107704045D01*
X113828313Y-107771390D01*
X113928920Y-107802821D01*
X113958425Y-107812039D01*
X113958426Y-107812039D01*
X113965157Y-107814142D01*
X114036828Y-107815456D01*
X114101445Y-107816641D01*
X114101447Y-107816641D01*
X114108499Y-107816770D01*
X114115302Y-107814915D01*
X114115304Y-107814915D01*
X114220738Y-107786170D01*
X114246817Y-107779060D01*
X114368991Y-107704045D01*
X114373726Y-107698814D01*
X114442291Y-107623064D01*
X114495359Y-107592610D01*
X114515689Y-107590500D01*
X116569836Y-107590500D01*
X116628027Y-107609407D01*
X116639777Y-107619434D01*
X116647650Y-107627293D01*
X116752482Y-107678536D01*
X116760084Y-107679645D01*
X116760087Y-107679646D01*
X116817237Y-107687983D01*
X116817239Y-107687983D01*
X116820782Y-107688500D01*
X118637218Y-107688500D01*
X118640801Y-107687972D01*
X118640808Y-107687972D01*
X118698499Y-107679479D01*
X118698501Y-107679478D01*
X118706112Y-107678358D01*
X118810855Y-107626932D01*
X118828350Y-107609407D01*
X118874929Y-107562746D01*
X118893293Y-107544350D01*
X118916557Y-107496757D01*
X118959098Y-107452781D01*
X119019364Y-107442209D01*
X119074333Y-107469078D01*
X119103011Y-107523127D01*
X119104500Y-107540233D01*
X119104500Y-108105788D01*
X119085593Y-108163979D01*
X119036093Y-108199943D01*
X118974907Y-108199943D01*
X118925407Y-108163979D01*
X118916633Y-108149419D01*
X118896538Y-108108490D01*
X118892932Y-108101145D01*
X118810350Y-108018707D01*
X118705518Y-107967464D01*
X118697916Y-107966355D01*
X118697913Y-107966354D01*
X118640763Y-107958017D01*
X118640761Y-107958017D01*
X118637218Y-107957500D01*
X116820782Y-107957500D01*
X116817199Y-107958028D01*
X116817192Y-107958028D01*
X116759501Y-107966521D01*
X116759499Y-107966522D01*
X116751888Y-107967642D01*
X116647145Y-108019068D01*
X116564707Y-108101650D01*
X116513464Y-108206482D01*
X116512355Y-108214084D01*
X116512354Y-108214087D01*
X116504017Y-108271237D01*
X116503500Y-108274782D01*
X116503500Y-108641218D01*
X116513642Y-108710112D01*
X116517033Y-108717018D01*
X116517033Y-108717019D01*
X116536306Y-108756274D01*
X116565068Y-108814855D01*
X116570859Y-108820636D01*
X116606679Y-108856393D01*
X116647650Y-108897293D01*
X116752482Y-108948536D01*
X116760084Y-108949645D01*
X116760087Y-108949646D01*
X116817237Y-108957983D01*
X116817239Y-108957983D01*
X116820782Y-108958500D01*
X117354500Y-108958500D01*
X117412691Y-108977407D01*
X117448655Y-109026907D01*
X117453500Y-109057500D01*
X117453500Y-109191876D01*
X117434593Y-109250067D01*
X117424504Y-109261880D01*
X117106507Y-109579877D01*
X117051990Y-109607654D01*
X117035898Y-109608871D01*
X116905427Y-109608074D01*
X116905426Y-109608074D01*
X116898376Y-109608031D01*
X116891599Y-109609968D01*
X116891598Y-109609968D01*
X116767309Y-109645490D01*
X116767307Y-109645491D01*
X116760529Y-109647428D01*
X116639280Y-109723930D01*
X116634613Y-109729214D01*
X116634611Y-109729216D01*
X116549044Y-109826103D01*
X116549042Y-109826105D01*
X116544377Y-109831388D01*
X116483447Y-109961163D01*
X116482362Y-109968132D01*
X116482361Y-109968135D01*
X116474396Y-110019294D01*
X116461391Y-110102823D01*
X116462306Y-110109820D01*
X116462306Y-110109821D01*
X116463814Y-110121354D01*
X116479980Y-110244979D01*
X116482821Y-110251435D01*
X116482821Y-110251436D01*
X116518972Y-110333594D01*
X116537720Y-110376203D01*
X116568019Y-110412248D01*
X116625431Y-110480549D01*
X116625434Y-110480551D01*
X116629970Y-110485948D01*
X116635841Y-110489856D01*
X116635842Y-110489857D01*
X116648143Y-110498045D01*
X116749313Y-110565390D01*
X116849920Y-110596821D01*
X116879425Y-110606039D01*
X116879426Y-110606039D01*
X116886157Y-110608142D01*
X116957828Y-110609456D01*
X117022445Y-110610641D01*
X117022447Y-110610641D01*
X117029499Y-110610770D01*
X117036302Y-110608915D01*
X117036304Y-110608915D01*
X117111503Y-110588413D01*
X117167817Y-110573060D01*
X117289991Y-110498045D01*
X117297403Y-110489857D01*
X117381468Y-110396982D01*
X117386200Y-110391754D01*
X117448710Y-110262733D01*
X117452875Y-110237982D01*
X117471862Y-110125124D01*
X117471862Y-110125120D01*
X117472496Y-110121354D01*
X117472647Y-110109000D01*
X117465132Y-110056526D01*
X117475599Y-109996244D01*
X117493128Y-109972488D01*
X117897731Y-109567885D01*
X117912733Y-109555574D01*
X117919514Y-109551043D01*
X117927624Y-109545624D01*
X117957620Y-109500733D01*
X117976613Y-109472307D01*
X117976616Y-109472305D01*
X117976615Y-109472304D01*
X117981871Y-109464438D01*
X117988515Y-109454495D01*
X118004500Y-109374133D01*
X118004500Y-109374132D01*
X118009897Y-109347000D01*
X118006402Y-109329428D01*
X118004500Y-109310115D01*
X118004500Y-109057500D01*
X118023407Y-108999309D01*
X118072907Y-108963345D01*
X118103500Y-108958500D01*
X118637218Y-108958500D01*
X118640801Y-108957972D01*
X118640808Y-108957972D01*
X118698499Y-108949479D01*
X118698501Y-108949478D01*
X118706112Y-108948358D01*
X118810855Y-108896932D01*
X118893293Y-108814350D01*
X118916557Y-108766757D01*
X118959098Y-108722781D01*
X119019364Y-108712209D01*
X119074333Y-108739078D01*
X119103011Y-108793127D01*
X119104500Y-108810233D01*
X119104500Y-109318876D01*
X119085593Y-109377067D01*
X119075504Y-109388880D01*
X117560269Y-110904115D01*
X117545267Y-110916426D01*
X117530376Y-110926376D01*
X117469485Y-111017505D01*
X117462667Y-111051781D01*
X117448103Y-111125000D01*
X117450005Y-111134561D01*
X117451598Y-111142569D01*
X117453500Y-111161884D01*
X117453500Y-112612116D01*
X117451598Y-112631429D01*
X117448103Y-112649000D01*
X117450005Y-112658562D01*
X117453500Y-112676132D01*
X117453500Y-112676133D01*
X117463424Y-112726022D01*
X117469485Y-112756495D01*
X117530376Y-112847624D01*
X117538486Y-112853043D01*
X117545267Y-112857574D01*
X117560269Y-112869885D01*
X118415666Y-113725282D01*
X118443443Y-113779799D01*
X118432416Y-113842980D01*
X118409776Y-113884162D01*
X118347484Y-114080532D01*
X118346944Y-114085344D01*
X118346944Y-114085345D01*
X118345865Y-114094970D01*
X118324520Y-114285262D01*
X118341759Y-114490553D01*
X118398544Y-114688586D01*
X118492712Y-114871818D01*
X118620677Y-115033270D01*
X118624357Y-115036402D01*
X118624359Y-115036404D01*
X118737017Y-115132283D01*
X118777564Y-115166791D01*
X118781787Y-115169151D01*
X118781791Y-115169154D01*
X118821342Y-115191258D01*
X118957398Y-115267297D01*
X118961996Y-115268791D01*
X119148724Y-115329463D01*
X119148726Y-115329464D01*
X119153329Y-115330959D01*
X119357894Y-115355351D01*
X119362716Y-115354980D01*
X119362719Y-115354980D01*
X119430541Y-115349761D01*
X119563300Y-115339546D01*
X119761725Y-115284145D01*
X119766038Y-115281966D01*
X119766044Y-115281964D01*
X119941289Y-115193441D01*
X119941291Y-115193440D01*
X119945610Y-115191258D01*
X119980943Y-115163653D01*
X120104135Y-115067406D01*
X120104139Y-115067402D01*
X120107951Y-115064424D01*
X120242564Y-114908472D01*
X120261231Y-114875613D01*
X120341934Y-114733550D01*
X120341935Y-114733547D01*
X120344323Y-114729344D01*
X120357882Y-114688586D01*
X120407824Y-114538454D01*
X120407824Y-114538452D01*
X120409351Y-114533863D01*
X120435171Y-114329474D01*
X120435583Y-114300000D01*
X120415480Y-114094970D01*
X120355935Y-113897749D01*
X120259218Y-113715849D01*
X120129011Y-113556200D01*
X119970275Y-113424882D01*
X119789055Y-113326897D01*
X119784437Y-113325467D01*
X119784431Y-113325465D01*
X119739548Y-113311571D01*
X119689551Y-113276302D01*
X119669834Y-113218381D01*
X119687927Y-113159932D01*
X119736920Y-113123281D01*
X119768824Y-113117999D01*
X120275411Y-113117999D01*
X120280751Y-113117710D01*
X120334035Y-113111922D01*
X120346020Y-113109073D01*
X120469855Y-113062649D01*
X120482108Y-113055941D01*
X120587256Y-112977137D01*
X120597137Y-112967256D01*
X120675941Y-112862108D01*
X120682649Y-112849855D01*
X120729072Y-112726022D01*
X120731923Y-112714033D01*
X120737711Y-112660748D01*
X120738000Y-112655414D01*
X120738000Y-112029680D01*
X120733878Y-112016995D01*
X120729757Y-112014000D01*
X119225000Y-112014000D01*
X119166809Y-111995093D01*
X119130845Y-111945593D01*
X119126000Y-111915000D01*
X119126000Y-111490320D01*
X119634000Y-111490320D01*
X119638122Y-111503005D01*
X119642243Y-111506000D01*
X120722319Y-111506000D01*
X120735004Y-111501878D01*
X120737999Y-111497757D01*
X120737999Y-110864589D01*
X120737710Y-110859249D01*
X120731922Y-110805965D01*
X120729073Y-110793980D01*
X120682649Y-110670145D01*
X120675941Y-110657892D01*
X120597137Y-110552744D01*
X120587256Y-110542863D01*
X120482108Y-110464059D01*
X120469855Y-110457351D01*
X120346022Y-110410928D01*
X120334033Y-110408077D01*
X120280748Y-110402289D01*
X120275414Y-110402000D01*
X119649680Y-110402000D01*
X119636995Y-110406122D01*
X119634000Y-110410243D01*
X119634000Y-111490320D01*
X119126000Y-111490320D01*
X119126000Y-110417681D01*
X119121878Y-110404996D01*
X119117757Y-110402001D01*
X119080623Y-110402001D01*
X119022432Y-110383094D01*
X118986468Y-110333594D01*
X118986468Y-110272408D01*
X119010619Y-110232997D01*
X119548731Y-109694885D01*
X119563733Y-109682574D01*
X119570518Y-109678041D01*
X119570520Y-109678039D01*
X119578624Y-109672624D01*
X119610985Y-109624194D01*
X119639516Y-109581494D01*
X119660897Y-109474000D01*
X119657402Y-109456428D01*
X119655500Y-109437116D01*
X119655500Y-102652879D01*
X119657402Y-102633566D01*
X119658994Y-102625562D01*
X119660896Y-102616000D01*
X119655500Y-102588871D01*
X119655500Y-102588867D01*
X119639515Y-102508505D01*
X119631858Y-102497045D01*
X119593994Y-102440378D01*
X119593993Y-102440377D01*
X119578624Y-102417376D01*
X119563733Y-102407426D01*
X119548731Y-102395115D01*
X119092885Y-101939269D01*
X119080574Y-101924267D01*
X119076043Y-101917486D01*
X119070624Y-101909376D01*
X119047623Y-101894007D01*
X119047621Y-101894005D01*
X118990575Y-101855888D01*
X118990574Y-101855888D01*
X118987600Y-101853901D01*
X118987601Y-101853901D01*
X118979495Y-101848485D01*
X118969933Y-101846583D01*
X118966611Y-101845207D01*
X118920085Y-101805471D01*
X118915629Y-101797374D01*
X118896538Y-101758490D01*
X118892932Y-101751145D01*
X118810350Y-101668707D01*
X118705518Y-101617464D01*
X118697916Y-101616355D01*
X118697913Y-101616354D01*
X118640763Y-101608017D01*
X118640761Y-101608017D01*
X118637218Y-101607500D01*
X116820782Y-101607500D01*
X116817199Y-101608028D01*
X116817192Y-101608028D01*
X116759501Y-101616521D01*
X116759499Y-101616522D01*
X116751888Y-101617642D01*
X116647145Y-101669068D01*
X116564707Y-101751650D01*
X116561115Y-101758999D01*
X116561112Y-101759003D01*
X116552326Y-101776977D01*
X116509785Y-101820953D01*
X116463384Y-101832500D01*
X114074124Y-101832500D01*
X114015933Y-101813593D01*
X114004120Y-101803504D01*
X112953496Y-100752880D01*
X112925719Y-100698363D01*
X112924500Y-100682876D01*
X112924500Y-96929124D01*
X112943407Y-96870933D01*
X112953496Y-96859120D01*
X113198731Y-96613885D01*
X113213733Y-96601574D01*
X113220514Y-96597043D01*
X113228624Y-96591624D01*
X113241668Y-96572104D01*
X113247086Y-96563995D01*
X113247087Y-96563994D01*
X113284098Y-96508602D01*
X113289515Y-96500495D01*
X113295333Y-96471248D01*
X113298266Y-96456500D01*
X113305500Y-96420133D01*
X113305500Y-96420129D01*
X113308994Y-96402563D01*
X113308994Y-96402562D01*
X113310896Y-96393000D01*
X113307402Y-96375433D01*
X113305500Y-96356121D01*
X113305500Y-94446840D01*
X113324407Y-94388649D01*
X113373907Y-94352685D01*
X113435093Y-94352685D01*
X113482086Y-94385347D01*
X113537671Y-94455479D01*
X113537675Y-94455483D01*
X113540677Y-94459270D01*
X113544357Y-94462402D01*
X113544359Y-94462404D01*
X113601844Y-94511327D01*
X113697564Y-94592791D01*
X113701787Y-94595151D01*
X113701791Y-94595154D01*
X113741342Y-94617258D01*
X113877398Y-94693297D01*
X113936321Y-94712442D01*
X113956092Y-94718866D01*
X114005593Y-94754830D01*
X114024500Y-94813021D01*
X114024500Y-96301376D01*
X114005593Y-96359567D01*
X113995504Y-96371380D01*
X113242269Y-97124615D01*
X113227267Y-97136926D01*
X113212376Y-97146876D01*
X113151485Y-97238005D01*
X113142889Y-97281220D01*
X113130103Y-97345500D01*
X113132005Y-97355061D01*
X113133598Y-97363069D01*
X113135500Y-97382384D01*
X113135500Y-100166116D01*
X113133598Y-100185429D01*
X113130103Y-100203000D01*
X113135500Y-100230132D01*
X113135500Y-100230133D01*
X113151485Y-100310495D01*
X113212376Y-100401624D01*
X113220486Y-100407043D01*
X113227267Y-100411574D01*
X113242269Y-100423885D01*
X113825112Y-101006728D01*
X113837422Y-101021729D01*
X113841957Y-101028516D01*
X113841961Y-101028520D01*
X113847376Y-101036624D01*
X113855480Y-101042039D01*
X113855482Y-101042041D01*
X113870377Y-101051993D01*
X113870378Y-101051994D01*
X113938506Y-101097516D01*
X113948069Y-101099418D01*
X113967751Y-101103333D01*
X114024220Y-101136729D01*
X114065202Y-101185483D01*
X114089970Y-101214948D01*
X114095841Y-101218856D01*
X114095842Y-101218857D01*
X114108143Y-101227045D01*
X114209313Y-101294390D01*
X114307186Y-101324967D01*
X114339425Y-101335039D01*
X114339426Y-101335039D01*
X114346157Y-101337142D01*
X114417828Y-101338456D01*
X114482445Y-101339641D01*
X114482447Y-101339641D01*
X114489499Y-101339770D01*
X114496302Y-101337915D01*
X114496304Y-101337915D01*
X114591633Y-101311925D01*
X114627817Y-101302060D01*
X114749991Y-101227045D01*
X114754726Y-101221814D01*
X114823291Y-101146064D01*
X114876359Y-101115610D01*
X114896689Y-101113500D01*
X116463443Y-101113500D01*
X116521634Y-101132407D01*
X116552310Y-101168870D01*
X116565068Y-101194855D01*
X116647650Y-101277293D01*
X116752482Y-101328536D01*
X116760084Y-101329645D01*
X116760087Y-101329646D01*
X116817237Y-101337983D01*
X116817239Y-101337983D01*
X116820782Y-101338500D01*
X118637218Y-101338500D01*
X118640801Y-101337972D01*
X118640808Y-101337972D01*
X118698499Y-101329479D01*
X118698501Y-101329478D01*
X118706112Y-101328358D01*
X118810855Y-101276932D01*
X118824908Y-101262855D01*
X118872731Y-101214948D01*
X118893293Y-101194350D01*
X118944536Y-101089518D01*
X118945645Y-101081916D01*
X118945646Y-101081913D01*
X118953983Y-101024763D01*
X118953983Y-101024761D01*
X118954500Y-101021218D01*
X118954500Y-100654782D01*
X118944358Y-100585888D01*
X118937538Y-100571996D01*
X118896538Y-100488490D01*
X118892932Y-100481145D01*
X118810350Y-100398707D01*
X118705518Y-100347464D01*
X118697916Y-100346355D01*
X118697913Y-100346354D01*
X118640763Y-100338017D01*
X118640761Y-100338017D01*
X118637218Y-100337500D01*
X116820782Y-100337500D01*
X116817199Y-100338028D01*
X116817192Y-100338028D01*
X116759501Y-100346521D01*
X116759499Y-100346522D01*
X116751888Y-100347642D01*
X116647145Y-100399068D01*
X116564707Y-100481650D01*
X116561115Y-100488999D01*
X116561112Y-100489003D01*
X116552326Y-100506977D01*
X116509785Y-100550953D01*
X116463384Y-100562500D01*
X114895715Y-100562500D01*
X114837524Y-100543593D01*
X114820719Y-100528127D01*
X114759400Y-100456963D01*
X114639095Y-100378985D01*
X114501739Y-100337907D01*
X114418497Y-100337398D01*
X114365427Y-100337074D01*
X114365426Y-100337074D01*
X114358376Y-100337031D01*
X114351599Y-100338968D01*
X114351598Y-100338968D01*
X114227309Y-100374490D01*
X114227307Y-100374491D01*
X114220529Y-100376428D01*
X114214565Y-100380191D01*
X114214561Y-100380193D01*
X114136297Y-100429573D01*
X114076994Y-100444634D01*
X114020165Y-100421961D01*
X114013466Y-100415850D01*
X113715496Y-100117880D01*
X113687719Y-100063363D01*
X113686500Y-100047876D01*
X113686500Y-97500624D01*
X113705407Y-97442433D01*
X113715496Y-97430620D01*
X114468731Y-96677385D01*
X114483733Y-96665074D01*
X114490514Y-96660543D01*
X114498624Y-96655124D01*
X114517229Y-96627281D01*
X114531471Y-96605965D01*
X114559515Y-96563995D01*
X114561680Y-96553115D01*
X114575500Y-96483633D01*
X114575500Y-96483632D01*
X114578995Y-96466062D01*
X114580897Y-96456500D01*
X114577402Y-96438929D01*
X114575500Y-96419616D01*
X114575500Y-94814948D01*
X114594407Y-94756757D01*
X114647878Y-94719595D01*
X114656027Y-94717320D01*
X114681725Y-94710145D01*
X114686038Y-94707966D01*
X114686044Y-94707964D01*
X114861289Y-94619441D01*
X114861291Y-94619440D01*
X114865610Y-94617258D01*
X114876080Y-94609078D01*
X115024135Y-94493406D01*
X115024139Y-94493402D01*
X115027951Y-94490424D01*
X115054843Y-94459270D01*
X115120557Y-94383138D01*
X115172893Y-94351442D01*
X115233864Y-94356561D01*
X115280181Y-94396541D01*
X115294500Y-94447826D01*
X115294500Y-96237876D01*
X115275593Y-96296067D01*
X115265504Y-96307880D01*
X114258269Y-97315115D01*
X114243267Y-97327426D01*
X114228376Y-97337376D01*
X114167485Y-97428505D01*
X114165583Y-97438069D01*
X114159770Y-97467292D01*
X114159125Y-97470538D01*
X114146103Y-97536000D01*
X114148005Y-97545561D01*
X114149598Y-97553569D01*
X114151500Y-97572884D01*
X114151500Y-99095388D01*
X114132593Y-99153579D01*
X114110410Y-99174354D01*
X114110616Y-99174596D01*
X114105525Y-99178928D01*
X114105325Y-99179116D01*
X114099280Y-99182930D01*
X114094609Y-99188219D01*
X114009044Y-99285103D01*
X114009042Y-99285105D01*
X114004377Y-99290388D01*
X114001381Y-99296770D01*
X114001380Y-99296771D01*
X113981847Y-99338374D01*
X113943447Y-99420163D01*
X113921391Y-99561823D01*
X113922306Y-99568820D01*
X113922306Y-99568821D01*
X113923814Y-99580354D01*
X113939980Y-99703979D01*
X113942821Y-99710435D01*
X113942821Y-99710436D01*
X113993891Y-99826500D01*
X113997720Y-99835203D01*
X114032067Y-99876064D01*
X114085431Y-99939549D01*
X114085434Y-99939551D01*
X114089970Y-99944948D01*
X114095841Y-99948856D01*
X114095842Y-99948857D01*
X114108143Y-99957045D01*
X114209313Y-100024390D01*
X114284489Y-100047876D01*
X114339425Y-100065039D01*
X114339426Y-100065039D01*
X114346157Y-100067142D01*
X114417828Y-100068456D01*
X114482445Y-100069641D01*
X114482447Y-100069641D01*
X114489499Y-100069770D01*
X114496302Y-100067915D01*
X114496304Y-100067915D01*
X114603183Y-100038776D01*
X114627817Y-100032060D01*
X114749991Y-99957045D01*
X114754726Y-99951814D01*
X114823291Y-99876064D01*
X114876359Y-99845610D01*
X114896689Y-99843500D01*
X116463443Y-99843500D01*
X116521634Y-99862407D01*
X116552310Y-99898870D01*
X116565068Y-99924855D01*
X116647650Y-100007293D01*
X116752482Y-100058536D01*
X116760084Y-100059645D01*
X116760087Y-100059646D01*
X116817237Y-100067983D01*
X116817239Y-100067983D01*
X116820782Y-100068500D01*
X118637218Y-100068500D01*
X118640801Y-100067972D01*
X118640808Y-100067972D01*
X118698499Y-100059479D01*
X118698501Y-100059478D01*
X118706112Y-100058358D01*
X118727462Y-100047876D01*
X118801231Y-100011657D01*
X118810855Y-100006932D01*
X118824908Y-99992855D01*
X118872731Y-99944948D01*
X118893293Y-99924350D01*
X118944536Y-99819518D01*
X118945645Y-99811916D01*
X118945646Y-99811913D01*
X118953983Y-99754763D01*
X118953983Y-99754761D01*
X118954500Y-99751218D01*
X118954500Y-99384782D01*
X118949344Y-99349752D01*
X118945479Y-99323501D01*
X118945478Y-99323499D01*
X118944358Y-99315888D01*
X118940851Y-99308744D01*
X118896538Y-99218490D01*
X118892932Y-99211145D01*
X118810350Y-99128707D01*
X118705518Y-99077464D01*
X118697916Y-99076355D01*
X118697913Y-99076354D01*
X118640763Y-99068017D01*
X118640761Y-99068017D01*
X118637218Y-99067500D01*
X116820782Y-99067500D01*
X116817199Y-99068028D01*
X116817192Y-99068028D01*
X116759501Y-99076521D01*
X116759499Y-99076522D01*
X116751888Y-99077642D01*
X116647145Y-99129068D01*
X116564707Y-99211650D01*
X116561115Y-99218999D01*
X116561112Y-99219003D01*
X116552326Y-99236977D01*
X116509785Y-99280953D01*
X116463384Y-99292500D01*
X114895715Y-99292500D01*
X114837524Y-99273593D01*
X114820719Y-99258127D01*
X114759400Y-99186963D01*
X114747653Y-99179349D01*
X114709107Y-99131833D01*
X114702500Y-99096274D01*
X114702500Y-98291823D01*
X115445391Y-98291823D01*
X115446306Y-98298820D01*
X115446306Y-98298821D01*
X115463065Y-98426982D01*
X115463980Y-98433979D01*
X115466821Y-98440435D01*
X115466821Y-98440436D01*
X115486326Y-98484763D01*
X115521720Y-98565203D01*
X115556067Y-98606064D01*
X115609431Y-98669549D01*
X115609434Y-98669551D01*
X115613970Y-98674948D01*
X115619841Y-98678856D01*
X115619842Y-98678857D01*
X115632143Y-98687045D01*
X115733313Y-98754390D01*
X115831186Y-98784967D01*
X115863425Y-98795039D01*
X115863426Y-98795039D01*
X115870157Y-98797142D01*
X115941828Y-98798456D01*
X116006445Y-98799641D01*
X116006447Y-98799641D01*
X116013499Y-98799770D01*
X116020302Y-98797915D01*
X116020304Y-98797915D01*
X116095503Y-98777413D01*
X116151817Y-98762060D01*
X116273991Y-98687045D01*
X116278726Y-98681814D01*
X116347291Y-98606064D01*
X116400359Y-98575610D01*
X116420689Y-98573500D01*
X116463443Y-98573500D01*
X116521634Y-98592407D01*
X116552310Y-98628870D01*
X116565068Y-98654855D01*
X116647650Y-98737293D01*
X116752482Y-98788536D01*
X116760084Y-98789645D01*
X116760087Y-98789646D01*
X116817237Y-98797983D01*
X116817239Y-98797983D01*
X116820782Y-98798500D01*
X118637218Y-98798500D01*
X118640801Y-98797972D01*
X118640808Y-98797972D01*
X118698499Y-98789479D01*
X118698501Y-98789478D01*
X118706112Y-98788358D01*
X118810855Y-98736932D01*
X118824908Y-98722855D01*
X118877815Y-98669855D01*
X118893293Y-98654350D01*
X118944536Y-98549518D01*
X118945645Y-98541916D01*
X118945646Y-98541913D01*
X118953983Y-98484763D01*
X118953983Y-98484761D01*
X118954500Y-98481218D01*
X118954500Y-98114782D01*
X118944358Y-98045888D01*
X118937538Y-98031996D01*
X118896538Y-97948490D01*
X118892932Y-97941145D01*
X118876674Y-97924915D01*
X118848849Y-97870422D01*
X118858369Y-97809982D01*
X118896222Y-97769637D01*
X119005140Y-97705224D01*
X119014899Y-97697654D01*
X119123654Y-97588899D01*
X119131224Y-97579140D01*
X119209513Y-97446759D01*
X119214419Y-97435421D01*
X119254618Y-97297057D01*
X119254243Y-97285118D01*
X119244108Y-97282000D01*
X116214687Y-97282000D01*
X116203326Y-97285691D01*
X116203160Y-97296293D01*
X116243581Y-97435421D01*
X116248487Y-97446759D01*
X116326776Y-97579140D01*
X116334346Y-97588899D01*
X116443101Y-97697654D01*
X116452863Y-97705226D01*
X116561832Y-97769669D01*
X116602295Y-97815565D01*
X116608054Y-97876478D01*
X116581502Y-97924825D01*
X116564707Y-97941650D01*
X116561115Y-97948999D01*
X116561112Y-97949003D01*
X116552326Y-97966977D01*
X116509785Y-98010953D01*
X116463384Y-98022500D01*
X116419715Y-98022500D01*
X116361524Y-98003593D01*
X116344719Y-97988127D01*
X116283400Y-97916963D01*
X116163095Y-97838985D01*
X116025739Y-97797907D01*
X115942497Y-97797398D01*
X115889427Y-97797074D01*
X115889426Y-97797074D01*
X115882376Y-97797031D01*
X115875599Y-97798968D01*
X115875598Y-97798968D01*
X115751309Y-97834490D01*
X115751307Y-97834491D01*
X115744529Y-97836428D01*
X115623280Y-97912930D01*
X115618613Y-97918214D01*
X115618611Y-97918216D01*
X115533044Y-98015103D01*
X115533042Y-98015105D01*
X115528377Y-98020388D01*
X115467447Y-98150163D01*
X115445391Y-98291823D01*
X114702500Y-98291823D01*
X114702500Y-97691124D01*
X114721407Y-97632933D01*
X114731496Y-97621120D01*
X115593673Y-96758943D01*
X116203382Y-96758943D01*
X116203757Y-96770882D01*
X116213892Y-96774000D01*
X117459320Y-96774000D01*
X117472005Y-96769878D01*
X117475000Y-96765757D01*
X117475000Y-96758320D01*
X117983000Y-96758320D01*
X117987122Y-96771005D01*
X117991243Y-96774000D01*
X119243313Y-96774000D01*
X119254674Y-96770309D01*
X119254840Y-96759707D01*
X119214419Y-96620579D01*
X119209513Y-96609241D01*
X119131224Y-96476860D01*
X119123654Y-96467101D01*
X119014899Y-96358346D01*
X119005140Y-96350776D01*
X118872759Y-96272487D01*
X118861421Y-96267581D01*
X118712607Y-96224345D01*
X118702712Y-96222538D01*
X118672399Y-96220153D01*
X118668507Y-96220000D01*
X117998680Y-96220000D01*
X117985995Y-96224122D01*
X117983000Y-96228243D01*
X117983000Y-96758320D01*
X117475000Y-96758320D01*
X117475000Y-96235681D01*
X117470878Y-96222996D01*
X117466757Y-96220001D01*
X116789495Y-96220001D01*
X116785598Y-96220154D01*
X116755296Y-96222538D01*
X116745386Y-96224347D01*
X116596579Y-96267581D01*
X116585241Y-96272487D01*
X116452860Y-96350776D01*
X116443101Y-96358346D01*
X116334346Y-96467101D01*
X116326776Y-96476860D01*
X116248487Y-96609241D01*
X116243581Y-96620579D01*
X116203382Y-96758943D01*
X115593673Y-96758943D01*
X115738731Y-96613885D01*
X115753733Y-96601574D01*
X115760514Y-96597043D01*
X115768624Y-96591624D01*
X115787086Y-96563995D01*
X115804813Y-96537464D01*
X115829515Y-96500495D01*
X115832870Y-96483632D01*
X115845500Y-96420133D01*
X115845500Y-96420132D01*
X115848995Y-96402562D01*
X115850897Y-96393000D01*
X115847402Y-96375429D01*
X115845500Y-96356116D01*
X115845500Y-94876320D01*
X115864407Y-94818129D01*
X115913907Y-94782165D01*
X115975093Y-94782165D01*
X116007738Y-94800149D01*
X116055291Y-94839629D01*
X116061921Y-94844270D01*
X116247713Y-94952838D01*
X116255008Y-94956334D01*
X116456038Y-95033099D01*
X116463808Y-95035357D01*
X116570637Y-95057091D01*
X116583846Y-95055586D01*
X116586000Y-95047405D01*
X116586000Y-95046952D01*
X117094000Y-95046952D01*
X117098122Y-95059637D01*
X117099650Y-95060748D01*
X117104884Y-95061238D01*
X117119291Y-95059392D01*
X117127200Y-95057710D01*
X117333304Y-94995876D01*
X117340852Y-94992918D01*
X117534087Y-94898253D01*
X117541046Y-94894104D01*
X117716231Y-94769148D01*
X117722412Y-94763924D01*
X117874831Y-94612035D01*
X117880088Y-94605858D01*
X118005651Y-94431119D01*
X118009823Y-94424176D01*
X118105164Y-94231268D01*
X118108144Y-94223744D01*
X118170701Y-94017843D01*
X118172410Y-94009938D01*
X118174304Y-93995547D01*
X118171873Y-93982431D01*
X118170571Y-93981195D01*
X118165290Y-93980000D01*
X117109680Y-93980000D01*
X117096995Y-93984122D01*
X117094000Y-93988243D01*
X117094000Y-95046952D01*
X116586000Y-95046952D01*
X116586000Y-93571000D01*
X116604907Y-93512809D01*
X116654407Y-93476845D01*
X116685000Y-93472000D01*
X118160779Y-93472000D01*
X118172730Y-93468117D01*
X118173058Y-93458462D01*
X118130946Y-93290809D01*
X118128333Y-93283133D01*
X118042534Y-93085807D01*
X118038701Y-93078660D01*
X117921826Y-92897997D01*
X117916880Y-92891575D01*
X117772065Y-92732426D01*
X117766139Y-92726899D01*
X117597269Y-92593534D01*
X117590525Y-92589054D01*
X117402141Y-92485060D01*
X117394749Y-92481738D01*
X117191920Y-92409912D01*
X117184081Y-92407841D01*
X117114589Y-92395463D01*
X117060616Y-92366644D01*
X117033890Y-92311605D01*
X117044619Y-92251367D01*
X117088706Y-92208941D01*
X117105327Y-92202644D01*
X117149867Y-92190208D01*
X117221725Y-92170145D01*
X117226038Y-92167966D01*
X117226044Y-92167964D01*
X117401289Y-92079441D01*
X117401291Y-92079440D01*
X117405610Y-92077258D01*
X117440943Y-92049653D01*
X117564135Y-91953406D01*
X117564139Y-91953402D01*
X117567951Y-91950424D01*
X117702564Y-91794472D01*
X117721231Y-91761613D01*
X117801934Y-91619550D01*
X117801935Y-91619547D01*
X117804323Y-91615344D01*
X117817882Y-91574586D01*
X117867824Y-91424454D01*
X117867824Y-91424452D01*
X117869351Y-91419863D01*
X117895171Y-91215474D01*
X117895583Y-91186000D01*
X117875480Y-90980970D01*
X117815935Y-90783749D01*
X117719218Y-90601849D01*
X117589011Y-90442200D01*
X117430275Y-90310882D01*
X117249055Y-90212897D01*
X117185855Y-90193333D01*
X117056875Y-90153407D01*
X117056871Y-90153406D01*
X117052254Y-90151977D01*
X117047446Y-90151472D01*
X117047443Y-90151471D01*
X116852185Y-90130949D01*
X116852183Y-90130949D01*
X116847369Y-90130443D01*
X116787354Y-90135905D01*
X116647022Y-90148675D01*
X116647017Y-90148676D01*
X116642203Y-90149114D01*
X116444572Y-90207280D01*
X116440288Y-90209519D01*
X116440287Y-90209520D01*
X116429428Y-90215197D01*
X116262002Y-90302726D01*
X116258231Y-90305758D01*
X116105220Y-90428781D01*
X116105217Y-90428783D01*
X116101447Y-90431815D01*
X116098333Y-90435526D01*
X116098332Y-90435527D01*
X116089585Y-90445952D01*
X115969024Y-90589630D01*
X115966689Y-90593878D01*
X115966688Y-90593879D01*
X115959955Y-90606126D01*
X115869776Y-90770162D01*
X115807484Y-90966532D01*
X115806944Y-90971344D01*
X115806944Y-90971345D01*
X115805865Y-90980970D01*
X115784520Y-91171262D01*
X115801759Y-91376553D01*
X115858544Y-91574586D01*
X115952712Y-91757818D01*
X116080677Y-91919270D01*
X116084357Y-91922402D01*
X116084359Y-91922404D01*
X116197017Y-92018283D01*
X116237564Y-92052791D01*
X116241787Y-92055151D01*
X116241791Y-92055154D01*
X116281342Y-92077258D01*
X116417398Y-92153297D01*
X116571944Y-92203512D01*
X116621444Y-92239476D01*
X116640351Y-92297667D01*
X116621444Y-92355858D01*
X116571944Y-92391822D01*
X116556327Y-92395528D01*
X116528226Y-92399828D01*
X116520341Y-92401707D01*
X116315807Y-92468558D01*
X116308350Y-92471693D01*
X116117479Y-92571054D01*
X116110620Y-92575373D01*
X116003941Y-92655470D01*
X115946055Y-92675289D01*
X115887574Y-92657298D01*
X115850837Y-92608369D01*
X115845500Y-92576301D01*
X115845500Y-92492884D01*
X115847402Y-92473569D01*
X115848995Y-92465561D01*
X115850897Y-92456000D01*
X115829515Y-92348505D01*
X115783994Y-92280378D01*
X115783993Y-92280377D01*
X115768624Y-92257376D01*
X115753733Y-92247426D01*
X115738731Y-92235115D01*
X115264990Y-91761374D01*
X115237213Y-91706857D01*
X115248914Y-91642470D01*
X115261933Y-91619553D01*
X115261937Y-91619544D01*
X115264323Y-91615344D01*
X115277882Y-91574586D01*
X115327824Y-91424454D01*
X115327824Y-91424452D01*
X115329351Y-91419863D01*
X115355171Y-91215474D01*
X115355583Y-91186000D01*
X115335480Y-90980970D01*
X115275935Y-90783749D01*
X115179218Y-90601849D01*
X115049011Y-90442200D01*
X114890275Y-90310882D01*
X114709055Y-90212897D01*
X114645855Y-90193333D01*
X114516875Y-90153407D01*
X114516871Y-90153406D01*
X114512254Y-90151977D01*
X114507446Y-90151472D01*
X114507443Y-90151471D01*
X114312185Y-90130949D01*
X114312183Y-90130949D01*
X114307369Y-90130443D01*
X114247354Y-90135905D01*
X114107022Y-90148675D01*
X114107017Y-90148676D01*
X114102203Y-90149114D01*
X113904572Y-90207280D01*
X113900288Y-90209519D01*
X113900287Y-90209520D01*
X113889428Y-90215197D01*
X113722002Y-90302726D01*
X113718231Y-90305758D01*
X113565220Y-90428781D01*
X113565217Y-90428783D01*
X113561447Y-90431815D01*
X113558333Y-90435526D01*
X113558332Y-90435527D01*
X113549585Y-90445952D01*
X113429024Y-90589630D01*
X113426689Y-90593878D01*
X113426688Y-90593879D01*
X113419955Y-90606126D01*
X113329776Y-90770162D01*
X113267484Y-90966532D01*
X113266944Y-90971344D01*
X113266944Y-90971345D01*
X113265865Y-90980970D01*
X113244520Y-91171262D01*
X113261759Y-91376553D01*
X113318544Y-91574586D01*
X113412712Y-91757818D01*
X113540677Y-91919270D01*
X113544357Y-91922402D01*
X113544359Y-91922404D01*
X113657017Y-92018283D01*
X113697564Y-92052791D01*
X113701787Y-92055151D01*
X113701791Y-92055154D01*
X113741342Y-92077258D01*
X113877398Y-92153297D01*
X113881996Y-92154791D01*
X114068724Y-92215463D01*
X114068726Y-92215464D01*
X114073329Y-92216959D01*
X114277894Y-92241351D01*
X114282716Y-92240980D01*
X114282719Y-92240980D01*
X114350541Y-92235761D01*
X114483300Y-92225546D01*
X114681725Y-92170145D01*
X114759144Y-92131038D01*
X114819608Y-92121677D01*
X114873784Y-92149400D01*
X115265504Y-92541120D01*
X115293281Y-92595637D01*
X115294500Y-92611124D01*
X115294500Y-93005175D01*
X115275593Y-93063366D01*
X115226093Y-93099330D01*
X115164907Y-93099330D01*
X115118781Y-93067746D01*
X115052071Y-92985952D01*
X115049011Y-92982200D01*
X114947227Y-92897997D01*
X114894002Y-92853965D01*
X114894000Y-92853964D01*
X114890275Y-92850882D01*
X114709055Y-92752897D01*
X114625069Y-92726899D01*
X114516875Y-92693407D01*
X114516871Y-92693406D01*
X114512254Y-92691977D01*
X114507446Y-92691472D01*
X114507443Y-92691471D01*
X114312185Y-92670949D01*
X114312183Y-92670949D01*
X114307369Y-92670443D01*
X114254119Y-92675289D01*
X114107022Y-92688675D01*
X114107017Y-92688676D01*
X114102203Y-92689114D01*
X113904572Y-92747280D01*
X113900288Y-92749519D01*
X113900287Y-92749520D01*
X113889428Y-92755197D01*
X113722002Y-92842726D01*
X113718231Y-92845758D01*
X113565220Y-92968781D01*
X113565217Y-92968783D01*
X113561447Y-92971815D01*
X113558333Y-92975526D01*
X113558332Y-92975527D01*
X113525774Y-93014329D01*
X113484627Y-93063366D01*
X113480338Y-93068477D01*
X113428450Y-93100900D01*
X113367414Y-93096632D01*
X113320543Y-93057303D01*
X113305500Y-93004841D01*
X113305500Y-92492884D01*
X113307402Y-92473569D01*
X113308995Y-92465561D01*
X113310897Y-92456000D01*
X113289515Y-92348505D01*
X113243994Y-92280378D01*
X113243993Y-92280377D01*
X113228624Y-92257376D01*
X113213733Y-92247426D01*
X113198731Y-92235115D01*
X112724990Y-91761374D01*
X112697213Y-91706857D01*
X112708914Y-91642470D01*
X112721933Y-91619553D01*
X112721937Y-91619544D01*
X112724323Y-91615344D01*
X112737882Y-91574586D01*
X112787824Y-91424454D01*
X112787824Y-91424452D01*
X112789351Y-91419863D01*
X112815171Y-91215474D01*
X112815583Y-91186000D01*
X112795480Y-90980970D01*
X112735935Y-90783749D01*
X112639218Y-90601849D01*
X112509011Y-90442200D01*
X112350275Y-90310882D01*
X112169055Y-90212897D01*
X112105855Y-90193333D01*
X111976875Y-90153407D01*
X111976871Y-90153406D01*
X111972254Y-90151977D01*
X111967446Y-90151472D01*
X111967443Y-90151471D01*
X111772185Y-90130949D01*
X111772183Y-90130949D01*
X111767369Y-90130443D01*
X111707354Y-90135905D01*
X111567022Y-90148675D01*
X111567017Y-90148676D01*
X111562203Y-90149114D01*
X111364572Y-90207280D01*
X111360288Y-90209519D01*
X111360287Y-90209520D01*
X111349428Y-90215197D01*
X111182002Y-90302726D01*
X111178231Y-90305758D01*
X111025220Y-90428781D01*
X111025217Y-90428783D01*
X111021447Y-90431815D01*
X111018333Y-90435526D01*
X111018332Y-90435527D01*
X111009585Y-90445952D01*
X110889024Y-90589630D01*
X110886689Y-90593878D01*
X110886688Y-90593879D01*
X110879955Y-90606126D01*
X110789776Y-90770162D01*
X110727484Y-90966532D01*
X110726944Y-90971344D01*
X110726944Y-90971345D01*
X110725865Y-90980970D01*
X110704520Y-91171262D01*
X110721759Y-91376553D01*
X110778544Y-91574586D01*
X110872712Y-91757818D01*
X111000677Y-91919270D01*
X111004357Y-91922402D01*
X111004359Y-91922404D01*
X111117017Y-92018283D01*
X111157564Y-92052791D01*
X111161787Y-92055151D01*
X111161791Y-92055154D01*
X111201342Y-92077258D01*
X111337398Y-92153297D01*
X111341996Y-92154791D01*
X111528724Y-92215463D01*
X111528726Y-92215464D01*
X111533329Y-92216959D01*
X111737894Y-92241351D01*
X111742716Y-92240980D01*
X111742719Y-92240980D01*
X111810541Y-92235761D01*
X111943300Y-92225546D01*
X112141725Y-92170145D01*
X112219144Y-92131038D01*
X112279608Y-92121677D01*
X112333784Y-92149400D01*
X112725504Y-92541120D01*
X112753281Y-92595637D01*
X112754500Y-92611124D01*
X112754500Y-93005175D01*
X112735593Y-93063366D01*
X112686093Y-93099330D01*
X112624907Y-93099330D01*
X112578781Y-93067746D01*
X112512071Y-92985952D01*
X112509011Y-92982200D01*
X112407227Y-92897997D01*
X112354002Y-92853965D01*
X112354000Y-92853964D01*
X112350275Y-92850882D01*
X112169055Y-92752897D01*
X112085069Y-92726899D01*
X111976875Y-92693407D01*
X111976871Y-92693406D01*
X111972254Y-92691977D01*
X111967446Y-92691472D01*
X111967443Y-92691471D01*
X111772185Y-92670949D01*
X111772183Y-92670949D01*
X111767369Y-92670443D01*
X111714119Y-92675289D01*
X111567022Y-92688675D01*
X111567017Y-92688676D01*
X111562203Y-92689114D01*
X111364572Y-92747280D01*
X111360288Y-92749519D01*
X111360287Y-92749520D01*
X111349428Y-92755197D01*
X111182002Y-92842726D01*
X111178231Y-92845758D01*
X111025220Y-92968781D01*
X111025217Y-92968783D01*
X111021447Y-92971815D01*
X111018333Y-92975526D01*
X111018332Y-92975527D01*
X110916713Y-93096632D01*
X110889024Y-93129630D01*
X110886689Y-93133878D01*
X110886688Y-93133879D01*
X110855141Y-93191263D01*
X110789776Y-93310162D01*
X110727484Y-93506532D01*
X110704520Y-93711262D01*
X110270500Y-93711262D01*
X110270500Y-92856252D01*
X110258867Y-92797769D01*
X110214552Y-92731448D01*
X110148231Y-92687133D01*
X110138668Y-92685231D01*
X110138666Y-92685230D01*
X110115995Y-92680721D01*
X110089748Y-92675500D01*
X108350252Y-92675500D01*
X108324005Y-92680721D01*
X108301334Y-92685230D01*
X108301332Y-92685231D01*
X108291769Y-92687133D01*
X108225448Y-92731448D01*
X108181133Y-92797769D01*
X108169500Y-92856252D01*
X108169500Y-94595748D01*
X108181133Y-94654231D01*
X108225448Y-94720552D01*
X108291769Y-94764867D01*
X108301332Y-94766769D01*
X108301334Y-94766770D01*
X108324005Y-94771279D01*
X108350252Y-94776500D01*
X108695500Y-94776500D01*
X108753691Y-94795407D01*
X108789655Y-94844907D01*
X108794500Y-94875500D01*
X108794500Y-95286744D01*
X108775593Y-95344935D01*
X108765504Y-95356748D01*
X108080472Y-96041780D01*
X108068612Y-96065056D01*
X108060506Y-96078285D01*
X108045151Y-96099419D01*
X108037082Y-96124253D01*
X108031140Y-96138598D01*
X108019281Y-96161874D01*
X108018062Y-96169570D01*
X108015196Y-96187665D01*
X108011570Y-96202767D01*
X108005907Y-96220196D01*
X108005906Y-96220202D01*
X108003500Y-96227607D01*
X108003500Y-96428500D01*
X107984593Y-96486691D01*
X107935093Y-96522655D01*
X107904500Y-96527500D01*
X107520782Y-96527500D01*
X107517199Y-96528028D01*
X107517192Y-96528028D01*
X107459501Y-96536521D01*
X107459499Y-96536522D01*
X107451888Y-96537642D01*
X107444982Y-96541033D01*
X107444981Y-96541033D01*
X107398215Y-96563994D01*
X107347145Y-96589068D01*
X107346273Y-96587292D01*
X107298906Y-96602500D01*
X106877206Y-96602500D01*
X106819015Y-96583593D01*
X106783798Y-96536302D01*
X106780892Y-96528028D01*
X106770634Y-96498816D01*
X106764812Y-96490933D01*
X106694550Y-96395807D01*
X106690150Y-96389850D01*
X106681469Y-96383438D01*
X106587136Y-96313762D01*
X106587135Y-96313761D01*
X106581184Y-96309366D01*
X106453369Y-96264481D01*
X106447360Y-96263913D01*
X106441468Y-96262620D01*
X106441790Y-96261154D01*
X106392235Y-96239715D01*
X106361085Y-96187053D01*
X106366838Y-96126139D01*
X106407297Y-96080240D01*
X106447482Y-96066978D01*
X106518672Y-96059591D01*
X106529200Y-96057318D01*
X106686277Y-96004914D01*
X106696624Y-96000067D01*
X106837145Y-95913109D01*
X106846098Y-95906013D01*
X106962847Y-95789061D01*
X106969927Y-95780096D01*
X107056641Y-95639420D01*
X107061469Y-95629066D01*
X107113602Y-95471890D01*
X107115855Y-95461379D01*
X107125741Y-95364888D01*
X107126000Y-95359830D01*
X107126000Y-95256680D01*
X107121878Y-95243995D01*
X107117757Y-95241000D01*
X105763000Y-95241000D01*
X105704809Y-95222093D01*
X105668845Y-95172593D01*
X105664000Y-95142000D01*
X105664000Y-94717320D01*
X106172000Y-94717320D01*
X106176122Y-94730005D01*
X106180243Y-94733000D01*
X107110319Y-94733000D01*
X107123004Y-94728878D01*
X107125999Y-94724757D01*
X107125999Y-94614208D01*
X107125733Y-94609078D01*
X107115591Y-94511327D01*
X107113318Y-94500800D01*
X107060914Y-94343723D01*
X107056067Y-94333376D01*
X106969109Y-94192855D01*
X106962013Y-94183902D01*
X106845061Y-94067153D01*
X106836096Y-94060073D01*
X106695420Y-93973359D01*
X106685066Y-93968531D01*
X106527890Y-93916398D01*
X106517379Y-93914145D01*
X106420888Y-93904259D01*
X106415830Y-93904000D01*
X106187680Y-93904000D01*
X106174995Y-93908122D01*
X106172000Y-93912243D01*
X106172000Y-94717320D01*
X105664000Y-94717320D01*
X105664000Y-93919681D01*
X105659878Y-93906996D01*
X105655757Y-93904001D01*
X105420208Y-93904001D01*
X105415078Y-93904267D01*
X105317327Y-93914409D01*
X105306800Y-93916682D01*
X105149723Y-93969086D01*
X105139378Y-93973932D01*
X105126594Y-93981843D01*
X105067162Y-93996385D01*
X105010533Y-93973216D01*
X104978337Y-93921186D01*
X104975500Y-93897657D01*
X104975500Y-91171262D01*
X108164520Y-91171262D01*
X108181759Y-91376553D01*
X108238544Y-91574586D01*
X108332712Y-91757818D01*
X108460677Y-91919270D01*
X108464357Y-91922402D01*
X108464359Y-91922404D01*
X108577017Y-92018283D01*
X108617564Y-92052791D01*
X108621787Y-92055151D01*
X108621791Y-92055154D01*
X108661342Y-92077258D01*
X108797398Y-92153297D01*
X108801996Y-92154791D01*
X108988724Y-92215463D01*
X108988726Y-92215464D01*
X108993329Y-92216959D01*
X109197894Y-92241351D01*
X109202716Y-92240980D01*
X109202719Y-92240980D01*
X109270541Y-92235761D01*
X109403300Y-92225546D01*
X109601725Y-92170145D01*
X109606038Y-92167966D01*
X109606044Y-92167964D01*
X109781289Y-92079441D01*
X109781291Y-92079440D01*
X109785610Y-92077258D01*
X109820943Y-92049653D01*
X109944135Y-91953406D01*
X109944139Y-91953402D01*
X109947951Y-91950424D01*
X110082564Y-91794472D01*
X110101231Y-91761613D01*
X110181934Y-91619550D01*
X110181935Y-91619547D01*
X110184323Y-91615344D01*
X110197882Y-91574586D01*
X110247824Y-91424454D01*
X110247824Y-91424452D01*
X110249351Y-91419863D01*
X110275171Y-91215474D01*
X110275583Y-91186000D01*
X110255480Y-90980970D01*
X110195935Y-90783749D01*
X110099218Y-90601849D01*
X109969011Y-90442200D01*
X109810275Y-90310882D01*
X109629055Y-90212897D01*
X109565855Y-90193333D01*
X109436875Y-90153407D01*
X109436871Y-90153406D01*
X109432254Y-90151977D01*
X109427446Y-90151472D01*
X109427443Y-90151471D01*
X109232185Y-90130949D01*
X109232183Y-90130949D01*
X109227369Y-90130443D01*
X109167354Y-90135905D01*
X109027022Y-90148675D01*
X109027017Y-90148676D01*
X109022203Y-90149114D01*
X108824572Y-90207280D01*
X108820288Y-90209519D01*
X108820287Y-90209520D01*
X108809428Y-90215197D01*
X108642002Y-90302726D01*
X108638231Y-90305758D01*
X108485220Y-90428781D01*
X108485217Y-90428783D01*
X108481447Y-90431815D01*
X108478333Y-90435526D01*
X108478332Y-90435527D01*
X108469585Y-90445952D01*
X108349024Y-90589630D01*
X108346689Y-90593878D01*
X108346688Y-90593879D01*
X108339955Y-90606126D01*
X108249776Y-90770162D01*
X108187484Y-90966532D01*
X108186944Y-90971344D01*
X108186944Y-90971345D01*
X108185865Y-90980970D01*
X108164520Y-91171262D01*
X104975500Y-91171262D01*
X104975500Y-89453500D01*
X104994407Y-89395309D01*
X105043907Y-89359345D01*
X105074500Y-89354500D01*
X120985500Y-89354500D01*
X121043691Y-89373407D01*
G37*
%TD.AperFunction*%
%TD*%
M02*
