%TF.GenerationSoftware,KiCad,Pcbnew,6.0.11+dfsg-1~bpo11+1*%
%TF.CreationDate,2024-05-12T17:16:57+09:00*%
%TF.ProjectId,pcb-devboard,7063622d-6465-4766-926f-6172642e6b69,rev?*%
%TF.SameCoordinates,Original*%
%TF.FileFunction,Legend,Bot*%
%TF.FilePolarity,Positive*%
%FSLAX46Y46*%
G04 Gerber Fmt 4.6, Leading zero omitted, Abs format (unit mm)*
G04 Created by KiCad (PCBNEW 6.0.11+dfsg-1~bpo11+1) date 2024-05-12 17:16:57*
%MOMM*%
%LPD*%
G01*
G04 APERTURE LIST*
%ADD10C,0.150000*%
%ADD11C,0.300000*%
%ADD12C,0.120000*%
G04 APERTURE END LIST*
D10*
X109767619Y-133998690D02*
X109053333Y-133998690D01*
X108910476Y-134046309D01*
X108815238Y-134141547D01*
X108767619Y-134284404D01*
X108767619Y-134379642D01*
X108767619Y-133046309D02*
X108767619Y-133522500D01*
X109767619Y-133522500D01*
X108862857Y-132141547D02*
X108815238Y-132189166D01*
X108767619Y-132332023D01*
X108767619Y-132427261D01*
X108815238Y-132570119D01*
X108910476Y-132665357D01*
X109005714Y-132712976D01*
X109196190Y-132760595D01*
X109339047Y-132760595D01*
X109529523Y-132712976D01*
X109624761Y-132665357D01*
X109720000Y-132570119D01*
X109767619Y-132427261D01*
X109767619Y-132332023D01*
X109720000Y-132189166D01*
X109672380Y-132141547D01*
X109767619Y-131427261D02*
X109053333Y-131427261D01*
X108910476Y-131474880D01*
X108815238Y-131570119D01*
X108767619Y-131712976D01*
X108767619Y-131808214D01*
X108767619Y-130474880D02*
X108767619Y-130951071D01*
X109767619Y-130951071D01*
X108862857Y-129570119D02*
X108815238Y-129617738D01*
X108767619Y-129760595D01*
X108767619Y-129855833D01*
X108815238Y-129998690D01*
X108910476Y-130093928D01*
X109005714Y-130141547D01*
X109196190Y-130189166D01*
X109339047Y-130189166D01*
X109529523Y-130141547D01*
X109624761Y-130093928D01*
X109720000Y-129998690D01*
X109767619Y-129855833D01*
X109767619Y-129760595D01*
X109720000Y-129617738D01*
X109672380Y-129570119D01*
X109767619Y-128855833D02*
X109053333Y-128855833D01*
X108910476Y-128903452D01*
X108815238Y-128998690D01*
X108767619Y-129141547D01*
X108767619Y-129236785D01*
X108767619Y-127903452D02*
X108767619Y-128379642D01*
X109767619Y-128379642D01*
X108862857Y-126998690D02*
X108815238Y-127046309D01*
X108767619Y-127189166D01*
X108767619Y-127284404D01*
X108815238Y-127427261D01*
X108910476Y-127522500D01*
X109005714Y-127570119D01*
X109196190Y-127617738D01*
X109339047Y-127617738D01*
X109529523Y-127570119D01*
X109624761Y-127522500D01*
X109720000Y-127427261D01*
X109767619Y-127284404D01*
X109767619Y-127189166D01*
X109720000Y-127046309D01*
X109672380Y-126998690D01*
X109767619Y-126284404D02*
X109053333Y-126284404D01*
X108910476Y-126332023D01*
X108815238Y-126427261D01*
X108767619Y-126570119D01*
X108767619Y-126665357D01*
X108767619Y-125332023D02*
X108767619Y-125808214D01*
X109767619Y-125808214D01*
X108862857Y-124427261D02*
X108815238Y-124474880D01*
X108767619Y-124617738D01*
X108767619Y-124712976D01*
X108815238Y-124855833D01*
X108910476Y-124951071D01*
X109005714Y-124998690D01*
X109196190Y-125046309D01*
X109339047Y-125046309D01*
X109529523Y-124998690D01*
X109624761Y-124951071D01*
X109720000Y-124855833D01*
X109767619Y-124712976D01*
X109767619Y-124617738D01*
X109720000Y-124474880D01*
X109672380Y-124427261D01*
D11*
X113605428Y-118942571D02*
X112605428Y-118585428D01*
X113605428Y-118228285D01*
X112605428Y-116871142D02*
X112605428Y-117728285D01*
X112605428Y-117299714D02*
X114105428Y-117299714D01*
X113891142Y-117442571D01*
X113748285Y-117585428D01*
X113676857Y-117728285D01*
X112748285Y-116228285D02*
X112676857Y-116156857D01*
X112605428Y-116228285D01*
X112676857Y-116299714D01*
X112748285Y-116228285D01*
X112605428Y-116228285D01*
X112605428Y-114728285D02*
X112605428Y-115585428D01*
X112605428Y-115156857D02*
X114105428Y-115156857D01*
X113891142Y-115299714D01*
X113748285Y-115442571D01*
X113676857Y-115585428D01*
X112605428Y-112942571D02*
X114105428Y-112942571D01*
X113534000Y-112942571D02*
X113605428Y-112799714D01*
X113605428Y-112514000D01*
X113534000Y-112371142D01*
X113462571Y-112299714D01*
X113319714Y-112228285D01*
X112891142Y-112228285D01*
X112748285Y-112299714D01*
X112676857Y-112371142D01*
X112605428Y-112514000D01*
X112605428Y-112799714D01*
X112676857Y-112942571D01*
X113605428Y-111728285D02*
X112605428Y-111371142D01*
X113605428Y-111014000D02*
X112605428Y-111371142D01*
X112248285Y-111514000D01*
X112176857Y-111585428D01*
X112105428Y-111728285D01*
X114105428Y-109514000D02*
X114105428Y-108656857D01*
X112605428Y-109085428D02*
X114105428Y-109085428D01*
X112605428Y-107514000D02*
X113391142Y-107514000D01*
X113534000Y-107585428D01*
X113605428Y-107728285D01*
X113605428Y-108014000D01*
X113534000Y-108156857D01*
X112676857Y-107514000D02*
X112605428Y-107656857D01*
X112605428Y-108014000D01*
X112676857Y-108156857D01*
X112819714Y-108228285D01*
X112962571Y-108228285D01*
X113105428Y-108156857D01*
X113176857Y-108014000D01*
X113176857Y-107656857D01*
X113248285Y-107514000D01*
X112605428Y-106799714D02*
X113605428Y-106799714D01*
X113319714Y-106799714D02*
X113462571Y-106728285D01*
X113534000Y-106656857D01*
X113605428Y-106514000D01*
X113605428Y-106371142D01*
X113605428Y-105871142D02*
X112605428Y-105871142D01*
X113462571Y-105871142D02*
X113534000Y-105799714D01*
X113605428Y-105656857D01*
X113605428Y-105442571D01*
X113534000Y-105299714D01*
X113391142Y-105228285D01*
X112605428Y-105228285D01*
D10*
%TO.C,J2*%
X119713333Y-108882380D02*
X119713333Y-109596666D01*
X119760952Y-109739523D01*
X119856190Y-109834761D01*
X119999047Y-109882380D01*
X120094285Y-109882380D01*
X119284761Y-108977619D02*
X119237142Y-108930000D01*
X119141904Y-108882380D01*
X118903809Y-108882380D01*
X118808571Y-108930000D01*
X118760952Y-108977619D01*
X118713333Y-109072857D01*
X118713333Y-109168095D01*
X118760952Y-109310952D01*
X119332380Y-109882380D01*
X118713333Y-109882380D01*
%TO.C,J3*%
X107013333Y-108882380D02*
X107013333Y-109596666D01*
X107060952Y-109739523D01*
X107156190Y-109834761D01*
X107299047Y-109882380D01*
X107394285Y-109882380D01*
X106632380Y-108882380D02*
X106013333Y-108882380D01*
X106346666Y-109263333D01*
X106203809Y-109263333D01*
X106108571Y-109310952D01*
X106060952Y-109358571D01*
X106013333Y-109453809D01*
X106013333Y-109691904D01*
X106060952Y-109787142D01*
X106108571Y-109834761D01*
X106203809Y-109882380D01*
X106489523Y-109882380D01*
X106584761Y-109834761D01*
X106632380Y-109787142D01*
D12*
%TO.C,J2*%
X120710000Y-113030000D02*
X118050000Y-113030000D01*
X118050000Y-113030000D02*
X118050000Y-135950000D01*
X120710000Y-113030000D02*
X120710000Y-135950000D01*
X120710000Y-110430000D02*
X119380000Y-110430000D01*
X120710000Y-111760000D02*
X120710000Y-110430000D01*
X120710000Y-135950000D02*
X118050000Y-135950000D01*
%TO.C,J3*%
X108010000Y-110430000D02*
X106680000Y-110430000D01*
X108010000Y-111760000D02*
X108010000Y-110430000D01*
X108010000Y-113030000D02*
X108010000Y-135950000D01*
X108010000Y-135950000D02*
X105350000Y-135950000D01*
X108010000Y-113030000D02*
X105350000Y-113030000D01*
X105350000Y-113030000D02*
X105350000Y-135950000D01*
%TD*%
M02*
