%TF.GenerationSoftware,KiCad,Pcbnew,6.0.11+dfsg-1~bpo11+1*%
%TF.CreationDate,2024-04-18T21:43:09+09:00*%
%TF.ProjectId,pcb-devboard,7063622d-6465-4766-926f-6172642e6b69,rev?*%
%TF.SameCoordinates,Original*%
%TF.FileFunction,Legend,Bot*%
%TF.FilePolarity,Positive*%
%FSLAX46Y46*%
G04 Gerber Fmt 4.6, Leading zero omitted, Abs format (unit mm)*
G04 Created by KiCad (PCBNEW 6.0.11+dfsg-1~bpo11+1) date 2024-04-18 21:43:09*
%MOMM*%
%LPD*%
G01*
G04 APERTURE LIST*
%ADD10C,0.300000*%
%ADD11C,0.150000*%
%ADD12C,0.120000*%
G04 APERTURE END LIST*
D10*
X112224428Y-106600142D02*
X113724428Y-106600142D01*
X113153000Y-106600142D02*
X113224428Y-106457285D01*
X113224428Y-106171571D01*
X113153000Y-106028714D01*
X113081571Y-105957285D01*
X112938714Y-105885857D01*
X112510142Y-105885857D01*
X112367285Y-105957285D01*
X112295857Y-106028714D01*
X112224428Y-106171571D01*
X112224428Y-106457285D01*
X112295857Y-106600142D01*
X113224428Y-105385857D02*
X112224428Y-105028714D01*
X113224428Y-104671571D02*
X112224428Y-105028714D01*
X111867285Y-105171571D01*
X111795857Y-105243000D01*
X111724428Y-105385857D01*
X113724428Y-103171571D02*
X113724428Y-102314428D01*
X112224428Y-102743000D02*
X113724428Y-102743000D01*
X112224428Y-101171571D02*
X113010142Y-101171571D01*
X113153000Y-101243000D01*
X113224428Y-101385857D01*
X113224428Y-101671571D01*
X113153000Y-101814428D01*
X112295857Y-101171571D02*
X112224428Y-101314428D01*
X112224428Y-101671571D01*
X112295857Y-101814428D01*
X112438714Y-101885857D01*
X112581571Y-101885857D01*
X112724428Y-101814428D01*
X112795857Y-101671571D01*
X112795857Y-101314428D01*
X112867285Y-101171571D01*
X112224428Y-100457285D02*
X113224428Y-100457285D01*
X112938714Y-100457285D02*
X113081571Y-100385857D01*
X113153000Y-100314428D01*
X113224428Y-100171571D01*
X113224428Y-100028714D01*
X113224428Y-99528714D02*
X112224428Y-99528714D01*
X113081571Y-99528714D02*
X113153000Y-99457285D01*
X113224428Y-99314428D01*
X113224428Y-99100142D01*
X113153000Y-98957285D01*
X113010142Y-98885857D01*
X112224428Y-98885857D01*
D11*
%TO.C,J2*%
X119713333Y-108882380D02*
X119713333Y-109596666D01*
X119760952Y-109739523D01*
X119856190Y-109834761D01*
X119999047Y-109882380D01*
X120094285Y-109882380D01*
X119284761Y-108977619D02*
X119237142Y-108930000D01*
X119141904Y-108882380D01*
X118903809Y-108882380D01*
X118808571Y-108930000D01*
X118760952Y-108977619D01*
X118713333Y-109072857D01*
X118713333Y-109168095D01*
X118760952Y-109310952D01*
X119332380Y-109882380D01*
X118713333Y-109882380D01*
%TO.C,J3*%
X107013333Y-108882380D02*
X107013333Y-109596666D01*
X107060952Y-109739523D01*
X107156190Y-109834761D01*
X107299047Y-109882380D01*
X107394285Y-109882380D01*
X106632380Y-108882380D02*
X106013333Y-108882380D01*
X106346666Y-109263333D01*
X106203809Y-109263333D01*
X106108571Y-109310952D01*
X106060952Y-109358571D01*
X106013333Y-109453809D01*
X106013333Y-109691904D01*
X106060952Y-109787142D01*
X106108571Y-109834761D01*
X106203809Y-109882380D01*
X106489523Y-109882380D01*
X106584761Y-109834761D01*
X106632380Y-109787142D01*
D12*
%TO.C,J2*%
X120710000Y-113030000D02*
X118050000Y-113030000D01*
X118050000Y-113030000D02*
X118050000Y-135950000D01*
X120710000Y-113030000D02*
X120710000Y-135950000D01*
X120710000Y-110430000D02*
X119380000Y-110430000D01*
X120710000Y-111760000D02*
X120710000Y-110430000D01*
X120710000Y-135950000D02*
X118050000Y-135950000D01*
%TO.C,J3*%
X108010000Y-110430000D02*
X106680000Y-110430000D01*
X108010000Y-111760000D02*
X108010000Y-110430000D01*
X108010000Y-113030000D02*
X108010000Y-135950000D01*
X108010000Y-135950000D02*
X105350000Y-135950000D01*
X108010000Y-113030000D02*
X105350000Y-113030000D01*
X105350000Y-113030000D02*
X105350000Y-135950000D01*
%TD*%
M02*
