%TF.GenerationSoftware,KiCad,Pcbnew,6.0.11+dfsg-1~bpo11+1*%
%TF.CreationDate,2023-10-28T20:26:38+09:00*%
%TF.ProjectId,pcb-devboard,7063622d-6465-4766-926f-6172642e6b69,rev?*%
%TF.SameCoordinates,Original*%
%TF.FileFunction,Legend,Bot*%
%TF.FilePolarity,Positive*%
%FSLAX46Y46*%
G04 Gerber Fmt 4.6, Leading zero omitted, Abs format (unit mm)*
G04 Created by KiCad (PCBNEW 6.0.11+dfsg-1~bpo11+1) date 2023-10-28 20:26:38*
%MOMM*%
%LPD*%
G01*
G04 APERTURE LIST*
%ADD10C,0.150000*%
%ADD11C,0.120000*%
G04 APERTURE END LIST*
D10*
%TO.C,J2*%
X142573333Y-116502380D02*
X142573333Y-117216666D01*
X142620952Y-117359523D01*
X142716190Y-117454761D01*
X142859047Y-117502380D01*
X142954285Y-117502380D01*
X142144761Y-116597619D02*
X142097142Y-116550000D01*
X142001904Y-116502380D01*
X141763809Y-116502380D01*
X141668571Y-116550000D01*
X141620952Y-116597619D01*
X141573333Y-116692857D01*
X141573333Y-116788095D01*
X141620952Y-116930952D01*
X142192380Y-117502380D01*
X141573333Y-117502380D01*
%TO.C,J3*%
X150193333Y-116502380D02*
X150193333Y-117216666D01*
X150240952Y-117359523D01*
X150336190Y-117454761D01*
X150479047Y-117502380D01*
X150574285Y-117502380D01*
X149812380Y-116502380D02*
X149193333Y-116502380D01*
X149526666Y-116883333D01*
X149383809Y-116883333D01*
X149288571Y-116930952D01*
X149240952Y-116978571D01*
X149193333Y-117073809D01*
X149193333Y-117311904D01*
X149240952Y-117407142D01*
X149288571Y-117454761D01*
X149383809Y-117502380D01*
X149669523Y-117502380D01*
X149764761Y-117454761D01*
X149812380Y-117407142D01*
D11*
%TO.C,J2*%
X143570000Y-119380000D02*
X143570000Y-118050000D01*
X143570000Y-120650000D02*
X140910000Y-120650000D01*
X143570000Y-120650000D02*
X143570000Y-128330000D01*
X143570000Y-118050000D02*
X142240000Y-118050000D01*
X143570000Y-128330000D02*
X140910000Y-128330000D01*
X140910000Y-120650000D02*
X140910000Y-128330000D01*
%TO.C,J3*%
X151190000Y-119380000D02*
X151190000Y-118050000D01*
X151190000Y-128330000D02*
X148530000Y-128330000D01*
X151190000Y-118050000D02*
X149860000Y-118050000D01*
X151190000Y-120650000D02*
X148530000Y-120650000D01*
X148530000Y-120650000D02*
X148530000Y-128330000D01*
X151190000Y-120650000D02*
X151190000Y-128330000D01*
%TO.C,J1*%
X151190000Y-115630000D02*
X148530000Y-115630000D01*
X151190000Y-110490000D02*
X148530000Y-110490000D01*
X151190000Y-107890000D02*
X149860000Y-107890000D01*
X151190000Y-109220000D02*
X151190000Y-107890000D01*
X148530000Y-110490000D02*
X148530000Y-115630000D01*
X151190000Y-110490000D02*
X151190000Y-115630000D01*
%TD*%
M02*
