%TF.GenerationSoftware,KiCad,Pcbnew,6.0.11+dfsg-1~bpo11+1*%
%TF.CreationDate,2023-10-28T20:26:38+09:00*%
%TF.ProjectId,pcb-devboard,7063622d-6465-4766-926f-6172642e6b69,rev?*%
%TF.SameCoordinates,Original*%
%TF.FileFunction,Legend,Top*%
%TF.FilePolarity,Positive*%
%FSLAX46Y46*%
G04 Gerber Fmt 4.6, Leading zero omitted, Abs format (unit mm)*
G04 Created by KiCad (PCBNEW 6.0.11+dfsg-1~bpo11+1) date 2023-10-28 20:26:38*
%MOMM*%
%LPD*%
G01*
G04 APERTURE LIST*
%ADD10C,0.150000*%
%ADD11C,0.120000*%
G04 APERTURE END LIST*
D10*
X144145000Y-118872000D02*
X144145000Y-119888000D01*
X147447000Y-119380000D02*
X148463000Y-119380000D01*
X143637000Y-119380000D02*
X144653000Y-119380000D01*
X144430714Y-124912380D02*
X143859285Y-124912380D01*
X144145000Y-124912380D02*
X144145000Y-123912380D01*
X144049761Y-124055238D01*
X143954523Y-124150476D01*
X143859285Y-124198095D01*
X146931095Y-108148380D02*
X146931095Y-107148380D01*
X147169190Y-107148380D01*
X147312047Y-107196000D01*
X147407285Y-107291238D01*
X147454904Y-107386476D01*
X147502523Y-107576952D01*
X147502523Y-107719809D01*
X147454904Y-107910285D01*
X147407285Y-108005523D01*
X147312047Y-108100761D01*
X147169190Y-108148380D01*
X146931095Y-108148380D01*
X147621666Y-121372380D02*
X148288333Y-121372380D01*
X147859761Y-122372380D01*
X149621904Y-107862666D02*
X150098095Y-107862666D01*
X149526666Y-108148380D02*
X149860000Y-107148380D01*
X150193333Y-108148380D01*
X143859285Y-126547619D02*
X143906904Y-126500000D01*
X144002142Y-126452380D01*
X144240238Y-126452380D01*
X144335476Y-126500000D01*
X144383095Y-126547619D01*
X144430714Y-126642857D01*
X144430714Y-126738095D01*
X144383095Y-126880952D01*
X143811666Y-127452380D01*
X144430714Y-127452380D01*
X144097380Y-121372380D02*
X144192619Y-121372380D01*
X144287857Y-121420000D01*
X144335476Y-121467619D01*
X144383095Y-121562857D01*
X144430714Y-121753333D01*
X144430714Y-121991428D01*
X144383095Y-122181904D01*
X144335476Y-122277142D01*
X144287857Y-122324761D01*
X144192619Y-122372380D01*
X144097380Y-122372380D01*
X144002142Y-122324761D01*
X143954523Y-122277142D01*
X143906904Y-122181904D01*
X143859285Y-121991428D01*
X143859285Y-121753333D01*
X143906904Y-121562857D01*
X143954523Y-121467619D01*
X144002142Y-121420000D01*
X144097380Y-121372380D01*
X146502380Y-126936190D02*
X145502380Y-126936190D01*
X145502380Y-126555238D01*
X145550000Y-126460000D01*
X145597619Y-126412380D01*
X145692857Y-126364761D01*
X145835714Y-126364761D01*
X145930952Y-126412380D01*
X145978571Y-126460000D01*
X146026190Y-126555238D01*
X146026190Y-126936190D01*
X145502380Y-125745714D02*
X145502380Y-125555238D01*
X145550000Y-125460000D01*
X145645238Y-125364761D01*
X145835714Y-125317142D01*
X146169047Y-125317142D01*
X146359523Y-125364761D01*
X146454761Y-125460000D01*
X146502380Y-125555238D01*
X146502380Y-125745714D01*
X146454761Y-125840952D01*
X146359523Y-125936190D01*
X146169047Y-125983809D01*
X145835714Y-125983809D01*
X145645238Y-125936190D01*
X145550000Y-125840952D01*
X145502380Y-125745714D01*
X146502380Y-124317142D02*
X146026190Y-124650476D01*
X146502380Y-124888571D02*
X145502380Y-124888571D01*
X145502380Y-124507619D01*
X145550000Y-124412380D01*
X145597619Y-124364761D01*
X145692857Y-124317142D01*
X145835714Y-124317142D01*
X145930952Y-124364761D01*
X145978571Y-124412380D01*
X146026190Y-124507619D01*
X146026190Y-124888571D01*
X145502380Y-124031428D02*
X145502380Y-123460000D01*
X146502380Y-123745714D02*
X145502380Y-123745714D01*
X146216666Y-122412380D02*
X146216666Y-121936190D01*
X146502380Y-122507619D02*
X145502380Y-122174285D01*
X146502380Y-121840952D01*
X148393333Y-101326904D02*
X148393333Y-100526904D01*
X148698095Y-100526904D01*
X148774285Y-100565000D01*
X148812380Y-100603095D01*
X148850476Y-100679285D01*
X148850476Y-100793571D01*
X148812380Y-100869761D01*
X148774285Y-100907857D01*
X148698095Y-100945952D01*
X148393333Y-100945952D01*
X149193333Y-101326904D02*
X149193333Y-100526904D01*
X149498095Y-100526904D01*
X149574285Y-100565000D01*
X149612380Y-100603095D01*
X149650476Y-100679285D01*
X149650476Y-100793571D01*
X149612380Y-100869761D01*
X149574285Y-100907857D01*
X149498095Y-100945952D01*
X149193333Y-100945952D01*
X149917142Y-100526904D02*
X150107619Y-101326904D01*
X150260000Y-100755476D01*
X150412380Y-101326904D01*
X150602857Y-100526904D01*
X151364761Y-101326904D02*
X151098095Y-100945952D01*
X150907619Y-101326904D02*
X150907619Y-100526904D01*
X151212380Y-100526904D01*
X151288571Y-100565000D01*
X151326666Y-100603095D01*
X151364761Y-100679285D01*
X151364761Y-100793571D01*
X151326666Y-100869761D01*
X151288571Y-100907857D01*
X151212380Y-100945952D01*
X150907619Y-100945952D01*
X141493904Y-107862666D02*
X141970095Y-107862666D01*
X141398666Y-108148380D02*
X141732000Y-107148380D01*
X142065333Y-108148380D01*
X147621666Y-126452380D02*
X148240714Y-126452380D01*
X147907380Y-126833333D01*
X148050238Y-126833333D01*
X148145476Y-126880952D01*
X148193095Y-126928571D01*
X148240714Y-127023809D01*
X148240714Y-127261904D01*
X148193095Y-127357142D01*
X148145476Y-127404761D01*
X148050238Y-127452380D01*
X147764523Y-127452380D01*
X147669285Y-127404761D01*
X147621666Y-127357142D01*
X148145476Y-123912380D02*
X147955000Y-123912380D01*
X147859761Y-123960000D01*
X147812142Y-124007619D01*
X147716904Y-124150476D01*
X147669285Y-124340952D01*
X147669285Y-124721904D01*
X147716904Y-124817142D01*
X147764523Y-124864761D01*
X147859761Y-124912380D01*
X148050238Y-124912380D01*
X148145476Y-124864761D01*
X148193095Y-124817142D01*
X148240714Y-124721904D01*
X148240714Y-124483809D01*
X148193095Y-124388571D01*
X148145476Y-124340952D01*
X148050238Y-124293333D01*
X147859761Y-124293333D01*
X147764523Y-124340952D01*
X147716904Y-124388571D01*
X147669285Y-124483809D01*
X144264095Y-108148380D02*
X144264095Y-107148380D01*
X144502190Y-107148380D01*
X144645047Y-107196000D01*
X144740285Y-107291238D01*
X144787904Y-107386476D01*
X144835523Y-107576952D01*
X144835523Y-107719809D01*
X144787904Y-107910285D01*
X144740285Y-108005523D01*
X144645047Y-108100761D01*
X144502190Y-108148380D01*
X144264095Y-108148380D01*
D11*
%TO.C,C3*%
X142302620Y-109730000D02*
X142583780Y-109730000D01*
X142302620Y-108710000D02*
X142583780Y-108710000D01*
D10*
%TO.C,U1*%
X147318600Y-97080100D02*
X147093600Y-97080100D01*
X147318600Y-100430100D02*
X147018600Y-100430100D01*
X147093600Y-97080100D02*
X147093600Y-95855100D01*
X143968600Y-97080100D02*
X143968600Y-100430100D01*
X147318600Y-97080100D02*
X147318600Y-100430100D01*
X143968600Y-97080100D02*
X144268600Y-97080100D01*
X143968600Y-100430100D02*
X144268600Y-100430100D01*
D11*
%TO.C,R3*%
X141301200Y-94818859D02*
X141301200Y-95126141D01*
X142061200Y-94818859D02*
X142061200Y-95126141D01*
%TO.C,JP5*%
X150860000Y-104122000D02*
X150860000Y-106922000D01*
X150860000Y-106922000D02*
X148860000Y-106922000D01*
X148860000Y-106922000D02*
X148860000Y-104122000D01*
X148860000Y-104122000D02*
X150860000Y-104122000D01*
%TO.C,R7*%
X141322359Y-99312900D02*
X141629641Y-99312900D01*
X141322359Y-98552900D02*
X141629641Y-98552900D01*
%TO.C,R1*%
X147397200Y-94641541D02*
X147397200Y-94334259D01*
X148157200Y-94641541D02*
X148157200Y-94334259D01*
%TO.C,JP1*%
X151310800Y-103489000D02*
X148510800Y-103489000D01*
X148510800Y-103489000D02*
X148510800Y-101489000D01*
X151310800Y-101489000D02*
X151310800Y-103489000D01*
X148510800Y-101489000D02*
X151310800Y-101489000D01*
%TO.C,JP3*%
X148193000Y-106922000D02*
X146193000Y-106922000D01*
X146193000Y-104122000D02*
X148193000Y-104122000D01*
X148193000Y-104122000D02*
X148193000Y-106922000D01*
X146193000Y-106922000D02*
X146193000Y-104122000D01*
%TO.C,D1*%
X140743000Y-101308000D02*
X140743000Y-103593000D01*
X142213000Y-103593000D02*
X142213000Y-101308000D01*
X140743000Y-103593000D02*
X142213000Y-103593000D01*
%TO.C,C2*%
X147876800Y-99073480D02*
X147876800Y-98792320D01*
X148896800Y-99073480D02*
X148896800Y-98792320D01*
%TO.C,R6*%
X141629641Y-100379700D02*
X141322359Y-100379700D01*
X141629641Y-99619700D02*
X141322359Y-99619700D01*
%TO.C,R2*%
X144626600Y-94643541D02*
X144626600Y-94336259D01*
X143866600Y-94643541D02*
X143866600Y-94336259D01*
%TO.C,R5*%
X142723600Y-94336259D02*
X142723600Y-94643541D01*
X143483600Y-94336259D02*
X143483600Y-94643541D01*
%TO.C,C4*%
X149807200Y-98565480D02*
X149807200Y-98284320D01*
X150827200Y-98565480D02*
X150827200Y-98284320D01*
%TO.C,JP2*%
X143526000Y-104122000D02*
X145526000Y-104122000D01*
X145526000Y-104122000D02*
X145526000Y-106922000D01*
X145526000Y-106922000D02*
X143526000Y-106922000D01*
X143526000Y-106922000D02*
X143526000Y-104122000D01*
%TO.C,JP4*%
X140859000Y-106922000D02*
X140859000Y-104122000D01*
X140859000Y-104122000D02*
X142859000Y-104122000D01*
X142859000Y-106922000D02*
X140859000Y-106922000D01*
X142859000Y-104122000D02*
X142859000Y-106922000D01*
%TO.C,U2*%
X144145000Y-110343000D02*
X146095000Y-110343000D01*
X144145000Y-115463000D02*
X146095000Y-115463000D01*
X144145000Y-115463000D02*
X142195000Y-115463000D01*
X144145000Y-110343000D02*
X140695000Y-110343000D01*
%TO.C,C1*%
X150827200Y-95378080D02*
X150827200Y-95096920D01*
X149807200Y-95378080D02*
X149807200Y-95096920D01*
%TO.C,R8*%
X147065241Y-109828600D02*
X146757959Y-109828600D01*
X147065241Y-109068600D02*
X146757959Y-109068600D01*
%TO.C,R4*%
X142723600Y-96419059D02*
X142723600Y-96726341D01*
X143483600Y-96419059D02*
X143483600Y-96726341D01*
%TO.C,TP1*%
X140803400Y-97931200D02*
X140803400Y-96531200D01*
X140803400Y-96531200D02*
X142203400Y-96531200D01*
X142203400Y-97931200D02*
X140803400Y-97931200D01*
X142203400Y-96531200D02*
X142203400Y-97931200D01*
%TD*%
M02*
